M48
; DRILL file {KiCad (5.1.4-0)} date Tuesday, November 23, 2021 at 03:15:15 PM
; FORMAT={-:-/ absolute / metric / decimal}
; #@! TF.CreationDate,2021-11-23T15:15:15+03:00
; #@! TF.GenerationSoftware,Kicad,Pcbnew,(5.1.4-0)
; #@! TF.FileFunction,Plated,1,2,PTH
FMAT,2
METRIC
T1C0.200
T2C0.400
T3C0.500
T4C0.900
T5C1.000
%
G90
G05
T1
X91.135Y-82.873
X91.135Y-84.052
X92.315Y-82.873
X92.315Y-84.052
T2
X87.1Y-86.1
X88.4Y-79.95
X89.95Y-89.7
X90.45Y-86.0
X91.5Y-89.75
X91.65Y-98.8
X91.85Y-91.9
X92.2Y-99.7
X92.827Y-94.437
X93.0Y-80.55
X93.1Y-89.75
X93.3Y-95.35
X93.45Y-102.95
X94.75Y-87.4
X94.8Y-80.0
X94.8Y-95.5
X95.9Y-83.0
X96.219Y-102.781
X97.787Y-95.513
X98.45Y-93.15
X98.75Y-88.1
X99.0Y-102.7
X99.1Y-98.65
X99.2Y-90.0
X99.2Y-97.6
X99.4Y-96.0
X100.1Y-90.75
X101.1Y-91.3
X101.825Y-95.9
X102.3Y-105.55
X103.05Y-88.15
X103.45Y-98.8
X104.25Y-102.725
X104.8Y-84.625
X104.8Y-99.55
X105.5Y-82.725
X105.55Y-95.75
X105.8Y-99.85
X105.95Y-101.05
X106.3Y-91.5
X106.35Y-92.65
X106.75Y-95.7
X107.1Y-85.4
X107.1Y-86.85
X108.15Y-80.95
X109.15Y-95.5
X110.0Y-84.2
X110.5Y-94.65
X113.45Y-108.6
X114.0Y-104.175
X114.3Y-102.5
X114.553Y-105.425
X115.55Y-110.0
X115.85Y-88.25
X115.85Y-91.848
X117.45Y-101.25
X117.65Y-88.3
X117.65Y-92.05
X118.304Y-103.431
X118.837Y-112.55
X119.2Y-96.6
X119.298Y-103.537
X119.6Y-94.95
X120.2Y-108.55
X120.7Y-96.6
X120.874Y-86.381
X120.971Y-87.377
X121.1Y-93.2
X121.2Y-88.35
X121.2Y-111.1
X121.697Y-96.525
X122.9Y-101.45
X124.25Y-101.6
X125.5Y-101.65
X126.85Y-85.05
X128.052Y-85.646
X129.275Y-109.075
X130.65Y-86.05
X131.85Y-101.55
X132.9Y-98.65
X133.25Y-106.65
X133.643Y-99.375
X134.35Y-100.1
X137.95Y-109.25
X140.9Y-87.3
X142.7Y-105.7
X146.25Y-109.45
X150.0Y-87.25
X151.8Y-105.65
X153.176Y-98.008
X153.3Y-99.0
X153.3Y-100.0
X154.5Y-95.8
X156.35Y-108.3
X158.35Y-95.75
X160.65Y-105.7
X161.2Y-99.0
X162.35Y-98.15
X163.65Y-97.55
X164.2Y-109.4
X169.55Y-105.65
X171.3Y-99.4
X173.0Y-109.4
X87.96Y-94.1
X87.96Y-94.9
X87.96Y-95.7
X87.96Y-97.3
X87.96Y-98.1
X87.96Y-98.9
X88.66Y-93.7
X88.66Y-95.3
X88.66Y-96.1
X88.66Y-96.9
X88.66Y-97.7
X88.66Y-99.3
T4
X117.65Y-106.45
X120.19Y-106.45
X124.71Y-106.45
X127.25Y-106.45
X103.96Y-106.45
X106.5Y-106.45
X110.8Y-106.45
X113.34Y-106.45
T5
X160.4Y-112.4
X162.9Y-112.4
X169.35Y-80.3
X171.85Y-80.3
X151.35Y-80.3
X153.85Y-80.3
X144.85Y-80.3
X106.59Y-79.15
X109.13Y-79.15
X111.67Y-79.15
X114.21Y-79.15
X116.75Y-79.15
X133.4Y-112.4
X135.9Y-112.4
X133.35Y-80.3
X135.85Y-80.3
X142.35Y-80.3
X151.4Y-112.4
X153.9Y-112.4
X160.35Y-80.3
X162.85Y-80.3
X121.27Y-80.0
X121.27Y-82.54
X123.81Y-80.0
X123.81Y-82.54
X126.35Y-80.0
X126.35Y-82.54
X99.0Y-80.5
X101.5Y-80.5
X169.4Y-112.4
X171.9Y-112.4
X142.4Y-112.4
X144.9Y-112.4
T3
G00X82.41Y-92.01
M15
G01X81.81Y-92.01
M16
G05
G00X82.41Y-100.99
M15
G01X81.81Y-100.99
M16
G05
G00X88.36Y-92.37
M15
G01X87.76Y-92.37
M16
G05
G00X88.36Y-100.63
M15
G01X87.76Y-100.63
M16
G05
T0
M30
