G04 #@! TF.GenerationSoftware,KiCad,Pcbnew,(5.1.4-0)*
G04 #@! TF.CreationDate,2021-11-23T15:15:17+03:00*
G04 #@! TF.ProjectId,exercise_drop_tubes,65786572-6369-4736-955f-64726f705f74,rev?*
G04 #@! TF.SameCoordinates,Original*
G04 #@! TF.FileFunction,Soldermask,Bot*
G04 #@! TF.FilePolarity,Negative*
%FSLAX46Y46*%
G04 Gerber Fmt 4.6, Leading zero omitted, Abs format (unit mm)*
G04 Created by KiCad (PCBNEW (5.1.4-0)) date 2021-11-23 15:15:17*
%MOMM*%
%LPD*%
G04 APERTURE LIST*
%ADD10C,0.100000*%
G04 APERTURE END LIST*
D10*
G36*
X178875256Y-112391298D02*
G01*
X178981579Y-112412447D01*
X179282042Y-112536903D01*
X179552451Y-112717585D01*
X179782415Y-112947549D01*
X179963097Y-113217958D01*
X180087553Y-113518421D01*
X180151000Y-113837391D01*
X180151000Y-114162609D01*
X180087553Y-114481579D01*
X179963097Y-114782042D01*
X179782415Y-115052451D01*
X179552451Y-115282415D01*
X179282042Y-115463097D01*
X178981579Y-115587553D01*
X178875256Y-115608702D01*
X178662611Y-115651000D01*
X178337389Y-115651000D01*
X178124744Y-115608702D01*
X178018421Y-115587553D01*
X177717958Y-115463097D01*
X177447549Y-115282415D01*
X177217585Y-115052451D01*
X177036903Y-114782042D01*
X176912447Y-114481579D01*
X176849000Y-114162609D01*
X176849000Y-113837391D01*
X176912447Y-113518421D01*
X177036903Y-113217958D01*
X177217585Y-112947549D01*
X177447549Y-112717585D01*
X177717958Y-112536903D01*
X178018421Y-112412447D01*
X178124744Y-112391298D01*
X178337389Y-112349000D01*
X178662611Y-112349000D01*
X178875256Y-112391298D01*
X178875256Y-112391298D01*
G37*
G36*
X83875256Y-112391298D02*
G01*
X83981579Y-112412447D01*
X84282042Y-112536903D01*
X84552451Y-112717585D01*
X84782415Y-112947549D01*
X84963097Y-113217958D01*
X85087553Y-113518421D01*
X85151000Y-113837391D01*
X85151000Y-114162609D01*
X85087553Y-114481579D01*
X84963097Y-114782042D01*
X84782415Y-115052451D01*
X84552451Y-115282415D01*
X84282042Y-115463097D01*
X83981579Y-115587553D01*
X83875256Y-115608702D01*
X83662611Y-115651000D01*
X83337389Y-115651000D01*
X83124744Y-115608702D01*
X83018421Y-115587553D01*
X82717958Y-115463097D01*
X82447549Y-115282415D01*
X82217585Y-115052451D01*
X82036903Y-114782042D01*
X81912447Y-114481579D01*
X81849000Y-114162609D01*
X81849000Y-113837391D01*
X81912447Y-113518421D01*
X82036903Y-113217958D01*
X82217585Y-112947549D01*
X82447549Y-112717585D01*
X82717958Y-112536903D01*
X83018421Y-112412447D01*
X83124744Y-112391298D01*
X83337389Y-112349000D01*
X83662611Y-112349000D01*
X83875256Y-112391298D01*
X83875256Y-112391298D01*
G37*
G36*
X136076626Y-111362037D02*
G01*
X136246465Y-111413557D01*
X136246467Y-111413558D01*
X136402989Y-111497221D01*
X136540186Y-111609814D01*
X136623448Y-111711271D01*
X136652778Y-111747009D01*
X136736443Y-111903534D01*
X136787963Y-112073373D01*
X136801000Y-112205742D01*
X136801000Y-112594257D01*
X136787963Y-112726626D01*
X136736443Y-112896466D01*
X136652778Y-113052991D01*
X136623448Y-113088729D01*
X136540186Y-113190186D01*
X136445250Y-113268097D01*
X136402991Y-113302778D01*
X136246466Y-113386443D01*
X136076627Y-113437963D01*
X135900000Y-113455359D01*
X135723374Y-113437963D01*
X135553535Y-113386443D01*
X135397010Y-113302778D01*
X135259815Y-113190185D01*
X135147222Y-113052991D01*
X135063557Y-112896466D01*
X135012037Y-112726627D01*
X134999000Y-112594258D01*
X134999000Y-112205743D01*
X135012037Y-112073374D01*
X135063557Y-111903535D01*
X135147222Y-111747010D01*
X135147223Y-111747009D01*
X135259814Y-111609814D01*
X135361271Y-111526552D01*
X135397009Y-111497222D01*
X135553534Y-111413557D01*
X135723373Y-111362037D01*
X135900000Y-111344641D01*
X136076626Y-111362037D01*
X136076626Y-111362037D01*
G37*
G36*
X145076626Y-111362037D02*
G01*
X145246465Y-111413557D01*
X145246467Y-111413558D01*
X145402989Y-111497221D01*
X145540186Y-111609814D01*
X145623448Y-111711271D01*
X145652778Y-111747009D01*
X145736443Y-111903534D01*
X145787963Y-112073373D01*
X145801000Y-112205742D01*
X145801000Y-112594257D01*
X145787963Y-112726626D01*
X145736443Y-112896466D01*
X145652778Y-113052991D01*
X145623448Y-113088729D01*
X145540186Y-113190186D01*
X145445250Y-113268097D01*
X145402991Y-113302778D01*
X145246466Y-113386443D01*
X145076627Y-113437963D01*
X144900000Y-113455359D01*
X144723374Y-113437963D01*
X144553535Y-113386443D01*
X144397010Y-113302778D01*
X144259815Y-113190185D01*
X144147222Y-113052991D01*
X144063557Y-112896466D01*
X144012037Y-112726627D01*
X143999000Y-112594258D01*
X143999000Y-112205743D01*
X144012037Y-112073374D01*
X144063557Y-111903535D01*
X144147222Y-111747010D01*
X144147223Y-111747009D01*
X144259814Y-111609814D01*
X144361271Y-111526552D01*
X144397009Y-111497222D01*
X144553534Y-111413557D01*
X144723373Y-111362037D01*
X144900000Y-111344641D01*
X145076626Y-111362037D01*
X145076626Y-111362037D01*
G37*
G36*
X154076626Y-111362037D02*
G01*
X154246465Y-111413557D01*
X154246467Y-111413558D01*
X154402989Y-111497221D01*
X154540186Y-111609814D01*
X154623448Y-111711271D01*
X154652778Y-111747009D01*
X154736443Y-111903534D01*
X154787963Y-112073373D01*
X154801000Y-112205742D01*
X154801000Y-112594257D01*
X154787963Y-112726626D01*
X154736443Y-112896466D01*
X154652778Y-113052991D01*
X154623448Y-113088729D01*
X154540186Y-113190186D01*
X154445250Y-113268097D01*
X154402991Y-113302778D01*
X154246466Y-113386443D01*
X154076627Y-113437963D01*
X153900000Y-113455359D01*
X153723374Y-113437963D01*
X153553535Y-113386443D01*
X153397010Y-113302778D01*
X153259815Y-113190185D01*
X153147222Y-113052991D01*
X153063557Y-112896466D01*
X153012037Y-112726627D01*
X152999000Y-112594258D01*
X152999000Y-112205743D01*
X153012037Y-112073374D01*
X153063557Y-111903535D01*
X153147222Y-111747010D01*
X153147223Y-111747009D01*
X153259814Y-111609814D01*
X153361271Y-111526552D01*
X153397009Y-111497222D01*
X153553534Y-111413557D01*
X153723373Y-111362037D01*
X153900000Y-111344641D01*
X154076626Y-111362037D01*
X154076626Y-111362037D01*
G37*
G36*
X163076626Y-111362037D02*
G01*
X163246465Y-111413557D01*
X163246467Y-111413558D01*
X163402989Y-111497221D01*
X163540186Y-111609814D01*
X163623448Y-111711271D01*
X163652778Y-111747009D01*
X163736443Y-111903534D01*
X163787963Y-112073373D01*
X163801000Y-112205742D01*
X163801000Y-112594257D01*
X163787963Y-112726626D01*
X163736443Y-112896466D01*
X163652778Y-113052991D01*
X163623448Y-113088729D01*
X163540186Y-113190186D01*
X163445250Y-113268097D01*
X163402991Y-113302778D01*
X163246466Y-113386443D01*
X163076627Y-113437963D01*
X162900000Y-113455359D01*
X162723374Y-113437963D01*
X162553535Y-113386443D01*
X162397010Y-113302778D01*
X162259815Y-113190185D01*
X162147222Y-113052991D01*
X162063557Y-112896466D01*
X162012037Y-112726627D01*
X161999000Y-112594258D01*
X161999000Y-112205743D01*
X162012037Y-112073374D01*
X162063557Y-111903535D01*
X162147222Y-111747010D01*
X162147223Y-111747009D01*
X162259814Y-111609814D01*
X162361271Y-111526552D01*
X162397009Y-111497222D01*
X162553534Y-111413557D01*
X162723373Y-111362037D01*
X162900000Y-111344641D01*
X163076626Y-111362037D01*
X163076626Y-111362037D01*
G37*
G36*
X172076626Y-111362037D02*
G01*
X172246465Y-111413557D01*
X172246467Y-111413558D01*
X172402989Y-111497221D01*
X172540186Y-111609814D01*
X172623448Y-111711271D01*
X172652778Y-111747009D01*
X172736443Y-111903534D01*
X172787963Y-112073373D01*
X172801000Y-112205742D01*
X172801000Y-112594257D01*
X172787963Y-112726626D01*
X172736443Y-112896466D01*
X172652778Y-113052991D01*
X172623448Y-113088729D01*
X172540186Y-113190186D01*
X172445250Y-113268097D01*
X172402991Y-113302778D01*
X172246466Y-113386443D01*
X172076627Y-113437963D01*
X171900000Y-113455359D01*
X171723374Y-113437963D01*
X171553535Y-113386443D01*
X171397010Y-113302778D01*
X171259815Y-113190185D01*
X171147222Y-113052991D01*
X171063557Y-112896466D01*
X171012037Y-112726627D01*
X170999000Y-112594258D01*
X170999000Y-112205743D01*
X171012037Y-112073374D01*
X171063557Y-111903535D01*
X171147222Y-111747010D01*
X171147223Y-111747009D01*
X171259814Y-111609814D01*
X171361271Y-111526552D01*
X171397009Y-111497222D01*
X171553534Y-111413557D01*
X171723373Y-111362037D01*
X171900000Y-111344641D01*
X172076626Y-111362037D01*
X172076626Y-111362037D01*
G37*
G36*
X170158600Y-111352989D02*
G01*
X170191652Y-111363015D01*
X170222103Y-111379292D01*
X170248799Y-111401201D01*
X170270708Y-111427897D01*
X170286985Y-111458348D01*
X170297011Y-111491400D01*
X170301000Y-111531903D01*
X170301000Y-113268097D01*
X170297011Y-113308600D01*
X170286985Y-113341652D01*
X170270708Y-113372103D01*
X170248799Y-113398799D01*
X170222103Y-113420708D01*
X170191652Y-113436985D01*
X170158600Y-113447011D01*
X170118097Y-113451000D01*
X168681903Y-113451000D01*
X168641400Y-113447011D01*
X168608348Y-113436985D01*
X168577897Y-113420708D01*
X168551201Y-113398799D01*
X168529292Y-113372103D01*
X168513015Y-113341652D01*
X168502989Y-113308600D01*
X168499000Y-113268097D01*
X168499000Y-111531903D01*
X168502989Y-111491400D01*
X168513015Y-111458348D01*
X168529292Y-111427897D01*
X168551201Y-111401201D01*
X168577897Y-111379292D01*
X168608348Y-111363015D01*
X168641400Y-111352989D01*
X168681903Y-111349000D01*
X170118097Y-111349000D01*
X170158600Y-111352989D01*
X170158600Y-111352989D01*
G37*
G36*
X152158600Y-111352989D02*
G01*
X152191652Y-111363015D01*
X152222103Y-111379292D01*
X152248799Y-111401201D01*
X152270708Y-111427897D01*
X152286985Y-111458348D01*
X152297011Y-111491400D01*
X152301000Y-111531903D01*
X152301000Y-113268097D01*
X152297011Y-113308600D01*
X152286985Y-113341652D01*
X152270708Y-113372103D01*
X152248799Y-113398799D01*
X152222103Y-113420708D01*
X152191652Y-113436985D01*
X152158600Y-113447011D01*
X152118097Y-113451000D01*
X150681903Y-113451000D01*
X150641400Y-113447011D01*
X150608348Y-113436985D01*
X150577897Y-113420708D01*
X150551201Y-113398799D01*
X150529292Y-113372103D01*
X150513015Y-113341652D01*
X150502989Y-113308600D01*
X150499000Y-113268097D01*
X150499000Y-111531903D01*
X150502989Y-111491400D01*
X150513015Y-111458348D01*
X150529292Y-111427897D01*
X150551201Y-111401201D01*
X150577897Y-111379292D01*
X150608348Y-111363015D01*
X150641400Y-111352989D01*
X150681903Y-111349000D01*
X152118097Y-111349000D01*
X152158600Y-111352989D01*
X152158600Y-111352989D01*
G37*
G36*
X161158600Y-111352989D02*
G01*
X161191652Y-111363015D01*
X161222103Y-111379292D01*
X161248799Y-111401201D01*
X161270708Y-111427897D01*
X161286985Y-111458348D01*
X161297011Y-111491400D01*
X161301000Y-111531903D01*
X161301000Y-113268097D01*
X161297011Y-113308600D01*
X161286985Y-113341652D01*
X161270708Y-113372103D01*
X161248799Y-113398799D01*
X161222103Y-113420708D01*
X161191652Y-113436985D01*
X161158600Y-113447011D01*
X161118097Y-113451000D01*
X159681903Y-113451000D01*
X159641400Y-113447011D01*
X159608348Y-113436985D01*
X159577897Y-113420708D01*
X159551201Y-113398799D01*
X159529292Y-113372103D01*
X159513015Y-113341652D01*
X159502989Y-113308600D01*
X159499000Y-113268097D01*
X159499000Y-111531903D01*
X159502989Y-111491400D01*
X159513015Y-111458348D01*
X159529292Y-111427897D01*
X159551201Y-111401201D01*
X159577897Y-111379292D01*
X159608348Y-111363015D01*
X159641400Y-111352989D01*
X159681903Y-111349000D01*
X161118097Y-111349000D01*
X161158600Y-111352989D01*
X161158600Y-111352989D01*
G37*
G36*
X134158600Y-111352989D02*
G01*
X134191652Y-111363015D01*
X134222103Y-111379292D01*
X134248799Y-111401201D01*
X134270708Y-111427897D01*
X134286985Y-111458348D01*
X134297011Y-111491400D01*
X134301000Y-111531903D01*
X134301000Y-113268097D01*
X134297011Y-113308600D01*
X134286985Y-113341652D01*
X134270708Y-113372103D01*
X134248799Y-113398799D01*
X134222103Y-113420708D01*
X134191652Y-113436985D01*
X134158600Y-113447011D01*
X134118097Y-113451000D01*
X132681903Y-113451000D01*
X132641400Y-113447011D01*
X132608348Y-113436985D01*
X132577897Y-113420708D01*
X132551201Y-113398799D01*
X132529292Y-113372103D01*
X132513015Y-113341652D01*
X132502989Y-113308600D01*
X132499000Y-113268097D01*
X132499000Y-111531903D01*
X132502989Y-111491400D01*
X132513015Y-111458348D01*
X132529292Y-111427897D01*
X132551201Y-111401201D01*
X132577897Y-111379292D01*
X132608348Y-111363015D01*
X132641400Y-111352989D01*
X132681903Y-111349000D01*
X134118097Y-111349000D01*
X134158600Y-111352989D01*
X134158600Y-111352989D01*
G37*
G36*
X143158600Y-111352989D02*
G01*
X143191652Y-111363015D01*
X143222103Y-111379292D01*
X143248799Y-111401201D01*
X143270708Y-111427897D01*
X143286985Y-111458348D01*
X143297011Y-111491400D01*
X143301000Y-111531903D01*
X143301000Y-113268097D01*
X143297011Y-113308600D01*
X143286985Y-113341652D01*
X143270708Y-113372103D01*
X143248799Y-113398799D01*
X143222103Y-113420708D01*
X143191652Y-113436985D01*
X143158600Y-113447011D01*
X143118097Y-113451000D01*
X141681903Y-113451000D01*
X141641400Y-113447011D01*
X141608348Y-113436985D01*
X141577897Y-113420708D01*
X141551201Y-113398799D01*
X141529292Y-113372103D01*
X141513015Y-113341652D01*
X141502989Y-113308600D01*
X141499000Y-113268097D01*
X141499000Y-111531903D01*
X141502989Y-111491400D01*
X141513015Y-111458348D01*
X141529292Y-111427897D01*
X141551201Y-111401201D01*
X141577897Y-111379292D01*
X141608348Y-111363015D01*
X141641400Y-111352989D01*
X141681903Y-111349000D01*
X143118097Y-111349000D01*
X143158600Y-111352989D01*
X143158600Y-111352989D01*
G37*
G36*
X118601000Y-107401000D02*
G01*
X116699000Y-107401000D01*
X116699000Y-105499000D01*
X118601000Y-105499000D01*
X118601000Y-107401000D01*
X118601000Y-107401000D01*
G37*
G36*
X128201000Y-107401000D02*
G01*
X126299000Y-107401000D01*
X126299000Y-105499000D01*
X128201000Y-105499000D01*
X128201000Y-107401000D01*
X128201000Y-107401000D01*
G37*
G36*
X113617395Y-105535546D02*
G01*
X113790466Y-105607234D01*
X113790467Y-105607235D01*
X113946227Y-105711310D01*
X114078690Y-105843773D01*
X114078691Y-105843775D01*
X114182766Y-105999534D01*
X114254454Y-106172605D01*
X114291000Y-106356333D01*
X114291000Y-106543667D01*
X114254454Y-106727395D01*
X114182766Y-106900466D01*
X114182765Y-106900467D01*
X114078690Y-107056227D01*
X113946227Y-107188690D01*
X113867818Y-107241081D01*
X113790466Y-107292766D01*
X113617395Y-107364454D01*
X113433667Y-107401000D01*
X113246333Y-107401000D01*
X113062605Y-107364454D01*
X112889534Y-107292766D01*
X112812182Y-107241081D01*
X112733773Y-107188690D01*
X112601310Y-107056227D01*
X112497235Y-106900467D01*
X112497234Y-106900466D01*
X112425546Y-106727395D01*
X112389000Y-106543667D01*
X112389000Y-106356333D01*
X112425546Y-106172605D01*
X112497234Y-105999534D01*
X112601309Y-105843775D01*
X112601310Y-105843773D01*
X112733773Y-105711310D01*
X112889533Y-105607235D01*
X112889534Y-105607234D01*
X113062605Y-105535546D01*
X113246333Y-105499000D01*
X113433667Y-105499000D01*
X113617395Y-105535546D01*
X113617395Y-105535546D01*
G37*
G36*
X111751000Y-107401000D02*
G01*
X109849000Y-107401000D01*
X109849000Y-105499000D01*
X111751000Y-105499000D01*
X111751000Y-107401000D01*
X111751000Y-107401000D01*
G37*
G36*
X106777395Y-105535546D02*
G01*
X106950466Y-105607234D01*
X106950467Y-105607235D01*
X107106227Y-105711310D01*
X107238690Y-105843773D01*
X107238691Y-105843775D01*
X107342766Y-105999534D01*
X107414454Y-106172605D01*
X107451000Y-106356333D01*
X107451000Y-106543667D01*
X107414454Y-106727395D01*
X107342766Y-106900466D01*
X107342765Y-106900467D01*
X107238690Y-107056227D01*
X107106227Y-107188690D01*
X107027818Y-107241081D01*
X106950466Y-107292766D01*
X106777395Y-107364454D01*
X106593667Y-107401000D01*
X106406333Y-107401000D01*
X106222605Y-107364454D01*
X106049534Y-107292766D01*
X105972182Y-107241081D01*
X105893773Y-107188690D01*
X105761310Y-107056227D01*
X105657235Y-106900467D01*
X105657234Y-106900466D01*
X105585546Y-106727395D01*
X105549000Y-106543667D01*
X105549000Y-106356333D01*
X105585546Y-106172605D01*
X105657234Y-105999534D01*
X105761309Y-105843775D01*
X105761310Y-105843773D01*
X105893773Y-105711310D01*
X106049533Y-105607235D01*
X106049534Y-105607234D01*
X106222605Y-105535546D01*
X106406333Y-105499000D01*
X106593667Y-105499000D01*
X106777395Y-105535546D01*
X106777395Y-105535546D01*
G37*
G36*
X104911000Y-107401000D02*
G01*
X103009000Y-107401000D01*
X103009000Y-105499000D01*
X104911000Y-105499000D01*
X104911000Y-107401000D01*
X104911000Y-107401000D01*
G37*
G36*
X124987395Y-105535546D02*
G01*
X125160466Y-105607234D01*
X125160467Y-105607235D01*
X125316227Y-105711310D01*
X125448690Y-105843773D01*
X125448691Y-105843775D01*
X125552766Y-105999534D01*
X125624454Y-106172605D01*
X125661000Y-106356333D01*
X125661000Y-106543667D01*
X125624454Y-106727395D01*
X125552766Y-106900466D01*
X125552765Y-106900467D01*
X125448690Y-107056227D01*
X125316227Y-107188690D01*
X125237818Y-107241081D01*
X125160466Y-107292766D01*
X124987395Y-107364454D01*
X124803667Y-107401000D01*
X124616333Y-107401000D01*
X124432605Y-107364454D01*
X124259534Y-107292766D01*
X124182182Y-107241081D01*
X124103773Y-107188690D01*
X123971310Y-107056227D01*
X123867235Y-106900467D01*
X123867234Y-106900466D01*
X123795546Y-106727395D01*
X123759000Y-106543667D01*
X123759000Y-106356333D01*
X123795546Y-106172605D01*
X123867234Y-105999534D01*
X123971309Y-105843775D01*
X123971310Y-105843773D01*
X124103773Y-105711310D01*
X124259533Y-105607235D01*
X124259534Y-105607234D01*
X124432605Y-105535546D01*
X124616333Y-105499000D01*
X124803667Y-105499000D01*
X124987395Y-105535546D01*
X124987395Y-105535546D01*
G37*
G36*
X120467395Y-105535546D02*
G01*
X120640466Y-105607234D01*
X120640467Y-105607235D01*
X120796227Y-105711310D01*
X120928690Y-105843773D01*
X120928691Y-105843775D01*
X121032766Y-105999534D01*
X121104454Y-106172605D01*
X121141000Y-106356333D01*
X121141000Y-106543667D01*
X121104454Y-106727395D01*
X121032766Y-106900466D01*
X121032765Y-106900467D01*
X120928690Y-107056227D01*
X120796227Y-107188690D01*
X120717818Y-107241081D01*
X120640466Y-107292766D01*
X120467395Y-107364454D01*
X120283667Y-107401000D01*
X120096333Y-107401000D01*
X119912605Y-107364454D01*
X119739534Y-107292766D01*
X119662182Y-107241081D01*
X119583773Y-107188690D01*
X119451310Y-107056227D01*
X119347235Y-106900467D01*
X119347234Y-106900466D01*
X119275546Y-106727395D01*
X119239000Y-106543667D01*
X119239000Y-106356333D01*
X119275546Y-106172605D01*
X119347234Y-105999534D01*
X119451309Y-105843775D01*
X119451310Y-105843773D01*
X119583773Y-105711310D01*
X119739533Y-105607235D01*
X119739534Y-105607234D01*
X119912605Y-105535546D01*
X120096333Y-105499000D01*
X120283667Y-105499000D01*
X120467395Y-105535546D01*
X120467395Y-105535546D01*
G37*
G36*
X82498410Y-100545525D02*
G01*
X82583426Y-100571314D01*
X82661775Y-100613193D01*
X82730449Y-100669551D01*
X82786807Y-100738225D01*
X82828686Y-100816574D01*
X82854475Y-100901590D01*
X82863182Y-100990000D01*
X82854475Y-101078410D01*
X82828686Y-101163426D01*
X82786807Y-101241775D01*
X82730449Y-101310449D01*
X82661775Y-101366807D01*
X82583426Y-101408686D01*
X82498410Y-101434475D01*
X82432158Y-101441000D01*
X81787842Y-101441000D01*
X81721590Y-101434475D01*
X81636574Y-101408686D01*
X81558225Y-101366807D01*
X81489551Y-101310449D01*
X81433193Y-101241775D01*
X81391314Y-101163426D01*
X81365525Y-101078410D01*
X81356818Y-100990000D01*
X81365525Y-100901590D01*
X81391314Y-100816574D01*
X81433193Y-100738225D01*
X81489551Y-100669551D01*
X81558225Y-100613193D01*
X81636574Y-100571314D01*
X81721590Y-100545525D01*
X81787842Y-100539000D01*
X82432158Y-100539000D01*
X82498410Y-100545525D01*
X82498410Y-100545525D01*
G37*
G36*
X88769672Y-93338449D02*
G01*
X88769674Y-93338450D01*
X88769675Y-93338450D01*
X88838103Y-93366793D01*
X88899686Y-93407942D01*
X88952058Y-93460314D01*
X88993207Y-93521897D01*
X89021550Y-93590325D01*
X89021551Y-93590328D01*
X89036000Y-93662966D01*
X89036000Y-93737034D01*
X89035719Y-93738449D01*
X89021550Y-93809675D01*
X88993207Y-93878103D01*
X88952058Y-93939686D01*
X88899686Y-93992058D01*
X88838103Y-94033207D01*
X88769675Y-94061550D01*
X88769674Y-94061550D01*
X88769672Y-94061551D01*
X88697034Y-94076000D01*
X88622966Y-94076000D01*
X88550326Y-94061551D01*
X88506904Y-94043565D01*
X88483455Y-94036452D01*
X88459069Y-94034050D01*
X88434683Y-94036452D01*
X88411234Y-94043565D01*
X88389624Y-94055116D01*
X88370682Y-94070661D01*
X88355136Y-94089603D01*
X88343585Y-94111214D01*
X88336472Y-94134662D01*
X88321551Y-94209673D01*
X88321550Y-94209675D01*
X88293207Y-94278103D01*
X88252058Y-94339686D01*
X88199686Y-94392058D01*
X88193679Y-94396072D01*
X88174744Y-94411612D01*
X88159199Y-94430553D01*
X88147647Y-94452164D01*
X88140534Y-94475613D01*
X88138132Y-94499999D01*
X88140534Y-94524385D01*
X88147647Y-94547834D01*
X88159197Y-94569445D01*
X88174743Y-94588387D01*
X88193679Y-94603928D01*
X88199686Y-94607942D01*
X88252058Y-94660314D01*
X88293207Y-94721897D01*
X88317399Y-94780304D01*
X88321551Y-94790327D01*
X88336472Y-94865338D01*
X88343585Y-94888786D01*
X88355136Y-94910397D01*
X88370682Y-94929339D01*
X88389624Y-94944884D01*
X88411234Y-94956435D01*
X88434683Y-94963548D01*
X88459069Y-94965950D01*
X88483456Y-94963548D01*
X88506904Y-94956435D01*
X88550326Y-94938449D01*
X88622966Y-94924000D01*
X88697034Y-94924000D01*
X88769672Y-94938449D01*
X88769674Y-94938450D01*
X88769675Y-94938450D01*
X88838103Y-94966793D01*
X88899686Y-95007942D01*
X88952058Y-95060314D01*
X88993207Y-95121897D01*
X89021550Y-95190325D01*
X89021551Y-95190328D01*
X89036000Y-95262966D01*
X89036000Y-95337034D01*
X89025785Y-95388388D01*
X89021550Y-95409675D01*
X88993207Y-95478103D01*
X88952058Y-95539686D01*
X88899686Y-95592058D01*
X88893679Y-95596072D01*
X88874744Y-95611612D01*
X88859199Y-95630553D01*
X88847647Y-95652164D01*
X88840534Y-95675613D01*
X88838132Y-95699999D01*
X88840534Y-95724385D01*
X88847647Y-95747834D01*
X88859197Y-95769445D01*
X88874743Y-95788387D01*
X88893679Y-95803928D01*
X88899686Y-95807942D01*
X88952058Y-95860314D01*
X88993207Y-95921897D01*
X89021550Y-95990325D01*
X89021551Y-95990328D01*
X89036000Y-96062966D01*
X89036000Y-96137034D01*
X89021551Y-96209672D01*
X89021550Y-96209674D01*
X89021550Y-96209675D01*
X88993207Y-96278103D01*
X88952058Y-96339686D01*
X88899686Y-96392058D01*
X88893679Y-96396072D01*
X88874744Y-96411612D01*
X88859199Y-96430553D01*
X88847647Y-96452164D01*
X88840534Y-96475613D01*
X88838132Y-96499999D01*
X88840534Y-96524385D01*
X88847647Y-96547834D01*
X88859197Y-96569445D01*
X88874743Y-96588387D01*
X88893679Y-96603928D01*
X88899686Y-96607942D01*
X88952058Y-96660314D01*
X88993207Y-96721897D01*
X89021550Y-96790325D01*
X89021551Y-96790328D01*
X89036000Y-96862966D01*
X89036000Y-96937034D01*
X89035719Y-96938449D01*
X89021550Y-97009675D01*
X88993207Y-97078103D01*
X88952058Y-97139686D01*
X88899686Y-97192058D01*
X88893679Y-97196072D01*
X88874744Y-97211612D01*
X88859199Y-97230553D01*
X88847647Y-97252164D01*
X88840534Y-97275613D01*
X88838132Y-97299999D01*
X88840534Y-97324385D01*
X88847647Y-97347834D01*
X88859197Y-97369445D01*
X88874743Y-97388387D01*
X88893679Y-97403928D01*
X88899686Y-97407942D01*
X88952058Y-97460314D01*
X88993207Y-97521897D01*
X89021550Y-97590325D01*
X89021551Y-97590328D01*
X89036000Y-97662966D01*
X89036000Y-97737034D01*
X89025785Y-97788388D01*
X89021550Y-97809675D01*
X88993207Y-97878103D01*
X88952058Y-97939686D01*
X88899686Y-97992058D01*
X88838103Y-98033207D01*
X88769675Y-98061550D01*
X88769674Y-98061550D01*
X88769672Y-98061551D01*
X88697034Y-98076000D01*
X88622966Y-98076000D01*
X88550326Y-98061551D01*
X88506904Y-98043565D01*
X88483455Y-98036452D01*
X88459069Y-98034050D01*
X88434683Y-98036452D01*
X88411234Y-98043565D01*
X88389624Y-98055116D01*
X88370682Y-98070661D01*
X88355136Y-98089603D01*
X88343585Y-98111214D01*
X88336472Y-98134662D01*
X88321551Y-98209673D01*
X88321550Y-98209675D01*
X88293207Y-98278103D01*
X88252058Y-98339686D01*
X88199686Y-98392058D01*
X88193679Y-98396072D01*
X88174744Y-98411612D01*
X88159199Y-98430553D01*
X88147647Y-98452164D01*
X88140534Y-98475613D01*
X88138132Y-98499999D01*
X88140534Y-98524385D01*
X88147647Y-98547834D01*
X88159197Y-98569445D01*
X88174743Y-98588387D01*
X88193679Y-98603928D01*
X88199686Y-98607942D01*
X88252058Y-98660314D01*
X88293207Y-98721897D01*
X88317399Y-98780304D01*
X88321551Y-98790327D01*
X88336472Y-98865338D01*
X88343585Y-98888786D01*
X88355136Y-98910397D01*
X88370682Y-98929339D01*
X88389624Y-98944884D01*
X88411234Y-98956435D01*
X88434683Y-98963548D01*
X88459069Y-98965950D01*
X88483456Y-98963548D01*
X88506904Y-98956435D01*
X88550326Y-98938449D01*
X88622966Y-98924000D01*
X88697034Y-98924000D01*
X88769672Y-98938449D01*
X88769674Y-98938450D01*
X88769675Y-98938450D01*
X88838103Y-98966793D01*
X88899686Y-99007942D01*
X88952058Y-99060314D01*
X88993207Y-99121897D01*
X89021550Y-99190325D01*
X89021551Y-99190328D01*
X89036000Y-99262966D01*
X89036000Y-99337034D01*
X89021551Y-99409674D01*
X89011405Y-99434169D01*
X89004292Y-99457618D01*
X89001890Y-99482004D01*
X89004292Y-99506390D01*
X89011405Y-99529839D01*
X89022956Y-99551450D01*
X89038501Y-99570392D01*
X89057443Y-99585937D01*
X89079054Y-99597488D01*
X89102503Y-99604601D01*
X89126889Y-99607003D01*
X89151275Y-99604601D01*
X89163175Y-99601621D01*
X89165415Y-99600941D01*
X89165416Y-99600941D01*
X89236292Y-99579441D01*
X89236293Y-99579441D01*
X89236296Y-99579440D01*
X89310000Y-99572181D01*
X89383710Y-99579440D01*
X89454585Y-99600940D01*
X89519904Y-99635854D01*
X89577159Y-99682841D01*
X89624146Y-99740096D01*
X89659058Y-99805411D01*
X89680560Y-99876294D01*
X89686000Y-99931529D01*
X89686000Y-100268472D01*
X89680560Y-100323710D01*
X89659060Y-100394585D01*
X89624146Y-100459904D01*
X89577159Y-100517159D01*
X89519906Y-100564145D01*
X89454583Y-100599060D01*
X89383709Y-100620560D01*
X89310000Y-100627819D01*
X89236290Y-100620560D01*
X89165415Y-100599060D01*
X89100096Y-100564146D01*
X89042842Y-100517159D01*
X89030645Y-100502297D01*
X89013318Y-100484970D01*
X88992944Y-100471356D01*
X88970305Y-100461979D01*
X88946272Y-100457198D01*
X88921768Y-100457198D01*
X88897735Y-100461978D01*
X88875096Y-100471355D01*
X88854721Y-100484969D01*
X88837394Y-100502296D01*
X88823780Y-100522670D01*
X88814403Y-100545309D01*
X88809622Y-100569342D01*
X88809622Y-100593846D01*
X88813182Y-100629999D01*
X88804475Y-100718410D01*
X88778686Y-100803426D01*
X88736807Y-100881775D01*
X88680449Y-100950449D01*
X88611775Y-101006807D01*
X88533426Y-101048686D01*
X88448410Y-101074475D01*
X88382158Y-101081000D01*
X87737842Y-101081000D01*
X87671590Y-101074475D01*
X87586574Y-101048686D01*
X87508225Y-101006807D01*
X87439551Y-100950449D01*
X87383193Y-100881775D01*
X87341314Y-100803426D01*
X87315525Y-100718410D01*
X87306818Y-100630000D01*
X87315525Y-100541590D01*
X87341314Y-100456574D01*
X87383193Y-100378225D01*
X87439551Y-100309551D01*
X87508225Y-100253193D01*
X87586574Y-100211314D01*
X87671590Y-100185525D01*
X87737842Y-100179000D01*
X88382158Y-100179000D01*
X88448410Y-100185525D01*
X88533426Y-100211314D01*
X88611775Y-100253193D01*
X88680449Y-100309552D01*
X88712375Y-100348454D01*
X88729702Y-100365781D01*
X88750077Y-100379395D01*
X88772715Y-100388772D01*
X88796749Y-100393553D01*
X88821253Y-100393553D01*
X88845286Y-100388773D01*
X88867925Y-100379395D01*
X88888299Y-100365782D01*
X88905626Y-100348455D01*
X88919240Y-100328080D01*
X88928617Y-100305442D01*
X88933398Y-100281408D01*
X88934000Y-100269156D01*
X88934000Y-99931528D01*
X88939440Y-99876292D01*
X88961621Y-99803175D01*
X88966402Y-99779142D01*
X88966402Y-99754638D01*
X88961622Y-99730604D01*
X88952245Y-99707965D01*
X88938632Y-99687591D01*
X88921305Y-99670263D01*
X88900931Y-99656649D01*
X88878292Y-99647272D01*
X88854259Y-99642491D01*
X88829755Y-99642491D01*
X88805721Y-99647271D01*
X88794168Y-99651405D01*
X88769674Y-99661551D01*
X88697034Y-99676000D01*
X88622966Y-99676000D01*
X88550328Y-99661551D01*
X88550326Y-99661550D01*
X88550325Y-99661550D01*
X88481897Y-99633207D01*
X88420314Y-99592058D01*
X88367942Y-99539686D01*
X88326793Y-99478103D01*
X88298450Y-99409675D01*
X88298449Y-99409673D01*
X88283528Y-99334662D01*
X88276415Y-99311214D01*
X88264864Y-99289603D01*
X88249318Y-99270661D01*
X88230376Y-99255116D01*
X88208766Y-99243565D01*
X88185317Y-99236452D01*
X88160931Y-99234050D01*
X88136544Y-99236452D01*
X88113096Y-99243565D01*
X88069674Y-99261551D01*
X87997034Y-99276000D01*
X87922966Y-99276000D01*
X87850328Y-99261551D01*
X87850326Y-99261550D01*
X87850325Y-99261550D01*
X87781897Y-99233207D01*
X87720314Y-99192058D01*
X87667942Y-99139686D01*
X87626793Y-99078103D01*
X87598450Y-99009675D01*
X87584282Y-98938449D01*
X87584000Y-98937034D01*
X87584000Y-98862966D01*
X87598449Y-98790328D01*
X87598450Y-98790325D01*
X87626793Y-98721897D01*
X87667942Y-98660314D01*
X87720314Y-98607942D01*
X87726321Y-98603928D01*
X87745256Y-98588388D01*
X87760801Y-98569447D01*
X87772353Y-98547836D01*
X87779466Y-98524387D01*
X87781868Y-98500001D01*
X87779466Y-98475615D01*
X87772353Y-98452166D01*
X87760803Y-98430555D01*
X87745257Y-98411613D01*
X87726321Y-98396072D01*
X87720314Y-98392058D01*
X87667942Y-98339686D01*
X87626793Y-98278103D01*
X87598450Y-98209675D01*
X87598450Y-98209674D01*
X87598449Y-98209672D01*
X87584000Y-98137034D01*
X87584000Y-98062966D01*
X87598449Y-97990328D01*
X87598450Y-97990325D01*
X87626793Y-97921897D01*
X87667942Y-97860314D01*
X87720314Y-97807942D01*
X87726321Y-97803928D01*
X87745256Y-97788388D01*
X87760801Y-97769447D01*
X87772353Y-97747836D01*
X87779466Y-97724387D01*
X87781868Y-97700001D01*
X87779466Y-97675615D01*
X87772353Y-97652166D01*
X87760803Y-97630555D01*
X87745257Y-97611613D01*
X87726321Y-97596072D01*
X87720314Y-97592058D01*
X87667942Y-97539686D01*
X87626793Y-97478103D01*
X87598450Y-97409675D01*
X87586149Y-97347834D01*
X87584000Y-97337034D01*
X87584000Y-97262966D01*
X87598449Y-97190328D01*
X87598450Y-97190325D01*
X87626793Y-97121897D01*
X87667942Y-97060314D01*
X87720314Y-97007942D01*
X87781897Y-96966793D01*
X87850325Y-96938450D01*
X87850326Y-96938450D01*
X87850328Y-96938449D01*
X87922966Y-96924000D01*
X87997034Y-96924000D01*
X88069674Y-96938449D01*
X88113096Y-96956435D01*
X88136545Y-96963548D01*
X88160931Y-96965950D01*
X88185317Y-96963548D01*
X88208766Y-96956435D01*
X88230376Y-96944884D01*
X88249318Y-96929339D01*
X88264864Y-96910397D01*
X88276415Y-96888786D01*
X88283528Y-96865338D01*
X88298449Y-96790327D01*
X88302601Y-96780304D01*
X88326793Y-96721897D01*
X88367942Y-96660314D01*
X88420314Y-96607942D01*
X88426321Y-96603928D01*
X88445256Y-96588388D01*
X88460801Y-96569447D01*
X88472353Y-96547836D01*
X88479466Y-96524387D01*
X88481868Y-96500001D01*
X88479466Y-96475615D01*
X88472353Y-96452166D01*
X88460803Y-96430555D01*
X88445257Y-96411613D01*
X88426321Y-96396072D01*
X88420314Y-96392058D01*
X88367942Y-96339686D01*
X88326793Y-96278103D01*
X88298450Y-96209675D01*
X88298449Y-96209673D01*
X88283528Y-96134662D01*
X88276415Y-96111214D01*
X88264864Y-96089603D01*
X88249318Y-96070661D01*
X88230376Y-96055116D01*
X88208766Y-96043565D01*
X88185317Y-96036452D01*
X88160931Y-96034050D01*
X88136544Y-96036452D01*
X88113096Y-96043565D01*
X88069674Y-96061551D01*
X87997034Y-96076000D01*
X87922966Y-96076000D01*
X87850328Y-96061551D01*
X87850326Y-96061550D01*
X87850325Y-96061550D01*
X87781897Y-96033207D01*
X87720314Y-95992058D01*
X87667942Y-95939686D01*
X87626793Y-95878103D01*
X87598450Y-95809675D01*
X87586149Y-95747834D01*
X87584000Y-95737034D01*
X87584000Y-95662966D01*
X87598449Y-95590328D01*
X87598450Y-95590325D01*
X87626793Y-95521897D01*
X87667942Y-95460314D01*
X87720314Y-95407942D01*
X87726321Y-95403928D01*
X87745256Y-95388388D01*
X87760801Y-95369447D01*
X87772353Y-95347836D01*
X87779466Y-95324387D01*
X87781868Y-95300001D01*
X87779466Y-95275615D01*
X87772353Y-95252166D01*
X87760803Y-95230555D01*
X87745257Y-95211613D01*
X87726321Y-95196072D01*
X87720314Y-95192058D01*
X87667942Y-95139686D01*
X87626793Y-95078103D01*
X87598450Y-95009675D01*
X87584282Y-94938449D01*
X87584000Y-94937034D01*
X87584000Y-94862966D01*
X87598449Y-94790328D01*
X87598450Y-94790325D01*
X87626793Y-94721897D01*
X87667942Y-94660314D01*
X87720314Y-94607942D01*
X87726321Y-94603928D01*
X87745256Y-94588388D01*
X87760801Y-94569447D01*
X87772353Y-94547836D01*
X87779466Y-94524387D01*
X87781868Y-94500001D01*
X87779466Y-94475615D01*
X87772353Y-94452166D01*
X87760803Y-94430555D01*
X87745257Y-94411613D01*
X87726321Y-94396072D01*
X87720314Y-94392058D01*
X87667942Y-94339686D01*
X87626793Y-94278103D01*
X87598450Y-94209675D01*
X87598450Y-94209674D01*
X87598449Y-94209672D01*
X87584000Y-94137034D01*
X87584000Y-94062966D01*
X87598449Y-93990328D01*
X87598450Y-93990325D01*
X87626793Y-93921897D01*
X87667942Y-93860314D01*
X87720314Y-93807942D01*
X87781897Y-93766793D01*
X87850325Y-93738450D01*
X87850326Y-93738450D01*
X87850328Y-93738449D01*
X87922966Y-93724000D01*
X87997034Y-93724000D01*
X88069674Y-93738449D01*
X88113096Y-93756435D01*
X88136545Y-93763548D01*
X88160931Y-93765950D01*
X88185317Y-93763548D01*
X88208766Y-93756435D01*
X88230376Y-93744884D01*
X88249318Y-93729339D01*
X88264864Y-93710397D01*
X88276415Y-93688786D01*
X88283528Y-93665338D01*
X88298449Y-93590327D01*
X88302601Y-93580304D01*
X88326793Y-93521897D01*
X88367942Y-93460314D01*
X88420314Y-93407942D01*
X88481897Y-93366793D01*
X88550325Y-93338450D01*
X88550326Y-93338450D01*
X88550328Y-93338449D01*
X88622966Y-93324000D01*
X88697034Y-93324000D01*
X88769672Y-93338449D01*
X88769672Y-93338449D01*
G37*
G36*
X89419672Y-92538449D02*
G01*
X89419674Y-92538450D01*
X89419675Y-92538450D01*
X89488103Y-92566793D01*
X89549686Y-92607942D01*
X89602058Y-92660314D01*
X89643207Y-92721897D01*
X89671550Y-92790325D01*
X89686000Y-92862967D01*
X89686000Y-92937033D01*
X89671550Y-93009675D01*
X89643207Y-93078103D01*
X89602058Y-93139686D01*
X89549686Y-93192058D01*
X89488103Y-93233207D01*
X89419675Y-93261550D01*
X89419674Y-93261550D01*
X89419672Y-93261551D01*
X89347034Y-93276000D01*
X89272966Y-93276000D01*
X89200328Y-93261551D01*
X89200326Y-93261550D01*
X89200325Y-93261550D01*
X89131897Y-93233207D01*
X89070314Y-93192058D01*
X89017942Y-93139686D01*
X88976793Y-93078103D01*
X88948450Y-93009675D01*
X88934000Y-92937033D01*
X88934000Y-92862967D01*
X88948450Y-92790325D01*
X88976793Y-92721897D01*
X89017942Y-92660314D01*
X89070314Y-92607942D01*
X89131897Y-92566793D01*
X89200325Y-92538450D01*
X89200326Y-92538450D01*
X89200328Y-92538449D01*
X89272966Y-92524000D01*
X89347034Y-92524000D01*
X89419672Y-92538449D01*
X89419672Y-92538449D01*
G37*
G36*
X88448410Y-91925525D02*
G01*
X88533426Y-91951314D01*
X88611775Y-91993193D01*
X88680449Y-92049551D01*
X88736807Y-92118225D01*
X88778686Y-92196574D01*
X88804475Y-92281590D01*
X88813182Y-92370000D01*
X88804475Y-92458410D01*
X88778686Y-92543426D01*
X88736807Y-92621775D01*
X88680449Y-92690449D01*
X88611775Y-92746807D01*
X88533426Y-92788686D01*
X88448410Y-92814475D01*
X88382158Y-92821000D01*
X87737842Y-92821000D01*
X87671590Y-92814475D01*
X87586574Y-92788686D01*
X87508225Y-92746807D01*
X87439551Y-92690449D01*
X87383193Y-92621775D01*
X87341314Y-92543426D01*
X87315525Y-92458410D01*
X87306818Y-92370000D01*
X87315525Y-92281590D01*
X87341314Y-92196574D01*
X87383193Y-92118225D01*
X87439551Y-92049551D01*
X87508225Y-91993193D01*
X87586574Y-91951314D01*
X87671590Y-91925525D01*
X87737842Y-91919000D01*
X88382158Y-91919000D01*
X88448410Y-91925525D01*
X88448410Y-91925525D01*
G37*
G36*
X82498410Y-91565525D02*
G01*
X82583426Y-91591314D01*
X82661775Y-91633193D01*
X82730449Y-91689551D01*
X82786807Y-91758225D01*
X82828686Y-91836574D01*
X82854475Y-91921590D01*
X82863182Y-92010000D01*
X82854475Y-92098410D01*
X82828686Y-92183426D01*
X82786807Y-92261775D01*
X82730449Y-92330449D01*
X82661775Y-92386807D01*
X82583426Y-92428686D01*
X82498410Y-92454475D01*
X82432158Y-92461000D01*
X81787842Y-92461000D01*
X81721590Y-92454475D01*
X81636574Y-92428686D01*
X81558225Y-92386807D01*
X81489551Y-92330449D01*
X81433193Y-92261775D01*
X81391314Y-92183426D01*
X81365525Y-92098410D01*
X81356818Y-92010000D01*
X81365525Y-91921590D01*
X81391314Y-91836574D01*
X81433193Y-91758225D01*
X81489551Y-91689551D01*
X81558225Y-91633193D01*
X81636574Y-91591314D01*
X81721590Y-91565525D01*
X81787842Y-91559000D01*
X82432158Y-91559000D01*
X82498410Y-91565525D01*
X82498410Y-91565525D01*
G37*
G36*
X121380443Y-81645519D02*
G01*
X121446627Y-81652037D01*
X121616466Y-81703557D01*
X121772991Y-81787222D01*
X121808729Y-81816552D01*
X121910186Y-81899814D01*
X121993448Y-82001271D01*
X122022778Y-82037009D01*
X122106443Y-82193534D01*
X122157963Y-82363373D01*
X122175359Y-82540000D01*
X122157963Y-82716627D01*
X122106443Y-82886466D01*
X122022778Y-83042991D01*
X121993448Y-83078729D01*
X121910186Y-83180186D01*
X121808729Y-83263448D01*
X121772991Y-83292778D01*
X121616466Y-83376443D01*
X121446627Y-83427963D01*
X121380442Y-83434482D01*
X121314260Y-83441000D01*
X121225740Y-83441000D01*
X121159558Y-83434482D01*
X121093373Y-83427963D01*
X120923534Y-83376443D01*
X120767009Y-83292778D01*
X120731271Y-83263448D01*
X120629814Y-83180186D01*
X120546552Y-83078729D01*
X120517222Y-83042991D01*
X120433557Y-82886466D01*
X120382037Y-82716627D01*
X120364641Y-82540000D01*
X120382037Y-82363373D01*
X120433557Y-82193534D01*
X120517222Y-82037009D01*
X120546552Y-82001271D01*
X120629814Y-81899814D01*
X120731271Y-81816552D01*
X120767009Y-81787222D01*
X120923534Y-81703557D01*
X121093373Y-81652037D01*
X121159557Y-81645519D01*
X121225740Y-81639000D01*
X121314260Y-81639000D01*
X121380443Y-81645519D01*
X121380443Y-81645519D01*
G37*
G36*
X126460443Y-81645519D02*
G01*
X126526627Y-81652037D01*
X126696466Y-81703557D01*
X126852991Y-81787222D01*
X126888729Y-81816552D01*
X126990186Y-81899814D01*
X127073448Y-82001271D01*
X127102778Y-82037009D01*
X127186443Y-82193534D01*
X127237963Y-82363373D01*
X127255359Y-82540000D01*
X127237963Y-82716627D01*
X127186443Y-82886466D01*
X127102778Y-83042991D01*
X127073448Y-83078729D01*
X126990186Y-83180186D01*
X126888729Y-83263448D01*
X126852991Y-83292778D01*
X126696466Y-83376443D01*
X126526627Y-83427963D01*
X126460442Y-83434482D01*
X126394260Y-83441000D01*
X126305740Y-83441000D01*
X126239558Y-83434482D01*
X126173373Y-83427963D01*
X126003534Y-83376443D01*
X125847009Y-83292778D01*
X125811271Y-83263448D01*
X125709814Y-83180186D01*
X125626552Y-83078729D01*
X125597222Y-83042991D01*
X125513557Y-82886466D01*
X125462037Y-82716627D01*
X125444641Y-82540000D01*
X125462037Y-82363373D01*
X125513557Y-82193534D01*
X125597222Y-82037009D01*
X125626552Y-82001271D01*
X125709814Y-81899814D01*
X125811271Y-81816552D01*
X125847009Y-81787222D01*
X126003534Y-81703557D01*
X126173373Y-81652037D01*
X126239557Y-81645519D01*
X126305740Y-81639000D01*
X126394260Y-81639000D01*
X126460443Y-81645519D01*
X126460443Y-81645519D01*
G37*
G36*
X123920443Y-81645519D02*
G01*
X123986627Y-81652037D01*
X124156466Y-81703557D01*
X124312991Y-81787222D01*
X124348729Y-81816552D01*
X124450186Y-81899814D01*
X124533448Y-82001271D01*
X124562778Y-82037009D01*
X124646443Y-82193534D01*
X124697963Y-82363373D01*
X124715359Y-82540000D01*
X124697963Y-82716627D01*
X124646443Y-82886466D01*
X124562778Y-83042991D01*
X124533448Y-83078729D01*
X124450186Y-83180186D01*
X124348729Y-83263448D01*
X124312991Y-83292778D01*
X124156466Y-83376443D01*
X123986627Y-83427963D01*
X123920442Y-83434482D01*
X123854260Y-83441000D01*
X123765740Y-83441000D01*
X123699558Y-83434482D01*
X123633373Y-83427963D01*
X123463534Y-83376443D01*
X123307009Y-83292778D01*
X123271271Y-83263448D01*
X123169814Y-83180186D01*
X123086552Y-83078729D01*
X123057222Y-83042991D01*
X122973557Y-82886466D01*
X122922037Y-82716627D01*
X122904641Y-82540000D01*
X122922037Y-82363373D01*
X122973557Y-82193534D01*
X123057222Y-82037009D01*
X123086552Y-82001271D01*
X123169814Y-81899814D01*
X123271271Y-81816552D01*
X123307009Y-81787222D01*
X123463534Y-81703557D01*
X123633373Y-81652037D01*
X123699557Y-81645519D01*
X123765740Y-81639000D01*
X123854260Y-81639000D01*
X123920443Y-81645519D01*
X123920443Y-81645519D01*
G37*
G36*
X99176627Y-79462037D02*
G01*
X99346466Y-79513557D01*
X99502991Y-79597222D01*
X99538729Y-79626552D01*
X99640186Y-79709814D01*
X99717097Y-79803532D01*
X99752778Y-79847009D01*
X99836443Y-80003534D01*
X99887963Y-80173374D01*
X99887963Y-80173376D01*
X99898703Y-80282415D01*
X99901000Y-80305743D01*
X99901000Y-80694258D01*
X99887963Y-80826627D01*
X99836443Y-80996466D01*
X99752778Y-81152991D01*
X99724530Y-81187411D01*
X99640186Y-81290186D01*
X99502989Y-81402779D01*
X99346467Y-81486442D01*
X99346465Y-81486443D01*
X99176626Y-81537963D01*
X99000000Y-81555359D01*
X98823373Y-81537963D01*
X98653534Y-81486443D01*
X98497009Y-81402778D01*
X98439229Y-81355359D01*
X98359814Y-81290186D01*
X98247221Y-81152989D01*
X98163558Y-80996467D01*
X98163557Y-80996465D01*
X98112037Y-80826626D01*
X98099000Y-80694257D01*
X98099000Y-80305742D01*
X98112037Y-80173373D01*
X98163557Y-80003534D01*
X98179679Y-79973373D01*
X98247221Y-79847011D01*
X98247222Y-79847009D01*
X98359815Y-79709815D01*
X98497010Y-79597222D01*
X98653535Y-79513557D01*
X98823374Y-79462037D01*
X99000000Y-79444641D01*
X99176627Y-79462037D01*
X99176627Y-79462037D01*
G37*
G36*
X102258600Y-79452989D02*
G01*
X102291652Y-79463015D01*
X102322103Y-79479292D01*
X102348799Y-79501201D01*
X102370708Y-79527897D01*
X102386985Y-79558348D01*
X102397011Y-79591400D01*
X102401000Y-79631903D01*
X102401000Y-81368097D01*
X102397011Y-81408600D01*
X102386985Y-81441652D01*
X102370708Y-81472103D01*
X102348799Y-81498799D01*
X102322103Y-81520708D01*
X102291652Y-81536985D01*
X102258600Y-81547011D01*
X102218097Y-81551000D01*
X100781903Y-81551000D01*
X100741400Y-81547011D01*
X100708348Y-81536985D01*
X100677897Y-81520708D01*
X100651201Y-81498799D01*
X100629292Y-81472103D01*
X100613015Y-81441652D01*
X100602989Y-81408600D01*
X100599000Y-81368097D01*
X100599000Y-79631903D01*
X100602989Y-79591400D01*
X100613015Y-79558348D01*
X100629292Y-79527897D01*
X100651201Y-79501201D01*
X100677897Y-79479292D01*
X100708348Y-79463015D01*
X100741400Y-79452989D01*
X100781903Y-79449000D01*
X102218097Y-79449000D01*
X102258600Y-79452989D01*
X102258600Y-79452989D01*
G37*
G36*
X133526627Y-79262037D02*
G01*
X133696466Y-79313557D01*
X133852991Y-79397222D01*
X133888729Y-79426552D01*
X133990186Y-79509814D01*
X134057141Y-79591400D01*
X134102778Y-79647009D01*
X134186443Y-79803534D01*
X134237963Y-79973374D01*
X134251000Y-80105743D01*
X134251000Y-80494258D01*
X134237963Y-80626627D01*
X134199695Y-80752779D01*
X134186442Y-80796468D01*
X134165075Y-80836442D01*
X134102778Y-80952991D01*
X134073448Y-80988729D01*
X133990186Y-81090186D01*
X133852989Y-81202779D01*
X133697294Y-81286000D01*
X133696465Y-81286443D01*
X133526626Y-81337963D01*
X133350000Y-81355359D01*
X133173373Y-81337963D01*
X133003534Y-81286443D01*
X132847009Y-81202778D01*
X132804750Y-81168097D01*
X132709814Y-81090186D01*
X132597221Y-80952989D01*
X132513558Y-80796467D01*
X132482554Y-80694260D01*
X132462037Y-80626626D01*
X132449000Y-80494257D01*
X132449000Y-80105742D01*
X132454392Y-80051000D01*
X132455676Y-80037963D01*
X132462037Y-79973373D01*
X132513557Y-79803534D01*
X132597222Y-79647009D01*
X132709815Y-79509815D01*
X132847010Y-79397222D01*
X133003535Y-79313557D01*
X133173374Y-79262037D01*
X133350000Y-79244641D01*
X133526627Y-79262037D01*
X133526627Y-79262037D01*
G37*
G36*
X169526627Y-79262037D02*
G01*
X169696466Y-79313557D01*
X169852991Y-79397222D01*
X169888729Y-79426552D01*
X169990186Y-79509814D01*
X170057141Y-79591400D01*
X170102778Y-79647009D01*
X170186443Y-79803534D01*
X170237963Y-79973374D01*
X170251000Y-80105743D01*
X170251000Y-80494258D01*
X170237963Y-80626627D01*
X170199695Y-80752779D01*
X170186442Y-80796468D01*
X170165075Y-80836442D01*
X170102778Y-80952991D01*
X170073448Y-80988729D01*
X169990186Y-81090186D01*
X169852989Y-81202779D01*
X169697294Y-81286000D01*
X169696465Y-81286443D01*
X169526626Y-81337963D01*
X169350000Y-81355359D01*
X169173373Y-81337963D01*
X169003534Y-81286443D01*
X168847009Y-81202778D01*
X168804750Y-81168097D01*
X168709814Y-81090186D01*
X168597221Y-80952989D01*
X168513558Y-80796467D01*
X168482554Y-80694260D01*
X168462037Y-80626626D01*
X168449000Y-80494257D01*
X168449000Y-80105742D01*
X168454392Y-80051000D01*
X168455676Y-80037963D01*
X168462037Y-79973373D01*
X168513557Y-79803534D01*
X168597222Y-79647009D01*
X168709815Y-79509815D01*
X168847010Y-79397222D01*
X169003535Y-79313557D01*
X169173374Y-79262037D01*
X169350000Y-79244641D01*
X169526627Y-79262037D01*
X169526627Y-79262037D01*
G37*
G36*
X142526627Y-79262037D02*
G01*
X142696466Y-79313557D01*
X142852991Y-79397222D01*
X142888729Y-79426552D01*
X142990186Y-79509814D01*
X143057141Y-79591400D01*
X143102778Y-79647009D01*
X143186443Y-79803534D01*
X143237963Y-79973374D01*
X143251000Y-80105743D01*
X143251000Y-80494258D01*
X143237963Y-80626627D01*
X143199695Y-80752779D01*
X143186442Y-80796468D01*
X143165075Y-80836442D01*
X143102778Y-80952991D01*
X143073448Y-80988729D01*
X142990186Y-81090186D01*
X142852989Y-81202779D01*
X142697294Y-81286000D01*
X142696465Y-81286443D01*
X142526626Y-81337963D01*
X142350000Y-81355359D01*
X142173373Y-81337963D01*
X142003534Y-81286443D01*
X141847009Y-81202778D01*
X141804750Y-81168097D01*
X141709814Y-81090186D01*
X141597221Y-80952989D01*
X141513558Y-80796467D01*
X141482554Y-80694260D01*
X141462037Y-80626626D01*
X141449000Y-80494257D01*
X141449000Y-80105742D01*
X141454392Y-80051000D01*
X141455676Y-80037963D01*
X141462037Y-79973373D01*
X141513557Y-79803534D01*
X141597222Y-79647009D01*
X141709815Y-79509815D01*
X141847010Y-79397222D01*
X142003535Y-79313557D01*
X142173374Y-79262037D01*
X142350000Y-79244641D01*
X142526627Y-79262037D01*
X142526627Y-79262037D01*
G37*
G36*
X160526627Y-79262037D02*
G01*
X160696466Y-79313557D01*
X160852991Y-79397222D01*
X160888729Y-79426552D01*
X160990186Y-79509814D01*
X161057141Y-79591400D01*
X161102778Y-79647009D01*
X161186443Y-79803534D01*
X161237963Y-79973374D01*
X161251000Y-80105743D01*
X161251000Y-80494258D01*
X161237963Y-80626627D01*
X161199695Y-80752779D01*
X161186442Y-80796468D01*
X161165075Y-80836442D01*
X161102778Y-80952991D01*
X161073448Y-80988729D01*
X160990186Y-81090186D01*
X160852989Y-81202779D01*
X160697294Y-81286000D01*
X160696465Y-81286443D01*
X160526626Y-81337963D01*
X160350000Y-81355359D01*
X160173373Y-81337963D01*
X160003534Y-81286443D01*
X159847009Y-81202778D01*
X159804750Y-81168097D01*
X159709814Y-81090186D01*
X159597221Y-80952989D01*
X159513558Y-80796467D01*
X159482554Y-80694260D01*
X159462037Y-80626626D01*
X159449000Y-80494257D01*
X159449000Y-80105742D01*
X159454392Y-80051000D01*
X159455676Y-80037963D01*
X159462037Y-79973373D01*
X159513557Y-79803534D01*
X159597222Y-79647009D01*
X159709815Y-79509815D01*
X159847010Y-79397222D01*
X160003535Y-79313557D01*
X160173374Y-79262037D01*
X160350000Y-79244641D01*
X160526627Y-79262037D01*
X160526627Y-79262037D01*
G37*
G36*
X151526627Y-79262037D02*
G01*
X151696466Y-79313557D01*
X151852991Y-79397222D01*
X151888729Y-79426552D01*
X151990186Y-79509814D01*
X152057141Y-79591400D01*
X152102778Y-79647009D01*
X152186443Y-79803534D01*
X152237963Y-79973374D01*
X152251000Y-80105743D01*
X152251000Y-80494258D01*
X152237963Y-80626627D01*
X152199695Y-80752779D01*
X152186442Y-80796468D01*
X152165075Y-80836442D01*
X152102778Y-80952991D01*
X152073448Y-80988729D01*
X151990186Y-81090186D01*
X151852989Y-81202779D01*
X151697294Y-81286000D01*
X151696465Y-81286443D01*
X151526626Y-81337963D01*
X151350000Y-81355359D01*
X151173373Y-81337963D01*
X151003534Y-81286443D01*
X150847009Y-81202778D01*
X150804750Y-81168097D01*
X150709814Y-81090186D01*
X150597221Y-80952989D01*
X150513558Y-80796467D01*
X150482554Y-80694260D01*
X150462037Y-80626626D01*
X150449000Y-80494257D01*
X150449000Y-80105742D01*
X150454392Y-80051000D01*
X150455676Y-80037963D01*
X150462037Y-79973373D01*
X150513557Y-79803534D01*
X150597222Y-79647009D01*
X150709815Y-79509815D01*
X150847010Y-79397222D01*
X151003535Y-79313557D01*
X151173374Y-79262037D01*
X151350000Y-79244641D01*
X151526627Y-79262037D01*
X151526627Y-79262037D01*
G37*
G36*
X172608600Y-79252989D02*
G01*
X172641652Y-79263015D01*
X172672103Y-79279292D01*
X172698799Y-79301201D01*
X172720708Y-79327897D01*
X172736985Y-79358348D01*
X172747011Y-79391400D01*
X172751000Y-79431903D01*
X172751000Y-81168097D01*
X172747011Y-81208600D01*
X172736985Y-81241652D01*
X172720708Y-81272103D01*
X172698799Y-81298799D01*
X172672103Y-81320708D01*
X172641652Y-81336985D01*
X172608600Y-81347011D01*
X172568097Y-81351000D01*
X171131903Y-81351000D01*
X171091400Y-81347011D01*
X171058348Y-81336985D01*
X171027897Y-81320708D01*
X171001201Y-81298799D01*
X170979292Y-81272103D01*
X170963015Y-81241652D01*
X170952989Y-81208600D01*
X170949000Y-81168097D01*
X170949000Y-79431903D01*
X170952989Y-79391400D01*
X170963015Y-79358348D01*
X170979292Y-79327897D01*
X171001201Y-79301201D01*
X171027897Y-79279292D01*
X171058348Y-79263015D01*
X171091400Y-79252989D01*
X171131903Y-79249000D01*
X172568097Y-79249000D01*
X172608600Y-79252989D01*
X172608600Y-79252989D01*
G37*
G36*
X163608600Y-79252989D02*
G01*
X163641652Y-79263015D01*
X163672103Y-79279292D01*
X163698799Y-79301201D01*
X163720708Y-79327897D01*
X163736985Y-79358348D01*
X163747011Y-79391400D01*
X163751000Y-79431903D01*
X163751000Y-81168097D01*
X163747011Y-81208600D01*
X163736985Y-81241652D01*
X163720708Y-81272103D01*
X163698799Y-81298799D01*
X163672103Y-81320708D01*
X163641652Y-81336985D01*
X163608600Y-81347011D01*
X163568097Y-81351000D01*
X162131903Y-81351000D01*
X162091400Y-81347011D01*
X162058348Y-81336985D01*
X162027897Y-81320708D01*
X162001201Y-81298799D01*
X161979292Y-81272103D01*
X161963015Y-81241652D01*
X161952989Y-81208600D01*
X161949000Y-81168097D01*
X161949000Y-79431903D01*
X161952989Y-79391400D01*
X161963015Y-79358348D01*
X161979292Y-79327897D01*
X162001201Y-79301201D01*
X162027897Y-79279292D01*
X162058348Y-79263015D01*
X162091400Y-79252989D01*
X162131903Y-79249000D01*
X163568097Y-79249000D01*
X163608600Y-79252989D01*
X163608600Y-79252989D01*
G37*
G36*
X136608600Y-79252989D02*
G01*
X136641652Y-79263015D01*
X136672103Y-79279292D01*
X136698799Y-79301201D01*
X136720708Y-79327897D01*
X136736985Y-79358348D01*
X136747011Y-79391400D01*
X136751000Y-79431903D01*
X136751000Y-81168097D01*
X136747011Y-81208600D01*
X136736985Y-81241652D01*
X136720708Y-81272103D01*
X136698799Y-81298799D01*
X136672103Y-81320708D01*
X136641652Y-81336985D01*
X136608600Y-81347011D01*
X136568097Y-81351000D01*
X135131903Y-81351000D01*
X135091400Y-81347011D01*
X135058348Y-81336985D01*
X135027897Y-81320708D01*
X135001201Y-81298799D01*
X134979292Y-81272103D01*
X134963015Y-81241652D01*
X134952989Y-81208600D01*
X134949000Y-81168097D01*
X134949000Y-79431903D01*
X134952989Y-79391400D01*
X134963015Y-79358348D01*
X134979292Y-79327897D01*
X135001201Y-79301201D01*
X135027897Y-79279292D01*
X135058348Y-79263015D01*
X135091400Y-79252989D01*
X135131903Y-79249000D01*
X136568097Y-79249000D01*
X136608600Y-79252989D01*
X136608600Y-79252989D01*
G37*
G36*
X145608600Y-79252989D02*
G01*
X145641652Y-79263015D01*
X145672103Y-79279292D01*
X145698799Y-79301201D01*
X145720708Y-79327897D01*
X145736985Y-79358348D01*
X145747011Y-79391400D01*
X145751000Y-79431903D01*
X145751000Y-81168097D01*
X145747011Y-81208600D01*
X145736985Y-81241652D01*
X145720708Y-81272103D01*
X145698799Y-81298799D01*
X145672103Y-81320708D01*
X145641652Y-81336985D01*
X145608600Y-81347011D01*
X145568097Y-81351000D01*
X144131903Y-81351000D01*
X144091400Y-81347011D01*
X144058348Y-81336985D01*
X144027897Y-81320708D01*
X144001201Y-81298799D01*
X143979292Y-81272103D01*
X143963015Y-81241652D01*
X143952989Y-81208600D01*
X143949000Y-81168097D01*
X143949000Y-79431903D01*
X143952989Y-79391400D01*
X143963015Y-79358348D01*
X143979292Y-79327897D01*
X144001201Y-79301201D01*
X144027897Y-79279292D01*
X144058348Y-79263015D01*
X144091400Y-79252989D01*
X144131903Y-79249000D01*
X145568097Y-79249000D01*
X145608600Y-79252989D01*
X145608600Y-79252989D01*
G37*
G36*
X154608600Y-79252989D02*
G01*
X154641652Y-79263015D01*
X154672103Y-79279292D01*
X154698799Y-79301201D01*
X154720708Y-79327897D01*
X154736985Y-79358348D01*
X154747011Y-79391400D01*
X154751000Y-79431903D01*
X154751000Y-81168097D01*
X154747011Y-81208600D01*
X154736985Y-81241652D01*
X154720708Y-81272103D01*
X154698799Y-81298799D01*
X154672103Y-81320708D01*
X154641652Y-81336985D01*
X154608600Y-81347011D01*
X154568097Y-81351000D01*
X153131903Y-81351000D01*
X153091400Y-81347011D01*
X153058348Y-81336985D01*
X153027897Y-81320708D01*
X153001201Y-81298799D01*
X152979292Y-81272103D01*
X152963015Y-81241652D01*
X152952989Y-81208600D01*
X152949000Y-81168097D01*
X152949000Y-79431903D01*
X152952989Y-79391400D01*
X152963015Y-79358348D01*
X152979292Y-79327897D01*
X153001201Y-79301201D01*
X153027897Y-79279292D01*
X153058348Y-79263015D01*
X153091400Y-79252989D01*
X153131903Y-79249000D01*
X154568097Y-79249000D01*
X154608600Y-79252989D01*
X154608600Y-79252989D01*
G37*
G36*
X121380442Y-79105518D02*
G01*
X121446627Y-79112037D01*
X121616466Y-79163557D01*
X121772991Y-79247222D01*
X121799737Y-79269172D01*
X121910186Y-79359814D01*
X121987557Y-79454092D01*
X122022778Y-79497009D01*
X122106443Y-79653534D01*
X122157963Y-79823373D01*
X122175359Y-80000000D01*
X122157963Y-80176627D01*
X122106443Y-80346466D01*
X122022778Y-80502991D01*
X121993448Y-80538729D01*
X121910186Y-80640186D01*
X121808729Y-80723448D01*
X121772991Y-80752778D01*
X121616466Y-80836443D01*
X121446627Y-80887963D01*
X121380442Y-80894482D01*
X121314260Y-80901000D01*
X121225740Y-80901000D01*
X121159558Y-80894482D01*
X121093373Y-80887963D01*
X120923534Y-80836443D01*
X120767009Y-80752778D01*
X120731271Y-80723448D01*
X120629814Y-80640186D01*
X120546552Y-80538729D01*
X120517222Y-80502991D01*
X120433557Y-80346466D01*
X120382037Y-80176627D01*
X120364641Y-80000000D01*
X120382037Y-79823373D01*
X120433557Y-79653534D01*
X120517222Y-79497009D01*
X120552443Y-79454092D01*
X120629814Y-79359814D01*
X120740263Y-79269172D01*
X120767009Y-79247222D01*
X120923534Y-79163557D01*
X121093373Y-79112037D01*
X121159558Y-79105518D01*
X121225740Y-79099000D01*
X121314260Y-79099000D01*
X121380442Y-79105518D01*
X121380442Y-79105518D01*
G37*
G36*
X123920442Y-79105518D02*
G01*
X123986627Y-79112037D01*
X124156466Y-79163557D01*
X124312991Y-79247222D01*
X124339737Y-79269172D01*
X124450186Y-79359814D01*
X124527557Y-79454092D01*
X124562778Y-79497009D01*
X124646443Y-79653534D01*
X124697963Y-79823373D01*
X124715359Y-80000000D01*
X124697963Y-80176627D01*
X124646443Y-80346466D01*
X124562778Y-80502991D01*
X124533448Y-80538729D01*
X124450186Y-80640186D01*
X124348729Y-80723448D01*
X124312991Y-80752778D01*
X124156466Y-80836443D01*
X123986627Y-80887963D01*
X123920442Y-80894482D01*
X123854260Y-80901000D01*
X123765740Y-80901000D01*
X123699558Y-80894482D01*
X123633373Y-80887963D01*
X123463534Y-80836443D01*
X123307009Y-80752778D01*
X123271271Y-80723448D01*
X123169814Y-80640186D01*
X123086552Y-80538729D01*
X123057222Y-80502991D01*
X122973557Y-80346466D01*
X122922037Y-80176627D01*
X122904641Y-80000000D01*
X122922037Y-79823373D01*
X122973557Y-79653534D01*
X123057222Y-79497009D01*
X123092443Y-79454092D01*
X123169814Y-79359814D01*
X123280263Y-79269172D01*
X123307009Y-79247222D01*
X123463534Y-79163557D01*
X123633373Y-79112037D01*
X123699558Y-79105518D01*
X123765740Y-79099000D01*
X123854260Y-79099000D01*
X123920442Y-79105518D01*
X123920442Y-79105518D01*
G37*
G36*
X127251000Y-80901000D02*
G01*
X125449000Y-80901000D01*
X125449000Y-79099000D01*
X127251000Y-79099000D01*
X127251000Y-80901000D01*
X127251000Y-80901000D01*
G37*
G36*
X178875256Y-77391298D02*
G01*
X178981579Y-77412447D01*
X179282042Y-77536903D01*
X179552451Y-77717585D01*
X179782415Y-77947549D01*
X179963097Y-78217958D01*
X180083988Y-78509814D01*
X180087553Y-78518422D01*
X180151000Y-78837389D01*
X180151000Y-79162611D01*
X180118377Y-79326617D01*
X180087553Y-79481579D01*
X179963097Y-79782042D01*
X179782415Y-80052451D01*
X179552451Y-80282415D01*
X179282042Y-80463097D01*
X178981579Y-80587553D01*
X178875256Y-80608702D01*
X178662611Y-80651000D01*
X178337389Y-80651000D01*
X178124744Y-80608702D01*
X178018421Y-80587553D01*
X177717958Y-80463097D01*
X177447549Y-80282415D01*
X177217585Y-80052451D01*
X177036903Y-79782042D01*
X176912447Y-79481579D01*
X176881623Y-79326617D01*
X176849000Y-79162611D01*
X176849000Y-78837389D01*
X176912447Y-78518422D01*
X176916013Y-78509814D01*
X177036903Y-78217958D01*
X177217585Y-77947549D01*
X177447549Y-77717585D01*
X177717958Y-77536903D01*
X178018421Y-77412447D01*
X178124744Y-77391298D01*
X178337389Y-77349000D01*
X178662611Y-77349000D01*
X178875256Y-77391298D01*
X178875256Y-77391298D01*
G37*
G36*
X83875256Y-77391298D02*
G01*
X83981579Y-77412447D01*
X84282042Y-77536903D01*
X84552451Y-77717585D01*
X84782415Y-77947549D01*
X84963097Y-78217958D01*
X85083988Y-78509814D01*
X85087553Y-78518422D01*
X85151000Y-78837389D01*
X85151000Y-79162611D01*
X85118377Y-79326617D01*
X85087553Y-79481579D01*
X84963097Y-79782042D01*
X84782415Y-80052451D01*
X84552451Y-80282415D01*
X84282042Y-80463097D01*
X83981579Y-80587553D01*
X83875256Y-80608702D01*
X83662611Y-80651000D01*
X83337389Y-80651000D01*
X83124744Y-80608702D01*
X83018421Y-80587553D01*
X82717958Y-80463097D01*
X82447549Y-80282415D01*
X82217585Y-80052451D01*
X82036903Y-79782042D01*
X81912447Y-79481579D01*
X81881623Y-79326617D01*
X81849000Y-79162611D01*
X81849000Y-78837389D01*
X81912447Y-78518422D01*
X81916013Y-78509814D01*
X82036903Y-78217958D01*
X82217585Y-77947549D01*
X82447549Y-77717585D01*
X82717958Y-77536903D01*
X83018421Y-77412447D01*
X83124744Y-77391298D01*
X83337389Y-77349000D01*
X83662611Y-77349000D01*
X83875256Y-77391298D01*
X83875256Y-77391298D01*
G37*
G36*
X117651000Y-80051000D02*
G01*
X115849000Y-80051000D01*
X115849000Y-78249000D01*
X117651000Y-78249000D01*
X117651000Y-80051000D01*
X117651000Y-80051000D01*
G37*
G36*
X114320442Y-78255518D02*
G01*
X114386627Y-78262037D01*
X114556466Y-78313557D01*
X114712991Y-78397222D01*
X114748729Y-78426552D01*
X114850186Y-78509814D01*
X114933448Y-78611271D01*
X114962778Y-78647009D01*
X115046443Y-78803534D01*
X115097963Y-78973373D01*
X115115359Y-79150000D01*
X115097963Y-79326627D01*
X115046443Y-79496466D01*
X114962778Y-79652991D01*
X114962332Y-79653534D01*
X114850186Y-79790186D01*
X114748729Y-79873448D01*
X114712991Y-79902778D01*
X114712989Y-79902779D01*
X114580913Y-79973376D01*
X114556466Y-79986443D01*
X114386627Y-80037963D01*
X114320442Y-80044482D01*
X114254260Y-80051000D01*
X114165740Y-80051000D01*
X114099558Y-80044482D01*
X114033373Y-80037963D01*
X113863534Y-79986443D01*
X113839088Y-79973376D01*
X113707011Y-79902779D01*
X113707009Y-79902778D01*
X113671271Y-79873448D01*
X113569814Y-79790186D01*
X113457668Y-79653534D01*
X113457222Y-79652991D01*
X113373557Y-79496466D01*
X113322037Y-79326627D01*
X113304641Y-79150000D01*
X113322037Y-78973373D01*
X113373557Y-78803534D01*
X113457222Y-78647009D01*
X113486552Y-78611271D01*
X113569814Y-78509814D01*
X113671271Y-78426552D01*
X113707009Y-78397222D01*
X113863534Y-78313557D01*
X114033373Y-78262037D01*
X114099558Y-78255518D01*
X114165740Y-78249000D01*
X114254260Y-78249000D01*
X114320442Y-78255518D01*
X114320442Y-78255518D01*
G37*
G36*
X111780442Y-78255518D02*
G01*
X111846627Y-78262037D01*
X112016466Y-78313557D01*
X112172991Y-78397222D01*
X112208729Y-78426552D01*
X112310186Y-78509814D01*
X112393448Y-78611271D01*
X112422778Y-78647009D01*
X112506443Y-78803534D01*
X112557963Y-78973373D01*
X112575359Y-79150000D01*
X112557963Y-79326627D01*
X112506443Y-79496466D01*
X112422778Y-79652991D01*
X112422332Y-79653534D01*
X112310186Y-79790186D01*
X112208729Y-79873448D01*
X112172991Y-79902778D01*
X112172989Y-79902779D01*
X112040913Y-79973376D01*
X112016466Y-79986443D01*
X111846627Y-80037963D01*
X111780442Y-80044482D01*
X111714260Y-80051000D01*
X111625740Y-80051000D01*
X111559558Y-80044482D01*
X111493373Y-80037963D01*
X111323534Y-79986443D01*
X111299088Y-79973376D01*
X111167011Y-79902779D01*
X111167009Y-79902778D01*
X111131271Y-79873448D01*
X111029814Y-79790186D01*
X110917668Y-79653534D01*
X110917222Y-79652991D01*
X110833557Y-79496466D01*
X110782037Y-79326627D01*
X110764641Y-79150000D01*
X110782037Y-78973373D01*
X110833557Y-78803534D01*
X110917222Y-78647009D01*
X110946552Y-78611271D01*
X111029814Y-78509814D01*
X111131271Y-78426552D01*
X111167009Y-78397222D01*
X111323534Y-78313557D01*
X111493373Y-78262037D01*
X111559558Y-78255518D01*
X111625740Y-78249000D01*
X111714260Y-78249000D01*
X111780442Y-78255518D01*
X111780442Y-78255518D01*
G37*
G36*
X109240442Y-78255518D02*
G01*
X109306627Y-78262037D01*
X109476466Y-78313557D01*
X109632991Y-78397222D01*
X109668729Y-78426552D01*
X109770186Y-78509814D01*
X109853448Y-78611271D01*
X109882778Y-78647009D01*
X109966443Y-78803534D01*
X110017963Y-78973373D01*
X110035359Y-79150000D01*
X110017963Y-79326627D01*
X109966443Y-79496466D01*
X109882778Y-79652991D01*
X109882332Y-79653534D01*
X109770186Y-79790186D01*
X109668729Y-79873448D01*
X109632991Y-79902778D01*
X109632989Y-79902779D01*
X109500913Y-79973376D01*
X109476466Y-79986443D01*
X109306627Y-80037963D01*
X109240442Y-80044482D01*
X109174260Y-80051000D01*
X109085740Y-80051000D01*
X109019558Y-80044482D01*
X108953373Y-80037963D01*
X108783534Y-79986443D01*
X108759088Y-79973376D01*
X108627011Y-79902779D01*
X108627009Y-79902778D01*
X108591271Y-79873448D01*
X108489814Y-79790186D01*
X108377668Y-79653534D01*
X108377222Y-79652991D01*
X108293557Y-79496466D01*
X108242037Y-79326627D01*
X108224641Y-79150000D01*
X108242037Y-78973373D01*
X108293557Y-78803534D01*
X108377222Y-78647009D01*
X108406552Y-78611271D01*
X108489814Y-78509814D01*
X108591271Y-78426552D01*
X108627009Y-78397222D01*
X108783534Y-78313557D01*
X108953373Y-78262037D01*
X109019558Y-78255518D01*
X109085740Y-78249000D01*
X109174260Y-78249000D01*
X109240442Y-78255518D01*
X109240442Y-78255518D01*
G37*
G36*
X106700442Y-78255518D02*
G01*
X106766627Y-78262037D01*
X106936466Y-78313557D01*
X107092991Y-78397222D01*
X107128729Y-78426552D01*
X107230186Y-78509814D01*
X107313448Y-78611271D01*
X107342778Y-78647009D01*
X107426443Y-78803534D01*
X107477963Y-78973373D01*
X107495359Y-79150000D01*
X107477963Y-79326627D01*
X107426443Y-79496466D01*
X107342778Y-79652991D01*
X107342332Y-79653534D01*
X107230186Y-79790186D01*
X107128729Y-79873448D01*
X107092991Y-79902778D01*
X107092989Y-79902779D01*
X106960913Y-79973376D01*
X106936466Y-79986443D01*
X106766627Y-80037963D01*
X106700442Y-80044482D01*
X106634260Y-80051000D01*
X106545740Y-80051000D01*
X106479558Y-80044482D01*
X106413373Y-80037963D01*
X106243534Y-79986443D01*
X106219088Y-79973376D01*
X106087011Y-79902779D01*
X106087009Y-79902778D01*
X106051271Y-79873448D01*
X105949814Y-79790186D01*
X105837668Y-79653534D01*
X105837222Y-79652991D01*
X105753557Y-79496466D01*
X105702037Y-79326627D01*
X105684641Y-79150000D01*
X105702037Y-78973373D01*
X105753557Y-78803534D01*
X105837222Y-78647009D01*
X105866552Y-78611271D01*
X105949814Y-78509814D01*
X106051271Y-78426552D01*
X106087009Y-78397222D01*
X106243534Y-78313557D01*
X106413373Y-78262037D01*
X106479558Y-78255518D01*
X106545740Y-78249000D01*
X106634260Y-78249000D01*
X106700442Y-78255518D01*
X106700442Y-78255518D01*
G37*
M02*
