G04 #@! TF.GenerationSoftware,KiCad,Pcbnew,(5.1.4-0)*
G04 #@! TF.CreationDate,2021-11-23T15:15:17+03:00*
G04 #@! TF.ProjectId,exercise_drop_tubes,65786572-6369-4736-955f-64726f705f74,rev?*
G04 #@! TF.SameCoordinates,Original*
G04 #@! TF.FileFunction,Legend,Top*
G04 #@! TF.FilePolarity,Positive*
%FSLAX46Y46*%
G04 Gerber Fmt 4.6, Leading zero omitted, Abs format (unit mm)*
G04 Created by KiCad (PCBNEW (5.1.4-0)) date 2021-11-23 15:15:17*
%MOMM*%
%LPD*%
G04 APERTURE LIST*
%ADD10C,0.150000*%
%ADD11C,0.120000*%
G04 APERTURE END LIST*
D10*
X98619047Y-83521428D02*
X99380952Y-83521428D01*
X101719047Y-83721428D02*
X102480952Y-83721428D01*
X102100000Y-84102380D02*
X102100000Y-83340476D01*
X106333333Y-77652380D02*
X106333333Y-76652380D01*
X106333333Y-77604761D02*
X106266666Y-77652380D01*
X106133333Y-77652380D01*
X106066666Y-77604761D01*
X106033333Y-77557142D01*
X106000000Y-77461904D01*
X106000000Y-77176190D01*
X106033333Y-77080952D01*
X106066666Y-77033333D01*
X106133333Y-76985714D01*
X106266666Y-76985714D01*
X106333333Y-77033333D01*
X106566666Y-76985714D02*
X106833333Y-76985714D01*
X106666666Y-76652380D02*
X106666666Y-77509523D01*
X106700000Y-77604761D01*
X106766666Y-77652380D01*
X106833333Y-77652380D01*
X107066666Y-77652380D02*
X107066666Y-76985714D01*
X107066666Y-77176190D02*
X107100000Y-77080952D01*
X107133333Y-77033333D01*
X107200000Y-76985714D01*
X107266666Y-76985714D01*
X108666666Y-76885714D02*
X108666666Y-77695238D01*
X108633333Y-77790476D01*
X108600000Y-77838095D01*
X108533333Y-77885714D01*
X108433333Y-77885714D01*
X108366666Y-77838095D01*
X108666666Y-77504761D02*
X108600000Y-77552380D01*
X108466666Y-77552380D01*
X108400000Y-77504761D01*
X108366666Y-77457142D01*
X108333333Y-77361904D01*
X108333333Y-77076190D01*
X108366666Y-76980952D01*
X108400000Y-76933333D01*
X108466666Y-76885714D01*
X108600000Y-76885714D01*
X108666666Y-76933333D01*
X109000000Y-76885714D02*
X109000000Y-77552380D01*
X109000000Y-76980952D02*
X109033333Y-76933333D01*
X109100000Y-76885714D01*
X109200000Y-76885714D01*
X109266666Y-76933333D01*
X109300000Y-77028571D01*
X109300000Y-77552380D01*
X109933333Y-77552380D02*
X109933333Y-76552380D01*
X109933333Y-77504761D02*
X109866666Y-77552380D01*
X109733333Y-77552380D01*
X109666666Y-77504761D01*
X109633333Y-77457142D01*
X109600000Y-77361904D01*
X109600000Y-77076190D01*
X109633333Y-76980952D01*
X109666666Y-76933333D01*
X109733333Y-76885714D01*
X109866666Y-76885714D01*
X109933333Y-76933333D01*
X110766666Y-76935714D02*
X111033333Y-76935714D01*
X110866666Y-76602380D02*
X110866666Y-77459523D01*
X110900000Y-77554761D01*
X110966666Y-77602380D01*
X111033333Y-77602380D01*
X111200000Y-77602380D02*
X111566666Y-76935714D01*
X111200000Y-76935714D02*
X111566666Y-77602380D01*
X112133333Y-77602380D02*
X112133333Y-76602380D01*
X112133333Y-77554761D02*
X112066666Y-77602380D01*
X111933333Y-77602380D01*
X111866666Y-77554761D01*
X111833333Y-77507142D01*
X111800000Y-77411904D01*
X111800000Y-77126190D01*
X111833333Y-77030952D01*
X111866666Y-76983333D01*
X111933333Y-76935714D01*
X112066666Y-76935714D01*
X112133333Y-76983333D01*
X113500000Y-77652380D02*
X113500000Y-76985714D01*
X113500000Y-77176190D02*
X113533333Y-77080952D01*
X113566666Y-77033333D01*
X113633333Y-76985714D01*
X113700000Y-76985714D01*
X113866666Y-77652380D02*
X114233333Y-76985714D01*
X113866666Y-76985714D02*
X114233333Y-77652380D01*
X114800000Y-77652380D02*
X114800000Y-76652380D01*
X114800000Y-77604761D02*
X114733333Y-77652380D01*
X114600000Y-77652380D01*
X114533333Y-77604761D01*
X114500000Y-77557142D01*
X114466666Y-77461904D01*
X114466666Y-77176190D01*
X114500000Y-77080952D01*
X114533333Y-77033333D01*
X114600000Y-76985714D01*
X114733333Y-76985714D01*
X114800000Y-77033333D01*
X116033333Y-76835714D02*
X116200000Y-77502380D01*
X116366666Y-76835714D01*
X116933333Y-77454761D02*
X116866666Y-77502380D01*
X116733333Y-77502380D01*
X116666666Y-77454761D01*
X116633333Y-77407142D01*
X116600000Y-77311904D01*
X116600000Y-77026190D01*
X116633333Y-76930952D01*
X116666666Y-76883333D01*
X116733333Y-76835714D01*
X116866666Y-76835714D01*
X116933333Y-76883333D01*
X117533333Y-77454761D02*
X117466666Y-77502380D01*
X117333333Y-77502380D01*
X117266666Y-77454761D01*
X117233333Y-77407142D01*
X117200000Y-77311904D01*
X117200000Y-77026190D01*
X117233333Y-76930952D01*
X117266666Y-76883333D01*
X117333333Y-76835714D01*
X117466666Y-76835714D01*
X117533333Y-76883333D01*
X120366666Y-84285714D02*
X120366666Y-85095238D01*
X120333333Y-85190476D01*
X120300000Y-85238095D01*
X120233333Y-85285714D01*
X120133333Y-85285714D01*
X120066666Y-85238095D01*
X120366666Y-84904761D02*
X120300000Y-84952380D01*
X120166666Y-84952380D01*
X120100000Y-84904761D01*
X120066666Y-84857142D01*
X120033333Y-84761904D01*
X120033333Y-84476190D01*
X120066666Y-84380952D01*
X120100000Y-84333333D01*
X120166666Y-84285714D01*
X120300000Y-84285714D01*
X120366666Y-84333333D01*
X120700000Y-84285714D02*
X120700000Y-84952380D01*
X120700000Y-84380952D02*
X120733333Y-84333333D01*
X120800000Y-84285714D01*
X120900000Y-84285714D01*
X120966666Y-84333333D01*
X121000000Y-84428571D01*
X121000000Y-84952380D01*
X121633333Y-84952380D02*
X121633333Y-83952380D01*
X121633333Y-84904761D02*
X121566666Y-84952380D01*
X121433333Y-84952380D01*
X121366666Y-84904761D01*
X121333333Y-84857142D01*
X121300000Y-84761904D01*
X121300000Y-84476190D01*
X121333333Y-84380952D01*
X121366666Y-84333333D01*
X121433333Y-84285714D01*
X121566666Y-84285714D01*
X121633333Y-84333333D01*
X122533333Y-84902380D02*
X122533333Y-84235714D01*
X122533333Y-84330952D02*
X122566666Y-84283333D01*
X122633333Y-84235714D01*
X122733333Y-84235714D01*
X122800000Y-84283333D01*
X122833333Y-84378571D01*
X122833333Y-84902380D01*
X122833333Y-84378571D02*
X122866666Y-84283333D01*
X122933333Y-84235714D01*
X123033333Y-84235714D01*
X123100000Y-84283333D01*
X123133333Y-84378571D01*
X123133333Y-84902380D01*
X123566666Y-84902380D02*
X123500000Y-84854761D01*
X123466666Y-84807142D01*
X123433333Y-84711904D01*
X123433333Y-84426190D01*
X123466666Y-84330952D01*
X123500000Y-84283333D01*
X123566666Y-84235714D01*
X123666666Y-84235714D01*
X123733333Y-84283333D01*
X123766666Y-84330952D01*
X123800000Y-84426190D01*
X123800000Y-84711904D01*
X123766666Y-84807142D01*
X123733333Y-84854761D01*
X123666666Y-84902380D01*
X123566666Y-84902380D01*
X124066666Y-84854761D02*
X124133333Y-84902380D01*
X124266666Y-84902380D01*
X124333333Y-84854761D01*
X124366666Y-84759523D01*
X124366666Y-84711904D01*
X124333333Y-84616666D01*
X124266666Y-84569047D01*
X124166666Y-84569047D01*
X124100000Y-84521428D01*
X124066666Y-84426190D01*
X124066666Y-84378571D01*
X124100000Y-84283333D01*
X124166666Y-84235714D01*
X124266666Y-84235714D01*
X124333333Y-84283333D01*
X124666666Y-84902380D02*
X124666666Y-84235714D01*
X124666666Y-83902380D02*
X124633333Y-83950000D01*
X124666666Y-83997619D01*
X124700000Y-83950000D01*
X124666666Y-83902380D01*
X124666666Y-83997619D01*
X125683333Y-84135714D02*
X125850000Y-84802380D01*
X126016666Y-84135714D01*
X126583333Y-84754761D02*
X126516666Y-84802380D01*
X126383333Y-84802380D01*
X126316666Y-84754761D01*
X126283333Y-84707142D01*
X126250000Y-84611904D01*
X126250000Y-84326190D01*
X126283333Y-84230952D01*
X126316666Y-84183333D01*
X126383333Y-84135714D01*
X126516666Y-84135714D01*
X126583333Y-84183333D01*
X127183333Y-84754761D02*
X127116666Y-84802380D01*
X126983333Y-84802380D01*
X126916666Y-84754761D01*
X126883333Y-84707142D01*
X126850000Y-84611904D01*
X126850000Y-84326190D01*
X126883333Y-84230952D01*
X126916666Y-84183333D01*
X126983333Y-84135714D01*
X127116666Y-84135714D01*
X127183333Y-84183333D01*
X120566666Y-78302380D02*
X120566666Y-77635714D01*
X120566666Y-77826190D02*
X120600000Y-77730952D01*
X120633333Y-77683333D01*
X120700000Y-77635714D01*
X120766666Y-77635714D01*
X120966666Y-78254761D02*
X121033333Y-78302380D01*
X121166666Y-78302380D01*
X121233333Y-78254761D01*
X121266666Y-78159523D01*
X121266666Y-78111904D01*
X121233333Y-78016666D01*
X121166666Y-77969047D01*
X121066666Y-77969047D01*
X121000000Y-77921428D01*
X120966666Y-77826190D01*
X120966666Y-77778571D01*
X121000000Y-77683333D01*
X121066666Y-77635714D01*
X121166666Y-77635714D01*
X121233333Y-77683333D01*
X121466666Y-77635714D02*
X121733333Y-77635714D01*
X121566666Y-77302380D02*
X121566666Y-78159523D01*
X121600000Y-78254761D01*
X121666666Y-78302380D01*
X121733333Y-78302380D01*
X123166666Y-78204761D02*
X123233333Y-78252380D01*
X123366666Y-78252380D01*
X123433333Y-78204761D01*
X123466666Y-78109523D01*
X123466666Y-78061904D01*
X123433333Y-77966666D01*
X123366666Y-77919047D01*
X123266666Y-77919047D01*
X123200000Y-77871428D01*
X123166666Y-77776190D01*
X123166666Y-77728571D01*
X123200000Y-77633333D01*
X123266666Y-77585714D01*
X123366666Y-77585714D01*
X123433333Y-77633333D01*
X124066666Y-78204761D02*
X124000000Y-78252380D01*
X123866666Y-78252380D01*
X123800000Y-78204761D01*
X123766666Y-78157142D01*
X123733333Y-78061904D01*
X123733333Y-77776190D01*
X123766666Y-77680952D01*
X123800000Y-77633333D01*
X123866666Y-77585714D01*
X124000000Y-77585714D01*
X124066666Y-77633333D01*
X124366666Y-78252380D02*
X124366666Y-77252380D01*
X124433333Y-77871428D02*
X124633333Y-78252380D01*
X124633333Y-77585714D02*
X124366666Y-77966666D01*
X125533333Y-78202380D02*
X125533333Y-77535714D01*
X125533333Y-77630952D02*
X125566666Y-77583333D01*
X125633333Y-77535714D01*
X125733333Y-77535714D01*
X125800000Y-77583333D01*
X125833333Y-77678571D01*
X125833333Y-78202380D01*
X125833333Y-77678571D02*
X125866666Y-77583333D01*
X125933333Y-77535714D01*
X126033333Y-77535714D01*
X126100000Y-77583333D01*
X126133333Y-77678571D01*
X126133333Y-78202380D01*
X126466666Y-78202380D02*
X126466666Y-77535714D01*
X126466666Y-77202380D02*
X126433333Y-77250000D01*
X126466666Y-77297619D01*
X126500000Y-77250000D01*
X126466666Y-77202380D01*
X126466666Y-77297619D01*
X126766666Y-78154761D02*
X126833333Y-78202380D01*
X126966666Y-78202380D01*
X127033333Y-78154761D01*
X127066666Y-78059523D01*
X127066666Y-78011904D01*
X127033333Y-77916666D01*
X126966666Y-77869047D01*
X126866666Y-77869047D01*
X126800000Y-77821428D01*
X126766666Y-77726190D01*
X126766666Y-77678571D01*
X126800000Y-77583333D01*
X126866666Y-77535714D01*
X126966666Y-77535714D01*
X127033333Y-77583333D01*
X127466666Y-78202380D02*
X127400000Y-78154761D01*
X127366666Y-78107142D01*
X127333333Y-78011904D01*
X127333333Y-77726190D01*
X127366666Y-77630952D01*
X127400000Y-77583333D01*
X127466666Y-77535714D01*
X127566666Y-77535714D01*
X127633333Y-77583333D01*
X127666666Y-77630952D01*
X127700000Y-77726190D01*
X127700000Y-78011904D01*
X127666666Y-78107142D01*
X127633333Y-78154761D01*
X127566666Y-78202380D01*
X127466666Y-78202380D01*
X76444286Y-92833333D02*
X75777620Y-92833333D01*
X76825239Y-92595238D02*
X76110953Y-92357142D01*
X76110953Y-92976190D01*
X76777620Y-93547619D02*
X76777620Y-93642857D01*
X76730001Y-93738095D01*
X76682381Y-93785714D01*
X76587143Y-93833333D01*
X76396667Y-93880952D01*
X76158572Y-93880952D01*
X75968096Y-93833333D01*
X75872858Y-93785714D01*
X75825239Y-93738095D01*
X75777620Y-93642857D01*
X75777620Y-93547619D01*
X75825239Y-93452380D01*
X75872858Y-93404761D01*
X75968096Y-93357142D01*
X76158572Y-93309523D01*
X76396667Y-93309523D01*
X76587143Y-93357142D01*
X76682381Y-93404761D01*
X76730001Y-93452380D01*
X76777620Y-93547619D01*
X75872858Y-94309523D02*
X75825239Y-94357142D01*
X75777620Y-94309523D01*
X75825239Y-94261904D01*
X75872858Y-94309523D01*
X75777620Y-94309523D01*
X76777620Y-94976190D02*
X76777620Y-95071428D01*
X76730001Y-95166666D01*
X76682381Y-95214285D01*
X76587143Y-95261904D01*
X76396667Y-95309523D01*
X76158572Y-95309523D01*
X75968096Y-95261904D01*
X75872858Y-95214285D01*
X75825239Y-95166666D01*
X75777620Y-95071428D01*
X75777620Y-94976190D01*
X75825239Y-94880952D01*
X75872858Y-94833333D01*
X75968096Y-94785714D01*
X76158572Y-94738095D01*
X76396667Y-94738095D01*
X76587143Y-94785714D01*
X76682381Y-94833333D01*
X76730001Y-94880952D01*
X76777620Y-94976190D01*
X76777620Y-95928571D02*
X76777620Y-96023809D01*
X76730001Y-96119047D01*
X76682381Y-96166666D01*
X76587143Y-96214285D01*
X76396667Y-96261904D01*
X76158572Y-96261904D01*
X75968096Y-96214285D01*
X75872858Y-96166666D01*
X75825239Y-96119047D01*
X75777620Y-96023809D01*
X75777620Y-95928571D01*
X75825239Y-95833333D01*
X75872858Y-95785714D01*
X75968096Y-95738095D01*
X76158572Y-95690476D01*
X76396667Y-95690476D01*
X76587143Y-95738095D01*
X76682381Y-95785714D01*
X76730001Y-95833333D01*
X76777620Y-95928571D01*
X76777620Y-96880952D02*
X76777620Y-96976190D01*
X76730001Y-97071428D01*
X76682381Y-97119047D01*
X76587143Y-97166666D01*
X76396667Y-97214285D01*
X76158572Y-97214285D01*
X75968096Y-97166666D01*
X75872858Y-97119047D01*
X75825239Y-97071428D01*
X75777620Y-96976190D01*
X75777620Y-96880952D01*
X75825239Y-96785714D01*
X75872858Y-96738095D01*
X75968096Y-96690476D01*
X76158572Y-96642857D01*
X76396667Y-96642857D01*
X76587143Y-96690476D01*
X76682381Y-96738095D01*
X76730001Y-96785714D01*
X76777620Y-96880952D01*
X75777620Y-98404761D02*
X76444286Y-98404761D01*
X76349048Y-98404761D02*
X76396667Y-98452380D01*
X76444286Y-98547619D01*
X76444286Y-98690476D01*
X76396667Y-98785714D01*
X76301429Y-98833333D01*
X75777620Y-98833333D01*
X76301429Y-98833333D02*
X76396667Y-98880952D01*
X76444286Y-98976190D01*
X76444286Y-99119047D01*
X76396667Y-99214285D01*
X76301429Y-99261904D01*
X75777620Y-99261904D01*
X75777620Y-99738095D02*
X76444286Y-99738095D01*
X76349048Y-99738095D02*
X76396667Y-99785714D01*
X76444286Y-99880952D01*
X76444286Y-100023809D01*
X76396667Y-100119047D01*
X76301429Y-100166666D01*
X75777620Y-100166666D01*
X76301429Y-100166666D02*
X76396667Y-100214285D01*
X76444286Y-100309523D01*
X76444286Y-100452380D01*
X76396667Y-100547619D01*
X76301429Y-100595238D01*
X75777620Y-100595238D01*
D11*
X77500001Y-76500000D02*
X77500001Y-116500000D01*
X82500000Y-76500000D02*
X76913580Y-76500000D01*
X82500000Y-116500000D02*
X76913580Y-116500000D01*
X77500001Y-116500000D02*
X76913580Y-115373496D01*
X77500001Y-116500000D02*
X78086422Y-115373496D01*
X77500001Y-76500000D02*
X76913580Y-77626504D01*
X77500001Y-76500000D02*
X78086422Y-77626504D01*
X144400000Y-101850000D02*
X172400000Y-101850000D01*
X144400000Y-89350000D02*
X144400000Y-101850000D01*
X172400000Y-89350000D02*
X144400000Y-89350000D01*
X172400000Y-101850000D02*
X172400000Y-89350000D01*
X98490000Y-100737779D02*
X98490000Y-100412221D01*
X99510000Y-100737779D02*
X99510000Y-100412221D01*
X91140000Y-97125279D02*
X91140000Y-96799721D01*
X92160000Y-97125279D02*
X92160000Y-96799721D01*
X89465000Y-87587221D02*
X89465000Y-87912779D01*
X90485000Y-87587221D02*
X90485000Y-87912779D01*
X95790000Y-97074721D02*
X95790000Y-97400279D01*
X96810000Y-97074721D02*
X96810000Y-97400279D01*
X95235000Y-82425279D02*
X95235000Y-82099721D01*
X94215000Y-82425279D02*
X94215000Y-82099721D01*
X98360000Y-97400279D02*
X98360000Y-97074721D01*
X97340000Y-97400279D02*
X97340000Y-97074721D01*
X87965000Y-82325279D02*
X87965000Y-81999721D01*
X88985000Y-82325279D02*
X88985000Y-81999721D01*
X106790000Y-101862779D02*
X106790000Y-101537221D01*
X107810000Y-101862779D02*
X107810000Y-101537221D01*
X107525279Y-82510000D02*
X107199721Y-82510000D01*
X107525279Y-81490000D02*
X107199721Y-81490000D01*
X112665000Y-101512221D02*
X112665000Y-101837779D01*
X113685000Y-101512221D02*
X113685000Y-101837779D01*
X108137221Y-99610000D02*
X108462779Y-99610000D01*
X108137221Y-98590000D02*
X108462779Y-98590000D01*
X109362779Y-87360000D02*
X109037221Y-87360000D01*
X109362779Y-86340000D02*
X109037221Y-86340000D01*
X121635000Y-91087221D02*
X121635000Y-91412779D01*
X120615000Y-91087221D02*
X120615000Y-91412779D01*
X105260000Y-77820000D02*
X105260000Y-80480000D01*
X115480000Y-77820000D02*
X105260000Y-77820000D01*
X115480000Y-80480000D02*
X105260000Y-80480000D01*
X115480000Y-77820000D02*
X115480000Y-80480000D01*
X116750000Y-77820000D02*
X118080000Y-77820000D01*
X118080000Y-77820000D02*
X118080000Y-79150000D01*
X119940000Y-78670000D02*
X119940000Y-83870000D01*
X125080000Y-78670000D02*
X119940000Y-78670000D01*
X127680000Y-83870000D02*
X119940000Y-83870000D01*
X125080000Y-78670000D02*
X125080000Y-81270000D01*
X125080000Y-81270000D02*
X127680000Y-81270000D01*
X127680000Y-81270000D02*
X127680000Y-83870000D01*
X126350000Y-78670000D02*
X127680000Y-78670000D01*
X127680000Y-78670000D02*
X127680000Y-80000000D01*
X100300000Y-113700000D02*
X88800000Y-113700000D01*
X100300000Y-103700000D02*
X100300000Y-106500000D01*
X88800000Y-103700000D02*
X100300000Y-103700000D01*
X100300000Y-110900000D02*
X100300000Y-113700000D01*
X88800000Y-110900000D02*
X88800000Y-113700000D01*
X88800000Y-106500000D02*
X88800000Y-103700000D01*
X136455000Y-84140000D02*
X135525000Y-84140000D01*
X133295000Y-84140000D02*
X134225000Y-84140000D01*
X133295000Y-84140000D02*
X133295000Y-86300000D01*
X136455000Y-84140000D02*
X136455000Y-85600000D01*
X133844000Y-108376000D02*
X133844000Y-106916000D01*
X137004000Y-108376000D02*
X137004000Y-106216000D01*
X137004000Y-108376000D02*
X136074000Y-108376000D01*
X133844000Y-108376000D02*
X134774000Y-108376000D01*
X145205000Y-84165000D02*
X144275000Y-84165000D01*
X142045000Y-84165000D02*
X142975000Y-84165000D01*
X142045000Y-84165000D02*
X142045000Y-86325000D01*
X145205000Y-84165000D02*
X145205000Y-85625000D01*
X142120000Y-108510000D02*
X143050000Y-108510000D01*
X145280000Y-108510000D02*
X144350000Y-108510000D01*
X145280000Y-108510000D02*
X145280000Y-106350000D01*
X142120000Y-108510000D02*
X142120000Y-107050000D01*
X154155000Y-84115000D02*
X154155000Y-85575000D01*
X150995000Y-84115000D02*
X150995000Y-86275000D01*
X150995000Y-84115000D02*
X151925000Y-84115000D01*
X154155000Y-84115000D02*
X153225000Y-84115000D01*
X151170000Y-108485000D02*
X151170000Y-107025000D01*
X154330000Y-108485000D02*
X154330000Y-106325000D01*
X154330000Y-108485000D02*
X153400000Y-108485000D01*
X151170000Y-108485000D02*
X152100000Y-108485000D01*
X163230000Y-84265000D02*
X163230000Y-85725000D01*
X160070000Y-84265000D02*
X160070000Y-86425000D01*
X160070000Y-84265000D02*
X161000000Y-84265000D01*
X163230000Y-84265000D02*
X162300000Y-84265000D01*
X160045000Y-108535000D02*
X160975000Y-108535000D01*
X163205000Y-108535000D02*
X162275000Y-108535000D01*
X163205000Y-108535000D02*
X163205000Y-106375000D01*
X160045000Y-108535000D02*
X160045000Y-107075000D01*
X172355000Y-84295000D02*
X171425000Y-84295000D01*
X169195000Y-84295000D02*
X170125000Y-84295000D01*
X169195000Y-84295000D02*
X169195000Y-86455000D01*
X172355000Y-84295000D02*
X172355000Y-85755000D01*
X168870000Y-108585000D02*
X168870000Y-107125000D01*
X172030000Y-108585000D02*
X172030000Y-106425000D01*
X172030000Y-108585000D02*
X171100000Y-108585000D01*
X168870000Y-108585000D02*
X169800000Y-108585000D01*
X91015000Y-87587221D02*
X91015000Y-87912779D01*
X92035000Y-87587221D02*
X92035000Y-87912779D01*
X94262779Y-99165000D02*
X93937221Y-99165000D01*
X94262779Y-100185000D02*
X93937221Y-100185000D01*
X88935000Y-85187221D02*
X88935000Y-85512779D01*
X87915000Y-85187221D02*
X87915000Y-85512779D01*
X92565000Y-87587221D02*
X92565000Y-87912779D01*
X93585000Y-87587221D02*
X93585000Y-87912779D01*
X92690000Y-97124721D02*
X92690000Y-97450279D01*
X93710000Y-97124721D02*
X93710000Y-97450279D01*
X94240000Y-97437779D02*
X94240000Y-97112221D01*
X95260000Y-97437779D02*
X95260000Y-97112221D01*
X93937221Y-102135000D02*
X94262779Y-102135000D01*
X93937221Y-101115000D02*
X94262779Y-101115000D01*
X95235000Y-85137221D02*
X95235000Y-85462779D01*
X94215000Y-85137221D02*
X94215000Y-85462779D01*
X103412779Y-104760000D02*
X103087221Y-104760000D01*
X103412779Y-103740000D02*
X103087221Y-103740000D01*
X101112779Y-93660000D02*
X100787221Y-93660000D01*
X101112779Y-92640000D02*
X100787221Y-92640000D01*
X129785000Y-106987221D02*
X129785000Y-107312779D01*
X128765000Y-106987221D02*
X128765000Y-107312779D01*
X118237221Y-108090000D02*
X118562779Y-108090000D01*
X118237221Y-109110000D02*
X118562779Y-109110000D01*
X111437221Y-108140000D02*
X111762779Y-108140000D01*
X111437221Y-109160000D02*
X111762779Y-109160000D01*
X109362779Y-85810000D02*
X109037221Y-85810000D01*
X109362779Y-84790000D02*
X109037221Y-84790000D01*
X100760000Y-87562779D02*
X100760000Y-87237221D01*
X99740000Y-87562779D02*
X99740000Y-87237221D01*
X102360000Y-87224721D02*
X102360000Y-87550279D01*
X101340000Y-87224721D02*
X101340000Y-87550279D01*
X105862779Y-109160000D02*
X105537221Y-109160000D01*
X105862779Y-108140000D02*
X105537221Y-108140000D01*
X123287221Y-87365000D02*
X123612779Y-87365000D01*
X123287221Y-88385000D02*
X123612779Y-88385000D01*
X123262221Y-86810000D02*
X123587779Y-86810000D01*
X123262221Y-85790000D02*
X123587779Y-85790000D01*
X131790000Y-85287779D02*
X131790000Y-84962221D01*
X132810000Y-85287779D02*
X132810000Y-84962221D01*
X137465000Y-107237221D02*
X137465000Y-107562779D01*
X138485000Y-107237221D02*
X138485000Y-107562779D01*
X140565000Y-85287779D02*
X140565000Y-84962221D01*
X141585000Y-85287779D02*
X141585000Y-84962221D01*
X145740000Y-107362221D02*
X145740000Y-107687779D01*
X146760000Y-107362221D02*
X146760000Y-107687779D01*
X150535000Y-85275279D02*
X150535000Y-84949721D01*
X149515000Y-85275279D02*
X149515000Y-84949721D01*
X155810000Y-107337221D02*
X155810000Y-107662779D01*
X154790000Y-107337221D02*
X154790000Y-107662779D01*
X159610000Y-85400279D02*
X159610000Y-85074721D01*
X158590000Y-85400279D02*
X158590000Y-85074721D01*
X163690000Y-107387221D02*
X163690000Y-107712779D01*
X164710000Y-107387221D02*
X164710000Y-107712779D01*
X168735000Y-85425279D02*
X168735000Y-85099721D01*
X167715000Y-85425279D02*
X167715000Y-85099721D01*
X172490000Y-107437221D02*
X172490000Y-107762779D01*
X173510000Y-107437221D02*
X173510000Y-107762779D01*
X95830000Y-101025000D02*
X95830000Y-100025000D01*
X98070000Y-99025000D02*
X98070000Y-101025000D01*
X90590000Y-85072500D02*
X90115000Y-85072500D01*
X90115000Y-85072500D02*
X90115000Y-84597500D01*
X92860000Y-81852500D02*
X93335000Y-81852500D01*
X93335000Y-81852500D02*
X93335000Y-82327500D01*
X90590000Y-81852500D02*
X90115000Y-81852500D01*
X90115000Y-81852500D02*
X90115000Y-82327500D01*
X92860000Y-85072500D02*
X93335000Y-85072500D01*
D10*
X104325000Y-96625000D02*
X104550000Y-96625000D01*
X104325000Y-89375000D02*
X104650000Y-89375000D01*
X111575000Y-89375000D02*
X111250000Y-89375000D01*
X111575000Y-96625000D02*
X111250000Y-96625000D01*
X104325000Y-96625000D02*
X104325000Y-96300000D01*
X111575000Y-96625000D02*
X111575000Y-96300000D01*
X111575000Y-89375000D02*
X111575000Y-89700000D01*
X104325000Y-89375000D02*
X104325000Y-89700000D01*
X104550000Y-96625000D02*
X104550000Y-98050000D01*
D11*
X132660000Y-95100000D02*
X132660000Y-91240000D01*
X132660000Y-91240000D02*
X132405000Y-91240000D01*
X132660000Y-95100000D02*
X132660000Y-98960000D01*
X132660000Y-98960000D02*
X132405000Y-98960000D01*
X122140000Y-95100000D02*
X122140000Y-91240000D01*
X122140000Y-91240000D02*
X122395000Y-91240000D01*
X122140000Y-95100000D02*
X122140000Y-98960000D01*
X122140000Y-98960000D02*
X122395000Y-98960000D01*
X122395000Y-98960000D02*
X122395000Y-100775000D01*
X108275000Y-99950000D02*
X108275000Y-103250000D01*
X108275000Y-103250000D02*
X112275000Y-103250000D01*
X111880000Y-105390000D02*
X112611000Y-105390000D01*
X111880000Y-107510000D02*
X112611000Y-107510000D01*
X90320000Y-99750000D02*
X90320000Y-101250000D01*
X90320000Y-101250000D02*
X83060000Y-101250000D01*
X90320000Y-91750000D02*
X83060000Y-91750000D01*
X90320000Y-91750000D02*
X90320000Y-93250000D01*
X105040000Y-107510000D02*
X105771000Y-107510000D01*
X105040000Y-105390000D02*
X105771000Y-105390000D01*
X126170000Y-107510000D02*
X125439000Y-107510000D01*
X126170000Y-105390000D02*
X125439000Y-105390000D01*
X118730000Y-105390000D02*
X119461000Y-105390000D01*
X118730000Y-107510000D02*
X119461000Y-107510000D01*
X117140000Y-90312779D02*
X117140000Y-89987221D01*
X118160000Y-90312779D02*
X118160000Y-89987221D01*
X116740000Y-113187221D02*
X116740000Y-113512779D01*
X117760000Y-113187221D02*
X117760000Y-113512779D01*
X115390000Y-90325279D02*
X115390000Y-89999721D01*
X116410000Y-90325279D02*
X116410000Y-89999721D01*
X120190000Y-113187221D02*
X120190000Y-113512779D01*
X121210000Y-113187221D02*
X121210000Y-113512779D01*
X135550000Y-82400000D02*
X135850000Y-81800000D01*
X136150000Y-82400000D02*
X135550000Y-82400000D01*
X135850000Y-81800000D02*
X136150000Y-82400000D01*
X133100000Y-77100000D02*
X133600000Y-77100000D01*
X133100000Y-71600000D02*
X133100000Y-77100000D01*
X133600000Y-71600000D02*
X133100000Y-71600000D01*
X133600000Y-77100000D02*
X133600000Y-71600000D01*
X135600000Y-77100000D02*
X136100000Y-77100000D01*
X135600000Y-71600000D02*
X135600000Y-77100000D01*
X136100000Y-71600000D02*
X135600000Y-71600000D01*
X136100000Y-77100000D02*
X136100000Y-71600000D01*
X132210000Y-78210000D02*
X134600000Y-78210000D01*
X132210000Y-82710000D02*
X132210000Y-78210000D01*
X130790000Y-82710000D02*
X132210000Y-82710000D01*
X130790000Y-70990000D02*
X130790000Y-82710000D01*
X134600000Y-70990000D02*
X130790000Y-70990000D01*
X136990000Y-78210000D02*
X134600000Y-78210000D01*
X136990000Y-82710000D02*
X136990000Y-78210000D01*
X138410000Y-82710000D02*
X136990000Y-82710000D01*
X138410000Y-70990000D02*
X138410000Y-82710000D01*
X134600000Y-70990000D02*
X138410000Y-70990000D01*
X134650000Y-121710000D02*
X130840000Y-121710000D01*
X130840000Y-121710000D02*
X130840000Y-109990000D01*
X130840000Y-109990000D02*
X132260000Y-109990000D01*
X132260000Y-109990000D02*
X132260000Y-114490000D01*
X132260000Y-114490000D02*
X134650000Y-114490000D01*
X134650000Y-121710000D02*
X138460000Y-121710000D01*
X138460000Y-121710000D02*
X138460000Y-109990000D01*
X138460000Y-109990000D02*
X137040000Y-109990000D01*
X137040000Y-109990000D02*
X137040000Y-114490000D01*
X137040000Y-114490000D02*
X134650000Y-114490000D01*
X133150000Y-115600000D02*
X133150000Y-121100000D01*
X133150000Y-121100000D02*
X133650000Y-121100000D01*
X133650000Y-121100000D02*
X133650000Y-115600000D01*
X133650000Y-115600000D02*
X133150000Y-115600000D01*
X135650000Y-115600000D02*
X135650000Y-121100000D01*
X135650000Y-121100000D02*
X136150000Y-121100000D01*
X136150000Y-121100000D02*
X136150000Y-115600000D01*
X136150000Y-115600000D02*
X135650000Y-115600000D01*
X133400000Y-110900000D02*
X133100000Y-110300000D01*
X133100000Y-110300000D02*
X133700000Y-110300000D01*
X133700000Y-110300000D02*
X133400000Y-110900000D01*
X144550000Y-82400000D02*
X144850000Y-81800000D01*
X145150000Y-82400000D02*
X144550000Y-82400000D01*
X144850000Y-81800000D02*
X145150000Y-82400000D01*
X142100000Y-77100000D02*
X142600000Y-77100000D01*
X142100000Y-71600000D02*
X142100000Y-77100000D01*
X142600000Y-71600000D02*
X142100000Y-71600000D01*
X142600000Y-77100000D02*
X142600000Y-71600000D01*
X144600000Y-77100000D02*
X145100000Y-77100000D01*
X144600000Y-71600000D02*
X144600000Y-77100000D01*
X145100000Y-71600000D02*
X144600000Y-71600000D01*
X145100000Y-77100000D02*
X145100000Y-71600000D01*
X141210000Y-78210000D02*
X143600000Y-78210000D01*
X141210000Y-82710000D02*
X141210000Y-78210000D01*
X139790000Y-82710000D02*
X141210000Y-82710000D01*
X139790000Y-70990000D02*
X139790000Y-82710000D01*
X143600000Y-70990000D02*
X139790000Y-70990000D01*
X145990000Y-78210000D02*
X143600000Y-78210000D01*
X145990000Y-82710000D02*
X145990000Y-78210000D01*
X147410000Y-82710000D02*
X145990000Y-82710000D01*
X147410000Y-70990000D02*
X147410000Y-82710000D01*
X143600000Y-70990000D02*
X147410000Y-70990000D01*
X142700000Y-110300000D02*
X142400000Y-110900000D01*
X142100000Y-110300000D02*
X142700000Y-110300000D01*
X142400000Y-110900000D02*
X142100000Y-110300000D01*
X145150000Y-115600000D02*
X144650000Y-115600000D01*
X145150000Y-121100000D02*
X145150000Y-115600000D01*
X144650000Y-121100000D02*
X145150000Y-121100000D01*
X144650000Y-115600000D02*
X144650000Y-121100000D01*
X142650000Y-115600000D02*
X142150000Y-115600000D01*
X142650000Y-121100000D02*
X142650000Y-115600000D01*
X142150000Y-121100000D02*
X142650000Y-121100000D01*
X142150000Y-115600000D02*
X142150000Y-121100000D01*
X146040000Y-114490000D02*
X143650000Y-114490000D01*
X146040000Y-109990000D02*
X146040000Y-114490000D01*
X147460000Y-109990000D02*
X146040000Y-109990000D01*
X147460000Y-121710000D02*
X147460000Y-109990000D01*
X143650000Y-121710000D02*
X147460000Y-121710000D01*
X141260000Y-114490000D02*
X143650000Y-114490000D01*
X141260000Y-109990000D02*
X141260000Y-114490000D01*
X139840000Y-109990000D02*
X141260000Y-109990000D01*
X139840000Y-121710000D02*
X139840000Y-109990000D01*
X143650000Y-121710000D02*
X139840000Y-121710000D01*
X152600000Y-70990000D02*
X156410000Y-70990000D01*
X156410000Y-70990000D02*
X156410000Y-82710000D01*
X156410000Y-82710000D02*
X154990000Y-82710000D01*
X154990000Y-82710000D02*
X154990000Y-78210000D01*
X154990000Y-78210000D02*
X152600000Y-78210000D01*
X152600000Y-70990000D02*
X148790000Y-70990000D01*
X148790000Y-70990000D02*
X148790000Y-82710000D01*
X148790000Y-82710000D02*
X150210000Y-82710000D01*
X150210000Y-82710000D02*
X150210000Y-78210000D01*
X150210000Y-78210000D02*
X152600000Y-78210000D01*
X154100000Y-77100000D02*
X154100000Y-71600000D01*
X154100000Y-71600000D02*
X153600000Y-71600000D01*
X153600000Y-71600000D02*
X153600000Y-77100000D01*
X153600000Y-77100000D02*
X154100000Y-77100000D01*
X151600000Y-77100000D02*
X151600000Y-71600000D01*
X151600000Y-71600000D02*
X151100000Y-71600000D01*
X151100000Y-71600000D02*
X151100000Y-77100000D01*
X151100000Y-77100000D02*
X151600000Y-77100000D01*
X153850000Y-81800000D02*
X154150000Y-82400000D01*
X154150000Y-82400000D02*
X153550000Y-82400000D01*
X153550000Y-82400000D02*
X153850000Y-81800000D01*
X152650000Y-121710000D02*
X148840000Y-121710000D01*
X148840000Y-121710000D02*
X148840000Y-109990000D01*
X148840000Y-109990000D02*
X150260000Y-109990000D01*
X150260000Y-109990000D02*
X150260000Y-114490000D01*
X150260000Y-114490000D02*
X152650000Y-114490000D01*
X152650000Y-121710000D02*
X156460000Y-121710000D01*
X156460000Y-121710000D02*
X156460000Y-109990000D01*
X156460000Y-109990000D02*
X155040000Y-109990000D01*
X155040000Y-109990000D02*
X155040000Y-114490000D01*
X155040000Y-114490000D02*
X152650000Y-114490000D01*
X151150000Y-115600000D02*
X151150000Y-121100000D01*
X151150000Y-121100000D02*
X151650000Y-121100000D01*
X151650000Y-121100000D02*
X151650000Y-115600000D01*
X151650000Y-115600000D02*
X151150000Y-115600000D01*
X153650000Y-115600000D02*
X153650000Y-121100000D01*
X153650000Y-121100000D02*
X154150000Y-121100000D01*
X154150000Y-121100000D02*
X154150000Y-115600000D01*
X154150000Y-115600000D02*
X153650000Y-115600000D01*
X151400000Y-110900000D02*
X151100000Y-110300000D01*
X151100000Y-110300000D02*
X151700000Y-110300000D01*
X151700000Y-110300000D02*
X151400000Y-110900000D01*
X161600000Y-70990000D02*
X165410000Y-70990000D01*
X165410000Y-70990000D02*
X165410000Y-82710000D01*
X165410000Y-82710000D02*
X163990000Y-82710000D01*
X163990000Y-82710000D02*
X163990000Y-78210000D01*
X163990000Y-78210000D02*
X161600000Y-78210000D01*
X161600000Y-70990000D02*
X157790000Y-70990000D01*
X157790000Y-70990000D02*
X157790000Y-82710000D01*
X157790000Y-82710000D02*
X159210000Y-82710000D01*
X159210000Y-82710000D02*
X159210000Y-78210000D01*
X159210000Y-78210000D02*
X161600000Y-78210000D01*
X163100000Y-77100000D02*
X163100000Y-71600000D01*
X163100000Y-71600000D02*
X162600000Y-71600000D01*
X162600000Y-71600000D02*
X162600000Y-77100000D01*
X162600000Y-77100000D02*
X163100000Y-77100000D01*
X160600000Y-77100000D02*
X160600000Y-71600000D01*
X160600000Y-71600000D02*
X160100000Y-71600000D01*
X160100000Y-71600000D02*
X160100000Y-77100000D01*
X160100000Y-77100000D02*
X160600000Y-77100000D01*
X162850000Y-81800000D02*
X163150000Y-82400000D01*
X163150000Y-82400000D02*
X162550000Y-82400000D01*
X162550000Y-82400000D02*
X162850000Y-81800000D01*
X161650000Y-121710000D02*
X157840000Y-121710000D01*
X157840000Y-121710000D02*
X157840000Y-109990000D01*
X157840000Y-109990000D02*
X159260000Y-109990000D01*
X159260000Y-109990000D02*
X159260000Y-114490000D01*
X159260000Y-114490000D02*
X161650000Y-114490000D01*
X161650000Y-121710000D02*
X165460000Y-121710000D01*
X165460000Y-121710000D02*
X165460000Y-109990000D01*
X165460000Y-109990000D02*
X164040000Y-109990000D01*
X164040000Y-109990000D02*
X164040000Y-114490000D01*
X164040000Y-114490000D02*
X161650000Y-114490000D01*
X160150000Y-115600000D02*
X160150000Y-121100000D01*
X160150000Y-121100000D02*
X160650000Y-121100000D01*
X160650000Y-121100000D02*
X160650000Y-115600000D01*
X160650000Y-115600000D02*
X160150000Y-115600000D01*
X162650000Y-115600000D02*
X162650000Y-121100000D01*
X162650000Y-121100000D02*
X163150000Y-121100000D01*
X163150000Y-121100000D02*
X163150000Y-115600000D01*
X163150000Y-115600000D02*
X162650000Y-115600000D01*
X160400000Y-110900000D02*
X160100000Y-110300000D01*
X160100000Y-110300000D02*
X160700000Y-110300000D01*
X160700000Y-110300000D02*
X160400000Y-110900000D01*
X169700000Y-110300000D02*
X169400000Y-110900000D01*
X169100000Y-110300000D02*
X169700000Y-110300000D01*
X169400000Y-110900000D02*
X169100000Y-110300000D01*
X172150000Y-115600000D02*
X171650000Y-115600000D01*
X172150000Y-121100000D02*
X172150000Y-115600000D01*
X171650000Y-121100000D02*
X172150000Y-121100000D01*
X171650000Y-115600000D02*
X171650000Y-121100000D01*
X169650000Y-115600000D02*
X169150000Y-115600000D01*
X169650000Y-121100000D02*
X169650000Y-115600000D01*
X169150000Y-121100000D02*
X169650000Y-121100000D01*
X169150000Y-115600000D02*
X169150000Y-121100000D01*
X173040000Y-114490000D02*
X170650000Y-114490000D01*
X173040000Y-109990000D02*
X173040000Y-114490000D01*
X174460000Y-109990000D02*
X173040000Y-109990000D01*
X174460000Y-121710000D02*
X174460000Y-109990000D01*
X170650000Y-121710000D02*
X174460000Y-121710000D01*
X168260000Y-114490000D02*
X170650000Y-114490000D01*
X168260000Y-109990000D02*
X168260000Y-114490000D01*
X166840000Y-109990000D02*
X168260000Y-109990000D01*
X166840000Y-121710000D02*
X166840000Y-109990000D01*
X170650000Y-121710000D02*
X166840000Y-121710000D01*
X170600000Y-70990000D02*
X174410000Y-70990000D01*
X174410000Y-70990000D02*
X174410000Y-82710000D01*
X174410000Y-82710000D02*
X172990000Y-82710000D01*
X172990000Y-82710000D02*
X172990000Y-78210000D01*
X172990000Y-78210000D02*
X170600000Y-78210000D01*
X170600000Y-70990000D02*
X166790000Y-70990000D01*
X166790000Y-70990000D02*
X166790000Y-82710000D01*
X166790000Y-82710000D02*
X168210000Y-82710000D01*
X168210000Y-82710000D02*
X168210000Y-78210000D01*
X168210000Y-78210000D02*
X170600000Y-78210000D01*
X172100000Y-77100000D02*
X172100000Y-71600000D01*
X172100000Y-71600000D02*
X171600000Y-71600000D01*
X171600000Y-71600000D02*
X171600000Y-77100000D01*
X171600000Y-77100000D02*
X172100000Y-77100000D01*
X169600000Y-77100000D02*
X169600000Y-71600000D01*
X169600000Y-71600000D02*
X169100000Y-71600000D01*
X169100000Y-71600000D02*
X169100000Y-77100000D01*
X169100000Y-77100000D02*
X169600000Y-77100000D01*
X171850000Y-81800000D02*
X172150000Y-82400000D01*
X172150000Y-82400000D02*
X171550000Y-82400000D01*
X171550000Y-82400000D02*
X171850000Y-81800000D01*
X100250000Y-71190000D02*
X104060000Y-71190000D01*
X104060000Y-71190000D02*
X104060000Y-82910000D01*
X104060000Y-82910000D02*
X102640000Y-82910000D01*
X102640000Y-82910000D02*
X102640000Y-78410000D01*
X102640000Y-78410000D02*
X100250000Y-78410000D01*
X100250000Y-71190000D02*
X96440000Y-71190000D01*
X96440000Y-71190000D02*
X96440000Y-82910000D01*
X96440000Y-82910000D02*
X97860000Y-82910000D01*
X97860000Y-82910000D02*
X97860000Y-78410000D01*
X97860000Y-78410000D02*
X100250000Y-78410000D01*
X101750000Y-77300000D02*
X101750000Y-71800000D01*
X101750000Y-71800000D02*
X101250000Y-71800000D01*
X101250000Y-71800000D02*
X101250000Y-77300000D01*
X101250000Y-77300000D02*
X101750000Y-77300000D01*
X99250000Y-77300000D02*
X99250000Y-71800000D01*
X99250000Y-71800000D02*
X98750000Y-71800000D01*
X98750000Y-71800000D02*
X98750000Y-77300000D01*
X98750000Y-77300000D02*
X99250000Y-77300000D01*
X101500000Y-82000000D02*
X101800000Y-82600000D01*
X101800000Y-82600000D02*
X101200000Y-82600000D01*
X101200000Y-82600000D02*
X101500000Y-82000000D01*
X113100000Y-112650000D02*
G75*
G03X113100000Y-112650000I-1000000J0D01*
G01*
X109850000Y-110400000D02*
X114350000Y-110400000D01*
X114350000Y-110400000D02*
X114350000Y-112650000D01*
X114350000Y-112650000D02*
X114350000Y-114900000D01*
X114350000Y-114900000D02*
X112100000Y-114900000D01*
X112100000Y-114900000D02*
X109850000Y-114900000D01*
X109850000Y-114900000D02*
X109850000Y-112650000D01*
X109850000Y-112650000D02*
X109850000Y-110400000D01*
X123600000Y-112650000D02*
X123600000Y-110400000D01*
X123600000Y-114900000D02*
X123600000Y-112650000D01*
X125850000Y-114900000D02*
X123600000Y-114900000D01*
X128100000Y-114900000D02*
X125850000Y-114900000D01*
X128100000Y-112650000D02*
X128100000Y-114900000D01*
X128100000Y-110400000D02*
X128100000Y-112650000D01*
X123600000Y-110400000D02*
X128100000Y-110400000D01*
X126850000Y-112650000D02*
G75*
G03X126850000Y-112650000I-1000000J0D01*
G01*
D10*
X173041666Y-95682142D02*
X173041666Y-96410714D01*
X173075000Y-96496428D01*
X173108333Y-96539285D01*
X173175000Y-96582142D01*
X173308333Y-96582142D01*
X173375000Y-96539285D01*
X173408333Y-96496428D01*
X173441666Y-96410714D01*
X173441666Y-95682142D01*
X174075000Y-95982142D02*
X174075000Y-96582142D01*
X173908333Y-95639285D02*
X173741666Y-96282142D01*
X174175000Y-96282142D01*
X155702380Y-103235714D02*
X156702380Y-102985714D01*
X155702380Y-102735714D01*
X155702380Y-102592857D02*
X155702380Y-102164285D01*
X156702380Y-102378571D02*
X155702380Y-102378571D01*
X159152380Y-103203571D02*
X158152380Y-103203571D01*
X158152380Y-103025000D01*
X158200000Y-102917857D01*
X158295238Y-102846428D01*
X158390476Y-102810714D01*
X158580952Y-102775000D01*
X158723809Y-102775000D01*
X158914285Y-102810714D01*
X159009523Y-102846428D01*
X159104761Y-102917857D01*
X159152380Y-103025000D01*
X159152380Y-103203571D01*
X158152380Y-102525000D02*
X158152380Y-102060714D01*
X158533333Y-102310714D01*
X158533333Y-102203571D01*
X158580952Y-102132142D01*
X158628571Y-102096428D01*
X158723809Y-102060714D01*
X158961904Y-102060714D01*
X159057142Y-102096428D01*
X159104761Y-102132142D01*
X159152380Y-102203571D01*
X159152380Y-102417857D01*
X159104761Y-102489285D01*
X159057142Y-102525000D01*
X161702380Y-103203571D02*
X160702380Y-103203571D01*
X160702380Y-103025000D01*
X160750000Y-102917857D01*
X160845238Y-102846428D01*
X160940476Y-102810714D01*
X161130952Y-102775000D01*
X161273809Y-102775000D01*
X161464285Y-102810714D01*
X161559523Y-102846428D01*
X161654761Y-102917857D01*
X161702380Y-103025000D01*
X161702380Y-103203571D01*
X160797619Y-102489285D02*
X160750000Y-102453571D01*
X160702380Y-102382142D01*
X160702380Y-102203571D01*
X160750000Y-102132142D01*
X160797619Y-102096428D01*
X160892857Y-102060714D01*
X160988095Y-102060714D01*
X161130952Y-102096428D01*
X161702380Y-102525000D01*
X161702380Y-102060714D01*
X164202380Y-103153571D02*
X163202380Y-103153571D01*
X163202380Y-102975000D01*
X163250000Y-102867857D01*
X163345238Y-102796428D01*
X163440476Y-102760714D01*
X163630952Y-102725000D01*
X163773809Y-102725000D01*
X163964285Y-102760714D01*
X164059523Y-102796428D01*
X164154761Y-102867857D01*
X164202380Y-102975000D01*
X164202380Y-103153571D01*
X164202380Y-102010714D02*
X164202380Y-102439285D01*
X164202380Y-102225000D02*
X163202380Y-102225000D01*
X163345238Y-102296428D01*
X163440476Y-102367857D01*
X163488095Y-102439285D01*
X166752380Y-103203571D02*
X165752380Y-103203571D01*
X165752380Y-103025000D01*
X165800000Y-102917857D01*
X165895238Y-102846428D01*
X165990476Y-102810714D01*
X166180952Y-102775000D01*
X166323809Y-102775000D01*
X166514285Y-102810714D01*
X166609523Y-102846428D01*
X166704761Y-102917857D01*
X166752380Y-103025000D01*
X166752380Y-103203571D01*
X165752380Y-102310714D02*
X165752380Y-102239285D01*
X165800000Y-102167857D01*
X165847619Y-102132142D01*
X165942857Y-102096428D01*
X166133333Y-102060714D01*
X166371428Y-102060714D01*
X166561904Y-102096428D01*
X166657142Y-102132142D01*
X166704761Y-102167857D01*
X166752380Y-102239285D01*
X166752380Y-102310714D01*
X166704761Y-102382142D01*
X166657142Y-102417857D01*
X166561904Y-102453571D01*
X166371428Y-102489285D01*
X166133333Y-102489285D01*
X165942857Y-102453571D01*
X165847619Y-102417857D01*
X165800000Y-102382142D01*
X165752380Y-102310714D01*
X168352380Y-104000000D02*
X169352380Y-103750000D01*
X168352380Y-103500000D01*
X169257142Y-102821428D02*
X169304761Y-102857142D01*
X169352380Y-102964285D01*
X169352380Y-103035714D01*
X169304761Y-103142857D01*
X169209523Y-103214285D01*
X169114285Y-103250000D01*
X168923809Y-103285714D01*
X168780952Y-103285714D01*
X168590476Y-103250000D01*
X168495238Y-103214285D01*
X168400000Y-103142857D01*
X168352380Y-103035714D01*
X168352380Y-102964285D01*
X168400000Y-102857142D01*
X168447619Y-102821428D01*
X169257142Y-102071428D02*
X169304761Y-102107142D01*
X169352380Y-102214285D01*
X169352380Y-102285714D01*
X169304761Y-102392857D01*
X169209523Y-102464285D01*
X169114285Y-102500000D01*
X168923809Y-102535714D01*
X168780952Y-102535714D01*
X168590476Y-102500000D01*
X168495238Y-102464285D01*
X168400000Y-102392857D01*
X168352380Y-102285714D01*
X168352380Y-102214285D01*
X168400000Y-102107142D01*
X168447619Y-102071428D01*
X170900000Y-103621428D02*
X170852380Y-103692857D01*
X170852380Y-103800000D01*
X170900000Y-103907142D01*
X170995238Y-103978571D01*
X171090476Y-104014285D01*
X171280952Y-104050000D01*
X171423809Y-104050000D01*
X171614285Y-104014285D01*
X171709523Y-103978571D01*
X171804761Y-103907142D01*
X171852380Y-103800000D01*
X171852380Y-103728571D01*
X171804761Y-103621428D01*
X171757142Y-103585714D01*
X171423809Y-103585714D01*
X171423809Y-103728571D01*
X171852380Y-103264285D02*
X170852380Y-103264285D01*
X171852380Y-102835714D01*
X170852380Y-102835714D01*
X171852380Y-102478571D02*
X170852380Y-102478571D01*
X170852380Y-102300000D01*
X170900000Y-102192857D01*
X170995238Y-102121428D01*
X171090476Y-102085714D01*
X171280952Y-102050000D01*
X171423809Y-102050000D01*
X171614285Y-102085714D01*
X171709523Y-102121428D01*
X171804761Y-102192857D01*
X171852380Y-102300000D01*
X171852380Y-102478571D01*
X98933333Y-103046428D02*
X98900000Y-103089285D01*
X98800000Y-103132142D01*
X98733333Y-103132142D01*
X98633333Y-103089285D01*
X98566666Y-103003571D01*
X98533333Y-102917857D01*
X98500000Y-102746428D01*
X98500000Y-102617857D01*
X98533333Y-102446428D01*
X98566666Y-102360714D01*
X98633333Y-102275000D01*
X98733333Y-102232142D01*
X98800000Y-102232142D01*
X98900000Y-102275000D01*
X98933333Y-102317857D01*
X99600000Y-103132142D02*
X99200000Y-103132142D01*
X99400000Y-103132142D02*
X99400000Y-102232142D01*
X99333333Y-102360714D01*
X99266666Y-102446428D01*
X99200000Y-102489285D01*
X91383333Y-95083928D02*
X91350000Y-95126785D01*
X91250000Y-95169642D01*
X91183333Y-95169642D01*
X91083333Y-95126785D01*
X91016666Y-95041071D01*
X90983333Y-94955357D01*
X90950000Y-94783928D01*
X90950000Y-94655357D01*
X90983333Y-94483928D01*
X91016666Y-94398214D01*
X91083333Y-94312500D01*
X91183333Y-94269642D01*
X91250000Y-94269642D01*
X91350000Y-94312500D01*
X91383333Y-94355357D01*
X91650000Y-94355357D02*
X91683333Y-94312500D01*
X91750000Y-94269642D01*
X91916666Y-94269642D01*
X91983333Y-94312500D01*
X92016666Y-94355357D01*
X92050000Y-94441071D01*
X92050000Y-94526785D01*
X92016666Y-94655357D01*
X91616666Y-95169642D01*
X92050000Y-95169642D01*
X89858333Y-90121428D02*
X89825000Y-90164285D01*
X89725000Y-90207142D01*
X89658333Y-90207142D01*
X89558333Y-90164285D01*
X89491666Y-90078571D01*
X89458333Y-89992857D01*
X89425000Y-89821428D01*
X89425000Y-89692857D01*
X89458333Y-89521428D01*
X89491666Y-89435714D01*
X89558333Y-89350000D01*
X89658333Y-89307142D01*
X89725000Y-89307142D01*
X89825000Y-89350000D01*
X89858333Y-89392857D01*
X90091666Y-89307142D02*
X90525000Y-89307142D01*
X90291666Y-89650000D01*
X90391666Y-89650000D01*
X90458333Y-89692857D01*
X90491666Y-89735714D01*
X90525000Y-89821428D01*
X90525000Y-90035714D01*
X90491666Y-90121428D01*
X90458333Y-90164285D01*
X90391666Y-90207142D01*
X90191666Y-90207142D01*
X90125000Y-90164285D01*
X90091666Y-90121428D01*
X96033333Y-95396428D02*
X96000000Y-95439285D01*
X95900000Y-95482142D01*
X95833333Y-95482142D01*
X95733333Y-95439285D01*
X95666666Y-95353571D01*
X95633333Y-95267857D01*
X95600000Y-95096428D01*
X95600000Y-94967857D01*
X95633333Y-94796428D01*
X95666666Y-94710714D01*
X95733333Y-94625000D01*
X95833333Y-94582142D01*
X95900000Y-94582142D01*
X96000000Y-94625000D01*
X96033333Y-94667857D01*
X96633333Y-94882142D02*
X96633333Y-95482142D01*
X96466666Y-94539285D02*
X96300000Y-95182142D01*
X96733333Y-95182142D01*
X94608333Y-80421428D02*
X94575000Y-80464285D01*
X94475000Y-80507142D01*
X94408333Y-80507142D01*
X94308333Y-80464285D01*
X94241666Y-80378571D01*
X94208333Y-80292857D01*
X94175000Y-80121428D01*
X94175000Y-79992857D01*
X94208333Y-79821428D01*
X94241666Y-79735714D01*
X94308333Y-79650000D01*
X94408333Y-79607142D01*
X94475000Y-79607142D01*
X94575000Y-79650000D01*
X94608333Y-79692857D01*
X95241666Y-79607142D02*
X94908333Y-79607142D01*
X94875000Y-80035714D01*
X94908333Y-79992857D01*
X94975000Y-79950000D01*
X95141666Y-79950000D01*
X95208333Y-79992857D01*
X95241666Y-80035714D01*
X95275000Y-80121428D01*
X95275000Y-80335714D01*
X95241666Y-80421428D01*
X95208333Y-80464285D01*
X95141666Y-80507142D01*
X94975000Y-80507142D01*
X94908333Y-80464285D01*
X94875000Y-80421428D01*
X97583333Y-95396428D02*
X97550000Y-95439285D01*
X97450000Y-95482142D01*
X97383333Y-95482142D01*
X97283333Y-95439285D01*
X97216666Y-95353571D01*
X97183333Y-95267857D01*
X97150000Y-95096428D01*
X97150000Y-94967857D01*
X97183333Y-94796428D01*
X97216666Y-94710714D01*
X97283333Y-94625000D01*
X97383333Y-94582142D01*
X97450000Y-94582142D01*
X97550000Y-94625000D01*
X97583333Y-94667857D01*
X98183333Y-94582142D02*
X98050000Y-94582142D01*
X97983333Y-94625000D01*
X97950000Y-94667857D01*
X97883333Y-94796428D01*
X97850000Y-94967857D01*
X97850000Y-95310714D01*
X97883333Y-95396428D01*
X97916666Y-95439285D01*
X97983333Y-95482142D01*
X98116666Y-95482142D01*
X98183333Y-95439285D01*
X98216666Y-95396428D01*
X98250000Y-95310714D01*
X98250000Y-95096428D01*
X98216666Y-95010714D01*
X98183333Y-94967857D01*
X98116666Y-94925000D01*
X97983333Y-94925000D01*
X97916666Y-94967857D01*
X97883333Y-95010714D01*
X97850000Y-95096428D01*
X88358333Y-80333928D02*
X88325000Y-80376785D01*
X88225000Y-80419642D01*
X88158333Y-80419642D01*
X88058333Y-80376785D01*
X87991666Y-80291071D01*
X87958333Y-80205357D01*
X87925000Y-80033928D01*
X87925000Y-79905357D01*
X87958333Y-79733928D01*
X87991666Y-79648214D01*
X88058333Y-79562500D01*
X88158333Y-79519642D01*
X88225000Y-79519642D01*
X88325000Y-79562500D01*
X88358333Y-79605357D01*
X88591666Y-79519642D02*
X89058333Y-79519642D01*
X88758333Y-80419642D01*
X107183333Y-104221428D02*
X107150000Y-104264285D01*
X107050000Y-104307142D01*
X106983333Y-104307142D01*
X106883333Y-104264285D01*
X106816666Y-104178571D01*
X106783333Y-104092857D01*
X106750000Y-103921428D01*
X106750000Y-103792857D01*
X106783333Y-103621428D01*
X106816666Y-103535714D01*
X106883333Y-103450000D01*
X106983333Y-103407142D01*
X107050000Y-103407142D01*
X107150000Y-103450000D01*
X107183333Y-103492857D01*
X107583333Y-103792857D02*
X107516666Y-103750000D01*
X107483333Y-103707142D01*
X107450000Y-103621428D01*
X107450000Y-103578571D01*
X107483333Y-103492857D01*
X107516666Y-103450000D01*
X107583333Y-103407142D01*
X107716666Y-103407142D01*
X107783333Y-103450000D01*
X107816666Y-103492857D01*
X107850000Y-103578571D01*
X107850000Y-103621428D01*
X107816666Y-103707142D01*
X107783333Y-103750000D01*
X107716666Y-103792857D01*
X107583333Y-103792857D01*
X107516666Y-103835714D01*
X107483333Y-103878571D01*
X107450000Y-103964285D01*
X107450000Y-104135714D01*
X107483333Y-104221428D01*
X107516666Y-104264285D01*
X107583333Y-104307142D01*
X107716666Y-104307142D01*
X107783333Y-104264285D01*
X107816666Y-104221428D01*
X107850000Y-104135714D01*
X107850000Y-103964285D01*
X107816666Y-103878571D01*
X107783333Y-103835714D01*
X107716666Y-103792857D01*
X109408333Y-82371428D02*
X109375000Y-82414285D01*
X109275000Y-82457142D01*
X109208333Y-82457142D01*
X109108333Y-82414285D01*
X109041666Y-82328571D01*
X109008333Y-82242857D01*
X108975000Y-82071428D01*
X108975000Y-81942857D01*
X109008333Y-81771428D01*
X109041666Y-81685714D01*
X109108333Y-81600000D01*
X109208333Y-81557142D01*
X109275000Y-81557142D01*
X109375000Y-81600000D01*
X109408333Y-81642857D01*
X109741666Y-82457142D02*
X109875000Y-82457142D01*
X109941666Y-82414285D01*
X109975000Y-82371428D01*
X110041666Y-82242857D01*
X110075000Y-82071428D01*
X110075000Y-81728571D01*
X110041666Y-81642857D01*
X110008333Y-81600000D01*
X109941666Y-81557142D01*
X109808333Y-81557142D01*
X109741666Y-81600000D01*
X109708333Y-81642857D01*
X109675000Y-81728571D01*
X109675000Y-81942857D01*
X109708333Y-82028571D01*
X109741666Y-82071428D01*
X109808333Y-82114285D01*
X109941666Y-82114285D01*
X110008333Y-82071428D01*
X110041666Y-82028571D01*
X110075000Y-81942857D01*
X112925000Y-104233928D02*
X112891666Y-104276785D01*
X112791666Y-104319642D01*
X112725000Y-104319642D01*
X112625000Y-104276785D01*
X112558333Y-104191071D01*
X112525000Y-104105357D01*
X112491666Y-103933928D01*
X112491666Y-103805357D01*
X112525000Y-103633928D01*
X112558333Y-103548214D01*
X112625000Y-103462500D01*
X112725000Y-103419642D01*
X112791666Y-103419642D01*
X112891666Y-103462500D01*
X112925000Y-103505357D01*
X113591666Y-104319642D02*
X113191666Y-104319642D01*
X113391666Y-104319642D02*
X113391666Y-103419642D01*
X113325000Y-103548214D01*
X113258333Y-103633928D01*
X113191666Y-103676785D01*
X114025000Y-103419642D02*
X114091666Y-103419642D01*
X114158333Y-103462500D01*
X114191666Y-103505357D01*
X114225000Y-103591071D01*
X114258333Y-103762500D01*
X114258333Y-103976785D01*
X114225000Y-104148214D01*
X114191666Y-104233928D01*
X114158333Y-104276785D01*
X114091666Y-104319642D01*
X114025000Y-104319642D01*
X113958333Y-104276785D01*
X113925000Y-104233928D01*
X113891666Y-104148214D01*
X113858333Y-103976785D01*
X113858333Y-103762500D01*
X113891666Y-103591071D01*
X113925000Y-103505357D01*
X113958333Y-103462500D01*
X114025000Y-103419642D01*
X110500000Y-99371428D02*
X110466666Y-99414285D01*
X110366666Y-99457142D01*
X110300000Y-99457142D01*
X110200000Y-99414285D01*
X110133333Y-99328571D01*
X110100000Y-99242857D01*
X110066666Y-99071428D01*
X110066666Y-98942857D01*
X110100000Y-98771428D01*
X110133333Y-98685714D01*
X110200000Y-98600000D01*
X110300000Y-98557142D01*
X110366666Y-98557142D01*
X110466666Y-98600000D01*
X110500000Y-98642857D01*
X111166666Y-99457142D02*
X110766666Y-99457142D01*
X110966666Y-99457142D02*
X110966666Y-98557142D01*
X110900000Y-98685714D01*
X110833333Y-98771428D01*
X110766666Y-98814285D01*
X111833333Y-99457142D02*
X111433333Y-99457142D01*
X111633333Y-99457142D02*
X111633333Y-98557142D01*
X111566666Y-98685714D01*
X111500000Y-98771428D01*
X111433333Y-98814285D01*
X106212500Y-87221428D02*
X106179166Y-87264285D01*
X106079166Y-87307142D01*
X106012500Y-87307142D01*
X105912500Y-87264285D01*
X105845833Y-87178571D01*
X105812500Y-87092857D01*
X105779166Y-86921428D01*
X105779166Y-86792857D01*
X105812500Y-86621428D01*
X105845833Y-86535714D01*
X105912500Y-86450000D01*
X106012500Y-86407142D01*
X106079166Y-86407142D01*
X106179166Y-86450000D01*
X106212500Y-86492857D01*
X106879166Y-87307142D02*
X106479166Y-87307142D01*
X106679166Y-87307142D02*
X106679166Y-86407142D01*
X106612500Y-86535714D01*
X106545833Y-86621428D01*
X106479166Y-86664285D01*
X107145833Y-86492857D02*
X107179166Y-86450000D01*
X107245833Y-86407142D01*
X107412500Y-86407142D01*
X107479166Y-86450000D01*
X107512500Y-86492857D01*
X107545833Y-86578571D01*
X107545833Y-86664285D01*
X107512500Y-86792857D01*
X107112500Y-87307142D01*
X107545833Y-87307142D01*
X121446428Y-94225000D02*
X121489285Y-94258333D01*
X121532142Y-94358333D01*
X121532142Y-94425000D01*
X121489285Y-94525000D01*
X121403571Y-94591666D01*
X121317857Y-94625000D01*
X121146428Y-94658333D01*
X121017857Y-94658333D01*
X120846428Y-94625000D01*
X120760714Y-94591666D01*
X120675000Y-94525000D01*
X120632142Y-94425000D01*
X120632142Y-94358333D01*
X120675000Y-94258333D01*
X120717857Y-94225000D01*
X121532142Y-93558333D02*
X121532142Y-93958333D01*
X121532142Y-93758333D02*
X120632142Y-93758333D01*
X120760714Y-93825000D01*
X120846428Y-93891666D01*
X120889285Y-93958333D01*
X120632142Y-93325000D02*
X120632142Y-92891666D01*
X120975000Y-93125000D01*
X120975000Y-93025000D01*
X121017857Y-92958333D01*
X121060714Y-92925000D01*
X121146428Y-92891666D01*
X121360714Y-92891666D01*
X121446428Y-92925000D01*
X121489285Y-92958333D01*
X121532142Y-93025000D01*
X121532142Y-93225000D01*
X121489285Y-93291666D01*
X121446428Y-93325000D01*
X104766666Y-81207142D02*
X104766666Y-81850000D01*
X104733333Y-81978571D01*
X104666666Y-82064285D01*
X104566666Y-82107142D01*
X104500000Y-82107142D01*
X105033333Y-81207142D02*
X105466666Y-81207142D01*
X105233333Y-81550000D01*
X105333333Y-81550000D01*
X105400000Y-81592857D01*
X105433333Y-81635714D01*
X105466666Y-81721428D01*
X105466666Y-81935714D01*
X105433333Y-82021428D01*
X105400000Y-82064285D01*
X105333333Y-82107142D01*
X105133333Y-82107142D01*
X105066666Y-82064285D01*
X105033333Y-82021428D01*
X128561666Y-80432142D02*
X128561666Y-81075000D01*
X128528333Y-81203571D01*
X128461666Y-81289285D01*
X128361666Y-81332142D01*
X128295000Y-81332142D01*
X129195000Y-80732142D02*
X129195000Y-81332142D01*
X129028333Y-80389285D02*
X128861666Y-81032142D01*
X129295000Y-81032142D01*
X87833333Y-105157142D02*
X87500000Y-105157142D01*
X87500000Y-104257142D01*
X88433333Y-105157142D02*
X88033333Y-105157142D01*
X88233333Y-105157142D02*
X88233333Y-104257142D01*
X88166666Y-104385714D01*
X88100000Y-104471428D01*
X88033333Y-104514285D01*
X134708333Y-87742857D02*
X134641666Y-87700000D01*
X134575000Y-87614285D01*
X134475000Y-87485714D01*
X134408333Y-87442857D01*
X134341666Y-87442857D01*
X134375000Y-87657142D02*
X134308333Y-87614285D01*
X134241666Y-87528571D01*
X134208333Y-87357142D01*
X134208333Y-87057142D01*
X134241666Y-86885714D01*
X134308333Y-86800000D01*
X134375000Y-86757142D01*
X134508333Y-86757142D01*
X134575000Y-86800000D01*
X134641666Y-86885714D01*
X134675000Y-87057142D01*
X134675000Y-87357142D01*
X134641666Y-87528571D01*
X134575000Y-87614285D01*
X134508333Y-87657142D01*
X134375000Y-87657142D01*
X135341666Y-87657142D02*
X134941666Y-87657142D01*
X135141666Y-87657142D02*
X135141666Y-86757142D01*
X135075000Y-86885714D01*
X135008333Y-86971428D01*
X134941666Y-87014285D01*
X135283333Y-105692857D02*
X135216666Y-105650000D01*
X135150000Y-105564285D01*
X135050000Y-105435714D01*
X134983333Y-105392857D01*
X134916666Y-105392857D01*
X134950000Y-105607142D02*
X134883333Y-105564285D01*
X134816666Y-105478571D01*
X134783333Y-105307142D01*
X134783333Y-105007142D01*
X134816666Y-104835714D01*
X134883333Y-104750000D01*
X134950000Y-104707142D01*
X135083333Y-104707142D01*
X135150000Y-104750000D01*
X135216666Y-104835714D01*
X135250000Y-105007142D01*
X135250000Y-105307142D01*
X135216666Y-105478571D01*
X135150000Y-105564285D01*
X135083333Y-105607142D01*
X134950000Y-105607142D01*
X135516666Y-104792857D02*
X135550000Y-104750000D01*
X135616666Y-104707142D01*
X135783333Y-104707142D01*
X135850000Y-104750000D01*
X135883333Y-104792857D01*
X135916666Y-104878571D01*
X135916666Y-104964285D01*
X135883333Y-105092857D01*
X135483333Y-105607142D01*
X135916666Y-105607142D01*
X143358333Y-87867857D02*
X143291666Y-87825000D01*
X143225000Y-87739285D01*
X143125000Y-87610714D01*
X143058333Y-87567857D01*
X142991666Y-87567857D01*
X143025000Y-87782142D02*
X142958333Y-87739285D01*
X142891666Y-87653571D01*
X142858333Y-87482142D01*
X142858333Y-87182142D01*
X142891666Y-87010714D01*
X142958333Y-86925000D01*
X143025000Y-86882142D01*
X143158333Y-86882142D01*
X143225000Y-86925000D01*
X143291666Y-87010714D01*
X143325000Y-87182142D01*
X143325000Y-87482142D01*
X143291666Y-87653571D01*
X143225000Y-87739285D01*
X143158333Y-87782142D01*
X143025000Y-87782142D01*
X143558333Y-86882142D02*
X143991666Y-86882142D01*
X143758333Y-87225000D01*
X143858333Y-87225000D01*
X143925000Y-87267857D01*
X143958333Y-87310714D01*
X143991666Y-87396428D01*
X143991666Y-87610714D01*
X143958333Y-87696428D01*
X143925000Y-87739285D01*
X143858333Y-87782142D01*
X143658333Y-87782142D01*
X143591666Y-87739285D01*
X143558333Y-87696428D01*
X143583333Y-105867857D02*
X143516666Y-105825000D01*
X143450000Y-105739285D01*
X143350000Y-105610714D01*
X143283333Y-105567857D01*
X143216666Y-105567857D01*
X143250000Y-105782142D02*
X143183333Y-105739285D01*
X143116666Y-105653571D01*
X143083333Y-105482142D01*
X143083333Y-105182142D01*
X143116666Y-105010714D01*
X143183333Y-104925000D01*
X143250000Y-104882142D01*
X143383333Y-104882142D01*
X143450000Y-104925000D01*
X143516666Y-105010714D01*
X143550000Y-105182142D01*
X143550000Y-105482142D01*
X143516666Y-105653571D01*
X143450000Y-105739285D01*
X143383333Y-105782142D01*
X143250000Y-105782142D01*
X144150000Y-105182142D02*
X144150000Y-105782142D01*
X143983333Y-104839285D02*
X143816666Y-105482142D01*
X144250000Y-105482142D01*
X152408333Y-87667857D02*
X152341666Y-87625000D01*
X152275000Y-87539285D01*
X152175000Y-87410714D01*
X152108333Y-87367857D01*
X152041666Y-87367857D01*
X152075000Y-87582142D02*
X152008333Y-87539285D01*
X151941666Y-87453571D01*
X151908333Y-87282142D01*
X151908333Y-86982142D01*
X151941666Y-86810714D01*
X152008333Y-86725000D01*
X152075000Y-86682142D01*
X152208333Y-86682142D01*
X152275000Y-86725000D01*
X152341666Y-86810714D01*
X152375000Y-86982142D01*
X152375000Y-87282142D01*
X152341666Y-87453571D01*
X152275000Y-87539285D01*
X152208333Y-87582142D01*
X152075000Y-87582142D01*
X153008333Y-86682142D02*
X152675000Y-86682142D01*
X152641666Y-87110714D01*
X152675000Y-87067857D01*
X152741666Y-87025000D01*
X152908333Y-87025000D01*
X152975000Y-87067857D01*
X153008333Y-87110714D01*
X153041666Y-87196428D01*
X153041666Y-87410714D01*
X153008333Y-87496428D01*
X152975000Y-87539285D01*
X152908333Y-87582142D01*
X152741666Y-87582142D01*
X152675000Y-87539285D01*
X152641666Y-87496428D01*
X152683333Y-105892857D02*
X152616666Y-105850000D01*
X152550000Y-105764285D01*
X152450000Y-105635714D01*
X152383333Y-105592857D01*
X152316666Y-105592857D01*
X152350000Y-105807142D02*
X152283333Y-105764285D01*
X152216666Y-105678571D01*
X152183333Y-105507142D01*
X152183333Y-105207142D01*
X152216666Y-105035714D01*
X152283333Y-104950000D01*
X152350000Y-104907142D01*
X152483333Y-104907142D01*
X152550000Y-104950000D01*
X152616666Y-105035714D01*
X152650000Y-105207142D01*
X152650000Y-105507142D01*
X152616666Y-105678571D01*
X152550000Y-105764285D01*
X152483333Y-105807142D01*
X152350000Y-105807142D01*
X153250000Y-104907142D02*
X153116666Y-104907142D01*
X153050000Y-104950000D01*
X153016666Y-104992857D01*
X152950000Y-105121428D01*
X152916666Y-105292857D01*
X152916666Y-105635714D01*
X152950000Y-105721428D01*
X152983333Y-105764285D01*
X153050000Y-105807142D01*
X153183333Y-105807142D01*
X153250000Y-105764285D01*
X153283333Y-105721428D01*
X153316666Y-105635714D01*
X153316666Y-105421428D01*
X153283333Y-105335714D01*
X153250000Y-105292857D01*
X153183333Y-105250000D01*
X153050000Y-105250000D01*
X152983333Y-105292857D01*
X152950000Y-105335714D01*
X152916666Y-105421428D01*
X161483333Y-87842857D02*
X161416666Y-87800000D01*
X161350000Y-87714285D01*
X161250000Y-87585714D01*
X161183333Y-87542857D01*
X161116666Y-87542857D01*
X161150000Y-87757142D02*
X161083333Y-87714285D01*
X161016666Y-87628571D01*
X160983333Y-87457142D01*
X160983333Y-87157142D01*
X161016666Y-86985714D01*
X161083333Y-86900000D01*
X161150000Y-86857142D01*
X161283333Y-86857142D01*
X161350000Y-86900000D01*
X161416666Y-86985714D01*
X161450000Y-87157142D01*
X161450000Y-87457142D01*
X161416666Y-87628571D01*
X161350000Y-87714285D01*
X161283333Y-87757142D01*
X161150000Y-87757142D01*
X161683333Y-86857142D02*
X162150000Y-86857142D01*
X161850000Y-87757142D01*
X161558333Y-105842857D02*
X161491666Y-105800000D01*
X161425000Y-105714285D01*
X161325000Y-105585714D01*
X161258333Y-105542857D01*
X161191666Y-105542857D01*
X161225000Y-105757142D02*
X161158333Y-105714285D01*
X161091666Y-105628571D01*
X161058333Y-105457142D01*
X161058333Y-105157142D01*
X161091666Y-104985714D01*
X161158333Y-104900000D01*
X161225000Y-104857142D01*
X161358333Y-104857142D01*
X161425000Y-104900000D01*
X161491666Y-104985714D01*
X161525000Y-105157142D01*
X161525000Y-105457142D01*
X161491666Y-105628571D01*
X161425000Y-105714285D01*
X161358333Y-105757142D01*
X161225000Y-105757142D01*
X161925000Y-105242857D02*
X161858333Y-105200000D01*
X161825000Y-105157142D01*
X161791666Y-105071428D01*
X161791666Y-105028571D01*
X161825000Y-104942857D01*
X161858333Y-104900000D01*
X161925000Y-104857142D01*
X162058333Y-104857142D01*
X162125000Y-104900000D01*
X162158333Y-104942857D01*
X162191666Y-105028571D01*
X162191666Y-105071428D01*
X162158333Y-105157142D01*
X162125000Y-105200000D01*
X162058333Y-105242857D01*
X161925000Y-105242857D01*
X161858333Y-105285714D01*
X161825000Y-105328571D01*
X161791666Y-105414285D01*
X161791666Y-105585714D01*
X161825000Y-105671428D01*
X161858333Y-105714285D01*
X161925000Y-105757142D01*
X162058333Y-105757142D01*
X162125000Y-105714285D01*
X162158333Y-105671428D01*
X162191666Y-105585714D01*
X162191666Y-105414285D01*
X162158333Y-105328571D01*
X162125000Y-105285714D01*
X162058333Y-105242857D01*
X170558333Y-87867857D02*
X170491666Y-87825000D01*
X170425000Y-87739285D01*
X170325000Y-87610714D01*
X170258333Y-87567857D01*
X170191666Y-87567857D01*
X170225000Y-87782142D02*
X170158333Y-87739285D01*
X170091666Y-87653571D01*
X170058333Y-87482142D01*
X170058333Y-87182142D01*
X170091666Y-87010714D01*
X170158333Y-86925000D01*
X170225000Y-86882142D01*
X170358333Y-86882142D01*
X170425000Y-86925000D01*
X170491666Y-87010714D01*
X170525000Y-87182142D01*
X170525000Y-87482142D01*
X170491666Y-87653571D01*
X170425000Y-87739285D01*
X170358333Y-87782142D01*
X170225000Y-87782142D01*
X170858333Y-87782142D02*
X170991666Y-87782142D01*
X171058333Y-87739285D01*
X171091666Y-87696428D01*
X171158333Y-87567857D01*
X171191666Y-87396428D01*
X171191666Y-87053571D01*
X171158333Y-86967857D01*
X171125000Y-86925000D01*
X171058333Y-86882142D01*
X170925000Y-86882142D01*
X170858333Y-86925000D01*
X170825000Y-86967857D01*
X170791666Y-87053571D01*
X170791666Y-87267857D01*
X170825000Y-87353571D01*
X170858333Y-87396428D01*
X170925000Y-87439285D01*
X171058333Y-87439285D01*
X171125000Y-87396428D01*
X171158333Y-87353571D01*
X171191666Y-87267857D01*
X170025000Y-105917857D02*
X169958333Y-105875000D01*
X169891666Y-105789285D01*
X169791666Y-105660714D01*
X169725000Y-105617857D01*
X169658333Y-105617857D01*
X169691666Y-105832142D02*
X169625000Y-105789285D01*
X169558333Y-105703571D01*
X169525000Y-105532142D01*
X169525000Y-105232142D01*
X169558333Y-105060714D01*
X169625000Y-104975000D01*
X169691666Y-104932142D01*
X169825000Y-104932142D01*
X169891666Y-104975000D01*
X169958333Y-105060714D01*
X169991666Y-105232142D01*
X169991666Y-105532142D01*
X169958333Y-105703571D01*
X169891666Y-105789285D01*
X169825000Y-105832142D01*
X169691666Y-105832142D01*
X170658333Y-105832142D02*
X170258333Y-105832142D01*
X170458333Y-105832142D02*
X170458333Y-104932142D01*
X170391666Y-105060714D01*
X170325000Y-105146428D01*
X170258333Y-105189285D01*
X171091666Y-104932142D02*
X171158333Y-104932142D01*
X171225000Y-104975000D01*
X171258333Y-105017857D01*
X171291666Y-105103571D01*
X171325000Y-105275000D01*
X171325000Y-105489285D01*
X171291666Y-105660714D01*
X171258333Y-105746428D01*
X171225000Y-105789285D01*
X171158333Y-105832142D01*
X171091666Y-105832142D01*
X171025000Y-105789285D01*
X170991666Y-105746428D01*
X170958333Y-105660714D01*
X170925000Y-105489285D01*
X170925000Y-105275000D01*
X170958333Y-105103571D01*
X170991666Y-105017857D01*
X171025000Y-104975000D01*
X171091666Y-104932142D01*
X91458333Y-90257142D02*
X91225000Y-89828571D01*
X91058333Y-90257142D02*
X91058333Y-89357142D01*
X91325000Y-89357142D01*
X91391666Y-89400000D01*
X91425000Y-89442857D01*
X91458333Y-89528571D01*
X91458333Y-89657142D01*
X91425000Y-89742857D01*
X91391666Y-89785714D01*
X91325000Y-89828571D01*
X91058333Y-89828571D01*
X92125000Y-90257142D02*
X91725000Y-90257142D01*
X91925000Y-90257142D02*
X91925000Y-89357142D01*
X91858333Y-89485714D01*
X91791666Y-89571428D01*
X91725000Y-89614285D01*
X91833333Y-100032142D02*
X91600000Y-99603571D01*
X91433333Y-100032142D02*
X91433333Y-99132142D01*
X91700000Y-99132142D01*
X91766666Y-99175000D01*
X91800000Y-99217857D01*
X91833333Y-99303571D01*
X91833333Y-99432142D01*
X91800000Y-99517857D01*
X91766666Y-99560714D01*
X91700000Y-99603571D01*
X91433333Y-99603571D01*
X92100000Y-99217857D02*
X92133333Y-99175000D01*
X92200000Y-99132142D01*
X92366666Y-99132142D01*
X92433333Y-99175000D01*
X92466666Y-99217857D01*
X92500000Y-99303571D01*
X92500000Y-99389285D01*
X92466666Y-99517857D01*
X92066666Y-100032142D01*
X92500000Y-100032142D01*
X88308333Y-87757142D02*
X88075000Y-87328571D01*
X87908333Y-87757142D02*
X87908333Y-86857142D01*
X88175000Y-86857142D01*
X88241666Y-86900000D01*
X88275000Y-86942857D01*
X88308333Y-87028571D01*
X88308333Y-87157142D01*
X88275000Y-87242857D01*
X88241666Y-87285714D01*
X88175000Y-87328571D01*
X87908333Y-87328571D01*
X88541666Y-86857142D02*
X88975000Y-86857142D01*
X88741666Y-87200000D01*
X88841666Y-87200000D01*
X88908333Y-87242857D01*
X88941666Y-87285714D01*
X88975000Y-87371428D01*
X88975000Y-87585714D01*
X88941666Y-87671428D01*
X88908333Y-87714285D01*
X88841666Y-87757142D01*
X88641666Y-87757142D01*
X88575000Y-87714285D01*
X88541666Y-87671428D01*
X93008333Y-90269642D02*
X92775000Y-89841071D01*
X92608333Y-90269642D02*
X92608333Y-89369642D01*
X92875000Y-89369642D01*
X92941666Y-89412500D01*
X92975000Y-89455357D01*
X93008333Y-89541071D01*
X93008333Y-89669642D01*
X92975000Y-89755357D01*
X92941666Y-89798214D01*
X92875000Y-89841071D01*
X92608333Y-89841071D01*
X93608333Y-89669642D02*
X93608333Y-90269642D01*
X93441666Y-89326785D02*
X93275000Y-89969642D01*
X93708333Y-89969642D01*
X93333333Y-95494642D02*
X93100000Y-95066071D01*
X92933333Y-95494642D02*
X92933333Y-94594642D01*
X93200000Y-94594642D01*
X93266666Y-94637500D01*
X93300000Y-94680357D01*
X93333333Y-94766071D01*
X93333333Y-94894642D01*
X93300000Y-94980357D01*
X93266666Y-95023214D01*
X93200000Y-95066071D01*
X92933333Y-95066071D01*
X93966666Y-94594642D02*
X93633333Y-94594642D01*
X93600000Y-95023214D01*
X93633333Y-94980357D01*
X93700000Y-94937500D01*
X93866666Y-94937500D01*
X93933333Y-94980357D01*
X93966666Y-95023214D01*
X94000000Y-95108928D01*
X94000000Y-95323214D01*
X93966666Y-95408928D01*
X93933333Y-95451785D01*
X93866666Y-95494642D01*
X93700000Y-95494642D01*
X93633333Y-95451785D01*
X93600000Y-95408928D01*
X94633333Y-95532142D02*
X94400000Y-95103571D01*
X94233333Y-95532142D02*
X94233333Y-94632142D01*
X94500000Y-94632142D01*
X94566666Y-94675000D01*
X94600000Y-94717857D01*
X94633333Y-94803571D01*
X94633333Y-94932142D01*
X94600000Y-95017857D01*
X94566666Y-95060714D01*
X94500000Y-95103571D01*
X94233333Y-95103571D01*
X95233333Y-94632142D02*
X95100000Y-94632142D01*
X95033333Y-94675000D01*
X95000000Y-94717857D01*
X94933333Y-94846428D01*
X94900000Y-95017857D01*
X94900000Y-95360714D01*
X94933333Y-95446428D01*
X94966666Y-95489285D01*
X95033333Y-95532142D01*
X95166666Y-95532142D01*
X95233333Y-95489285D01*
X95266666Y-95446428D01*
X95300000Y-95360714D01*
X95300000Y-95146428D01*
X95266666Y-95060714D01*
X95233333Y-95017857D01*
X95166666Y-94975000D01*
X95033333Y-94975000D01*
X94966666Y-95017857D01*
X94933333Y-95060714D01*
X94900000Y-95146428D01*
X91833333Y-102132142D02*
X91600000Y-101703571D01*
X91433333Y-102132142D02*
X91433333Y-101232142D01*
X91700000Y-101232142D01*
X91766666Y-101275000D01*
X91800000Y-101317857D01*
X91833333Y-101403571D01*
X91833333Y-101532142D01*
X91800000Y-101617857D01*
X91766666Y-101660714D01*
X91700000Y-101703571D01*
X91433333Y-101703571D01*
X92066666Y-101232142D02*
X92533333Y-101232142D01*
X92233333Y-102132142D01*
X94658333Y-87757142D02*
X94425000Y-87328571D01*
X94258333Y-87757142D02*
X94258333Y-86857142D01*
X94525000Y-86857142D01*
X94591666Y-86900000D01*
X94625000Y-86942857D01*
X94658333Y-87028571D01*
X94658333Y-87157142D01*
X94625000Y-87242857D01*
X94591666Y-87285714D01*
X94525000Y-87328571D01*
X94258333Y-87328571D01*
X95058333Y-87242857D02*
X94991666Y-87200000D01*
X94958333Y-87157142D01*
X94925000Y-87071428D01*
X94925000Y-87028571D01*
X94958333Y-86942857D01*
X94991666Y-86900000D01*
X95058333Y-86857142D01*
X95191666Y-86857142D01*
X95258333Y-86900000D01*
X95291666Y-86942857D01*
X95325000Y-87028571D01*
X95325000Y-87071428D01*
X95291666Y-87157142D01*
X95258333Y-87200000D01*
X95191666Y-87242857D01*
X95058333Y-87242857D01*
X94991666Y-87285714D01*
X94958333Y-87328571D01*
X94925000Y-87414285D01*
X94925000Y-87585714D01*
X94958333Y-87671428D01*
X94991666Y-87714285D01*
X95058333Y-87757142D01*
X95191666Y-87757142D01*
X95258333Y-87714285D01*
X95291666Y-87671428D01*
X95325000Y-87585714D01*
X95325000Y-87414285D01*
X95291666Y-87328571D01*
X95258333Y-87285714D01*
X95191666Y-87242857D01*
X100933333Y-104657142D02*
X100700000Y-104228571D01*
X100533333Y-104657142D02*
X100533333Y-103757142D01*
X100800000Y-103757142D01*
X100866666Y-103800000D01*
X100900000Y-103842857D01*
X100933333Y-103928571D01*
X100933333Y-104057142D01*
X100900000Y-104142857D01*
X100866666Y-104185714D01*
X100800000Y-104228571D01*
X100533333Y-104228571D01*
X101266666Y-104657142D02*
X101400000Y-104657142D01*
X101466666Y-104614285D01*
X101500000Y-104571428D01*
X101566666Y-104442857D01*
X101600000Y-104271428D01*
X101600000Y-103928571D01*
X101566666Y-103842857D01*
X101533333Y-103800000D01*
X101466666Y-103757142D01*
X101333333Y-103757142D01*
X101266666Y-103800000D01*
X101233333Y-103842857D01*
X101200000Y-103928571D01*
X101200000Y-104142857D01*
X101233333Y-104228571D01*
X101266666Y-104271428D01*
X101333333Y-104314285D01*
X101466666Y-104314285D01*
X101533333Y-104271428D01*
X101566666Y-104228571D01*
X101600000Y-104142857D01*
X97950000Y-93707142D02*
X97716666Y-93278571D01*
X97550000Y-93707142D02*
X97550000Y-92807142D01*
X97816666Y-92807142D01*
X97883333Y-92850000D01*
X97916666Y-92892857D01*
X97950000Y-92978571D01*
X97950000Y-93107142D01*
X97916666Y-93192857D01*
X97883333Y-93235714D01*
X97816666Y-93278571D01*
X97550000Y-93278571D01*
X98616666Y-93707142D02*
X98216666Y-93707142D01*
X98416666Y-93707142D02*
X98416666Y-92807142D01*
X98350000Y-92935714D01*
X98283333Y-93021428D01*
X98216666Y-93064285D01*
X99050000Y-92807142D02*
X99116666Y-92807142D01*
X99183333Y-92850000D01*
X99216666Y-92892857D01*
X99250000Y-92978571D01*
X99283333Y-93150000D01*
X99283333Y-93364285D01*
X99250000Y-93535714D01*
X99216666Y-93621428D01*
X99183333Y-93664285D01*
X99116666Y-93707142D01*
X99050000Y-93707142D01*
X98983333Y-93664285D01*
X98950000Y-93621428D01*
X98916666Y-93535714D01*
X98883333Y-93364285D01*
X98883333Y-93150000D01*
X98916666Y-92978571D01*
X98950000Y-92892857D01*
X98983333Y-92850000D01*
X99050000Y-92807142D01*
X128925000Y-105457142D02*
X128691666Y-105028571D01*
X128525000Y-105457142D02*
X128525000Y-104557142D01*
X128791666Y-104557142D01*
X128858333Y-104600000D01*
X128891666Y-104642857D01*
X128925000Y-104728571D01*
X128925000Y-104857142D01*
X128891666Y-104942857D01*
X128858333Y-104985714D01*
X128791666Y-105028571D01*
X128525000Y-105028571D01*
X129591666Y-105457142D02*
X129191666Y-105457142D01*
X129391666Y-105457142D02*
X129391666Y-104557142D01*
X129325000Y-104685714D01*
X129258333Y-104771428D01*
X129191666Y-104814285D01*
X130258333Y-105457142D02*
X129858333Y-105457142D01*
X130058333Y-105457142D02*
X130058333Y-104557142D01*
X129991666Y-104685714D01*
X129925000Y-104771428D01*
X129858333Y-104814285D01*
X120400000Y-109007142D02*
X120166666Y-108578571D01*
X120000000Y-109007142D02*
X120000000Y-108107142D01*
X120266666Y-108107142D01*
X120333333Y-108150000D01*
X120366666Y-108192857D01*
X120400000Y-108278571D01*
X120400000Y-108407142D01*
X120366666Y-108492857D01*
X120333333Y-108535714D01*
X120266666Y-108578571D01*
X120000000Y-108578571D01*
X121066666Y-109007142D02*
X120666666Y-109007142D01*
X120866666Y-109007142D02*
X120866666Y-108107142D01*
X120800000Y-108235714D01*
X120733333Y-108321428D01*
X120666666Y-108364285D01*
X121333333Y-108192857D02*
X121366666Y-108150000D01*
X121433333Y-108107142D01*
X121600000Y-108107142D01*
X121666666Y-108150000D01*
X121700000Y-108192857D01*
X121733333Y-108278571D01*
X121733333Y-108364285D01*
X121700000Y-108492857D01*
X121300000Y-109007142D01*
X121733333Y-109007142D01*
X113600000Y-109007142D02*
X113366666Y-108578571D01*
X113200000Y-109007142D02*
X113200000Y-108107142D01*
X113466666Y-108107142D01*
X113533333Y-108150000D01*
X113566666Y-108192857D01*
X113600000Y-108278571D01*
X113600000Y-108407142D01*
X113566666Y-108492857D01*
X113533333Y-108535714D01*
X113466666Y-108578571D01*
X113200000Y-108578571D01*
X114266666Y-109007142D02*
X113866666Y-109007142D01*
X114066666Y-109007142D02*
X114066666Y-108107142D01*
X114000000Y-108235714D01*
X113933333Y-108321428D01*
X113866666Y-108364285D01*
X114500000Y-108107142D02*
X114933333Y-108107142D01*
X114700000Y-108450000D01*
X114800000Y-108450000D01*
X114866666Y-108492857D01*
X114900000Y-108535714D01*
X114933333Y-108621428D01*
X114933333Y-108835714D01*
X114900000Y-108921428D01*
X114866666Y-108964285D01*
X114800000Y-109007142D01*
X114600000Y-109007142D01*
X114533333Y-108964285D01*
X114500000Y-108921428D01*
X106137500Y-85657142D02*
X105904166Y-85228571D01*
X105737500Y-85657142D02*
X105737500Y-84757142D01*
X106004166Y-84757142D01*
X106070833Y-84800000D01*
X106104166Y-84842857D01*
X106137500Y-84928571D01*
X106137500Y-85057142D01*
X106104166Y-85142857D01*
X106070833Y-85185714D01*
X106004166Y-85228571D01*
X105737500Y-85228571D01*
X106804166Y-85657142D02*
X106404166Y-85657142D01*
X106604166Y-85657142D02*
X106604166Y-84757142D01*
X106537500Y-84885714D01*
X106470833Y-84971428D01*
X106404166Y-85014285D01*
X107437500Y-84757142D02*
X107104166Y-84757142D01*
X107070833Y-85185714D01*
X107104166Y-85142857D01*
X107170833Y-85100000D01*
X107337500Y-85100000D01*
X107404166Y-85142857D01*
X107437500Y-85185714D01*
X107470833Y-85271428D01*
X107470833Y-85485714D01*
X107437500Y-85571428D01*
X107404166Y-85614285D01*
X107337500Y-85657142D01*
X107170833Y-85657142D01*
X107104166Y-85614285D01*
X107070833Y-85571428D01*
X100807142Y-90400000D02*
X100378571Y-90633333D01*
X100807142Y-90800000D02*
X99907142Y-90800000D01*
X99907142Y-90533333D01*
X99950000Y-90466666D01*
X99992857Y-90433333D01*
X100078571Y-90400000D01*
X100207142Y-90400000D01*
X100292857Y-90433333D01*
X100335714Y-90466666D01*
X100378571Y-90533333D01*
X100378571Y-90800000D01*
X100807142Y-89733333D02*
X100807142Y-90133333D01*
X100807142Y-89933333D02*
X99907142Y-89933333D01*
X100035714Y-90000000D01*
X100121428Y-90066666D01*
X100164285Y-90133333D01*
X99907142Y-89500000D02*
X99907142Y-89033333D01*
X100807142Y-89333333D01*
X102107142Y-90600000D02*
X101678571Y-90833333D01*
X102107142Y-91000000D02*
X101207142Y-91000000D01*
X101207142Y-90733333D01*
X101250000Y-90666666D01*
X101292857Y-90633333D01*
X101378571Y-90600000D01*
X101507142Y-90600000D01*
X101592857Y-90633333D01*
X101635714Y-90666666D01*
X101678571Y-90733333D01*
X101678571Y-91000000D01*
X102107142Y-89933333D02*
X102107142Y-90333333D01*
X102107142Y-90133333D02*
X101207142Y-90133333D01*
X101335714Y-90200000D01*
X101421428Y-90266666D01*
X101464285Y-90333333D01*
X101592857Y-89533333D02*
X101550000Y-89600000D01*
X101507142Y-89633333D01*
X101421428Y-89666666D01*
X101378571Y-89666666D01*
X101292857Y-89633333D01*
X101250000Y-89600000D01*
X101207142Y-89533333D01*
X101207142Y-89400000D01*
X101250000Y-89333333D01*
X101292857Y-89300000D01*
X101378571Y-89266666D01*
X101421428Y-89266666D01*
X101507142Y-89300000D01*
X101550000Y-89333333D01*
X101592857Y-89400000D01*
X101592857Y-89533333D01*
X101635714Y-89600000D01*
X101678571Y-89633333D01*
X101764285Y-89666666D01*
X101935714Y-89666666D01*
X102021428Y-89633333D01*
X102064285Y-89600000D01*
X102107142Y-89533333D01*
X102107142Y-89400000D01*
X102064285Y-89333333D01*
X102021428Y-89300000D01*
X101935714Y-89266666D01*
X101764285Y-89266666D01*
X101678571Y-89300000D01*
X101635714Y-89333333D01*
X101592857Y-89400000D01*
X107637500Y-109007142D02*
X107404166Y-108578571D01*
X107237500Y-109007142D02*
X107237500Y-108107142D01*
X107504166Y-108107142D01*
X107570833Y-108150000D01*
X107604166Y-108192857D01*
X107637500Y-108278571D01*
X107637500Y-108407142D01*
X107604166Y-108492857D01*
X107570833Y-108535714D01*
X107504166Y-108578571D01*
X107237500Y-108578571D01*
X108304166Y-109007142D02*
X107904166Y-109007142D01*
X108104166Y-109007142D02*
X108104166Y-108107142D01*
X108037500Y-108235714D01*
X107970833Y-108321428D01*
X107904166Y-108364285D01*
X108637500Y-109007142D02*
X108770833Y-109007142D01*
X108837500Y-108964285D01*
X108870833Y-108921428D01*
X108937500Y-108792857D01*
X108970833Y-108621428D01*
X108970833Y-108278571D01*
X108937500Y-108192857D01*
X108904166Y-108150000D01*
X108837500Y-108107142D01*
X108704166Y-108107142D01*
X108637500Y-108150000D01*
X108604166Y-108192857D01*
X108570833Y-108278571D01*
X108570833Y-108492857D01*
X108604166Y-108578571D01*
X108637500Y-108621428D01*
X108704166Y-108664285D01*
X108837500Y-108664285D01*
X108904166Y-108621428D01*
X108937500Y-108578571D01*
X108970833Y-108492857D01*
X120525000Y-88282142D02*
X120291666Y-87853571D01*
X120125000Y-88282142D02*
X120125000Y-87382142D01*
X120391666Y-87382142D01*
X120458333Y-87425000D01*
X120491666Y-87467857D01*
X120525000Y-87553571D01*
X120525000Y-87682142D01*
X120491666Y-87767857D01*
X120458333Y-87810714D01*
X120391666Y-87853571D01*
X120125000Y-87853571D01*
X120791666Y-87467857D02*
X120825000Y-87425000D01*
X120891666Y-87382142D01*
X121058333Y-87382142D01*
X121125000Y-87425000D01*
X121158333Y-87467857D01*
X121191666Y-87553571D01*
X121191666Y-87639285D01*
X121158333Y-87767857D01*
X120758333Y-88282142D01*
X121191666Y-88282142D01*
X121625000Y-87382142D02*
X121691666Y-87382142D01*
X121758333Y-87425000D01*
X121791666Y-87467857D01*
X121825000Y-87553571D01*
X121858333Y-87725000D01*
X121858333Y-87939285D01*
X121825000Y-88110714D01*
X121791666Y-88196428D01*
X121758333Y-88239285D01*
X121691666Y-88282142D01*
X121625000Y-88282142D01*
X121558333Y-88239285D01*
X121525000Y-88196428D01*
X121491666Y-88110714D01*
X121458333Y-87939285D01*
X121458333Y-87725000D01*
X121491666Y-87553571D01*
X121525000Y-87467857D01*
X121558333Y-87425000D01*
X121625000Y-87382142D01*
X120425000Y-86757142D02*
X120191666Y-86328571D01*
X120025000Y-86757142D02*
X120025000Y-85857142D01*
X120291666Y-85857142D01*
X120358333Y-85900000D01*
X120391666Y-85942857D01*
X120425000Y-86028571D01*
X120425000Y-86157142D01*
X120391666Y-86242857D01*
X120358333Y-86285714D01*
X120291666Y-86328571D01*
X120025000Y-86328571D01*
X120691666Y-85942857D02*
X120725000Y-85900000D01*
X120791666Y-85857142D01*
X120958333Y-85857142D01*
X121025000Y-85900000D01*
X121058333Y-85942857D01*
X121091666Y-86028571D01*
X121091666Y-86114285D01*
X121058333Y-86242857D01*
X120658333Y-86757142D01*
X121091666Y-86757142D01*
X121758333Y-86757142D02*
X121358333Y-86757142D01*
X121558333Y-86757142D02*
X121558333Y-85857142D01*
X121491666Y-85985714D01*
X121425000Y-86071428D01*
X121358333Y-86114285D01*
X131800000Y-87632142D02*
X131566666Y-87203571D01*
X131400000Y-87632142D02*
X131400000Y-86732142D01*
X131666666Y-86732142D01*
X131733333Y-86775000D01*
X131766666Y-86817857D01*
X131800000Y-86903571D01*
X131800000Y-87032142D01*
X131766666Y-87117857D01*
X131733333Y-87160714D01*
X131666666Y-87203571D01*
X131400000Y-87203571D01*
X132066666Y-86817857D02*
X132100000Y-86775000D01*
X132166666Y-86732142D01*
X132333333Y-86732142D01*
X132400000Y-86775000D01*
X132433333Y-86817857D01*
X132466666Y-86903571D01*
X132466666Y-86989285D01*
X132433333Y-87117857D01*
X132033333Y-87632142D01*
X132466666Y-87632142D01*
X132733333Y-86817857D02*
X132766666Y-86775000D01*
X132833333Y-86732142D01*
X133000000Y-86732142D01*
X133066666Y-86775000D01*
X133100000Y-86817857D01*
X133133333Y-86903571D01*
X133133333Y-86989285D01*
X133100000Y-87117857D01*
X132700000Y-87632142D01*
X133133333Y-87632142D01*
X137500000Y-105732142D02*
X137266666Y-105303571D01*
X137100000Y-105732142D02*
X137100000Y-104832142D01*
X137366666Y-104832142D01*
X137433333Y-104875000D01*
X137466666Y-104917857D01*
X137500000Y-105003571D01*
X137500000Y-105132142D01*
X137466666Y-105217857D01*
X137433333Y-105260714D01*
X137366666Y-105303571D01*
X137100000Y-105303571D01*
X137766666Y-104917857D02*
X137800000Y-104875000D01*
X137866666Y-104832142D01*
X138033333Y-104832142D01*
X138100000Y-104875000D01*
X138133333Y-104917857D01*
X138166666Y-105003571D01*
X138166666Y-105089285D01*
X138133333Y-105217857D01*
X137733333Y-105732142D01*
X138166666Y-105732142D01*
X138400000Y-104832142D02*
X138833333Y-104832142D01*
X138600000Y-105175000D01*
X138700000Y-105175000D01*
X138766666Y-105217857D01*
X138800000Y-105260714D01*
X138833333Y-105346428D01*
X138833333Y-105560714D01*
X138800000Y-105646428D01*
X138766666Y-105689285D01*
X138700000Y-105732142D01*
X138500000Y-105732142D01*
X138433333Y-105689285D01*
X138400000Y-105646428D01*
X140625000Y-87782142D02*
X140391666Y-87353571D01*
X140225000Y-87782142D02*
X140225000Y-86882142D01*
X140491666Y-86882142D01*
X140558333Y-86925000D01*
X140591666Y-86967857D01*
X140625000Y-87053571D01*
X140625000Y-87182142D01*
X140591666Y-87267857D01*
X140558333Y-87310714D01*
X140491666Y-87353571D01*
X140225000Y-87353571D01*
X140891666Y-86967857D02*
X140925000Y-86925000D01*
X140991666Y-86882142D01*
X141158333Y-86882142D01*
X141225000Y-86925000D01*
X141258333Y-86967857D01*
X141291666Y-87053571D01*
X141291666Y-87139285D01*
X141258333Y-87267857D01*
X140858333Y-87782142D01*
X141291666Y-87782142D01*
X141891666Y-87182142D02*
X141891666Y-87782142D01*
X141725000Y-86839285D02*
X141558333Y-87482142D01*
X141991666Y-87482142D01*
X145800000Y-105882142D02*
X145566666Y-105453571D01*
X145400000Y-105882142D02*
X145400000Y-104982142D01*
X145666666Y-104982142D01*
X145733333Y-105025000D01*
X145766666Y-105067857D01*
X145800000Y-105153571D01*
X145800000Y-105282142D01*
X145766666Y-105367857D01*
X145733333Y-105410714D01*
X145666666Y-105453571D01*
X145400000Y-105453571D01*
X146066666Y-105067857D02*
X146100000Y-105025000D01*
X146166666Y-104982142D01*
X146333333Y-104982142D01*
X146400000Y-105025000D01*
X146433333Y-105067857D01*
X146466666Y-105153571D01*
X146466666Y-105239285D01*
X146433333Y-105367857D01*
X146033333Y-105882142D01*
X146466666Y-105882142D01*
X147100000Y-104982142D02*
X146766666Y-104982142D01*
X146733333Y-105410714D01*
X146766666Y-105367857D01*
X146833333Y-105325000D01*
X147000000Y-105325000D01*
X147066666Y-105367857D01*
X147100000Y-105410714D01*
X147133333Y-105496428D01*
X147133333Y-105710714D01*
X147100000Y-105796428D01*
X147066666Y-105839285D01*
X147000000Y-105882142D01*
X146833333Y-105882142D01*
X146766666Y-105839285D01*
X146733333Y-105796428D01*
X149525000Y-87782142D02*
X149291666Y-87353571D01*
X149125000Y-87782142D02*
X149125000Y-86882142D01*
X149391666Y-86882142D01*
X149458333Y-86925000D01*
X149491666Y-86967857D01*
X149525000Y-87053571D01*
X149525000Y-87182142D01*
X149491666Y-87267857D01*
X149458333Y-87310714D01*
X149391666Y-87353571D01*
X149125000Y-87353571D01*
X149791666Y-86967857D02*
X149825000Y-86925000D01*
X149891666Y-86882142D01*
X150058333Y-86882142D01*
X150125000Y-86925000D01*
X150158333Y-86967857D01*
X150191666Y-87053571D01*
X150191666Y-87139285D01*
X150158333Y-87267857D01*
X149758333Y-87782142D01*
X150191666Y-87782142D01*
X150791666Y-86882142D02*
X150658333Y-86882142D01*
X150591666Y-86925000D01*
X150558333Y-86967857D01*
X150491666Y-87096428D01*
X150458333Y-87267857D01*
X150458333Y-87610714D01*
X150491666Y-87696428D01*
X150525000Y-87739285D01*
X150591666Y-87782142D01*
X150725000Y-87782142D01*
X150791666Y-87739285D01*
X150825000Y-87696428D01*
X150858333Y-87610714D01*
X150858333Y-87396428D01*
X150825000Y-87310714D01*
X150791666Y-87267857D01*
X150725000Y-87225000D01*
X150591666Y-87225000D01*
X150525000Y-87267857D01*
X150491666Y-87310714D01*
X150458333Y-87396428D01*
X154825000Y-105832142D02*
X154591666Y-105403571D01*
X154425000Y-105832142D02*
X154425000Y-104932142D01*
X154691666Y-104932142D01*
X154758333Y-104975000D01*
X154791666Y-105017857D01*
X154825000Y-105103571D01*
X154825000Y-105232142D01*
X154791666Y-105317857D01*
X154758333Y-105360714D01*
X154691666Y-105403571D01*
X154425000Y-105403571D01*
X155091666Y-105017857D02*
X155125000Y-104975000D01*
X155191666Y-104932142D01*
X155358333Y-104932142D01*
X155425000Y-104975000D01*
X155458333Y-105017857D01*
X155491666Y-105103571D01*
X155491666Y-105189285D01*
X155458333Y-105317857D01*
X155058333Y-105832142D01*
X155491666Y-105832142D01*
X155725000Y-104932142D02*
X156191666Y-104932142D01*
X155891666Y-105832142D01*
X158670000Y-87847142D02*
X158436666Y-87418571D01*
X158270000Y-87847142D02*
X158270000Y-86947142D01*
X158536666Y-86947142D01*
X158603333Y-86990000D01*
X158636666Y-87032857D01*
X158670000Y-87118571D01*
X158670000Y-87247142D01*
X158636666Y-87332857D01*
X158603333Y-87375714D01*
X158536666Y-87418571D01*
X158270000Y-87418571D01*
X158936666Y-87032857D02*
X158970000Y-86990000D01*
X159036666Y-86947142D01*
X159203333Y-86947142D01*
X159270000Y-86990000D01*
X159303333Y-87032857D01*
X159336666Y-87118571D01*
X159336666Y-87204285D01*
X159303333Y-87332857D01*
X158903333Y-87847142D01*
X159336666Y-87847142D01*
X159736666Y-87332857D02*
X159670000Y-87290000D01*
X159636666Y-87247142D01*
X159603333Y-87161428D01*
X159603333Y-87118571D01*
X159636666Y-87032857D01*
X159670000Y-86990000D01*
X159736666Y-86947142D01*
X159870000Y-86947142D01*
X159936666Y-86990000D01*
X159970000Y-87032857D01*
X160003333Y-87118571D01*
X160003333Y-87161428D01*
X159970000Y-87247142D01*
X159936666Y-87290000D01*
X159870000Y-87332857D01*
X159736666Y-87332857D01*
X159670000Y-87375714D01*
X159636666Y-87418571D01*
X159603333Y-87504285D01*
X159603333Y-87675714D01*
X159636666Y-87761428D01*
X159670000Y-87804285D01*
X159736666Y-87847142D01*
X159870000Y-87847142D01*
X159936666Y-87804285D01*
X159970000Y-87761428D01*
X160003333Y-87675714D01*
X160003333Y-87504285D01*
X159970000Y-87418571D01*
X159936666Y-87375714D01*
X159870000Y-87332857D01*
X163700000Y-105832142D02*
X163466666Y-105403571D01*
X163300000Y-105832142D02*
X163300000Y-104932142D01*
X163566666Y-104932142D01*
X163633333Y-104975000D01*
X163666666Y-105017857D01*
X163700000Y-105103571D01*
X163700000Y-105232142D01*
X163666666Y-105317857D01*
X163633333Y-105360714D01*
X163566666Y-105403571D01*
X163300000Y-105403571D01*
X163966666Y-105017857D02*
X164000000Y-104975000D01*
X164066666Y-104932142D01*
X164233333Y-104932142D01*
X164300000Y-104975000D01*
X164333333Y-105017857D01*
X164366666Y-105103571D01*
X164366666Y-105189285D01*
X164333333Y-105317857D01*
X163933333Y-105832142D01*
X164366666Y-105832142D01*
X164700000Y-105832142D02*
X164833333Y-105832142D01*
X164900000Y-105789285D01*
X164933333Y-105746428D01*
X165000000Y-105617857D01*
X165033333Y-105446428D01*
X165033333Y-105103571D01*
X165000000Y-105017857D01*
X164966666Y-104975000D01*
X164900000Y-104932142D01*
X164766666Y-104932142D01*
X164700000Y-104975000D01*
X164666666Y-105017857D01*
X164633333Y-105103571D01*
X164633333Y-105317857D01*
X164666666Y-105403571D01*
X164700000Y-105446428D01*
X164766666Y-105489285D01*
X164900000Y-105489285D01*
X164966666Y-105446428D01*
X165000000Y-105403571D01*
X165033333Y-105317857D01*
X167755000Y-87899642D02*
X167521666Y-87471071D01*
X167355000Y-87899642D02*
X167355000Y-86999642D01*
X167621666Y-86999642D01*
X167688333Y-87042500D01*
X167721666Y-87085357D01*
X167755000Y-87171071D01*
X167755000Y-87299642D01*
X167721666Y-87385357D01*
X167688333Y-87428214D01*
X167621666Y-87471071D01*
X167355000Y-87471071D01*
X167988333Y-86999642D02*
X168421666Y-86999642D01*
X168188333Y-87342500D01*
X168288333Y-87342500D01*
X168355000Y-87385357D01*
X168388333Y-87428214D01*
X168421666Y-87513928D01*
X168421666Y-87728214D01*
X168388333Y-87813928D01*
X168355000Y-87856785D01*
X168288333Y-87899642D01*
X168088333Y-87899642D01*
X168021666Y-87856785D01*
X167988333Y-87813928D01*
X168855000Y-86999642D02*
X168921666Y-86999642D01*
X168988333Y-87042500D01*
X169021666Y-87085357D01*
X169055000Y-87171071D01*
X169088333Y-87342500D01*
X169088333Y-87556785D01*
X169055000Y-87728214D01*
X169021666Y-87813928D01*
X168988333Y-87856785D01*
X168921666Y-87899642D01*
X168855000Y-87899642D01*
X168788333Y-87856785D01*
X168755000Y-87813928D01*
X168721666Y-87728214D01*
X168688333Y-87556785D01*
X168688333Y-87342500D01*
X168721666Y-87171071D01*
X168755000Y-87085357D01*
X168788333Y-87042500D01*
X168855000Y-86999642D01*
X172525000Y-105957142D02*
X172291666Y-105528571D01*
X172125000Y-105957142D02*
X172125000Y-105057142D01*
X172391666Y-105057142D01*
X172458333Y-105100000D01*
X172491666Y-105142857D01*
X172525000Y-105228571D01*
X172525000Y-105357142D01*
X172491666Y-105442857D01*
X172458333Y-105485714D01*
X172391666Y-105528571D01*
X172125000Y-105528571D01*
X172758333Y-105057142D02*
X173191666Y-105057142D01*
X172958333Y-105400000D01*
X173058333Y-105400000D01*
X173125000Y-105442857D01*
X173158333Y-105485714D01*
X173191666Y-105571428D01*
X173191666Y-105785714D01*
X173158333Y-105871428D01*
X173125000Y-105914285D01*
X173058333Y-105957142D01*
X172858333Y-105957142D01*
X172791666Y-105914285D01*
X172758333Y-105871428D01*
X173858333Y-105957142D02*
X173458333Y-105957142D01*
X173658333Y-105957142D02*
X173658333Y-105057142D01*
X173591666Y-105185714D01*
X173525000Y-105271428D01*
X173458333Y-105314285D01*
X96066666Y-102232142D02*
X96066666Y-102960714D01*
X96100000Y-103046428D01*
X96133333Y-103089285D01*
X96200000Y-103132142D01*
X96333333Y-103132142D01*
X96400000Y-103089285D01*
X96433333Y-103046428D01*
X96466666Y-102960714D01*
X96466666Y-102232142D01*
X97166666Y-103132142D02*
X96766666Y-103132142D01*
X96966666Y-103132142D02*
X96966666Y-102232142D01*
X96900000Y-102360714D01*
X96833333Y-102446428D01*
X96766666Y-102489285D01*
X91341666Y-80057142D02*
X91341666Y-80785714D01*
X91375000Y-80871428D01*
X91408333Y-80914285D01*
X91475000Y-80957142D01*
X91608333Y-80957142D01*
X91675000Y-80914285D01*
X91708333Y-80871428D01*
X91741666Y-80785714D01*
X91741666Y-80057142D01*
X92041666Y-80142857D02*
X92075000Y-80100000D01*
X92141666Y-80057142D01*
X92308333Y-80057142D01*
X92375000Y-80100000D01*
X92408333Y-80142857D01*
X92441666Y-80228571D01*
X92441666Y-80314285D01*
X92408333Y-80442857D01*
X92008333Y-80957142D01*
X92441666Y-80957142D01*
X111966666Y-88257142D02*
X111966666Y-88985714D01*
X112000000Y-89071428D01*
X112033333Y-89114285D01*
X112100000Y-89157142D01*
X112233333Y-89157142D01*
X112300000Y-89114285D01*
X112333333Y-89071428D01*
X112366666Y-88985714D01*
X112366666Y-88257142D01*
X112633333Y-88257142D02*
X113066666Y-88257142D01*
X112833333Y-88600000D01*
X112933333Y-88600000D01*
X113000000Y-88642857D01*
X113033333Y-88685714D01*
X113066666Y-88771428D01*
X113066666Y-88985714D01*
X113033333Y-89071428D01*
X113000000Y-89114285D01*
X112933333Y-89157142D01*
X112733333Y-89157142D01*
X112666666Y-89114285D01*
X112633333Y-89071428D01*
X133082142Y-95508333D02*
X133810714Y-95508333D01*
X133896428Y-95475000D01*
X133939285Y-95441666D01*
X133982142Y-95375000D01*
X133982142Y-95241666D01*
X133939285Y-95175000D01*
X133896428Y-95141666D01*
X133810714Y-95108333D01*
X133082142Y-95108333D01*
X133082142Y-94441666D02*
X133082142Y-94775000D01*
X133510714Y-94808333D01*
X133467857Y-94775000D01*
X133425000Y-94708333D01*
X133425000Y-94541666D01*
X133467857Y-94475000D01*
X133510714Y-94441666D01*
X133596428Y-94408333D01*
X133810714Y-94408333D01*
X133896428Y-94441666D01*
X133939285Y-94475000D01*
X133982142Y-94541666D01*
X133982142Y-94708333D01*
X133939285Y-94775000D01*
X133896428Y-94808333D01*
X110316666Y-104078571D02*
X110316666Y-104507142D01*
X110083333Y-103607142D02*
X110316666Y-104078571D01*
X110550000Y-103607142D01*
X111150000Y-104507142D02*
X110750000Y-104507142D01*
X110950000Y-104507142D02*
X110950000Y-103607142D01*
X110883333Y-103735714D01*
X110816666Y-103821428D01*
X110750000Y-103864285D01*
X114683333Y-107057142D02*
X114683333Y-106157142D01*
X114850000Y-106157142D01*
X114950000Y-106200000D01*
X115016666Y-106285714D01*
X115050000Y-106371428D01*
X115083333Y-106542857D01*
X115083333Y-106671428D01*
X115050000Y-106842857D01*
X115016666Y-106928571D01*
X114950000Y-107014285D01*
X114850000Y-107057142D01*
X114683333Y-107057142D01*
X115683333Y-106457142D02*
X115683333Y-107057142D01*
X115516666Y-106114285D02*
X115350000Y-106757142D01*
X115783333Y-106757142D01*
X84407142Y-102733333D02*
X85050000Y-102733333D01*
X85178571Y-102766666D01*
X85264285Y-102833333D01*
X85307142Y-102933333D01*
X85307142Y-103000000D01*
X84492857Y-102433333D02*
X84450000Y-102400000D01*
X84407142Y-102333333D01*
X84407142Y-102166666D01*
X84450000Y-102100000D01*
X84492857Y-102066666D01*
X84578571Y-102033333D01*
X84664285Y-102033333D01*
X84792857Y-102066666D01*
X85307142Y-102466666D01*
X85307142Y-102033333D01*
X101683333Y-107107142D02*
X101683333Y-106207142D01*
X101850000Y-106207142D01*
X101950000Y-106250000D01*
X102016666Y-106335714D01*
X102050000Y-106421428D01*
X102083333Y-106592857D01*
X102083333Y-106721428D01*
X102050000Y-106892857D01*
X102016666Y-106978571D01*
X101950000Y-107064285D01*
X101850000Y-107107142D01*
X101683333Y-107107142D01*
X102750000Y-107107142D02*
X102350000Y-107107142D01*
X102550000Y-107107142D02*
X102550000Y-106207142D01*
X102483333Y-106335714D01*
X102416666Y-106421428D01*
X102350000Y-106464285D01*
X125283333Y-104907142D02*
X125283333Y-104007142D01*
X125450000Y-104007142D01*
X125550000Y-104050000D01*
X125616666Y-104135714D01*
X125650000Y-104221428D01*
X125683333Y-104392857D01*
X125683333Y-104521428D01*
X125650000Y-104692857D01*
X125616666Y-104778571D01*
X125550000Y-104864285D01*
X125450000Y-104907142D01*
X125283333Y-104907142D01*
X125950000Y-104092857D02*
X125983333Y-104050000D01*
X126050000Y-104007142D01*
X126216666Y-104007142D01*
X126283333Y-104050000D01*
X126316666Y-104092857D01*
X126350000Y-104178571D01*
X126350000Y-104264285D01*
X126316666Y-104392857D01*
X125916666Y-104907142D01*
X126350000Y-104907142D01*
X121483333Y-106907142D02*
X121483333Y-106007142D01*
X121650000Y-106007142D01*
X121750000Y-106050000D01*
X121816666Y-106135714D01*
X121850000Y-106221428D01*
X121883333Y-106392857D01*
X121883333Y-106521428D01*
X121850000Y-106692857D01*
X121816666Y-106778571D01*
X121750000Y-106864285D01*
X121650000Y-106907142D01*
X121483333Y-106907142D01*
X122116666Y-106007142D02*
X122550000Y-106007142D01*
X122316666Y-106350000D01*
X122416666Y-106350000D01*
X122483333Y-106392857D01*
X122516666Y-106435714D01*
X122550000Y-106521428D01*
X122550000Y-106735714D01*
X122516666Y-106821428D01*
X122483333Y-106864285D01*
X122416666Y-106907142D01*
X122216666Y-106907142D01*
X122150000Y-106864285D01*
X122116666Y-106821428D01*
X117350000Y-88507142D02*
X117116666Y-88078571D01*
X116950000Y-88507142D02*
X116950000Y-87607142D01*
X117216666Y-87607142D01*
X117283333Y-87650000D01*
X117316666Y-87692857D01*
X117350000Y-87778571D01*
X117350000Y-87907142D01*
X117316666Y-87992857D01*
X117283333Y-88035714D01*
X117216666Y-88078571D01*
X116950000Y-88078571D01*
X118016666Y-88507142D02*
X117616666Y-88507142D01*
X117816666Y-88507142D02*
X117816666Y-87607142D01*
X117750000Y-87735714D01*
X117683333Y-87821428D01*
X117616666Y-87864285D01*
X118616666Y-87907142D02*
X118616666Y-88507142D01*
X118450000Y-87564285D02*
X118283333Y-88207142D01*
X118716666Y-88207142D01*
X116750000Y-111607142D02*
X116516666Y-111178571D01*
X116350000Y-111607142D02*
X116350000Y-110707142D01*
X116616666Y-110707142D01*
X116683333Y-110750000D01*
X116716666Y-110792857D01*
X116750000Y-110878571D01*
X116750000Y-111007142D01*
X116716666Y-111092857D01*
X116683333Y-111135714D01*
X116616666Y-111178571D01*
X116350000Y-111178571D01*
X117416666Y-111607142D02*
X117016666Y-111607142D01*
X117216666Y-111607142D02*
X117216666Y-110707142D01*
X117150000Y-110835714D01*
X117083333Y-110921428D01*
X117016666Y-110964285D01*
X118016666Y-110707142D02*
X117883333Y-110707142D01*
X117816666Y-110750000D01*
X117783333Y-110792857D01*
X117716666Y-110921428D01*
X117683333Y-111092857D01*
X117683333Y-111435714D01*
X117716666Y-111521428D01*
X117750000Y-111564285D01*
X117816666Y-111607142D01*
X117950000Y-111607142D01*
X118016666Y-111564285D01*
X118050000Y-111521428D01*
X118083333Y-111435714D01*
X118083333Y-111221428D01*
X118050000Y-111135714D01*
X118016666Y-111092857D01*
X117950000Y-111050000D01*
X117816666Y-111050000D01*
X117750000Y-111092857D01*
X117716666Y-111135714D01*
X117683333Y-111221428D01*
X115450000Y-88557142D02*
X115216666Y-88128571D01*
X115050000Y-88557142D02*
X115050000Y-87657142D01*
X115316666Y-87657142D01*
X115383333Y-87700000D01*
X115416666Y-87742857D01*
X115450000Y-87828571D01*
X115450000Y-87957142D01*
X115416666Y-88042857D01*
X115383333Y-88085714D01*
X115316666Y-88128571D01*
X115050000Y-88128571D01*
X115683333Y-87657142D02*
X116116666Y-87657142D01*
X115883333Y-88000000D01*
X115983333Y-88000000D01*
X116050000Y-88042857D01*
X116083333Y-88085714D01*
X116116666Y-88171428D01*
X116116666Y-88385714D01*
X116083333Y-88471428D01*
X116050000Y-88514285D01*
X115983333Y-88557142D01*
X115783333Y-88557142D01*
X115716666Y-88514285D01*
X115683333Y-88471428D01*
X116383333Y-87742857D02*
X116416666Y-87700000D01*
X116483333Y-87657142D01*
X116650000Y-87657142D01*
X116716666Y-87700000D01*
X116750000Y-87742857D01*
X116783333Y-87828571D01*
X116783333Y-87914285D01*
X116750000Y-88042857D01*
X116350000Y-88557142D01*
X116783333Y-88557142D01*
X121057142Y-111250000D02*
X120628571Y-111483333D01*
X121057142Y-111650000D02*
X120157142Y-111650000D01*
X120157142Y-111383333D01*
X120200000Y-111316666D01*
X120242857Y-111283333D01*
X120328571Y-111250000D01*
X120457142Y-111250000D01*
X120542857Y-111283333D01*
X120585714Y-111316666D01*
X120628571Y-111383333D01*
X120628571Y-111650000D01*
X120157142Y-111016666D02*
X120157142Y-110583333D01*
X120500000Y-110816666D01*
X120500000Y-110716666D01*
X120542857Y-110650000D01*
X120585714Y-110616666D01*
X120671428Y-110583333D01*
X120885714Y-110583333D01*
X120971428Y-110616666D01*
X121014285Y-110650000D01*
X121057142Y-110716666D01*
X121057142Y-110916666D01*
X121014285Y-110983333D01*
X120971428Y-111016666D01*
X120157142Y-110350000D02*
X120157142Y-109916666D01*
X120500000Y-110150000D01*
X120500000Y-110050000D01*
X120542857Y-109983333D01*
X120585714Y-109950000D01*
X120671428Y-109916666D01*
X120885714Y-109916666D01*
X120971428Y-109950000D01*
X121014285Y-109983333D01*
X121057142Y-110050000D01*
X121057142Y-110250000D01*
X121014285Y-110316666D01*
X120971428Y-110350000D01*
X130366666Y-83407142D02*
X130366666Y-84050000D01*
X130333333Y-84178571D01*
X130266666Y-84264285D01*
X130166666Y-84307142D01*
X130100000Y-84307142D01*
X131033333Y-83407142D02*
X130700000Y-83407142D01*
X130666666Y-83835714D01*
X130700000Y-83792857D01*
X130766666Y-83750000D01*
X130933333Y-83750000D01*
X131000000Y-83792857D01*
X131033333Y-83835714D01*
X131066666Y-83921428D01*
X131066666Y-84135714D01*
X131033333Y-84221428D01*
X131000000Y-84264285D01*
X130933333Y-84307142D01*
X130766666Y-84307142D01*
X130700000Y-84264285D01*
X130666666Y-84221428D01*
X129566666Y-109907142D02*
X129566666Y-110550000D01*
X129533333Y-110678571D01*
X129466666Y-110764285D01*
X129366666Y-110807142D01*
X129300000Y-110807142D01*
X130200000Y-109907142D02*
X130066666Y-109907142D01*
X130000000Y-109950000D01*
X129966666Y-109992857D01*
X129900000Y-110121428D01*
X129866666Y-110292857D01*
X129866666Y-110635714D01*
X129900000Y-110721428D01*
X129933333Y-110764285D01*
X130000000Y-110807142D01*
X130133333Y-110807142D01*
X130200000Y-110764285D01*
X130233333Y-110721428D01*
X130266666Y-110635714D01*
X130266666Y-110421428D01*
X130233333Y-110335714D01*
X130200000Y-110292857D01*
X130133333Y-110250000D01*
X130000000Y-110250000D01*
X129933333Y-110292857D01*
X129900000Y-110335714D01*
X129866666Y-110421428D01*
X139416666Y-83332142D02*
X139416666Y-83975000D01*
X139383333Y-84103571D01*
X139316666Y-84189285D01*
X139216666Y-84232142D01*
X139150000Y-84232142D01*
X139683333Y-83332142D02*
X140150000Y-83332142D01*
X139850000Y-84232142D01*
X140016666Y-108507142D02*
X140016666Y-109150000D01*
X139983333Y-109278571D01*
X139916666Y-109364285D01*
X139816666Y-109407142D01*
X139750000Y-109407142D01*
X140450000Y-108892857D02*
X140383333Y-108850000D01*
X140350000Y-108807142D01*
X140316666Y-108721428D01*
X140316666Y-108678571D01*
X140350000Y-108592857D01*
X140383333Y-108550000D01*
X140450000Y-108507142D01*
X140583333Y-108507142D01*
X140650000Y-108550000D01*
X140683333Y-108592857D01*
X140716666Y-108678571D01*
X140716666Y-108721428D01*
X140683333Y-108807142D01*
X140650000Y-108850000D01*
X140583333Y-108892857D01*
X140450000Y-108892857D01*
X140383333Y-108935714D01*
X140350000Y-108978571D01*
X140316666Y-109064285D01*
X140316666Y-109235714D01*
X140350000Y-109321428D01*
X140383333Y-109364285D01*
X140450000Y-109407142D01*
X140583333Y-109407142D01*
X140650000Y-109364285D01*
X140683333Y-109321428D01*
X140716666Y-109235714D01*
X140716666Y-109064285D01*
X140683333Y-108978571D01*
X140650000Y-108935714D01*
X140583333Y-108892857D01*
X148316666Y-83357142D02*
X148316666Y-84000000D01*
X148283333Y-84128571D01*
X148216666Y-84214285D01*
X148116666Y-84257142D01*
X148050000Y-84257142D01*
X148683333Y-84257142D02*
X148816666Y-84257142D01*
X148883333Y-84214285D01*
X148916666Y-84171428D01*
X148983333Y-84042857D01*
X149016666Y-83871428D01*
X149016666Y-83528571D01*
X148983333Y-83442857D01*
X148950000Y-83400000D01*
X148883333Y-83357142D01*
X148750000Y-83357142D01*
X148683333Y-83400000D01*
X148650000Y-83442857D01*
X148616666Y-83528571D01*
X148616666Y-83742857D01*
X148650000Y-83828571D01*
X148683333Y-83871428D01*
X148750000Y-83914285D01*
X148883333Y-83914285D01*
X148950000Y-83871428D01*
X148983333Y-83828571D01*
X149016666Y-83742857D01*
X148483333Y-108407142D02*
X148483333Y-109050000D01*
X148450000Y-109178571D01*
X148383333Y-109264285D01*
X148283333Y-109307142D01*
X148216666Y-109307142D01*
X149183333Y-109307142D02*
X148783333Y-109307142D01*
X148983333Y-109307142D02*
X148983333Y-108407142D01*
X148916666Y-108535714D01*
X148850000Y-108621428D01*
X148783333Y-108664285D01*
X149616666Y-108407142D02*
X149683333Y-108407142D01*
X149750000Y-108450000D01*
X149783333Y-108492857D01*
X149816666Y-108578571D01*
X149850000Y-108750000D01*
X149850000Y-108964285D01*
X149816666Y-109135714D01*
X149783333Y-109221428D01*
X149750000Y-109264285D01*
X149683333Y-109307142D01*
X149616666Y-109307142D01*
X149550000Y-109264285D01*
X149516666Y-109221428D01*
X149483333Y-109135714D01*
X149450000Y-108964285D01*
X149450000Y-108750000D01*
X149483333Y-108578571D01*
X149516666Y-108492857D01*
X149550000Y-108450000D01*
X149616666Y-108407142D01*
X156908333Y-83207142D02*
X156908333Y-83850000D01*
X156875000Y-83978571D01*
X156808333Y-84064285D01*
X156708333Y-84107142D01*
X156641666Y-84107142D01*
X157608333Y-84107142D02*
X157208333Y-84107142D01*
X157408333Y-84107142D02*
X157408333Y-83207142D01*
X157341666Y-83335714D01*
X157275000Y-83421428D01*
X157208333Y-83464285D01*
X158275000Y-84107142D02*
X157875000Y-84107142D01*
X158075000Y-84107142D02*
X158075000Y-83207142D01*
X158008333Y-83335714D01*
X157941666Y-83421428D01*
X157875000Y-83464285D01*
X157883333Y-108407142D02*
X157883333Y-109050000D01*
X157850000Y-109178571D01*
X157783333Y-109264285D01*
X157683333Y-109307142D01*
X157616666Y-109307142D01*
X158583333Y-109307142D02*
X158183333Y-109307142D01*
X158383333Y-109307142D02*
X158383333Y-108407142D01*
X158316666Y-108535714D01*
X158250000Y-108621428D01*
X158183333Y-108664285D01*
X158850000Y-108492857D02*
X158883333Y-108450000D01*
X158950000Y-108407142D01*
X159116666Y-108407142D01*
X159183333Y-108450000D01*
X159216666Y-108492857D01*
X159250000Y-108578571D01*
X159250000Y-108664285D01*
X159216666Y-108792857D01*
X158816666Y-109307142D01*
X159250000Y-109307142D01*
X166783333Y-108457142D02*
X166783333Y-109100000D01*
X166750000Y-109228571D01*
X166683333Y-109314285D01*
X166583333Y-109357142D01*
X166516666Y-109357142D01*
X167483333Y-109357142D02*
X167083333Y-109357142D01*
X167283333Y-109357142D02*
X167283333Y-108457142D01*
X167216666Y-108585714D01*
X167150000Y-108671428D01*
X167083333Y-108714285D01*
X168083333Y-108757142D02*
X168083333Y-109357142D01*
X167916666Y-108414285D02*
X167750000Y-109057142D01*
X168183333Y-109057142D01*
X165933333Y-83257142D02*
X165933333Y-83900000D01*
X165900000Y-84028571D01*
X165833333Y-84114285D01*
X165733333Y-84157142D01*
X165666666Y-84157142D01*
X166633333Y-84157142D02*
X166233333Y-84157142D01*
X166433333Y-84157142D02*
X166433333Y-83257142D01*
X166366666Y-83385714D01*
X166300000Y-83471428D01*
X166233333Y-83514285D01*
X166866666Y-83257142D02*
X167300000Y-83257142D01*
X167066666Y-83600000D01*
X167166666Y-83600000D01*
X167233333Y-83642857D01*
X167266666Y-83685714D01*
X167300000Y-83771428D01*
X167300000Y-83985714D01*
X167266666Y-84071428D01*
X167233333Y-84114285D01*
X167166666Y-84157142D01*
X166966666Y-84157142D01*
X166900000Y-84114285D01*
X166866666Y-84071428D01*
X95366666Y-77502380D02*
X95366666Y-78216666D01*
X95333333Y-78359523D01*
X95266666Y-78454761D01*
X95166666Y-78502380D01*
X95100000Y-78502380D01*
X96066666Y-78502380D02*
X95666666Y-78502380D01*
X95866666Y-78502380D02*
X95866666Y-77502380D01*
X95800000Y-77645238D01*
X95733333Y-77740476D01*
X95666666Y-77788095D01*
X111266666Y-116104761D02*
X111366666Y-116152380D01*
X111533333Y-116152380D01*
X111600000Y-116104761D01*
X111633333Y-116057142D01*
X111666666Y-115961904D01*
X111666666Y-115866666D01*
X111633333Y-115771428D01*
X111600000Y-115723809D01*
X111533333Y-115676190D01*
X111400000Y-115628571D01*
X111333333Y-115580952D01*
X111300000Y-115533333D01*
X111266666Y-115438095D01*
X111266666Y-115342857D01*
X111300000Y-115247619D01*
X111333333Y-115200000D01*
X111400000Y-115152380D01*
X111566666Y-115152380D01*
X111666666Y-115200000D01*
X111900000Y-115152380D02*
X112066666Y-116152380D01*
X112200000Y-115438095D01*
X112333333Y-116152380D01*
X112500000Y-115152380D01*
X113133333Y-116152380D02*
X112733333Y-116152380D01*
X112933333Y-116152380D02*
X112933333Y-115152380D01*
X112866666Y-115295238D01*
X112800000Y-115390476D01*
X112733333Y-115438095D01*
X124866666Y-116104761D02*
X124966666Y-116152380D01*
X125133333Y-116152380D01*
X125200000Y-116104761D01*
X125233333Y-116057142D01*
X125266666Y-115961904D01*
X125266666Y-115866666D01*
X125233333Y-115771428D01*
X125200000Y-115723809D01*
X125133333Y-115676190D01*
X125000000Y-115628571D01*
X124933333Y-115580952D01*
X124900000Y-115533333D01*
X124866666Y-115438095D01*
X124866666Y-115342857D01*
X124900000Y-115247619D01*
X124933333Y-115200000D01*
X125000000Y-115152380D01*
X125166666Y-115152380D01*
X125266666Y-115200000D01*
X125500000Y-115152380D02*
X125666666Y-116152380D01*
X125800000Y-115438095D01*
X125933333Y-116152380D01*
X126100000Y-115152380D01*
X126333333Y-115247619D02*
X126366666Y-115200000D01*
X126433333Y-115152380D01*
X126600000Y-115152380D01*
X126666666Y-115200000D01*
X126700000Y-115247619D01*
X126733333Y-115342857D01*
X126733333Y-115438095D01*
X126700000Y-115580952D01*
X126300000Y-116152380D01*
X126733333Y-116152380D01*
M02*
