G04 #@! TF.GenerationSoftware,KiCad,Pcbnew,(5.1.4-0)*
G04 #@! TF.CreationDate,2021-11-23T15:15:17+03:00*
G04 #@! TF.ProjectId,exercise_drop_tubes,65786572-6369-4736-955f-64726f705f74,rev?*
G04 #@! TF.SameCoordinates,Original*
G04 #@! TF.FileFunction,Soldermask,Top*
G04 #@! TF.FilePolarity,Negative*
%FSLAX46Y46*%
G04 Gerber Fmt 4.6, Leading zero omitted, Abs format (unit mm)*
G04 Created by KiCad (PCBNEW (5.1.4-0)) date 2021-11-23 15:15:17*
%MOMM*%
%LPD*%
G04 APERTURE LIST*
%ADD10C,0.100000*%
G04 APERTURE END LIST*
D10*
G36*
X178875256Y-112391298D02*
G01*
X178981579Y-112412447D01*
X179282042Y-112536903D01*
X179552451Y-112717585D01*
X179782415Y-112947549D01*
X179963097Y-113217958D01*
X180087553Y-113518421D01*
X180108702Y-113624744D01*
X180150901Y-113836890D01*
X180151000Y-113837391D01*
X180151000Y-114162609D01*
X180087553Y-114481579D01*
X179963097Y-114782042D01*
X179782415Y-115052451D01*
X179552451Y-115282415D01*
X179282042Y-115463097D01*
X178981579Y-115587553D01*
X178875256Y-115608702D01*
X178662611Y-115651000D01*
X178337389Y-115651000D01*
X178124744Y-115608702D01*
X178018421Y-115587553D01*
X177717958Y-115463097D01*
X177447549Y-115282415D01*
X177217585Y-115052451D01*
X177036903Y-114782042D01*
X176912447Y-114481579D01*
X176849000Y-114162609D01*
X176849000Y-113837391D01*
X176849100Y-113836890D01*
X176891298Y-113624744D01*
X176912447Y-113518421D01*
X177036903Y-113217958D01*
X177217585Y-112947549D01*
X177447549Y-112717585D01*
X177717958Y-112536903D01*
X178018421Y-112412447D01*
X178124744Y-112391298D01*
X178337389Y-112349000D01*
X178662611Y-112349000D01*
X178875256Y-112391298D01*
X178875256Y-112391298D01*
G37*
G36*
X83875256Y-112391298D02*
G01*
X83981579Y-112412447D01*
X84282042Y-112536903D01*
X84552451Y-112717585D01*
X84782415Y-112947549D01*
X84963097Y-113217958D01*
X85087553Y-113518421D01*
X85108702Y-113624744D01*
X85150901Y-113836890D01*
X85151000Y-113837391D01*
X85151000Y-114162609D01*
X85087553Y-114481579D01*
X84963097Y-114782042D01*
X84782415Y-115052451D01*
X84552451Y-115282415D01*
X84282042Y-115463097D01*
X83981579Y-115587553D01*
X83875256Y-115608702D01*
X83662611Y-115651000D01*
X83337389Y-115651000D01*
X83124744Y-115608702D01*
X83018421Y-115587553D01*
X82717958Y-115463097D01*
X82447549Y-115282415D01*
X82217585Y-115052451D01*
X82036903Y-114782042D01*
X81912447Y-114481579D01*
X81849000Y-114162609D01*
X81849000Y-113837391D01*
X81849100Y-113836890D01*
X81891298Y-113624744D01*
X81912447Y-113518421D01*
X82036903Y-113217958D01*
X82217585Y-112947549D01*
X82447549Y-112717585D01*
X82717958Y-112536903D01*
X83018421Y-112412447D01*
X83124744Y-112391298D01*
X83337389Y-112349000D01*
X83662611Y-112349000D01*
X83875256Y-112391298D01*
X83875256Y-112391298D01*
G37*
G36*
X116101000Y-114751000D02*
G01*
X114599000Y-114751000D01*
X114599000Y-113549000D01*
X116101000Y-113549000D01*
X116101000Y-114751000D01*
X116101000Y-114751000D01*
G37*
G36*
X109601000Y-114751000D02*
G01*
X108099000Y-114751000D01*
X108099000Y-113549000D01*
X109601000Y-113549000D01*
X109601000Y-114751000D01*
X109601000Y-114751000D01*
G37*
G36*
X129851000Y-114751000D02*
G01*
X128349000Y-114751000D01*
X128349000Y-113549000D01*
X129851000Y-113549000D01*
X129851000Y-114751000D01*
X129851000Y-114751000D01*
G37*
G36*
X123351000Y-114751000D02*
G01*
X121849000Y-114751000D01*
X121849000Y-113549000D01*
X123351000Y-113549000D01*
X123351000Y-114751000D01*
X123351000Y-114751000D01*
G37*
G36*
X121079591Y-113653085D02*
G01*
X121113569Y-113663393D01*
X121144890Y-113680134D01*
X121172339Y-113702661D01*
X121194866Y-113730110D01*
X121211607Y-113761431D01*
X121221915Y-113795409D01*
X121226000Y-113836890D01*
X121226000Y-114438110D01*
X121221915Y-114479591D01*
X121211607Y-114513569D01*
X121194866Y-114544890D01*
X121172339Y-114572339D01*
X121144890Y-114594866D01*
X121113569Y-114611607D01*
X121079591Y-114621915D01*
X121038110Y-114626000D01*
X120361890Y-114626000D01*
X120320409Y-114621915D01*
X120286431Y-114611607D01*
X120255110Y-114594866D01*
X120227661Y-114572339D01*
X120205134Y-114544890D01*
X120188393Y-114513569D01*
X120178085Y-114479591D01*
X120174000Y-114438110D01*
X120174000Y-113836890D01*
X120178085Y-113795409D01*
X120188393Y-113761431D01*
X120205134Y-113730110D01*
X120227661Y-113702661D01*
X120255110Y-113680134D01*
X120286431Y-113663393D01*
X120320409Y-113653085D01*
X120361890Y-113649000D01*
X121038110Y-113649000D01*
X121079591Y-113653085D01*
X121079591Y-113653085D01*
G37*
G36*
X117629591Y-113653085D02*
G01*
X117663569Y-113663393D01*
X117694890Y-113680134D01*
X117722339Y-113702661D01*
X117744866Y-113730110D01*
X117761607Y-113761431D01*
X117771915Y-113795409D01*
X117776000Y-113836890D01*
X117776000Y-114438110D01*
X117771915Y-114479591D01*
X117761607Y-114513569D01*
X117744866Y-114544890D01*
X117722339Y-114572339D01*
X117694890Y-114594866D01*
X117663569Y-114611607D01*
X117629591Y-114621915D01*
X117588110Y-114626000D01*
X116911890Y-114626000D01*
X116870409Y-114621915D01*
X116836431Y-114611607D01*
X116805110Y-114594866D01*
X116777661Y-114572339D01*
X116755134Y-114544890D01*
X116738393Y-114513569D01*
X116728085Y-114479591D01*
X116724000Y-114438110D01*
X116724000Y-113836890D01*
X116728085Y-113795409D01*
X116738393Y-113761431D01*
X116755134Y-113730110D01*
X116777661Y-113702661D01*
X116805110Y-113680134D01*
X116836431Y-113663393D01*
X116870409Y-113653085D01*
X116911890Y-113649000D01*
X117588110Y-113649000D01*
X117629591Y-113653085D01*
X117629591Y-113653085D01*
G37*
G36*
X172076626Y-111362037D02*
G01*
X172246465Y-111413557D01*
X172246467Y-111413558D01*
X172402989Y-111497221D01*
X172540186Y-111609814D01*
X172623448Y-111711271D01*
X172652778Y-111747009D01*
X172736443Y-111903534D01*
X172787963Y-112073373D01*
X172801000Y-112205742D01*
X172801000Y-112594257D01*
X172787963Y-112726626D01*
X172736443Y-112896466D01*
X172652778Y-113052991D01*
X172623448Y-113088729D01*
X172540186Y-113190186D01*
X172445250Y-113268097D01*
X172402991Y-113302778D01*
X172246466Y-113386443D01*
X172076627Y-113437963D01*
X171900000Y-113455359D01*
X171723374Y-113437963D01*
X171553535Y-113386443D01*
X171397010Y-113302778D01*
X171259815Y-113190185D01*
X171147222Y-113052991D01*
X171063557Y-112896466D01*
X171012037Y-112726627D01*
X170999000Y-112594258D01*
X170999000Y-112205743D01*
X171012037Y-112073374D01*
X171063557Y-111903535D01*
X171147222Y-111747010D01*
X171147223Y-111747009D01*
X171259814Y-111609814D01*
X171361271Y-111526552D01*
X171397009Y-111497222D01*
X171553534Y-111413557D01*
X171723373Y-111362037D01*
X171900000Y-111344641D01*
X172076626Y-111362037D01*
X172076626Y-111362037D01*
G37*
G36*
X163076626Y-111362037D02*
G01*
X163246465Y-111413557D01*
X163246467Y-111413558D01*
X163402989Y-111497221D01*
X163540186Y-111609814D01*
X163623448Y-111711271D01*
X163652778Y-111747009D01*
X163736443Y-111903534D01*
X163787963Y-112073373D01*
X163801000Y-112205742D01*
X163801000Y-112594257D01*
X163787963Y-112726626D01*
X163736443Y-112896466D01*
X163652778Y-113052991D01*
X163623448Y-113088729D01*
X163540186Y-113190186D01*
X163445250Y-113268097D01*
X163402991Y-113302778D01*
X163246466Y-113386443D01*
X163076627Y-113437963D01*
X162900000Y-113455359D01*
X162723374Y-113437963D01*
X162553535Y-113386443D01*
X162397010Y-113302778D01*
X162259815Y-113190185D01*
X162147222Y-113052991D01*
X162063557Y-112896466D01*
X162012037Y-112726627D01*
X161999000Y-112594258D01*
X161999000Y-112205743D01*
X162012037Y-112073374D01*
X162063557Y-111903535D01*
X162147222Y-111747010D01*
X162147223Y-111747009D01*
X162259814Y-111609814D01*
X162361271Y-111526552D01*
X162397009Y-111497222D01*
X162553534Y-111413557D01*
X162723373Y-111362037D01*
X162900000Y-111344641D01*
X163076626Y-111362037D01*
X163076626Y-111362037D01*
G37*
G36*
X154076626Y-111362037D02*
G01*
X154246465Y-111413557D01*
X154246467Y-111413558D01*
X154402989Y-111497221D01*
X154540186Y-111609814D01*
X154623448Y-111711271D01*
X154652778Y-111747009D01*
X154736443Y-111903534D01*
X154787963Y-112073373D01*
X154801000Y-112205742D01*
X154801000Y-112594257D01*
X154787963Y-112726626D01*
X154736443Y-112896466D01*
X154652778Y-113052991D01*
X154623448Y-113088729D01*
X154540186Y-113190186D01*
X154445250Y-113268097D01*
X154402991Y-113302778D01*
X154246466Y-113386443D01*
X154076627Y-113437963D01*
X153900000Y-113455359D01*
X153723374Y-113437963D01*
X153553535Y-113386443D01*
X153397010Y-113302778D01*
X153259815Y-113190185D01*
X153147222Y-113052991D01*
X153063557Y-112896466D01*
X153012037Y-112726627D01*
X152999000Y-112594258D01*
X152999000Y-112205743D01*
X153012037Y-112073374D01*
X153063557Y-111903535D01*
X153147222Y-111747010D01*
X153147223Y-111747009D01*
X153259814Y-111609814D01*
X153361271Y-111526552D01*
X153397009Y-111497222D01*
X153553534Y-111413557D01*
X153723373Y-111362037D01*
X153900000Y-111344641D01*
X154076626Y-111362037D01*
X154076626Y-111362037D01*
G37*
G36*
X145076626Y-111362037D02*
G01*
X145246465Y-111413557D01*
X145246467Y-111413558D01*
X145402989Y-111497221D01*
X145540186Y-111609814D01*
X145623448Y-111711271D01*
X145652778Y-111747009D01*
X145736443Y-111903534D01*
X145787963Y-112073373D01*
X145801000Y-112205742D01*
X145801000Y-112594257D01*
X145787963Y-112726626D01*
X145736443Y-112896466D01*
X145652778Y-113052991D01*
X145623448Y-113088729D01*
X145540186Y-113190186D01*
X145445250Y-113268097D01*
X145402991Y-113302778D01*
X145246466Y-113386443D01*
X145076627Y-113437963D01*
X144900000Y-113455359D01*
X144723374Y-113437963D01*
X144553535Y-113386443D01*
X144397010Y-113302778D01*
X144259815Y-113190185D01*
X144147222Y-113052991D01*
X144063557Y-112896466D01*
X144012037Y-112726627D01*
X143999000Y-112594258D01*
X143999000Y-112205743D01*
X144012037Y-112073374D01*
X144063557Y-111903535D01*
X144147222Y-111747010D01*
X144147223Y-111747009D01*
X144259814Y-111609814D01*
X144361271Y-111526552D01*
X144397009Y-111497222D01*
X144553534Y-111413557D01*
X144723373Y-111362037D01*
X144900000Y-111344641D01*
X145076626Y-111362037D01*
X145076626Y-111362037D01*
G37*
G36*
X136076626Y-111362037D02*
G01*
X136246465Y-111413557D01*
X136246467Y-111413558D01*
X136402989Y-111497221D01*
X136540186Y-111609814D01*
X136623448Y-111711271D01*
X136652778Y-111747009D01*
X136736443Y-111903534D01*
X136787963Y-112073373D01*
X136801000Y-112205742D01*
X136801000Y-112594257D01*
X136787963Y-112726626D01*
X136736443Y-112896466D01*
X136652778Y-113052991D01*
X136623448Y-113088729D01*
X136540186Y-113190186D01*
X136445250Y-113268097D01*
X136402991Y-113302778D01*
X136246466Y-113386443D01*
X136076627Y-113437963D01*
X135900000Y-113455359D01*
X135723374Y-113437963D01*
X135553535Y-113386443D01*
X135397010Y-113302778D01*
X135259815Y-113190185D01*
X135147222Y-113052991D01*
X135063557Y-112896466D01*
X135012037Y-112726627D01*
X134999000Y-112594258D01*
X134999000Y-112205743D01*
X135012037Y-112073374D01*
X135063557Y-111903535D01*
X135147222Y-111747010D01*
X135147223Y-111747009D01*
X135259814Y-111609814D01*
X135361271Y-111526552D01*
X135397009Y-111497222D01*
X135553534Y-111413557D01*
X135723373Y-111362037D01*
X135900000Y-111344641D01*
X136076626Y-111362037D01*
X136076626Y-111362037D01*
G37*
G36*
X170158600Y-111352989D02*
G01*
X170191652Y-111363015D01*
X170222103Y-111379292D01*
X170248799Y-111401201D01*
X170270708Y-111427897D01*
X170286985Y-111458348D01*
X170297011Y-111491400D01*
X170301000Y-111531903D01*
X170301000Y-113268097D01*
X170297011Y-113308600D01*
X170286985Y-113341652D01*
X170270708Y-113372103D01*
X170248799Y-113398799D01*
X170222103Y-113420708D01*
X170191652Y-113436985D01*
X170158600Y-113447011D01*
X170118097Y-113451000D01*
X168681903Y-113451000D01*
X168641400Y-113447011D01*
X168608348Y-113436985D01*
X168577897Y-113420708D01*
X168551201Y-113398799D01*
X168529292Y-113372103D01*
X168513015Y-113341652D01*
X168502989Y-113308600D01*
X168499000Y-113268097D01*
X168499000Y-111531903D01*
X168502989Y-111491400D01*
X168513015Y-111458348D01*
X168529292Y-111427897D01*
X168551201Y-111401201D01*
X168577897Y-111379292D01*
X168608348Y-111363015D01*
X168641400Y-111352989D01*
X168681903Y-111349000D01*
X170118097Y-111349000D01*
X170158600Y-111352989D01*
X170158600Y-111352989D01*
G37*
G36*
X161158600Y-111352989D02*
G01*
X161191652Y-111363015D01*
X161222103Y-111379292D01*
X161248799Y-111401201D01*
X161270708Y-111427897D01*
X161286985Y-111458348D01*
X161297011Y-111491400D01*
X161301000Y-111531903D01*
X161301000Y-113268097D01*
X161297011Y-113308600D01*
X161286985Y-113341652D01*
X161270708Y-113372103D01*
X161248799Y-113398799D01*
X161222103Y-113420708D01*
X161191652Y-113436985D01*
X161158600Y-113447011D01*
X161118097Y-113451000D01*
X159681903Y-113451000D01*
X159641400Y-113447011D01*
X159608348Y-113436985D01*
X159577897Y-113420708D01*
X159551201Y-113398799D01*
X159529292Y-113372103D01*
X159513015Y-113341652D01*
X159502989Y-113308600D01*
X159499000Y-113268097D01*
X159499000Y-111531903D01*
X159502989Y-111491400D01*
X159513015Y-111458348D01*
X159529292Y-111427897D01*
X159551201Y-111401201D01*
X159577897Y-111379292D01*
X159608348Y-111363015D01*
X159641400Y-111352989D01*
X159681903Y-111349000D01*
X161118097Y-111349000D01*
X161158600Y-111352989D01*
X161158600Y-111352989D01*
G37*
G36*
X152158600Y-111352989D02*
G01*
X152191652Y-111363015D01*
X152222103Y-111379292D01*
X152248799Y-111401201D01*
X152270708Y-111427897D01*
X152286985Y-111458348D01*
X152297011Y-111491400D01*
X152301000Y-111531903D01*
X152301000Y-113268097D01*
X152297011Y-113308600D01*
X152286985Y-113341652D01*
X152270708Y-113372103D01*
X152248799Y-113398799D01*
X152222103Y-113420708D01*
X152191652Y-113436985D01*
X152158600Y-113447011D01*
X152118097Y-113451000D01*
X150681903Y-113451000D01*
X150641400Y-113447011D01*
X150608348Y-113436985D01*
X150577897Y-113420708D01*
X150551201Y-113398799D01*
X150529292Y-113372103D01*
X150513015Y-113341652D01*
X150502989Y-113308600D01*
X150499000Y-113268097D01*
X150499000Y-111531903D01*
X150502989Y-111491400D01*
X150513015Y-111458348D01*
X150529292Y-111427897D01*
X150551201Y-111401201D01*
X150577897Y-111379292D01*
X150608348Y-111363015D01*
X150641400Y-111352989D01*
X150681903Y-111349000D01*
X152118097Y-111349000D01*
X152158600Y-111352989D01*
X152158600Y-111352989D01*
G37*
G36*
X143158600Y-111352989D02*
G01*
X143191652Y-111363015D01*
X143222103Y-111379292D01*
X143248799Y-111401201D01*
X143270708Y-111427897D01*
X143286985Y-111458348D01*
X143297011Y-111491400D01*
X143301000Y-111531903D01*
X143301000Y-113268097D01*
X143297011Y-113308600D01*
X143286985Y-113341652D01*
X143270708Y-113372103D01*
X143248799Y-113398799D01*
X143222103Y-113420708D01*
X143191652Y-113436985D01*
X143158600Y-113447011D01*
X143118097Y-113451000D01*
X141681903Y-113451000D01*
X141641400Y-113447011D01*
X141608348Y-113436985D01*
X141577897Y-113420708D01*
X141551201Y-113398799D01*
X141529292Y-113372103D01*
X141513015Y-113341652D01*
X141502989Y-113308600D01*
X141499000Y-113268097D01*
X141499000Y-111531903D01*
X141502989Y-111491400D01*
X141513015Y-111458348D01*
X141529292Y-111427897D01*
X141551201Y-111401201D01*
X141577897Y-111379292D01*
X141608348Y-111363015D01*
X141641400Y-111352989D01*
X141681903Y-111349000D01*
X143118097Y-111349000D01*
X143158600Y-111352989D01*
X143158600Y-111352989D01*
G37*
G36*
X134158600Y-111352989D02*
G01*
X134191652Y-111363015D01*
X134222103Y-111379292D01*
X134248799Y-111401201D01*
X134270708Y-111427897D01*
X134286985Y-111458348D01*
X134297011Y-111491400D01*
X134301000Y-111531903D01*
X134301000Y-113268097D01*
X134297011Y-113308600D01*
X134286985Y-113341652D01*
X134270708Y-113372103D01*
X134248799Y-113398799D01*
X134222103Y-113420708D01*
X134191652Y-113436985D01*
X134158600Y-113447011D01*
X134118097Y-113451000D01*
X132681903Y-113451000D01*
X132641400Y-113447011D01*
X132608348Y-113436985D01*
X132577897Y-113420708D01*
X132551201Y-113398799D01*
X132529292Y-113372103D01*
X132513015Y-113341652D01*
X132502989Y-113308600D01*
X132499000Y-113268097D01*
X132499000Y-111531903D01*
X132502989Y-111491400D01*
X132513015Y-111458348D01*
X132529292Y-111427897D01*
X132551201Y-111401201D01*
X132577897Y-111379292D01*
X132608348Y-111363015D01*
X132641400Y-111352989D01*
X132681903Y-111349000D01*
X134118097Y-111349000D01*
X134158600Y-111352989D01*
X134158600Y-111352989D01*
G37*
G36*
X121079591Y-112078085D02*
G01*
X121113569Y-112088393D01*
X121144890Y-112105134D01*
X121172339Y-112127661D01*
X121194866Y-112155110D01*
X121211607Y-112186431D01*
X121221915Y-112220409D01*
X121226000Y-112261890D01*
X121226000Y-112863110D01*
X121221915Y-112904591D01*
X121211607Y-112938569D01*
X121194866Y-112969890D01*
X121172339Y-112997339D01*
X121144890Y-113019866D01*
X121113569Y-113036607D01*
X121079591Y-113046915D01*
X121038110Y-113051000D01*
X120361890Y-113051000D01*
X120320409Y-113046915D01*
X120286431Y-113036607D01*
X120255110Y-113019866D01*
X120227661Y-112997339D01*
X120205134Y-112969890D01*
X120188393Y-112938569D01*
X120178085Y-112904591D01*
X120174000Y-112863110D01*
X120174000Y-112261890D01*
X120178085Y-112220409D01*
X120188393Y-112186431D01*
X120205134Y-112155110D01*
X120227661Y-112127661D01*
X120255110Y-112105134D01*
X120286431Y-112088393D01*
X120320409Y-112078085D01*
X120361890Y-112074000D01*
X121038110Y-112074000D01*
X121079591Y-112078085D01*
X121079591Y-112078085D01*
G37*
G36*
X117629591Y-112078085D02*
G01*
X117663569Y-112088393D01*
X117694890Y-112105134D01*
X117722339Y-112127661D01*
X117744866Y-112155110D01*
X117761607Y-112186431D01*
X117771915Y-112220409D01*
X117776000Y-112261890D01*
X117776000Y-112863110D01*
X117771915Y-112904591D01*
X117761607Y-112938569D01*
X117744866Y-112969890D01*
X117722339Y-112997339D01*
X117694890Y-113019866D01*
X117663569Y-113036607D01*
X117629591Y-113046915D01*
X117588110Y-113051000D01*
X116911890Y-113051000D01*
X116870409Y-113046915D01*
X116836431Y-113036607D01*
X116805110Y-113019866D01*
X116777661Y-112997339D01*
X116755134Y-112969890D01*
X116738393Y-112938569D01*
X116728085Y-112904591D01*
X116724000Y-112863110D01*
X116724000Y-112261890D01*
X116728085Y-112220409D01*
X116738393Y-112186431D01*
X116755134Y-112155110D01*
X116777661Y-112127661D01*
X116805110Y-112105134D01*
X116836431Y-112088393D01*
X116870409Y-112078085D01*
X116911890Y-112074000D01*
X117588110Y-112074000D01*
X117629591Y-112078085D01*
X117629591Y-112078085D01*
G37*
G36*
X123351000Y-111751000D02*
G01*
X121849000Y-111751000D01*
X121849000Y-110549000D01*
X123351000Y-110549000D01*
X123351000Y-111751000D01*
X123351000Y-111751000D01*
G37*
G36*
X129851000Y-111751000D02*
G01*
X128349000Y-111751000D01*
X128349000Y-110549000D01*
X129851000Y-110549000D01*
X129851000Y-111751000D01*
X129851000Y-111751000D01*
G37*
G36*
X116101000Y-111751000D02*
G01*
X114599000Y-111751000D01*
X114599000Y-110549000D01*
X116101000Y-110549000D01*
X116101000Y-111751000D01*
X116101000Y-111751000D01*
G37*
G36*
X109601000Y-111751000D02*
G01*
X108099000Y-111751000D01*
X108099000Y-110549000D01*
X109601000Y-110549000D01*
X109601000Y-111751000D01*
X109601000Y-111751000D01*
G37*
G36*
X92101000Y-110751000D02*
G01*
X87999000Y-110751000D01*
X87999000Y-106649000D01*
X92101000Y-106649000D01*
X92101000Y-110751000D01*
X92101000Y-110751000D01*
G37*
G36*
X101101000Y-110751000D02*
G01*
X96999000Y-110751000D01*
X96999000Y-106649000D01*
X101101000Y-106649000D01*
X101101000Y-110751000D01*
X101101000Y-110751000D01*
G37*
G36*
X170901000Y-109326000D02*
G01*
X169999000Y-109326000D01*
X169999000Y-108324000D01*
X170901000Y-108324000D01*
X170901000Y-109326000D01*
X170901000Y-109326000D01*
G37*
G36*
X162076000Y-109276000D02*
G01*
X161174000Y-109276000D01*
X161174000Y-108274000D01*
X162076000Y-108274000D01*
X162076000Y-109276000D01*
X162076000Y-109276000D01*
G37*
G36*
X144151000Y-109251000D02*
G01*
X143249000Y-109251000D01*
X143249000Y-108249000D01*
X144151000Y-108249000D01*
X144151000Y-109251000D01*
X144151000Y-109251000D01*
G37*
G36*
X153201000Y-109226000D02*
G01*
X152299000Y-109226000D01*
X152299000Y-108224000D01*
X153201000Y-108224000D01*
X153201000Y-109226000D01*
X153201000Y-109226000D01*
G37*
G36*
X111154591Y-108128085D02*
G01*
X111188569Y-108138393D01*
X111219890Y-108155134D01*
X111247339Y-108177661D01*
X111269866Y-108205110D01*
X111286607Y-108236431D01*
X111296915Y-108270409D01*
X111301000Y-108311890D01*
X111301000Y-108988110D01*
X111296915Y-109029591D01*
X111286607Y-109063569D01*
X111269866Y-109094890D01*
X111247339Y-109122339D01*
X111219890Y-109144866D01*
X111188569Y-109161607D01*
X111154591Y-109171915D01*
X111113110Y-109176000D01*
X110511890Y-109176000D01*
X110470409Y-109171915D01*
X110436431Y-109161607D01*
X110405110Y-109144866D01*
X110377661Y-109122339D01*
X110355134Y-109094890D01*
X110338393Y-109063569D01*
X110328085Y-109029591D01*
X110324000Y-108988110D01*
X110324000Y-108311890D01*
X110328085Y-108270409D01*
X110338393Y-108236431D01*
X110355134Y-108205110D01*
X110377661Y-108177661D01*
X110405110Y-108155134D01*
X110436431Y-108138393D01*
X110470409Y-108128085D01*
X110511890Y-108124000D01*
X111113110Y-108124000D01*
X111154591Y-108128085D01*
X111154591Y-108128085D01*
G37*
G36*
X105254591Y-108128085D02*
G01*
X105288569Y-108138393D01*
X105319890Y-108155134D01*
X105347339Y-108177661D01*
X105369866Y-108205110D01*
X105386607Y-108236431D01*
X105396915Y-108270409D01*
X105401000Y-108311890D01*
X105401000Y-108988110D01*
X105396915Y-109029591D01*
X105386607Y-109063569D01*
X105369866Y-109094890D01*
X105347339Y-109122339D01*
X105319890Y-109144866D01*
X105288569Y-109161607D01*
X105254591Y-109171915D01*
X105213110Y-109176000D01*
X104611890Y-109176000D01*
X104570409Y-109171915D01*
X104536431Y-109161607D01*
X104505110Y-109144866D01*
X104477661Y-109122339D01*
X104455134Y-109094890D01*
X104438393Y-109063569D01*
X104428085Y-109029591D01*
X104424000Y-108988110D01*
X104424000Y-108311890D01*
X104428085Y-108270409D01*
X104438393Y-108236431D01*
X104455134Y-108205110D01*
X104477661Y-108177661D01*
X104505110Y-108155134D01*
X104536431Y-108138393D01*
X104570409Y-108128085D01*
X104611890Y-108124000D01*
X105213110Y-108124000D01*
X105254591Y-108128085D01*
X105254591Y-108128085D01*
G37*
G36*
X106829591Y-108128085D02*
G01*
X106863569Y-108138393D01*
X106894890Y-108155134D01*
X106922339Y-108177661D01*
X106944866Y-108205110D01*
X106961607Y-108236431D01*
X106971915Y-108270409D01*
X106976000Y-108311890D01*
X106976000Y-108988110D01*
X106971915Y-109029591D01*
X106961607Y-109063569D01*
X106944866Y-109094890D01*
X106922339Y-109122339D01*
X106894890Y-109144866D01*
X106863569Y-109161607D01*
X106829591Y-109171915D01*
X106788110Y-109176000D01*
X106186890Y-109176000D01*
X106145409Y-109171915D01*
X106111431Y-109161607D01*
X106080110Y-109144866D01*
X106052661Y-109122339D01*
X106030134Y-109094890D01*
X106013393Y-109063569D01*
X106003085Y-109029591D01*
X105999000Y-108988110D01*
X105999000Y-108311890D01*
X106003085Y-108270409D01*
X106013393Y-108236431D01*
X106030134Y-108205110D01*
X106052661Y-108177661D01*
X106080110Y-108155134D01*
X106111431Y-108138393D01*
X106145409Y-108128085D01*
X106186890Y-108124000D01*
X106788110Y-108124000D01*
X106829591Y-108128085D01*
X106829591Y-108128085D01*
G37*
G36*
X112729591Y-108128085D02*
G01*
X112763569Y-108138393D01*
X112794890Y-108155134D01*
X112822339Y-108177661D01*
X112844866Y-108205110D01*
X112861607Y-108236431D01*
X112871915Y-108270409D01*
X112876000Y-108311890D01*
X112876000Y-108988110D01*
X112871915Y-109029591D01*
X112861607Y-109063569D01*
X112844866Y-109094890D01*
X112822339Y-109122339D01*
X112794890Y-109144866D01*
X112763569Y-109161607D01*
X112729591Y-109171915D01*
X112688110Y-109176000D01*
X112086890Y-109176000D01*
X112045409Y-109171915D01*
X112011431Y-109161607D01*
X111980110Y-109144866D01*
X111952661Y-109122339D01*
X111930134Y-109094890D01*
X111913393Y-109063569D01*
X111903085Y-109029591D01*
X111899000Y-108988110D01*
X111899000Y-108311890D01*
X111903085Y-108270409D01*
X111913393Y-108236431D01*
X111930134Y-108205110D01*
X111952661Y-108177661D01*
X111980110Y-108155134D01*
X112011431Y-108138393D01*
X112045409Y-108128085D01*
X112086890Y-108124000D01*
X112688110Y-108124000D01*
X112729591Y-108128085D01*
X112729591Y-108128085D01*
G37*
G36*
X119529591Y-108078085D02*
G01*
X119563569Y-108088393D01*
X119594890Y-108105134D01*
X119622339Y-108127661D01*
X119644866Y-108155110D01*
X119661607Y-108186431D01*
X119671915Y-108220409D01*
X119676000Y-108261890D01*
X119676000Y-108938110D01*
X119671915Y-108979591D01*
X119661607Y-109013569D01*
X119644866Y-109044890D01*
X119622339Y-109072339D01*
X119594890Y-109094866D01*
X119563569Y-109111607D01*
X119529591Y-109121915D01*
X119488110Y-109126000D01*
X118886890Y-109126000D01*
X118845409Y-109121915D01*
X118811431Y-109111607D01*
X118780110Y-109094866D01*
X118752661Y-109072339D01*
X118730134Y-109044890D01*
X118713393Y-109013569D01*
X118703085Y-108979591D01*
X118699000Y-108938110D01*
X118699000Y-108261890D01*
X118703085Y-108220409D01*
X118713393Y-108186431D01*
X118730134Y-108155110D01*
X118752661Y-108127661D01*
X118780110Y-108105134D01*
X118811431Y-108088393D01*
X118845409Y-108078085D01*
X118886890Y-108074000D01*
X119488110Y-108074000D01*
X119529591Y-108078085D01*
X119529591Y-108078085D01*
G37*
G36*
X117954591Y-108078085D02*
G01*
X117988569Y-108088393D01*
X118019890Y-108105134D01*
X118047339Y-108127661D01*
X118069866Y-108155110D01*
X118086607Y-108186431D01*
X118096915Y-108220409D01*
X118101000Y-108261890D01*
X118101000Y-108938110D01*
X118096915Y-108979591D01*
X118086607Y-109013569D01*
X118069866Y-109044890D01*
X118047339Y-109072339D01*
X118019890Y-109094866D01*
X117988569Y-109111607D01*
X117954591Y-109121915D01*
X117913110Y-109126000D01*
X117311890Y-109126000D01*
X117270409Y-109121915D01*
X117236431Y-109111607D01*
X117205110Y-109094866D01*
X117177661Y-109072339D01*
X117155134Y-109044890D01*
X117138393Y-109013569D01*
X117128085Y-108979591D01*
X117124000Y-108938110D01*
X117124000Y-108261890D01*
X117128085Y-108220409D01*
X117138393Y-108186431D01*
X117155134Y-108155110D01*
X117177661Y-108127661D01*
X117205110Y-108105134D01*
X117236431Y-108088393D01*
X117270409Y-108078085D01*
X117311890Y-108074000D01*
X117913110Y-108074000D01*
X117954591Y-108078085D01*
X117954591Y-108078085D01*
G37*
G36*
X135875000Y-109117000D02*
G01*
X134973000Y-109117000D01*
X134973000Y-108115000D01*
X135875000Y-108115000D01*
X135875000Y-109117000D01*
X135875000Y-109117000D01*
G37*
G36*
X173379591Y-107903085D02*
G01*
X173413569Y-107913393D01*
X173444890Y-107930134D01*
X173472339Y-107952661D01*
X173494866Y-107980110D01*
X173511607Y-108011431D01*
X173521915Y-108045409D01*
X173526000Y-108086890D01*
X173526000Y-108688110D01*
X173521915Y-108729591D01*
X173511607Y-108763569D01*
X173494866Y-108794890D01*
X173472339Y-108822339D01*
X173444890Y-108844866D01*
X173413569Y-108861607D01*
X173379591Y-108871915D01*
X173338110Y-108876000D01*
X172661890Y-108876000D01*
X172620409Y-108871915D01*
X172586431Y-108861607D01*
X172555110Y-108844866D01*
X172527661Y-108822339D01*
X172505134Y-108794890D01*
X172488393Y-108763569D01*
X172478085Y-108729591D01*
X172474000Y-108688110D01*
X172474000Y-108086890D01*
X172478085Y-108045409D01*
X172488393Y-108011431D01*
X172505134Y-107980110D01*
X172527661Y-107952661D01*
X172555110Y-107930134D01*
X172586431Y-107913393D01*
X172620409Y-107903085D01*
X172661890Y-107899000D01*
X173338110Y-107899000D01*
X173379591Y-107903085D01*
X173379591Y-107903085D01*
G37*
G36*
X164579591Y-107853085D02*
G01*
X164613569Y-107863393D01*
X164644890Y-107880134D01*
X164672339Y-107902661D01*
X164694866Y-107930110D01*
X164711607Y-107961431D01*
X164721915Y-107995409D01*
X164726000Y-108036890D01*
X164726000Y-108638110D01*
X164721915Y-108679591D01*
X164711607Y-108713569D01*
X164694866Y-108744890D01*
X164672339Y-108772339D01*
X164644890Y-108794866D01*
X164613569Y-108811607D01*
X164579591Y-108821915D01*
X164538110Y-108826000D01*
X163861890Y-108826000D01*
X163820409Y-108821915D01*
X163786431Y-108811607D01*
X163755110Y-108794866D01*
X163727661Y-108772339D01*
X163705134Y-108744890D01*
X163688393Y-108713569D01*
X163678085Y-108679591D01*
X163674000Y-108638110D01*
X163674000Y-108036890D01*
X163678085Y-107995409D01*
X163688393Y-107961431D01*
X163705134Y-107930110D01*
X163727661Y-107902661D01*
X163755110Y-107880134D01*
X163786431Y-107863393D01*
X163820409Y-107853085D01*
X163861890Y-107849000D01*
X164538110Y-107849000D01*
X164579591Y-107853085D01*
X164579591Y-107853085D01*
G37*
G36*
X146629591Y-107828085D02*
G01*
X146663569Y-107838393D01*
X146694890Y-107855134D01*
X146722339Y-107877661D01*
X146744866Y-107905110D01*
X146761607Y-107936431D01*
X146771915Y-107970409D01*
X146776000Y-108011890D01*
X146776000Y-108613110D01*
X146771915Y-108654591D01*
X146761607Y-108688569D01*
X146744866Y-108719890D01*
X146722339Y-108747339D01*
X146694890Y-108769866D01*
X146663569Y-108786607D01*
X146629591Y-108796915D01*
X146588110Y-108801000D01*
X145911890Y-108801000D01*
X145870409Y-108796915D01*
X145836431Y-108786607D01*
X145805110Y-108769866D01*
X145777661Y-108747339D01*
X145755134Y-108719890D01*
X145738393Y-108688569D01*
X145728085Y-108654591D01*
X145724000Y-108613110D01*
X145724000Y-108011890D01*
X145728085Y-107970409D01*
X145738393Y-107936431D01*
X145755134Y-107905110D01*
X145777661Y-107877661D01*
X145805110Y-107855134D01*
X145836431Y-107838393D01*
X145870409Y-107828085D01*
X145911890Y-107824000D01*
X146588110Y-107824000D01*
X146629591Y-107828085D01*
X146629591Y-107828085D01*
G37*
G36*
X155679591Y-107803085D02*
G01*
X155713569Y-107813393D01*
X155744890Y-107830134D01*
X155772339Y-107852661D01*
X155794866Y-107880110D01*
X155811607Y-107911431D01*
X155821915Y-107945409D01*
X155826000Y-107986890D01*
X155826000Y-108588110D01*
X155821915Y-108629591D01*
X155811607Y-108663569D01*
X155794866Y-108694890D01*
X155772339Y-108722339D01*
X155744890Y-108744866D01*
X155713569Y-108761607D01*
X155679591Y-108771915D01*
X155638110Y-108776000D01*
X154961890Y-108776000D01*
X154920409Y-108771915D01*
X154886431Y-108761607D01*
X154855110Y-108744866D01*
X154827661Y-108722339D01*
X154805134Y-108694890D01*
X154788393Y-108663569D01*
X154778085Y-108629591D01*
X154774000Y-108588110D01*
X154774000Y-107986890D01*
X154778085Y-107945409D01*
X154788393Y-107911431D01*
X154805134Y-107880110D01*
X154827661Y-107852661D01*
X154855110Y-107830134D01*
X154886431Y-107813393D01*
X154920409Y-107803085D01*
X154961890Y-107799000D01*
X155638110Y-107799000D01*
X155679591Y-107803085D01*
X155679591Y-107803085D01*
G37*
G36*
X138354591Y-107703085D02*
G01*
X138388569Y-107713393D01*
X138419890Y-107730134D01*
X138447339Y-107752661D01*
X138469866Y-107780110D01*
X138486607Y-107811431D01*
X138496915Y-107845409D01*
X138501000Y-107886890D01*
X138501000Y-108488110D01*
X138496915Y-108529591D01*
X138486607Y-108563569D01*
X138469866Y-108594890D01*
X138447339Y-108622339D01*
X138419890Y-108644866D01*
X138388569Y-108661607D01*
X138354591Y-108671915D01*
X138313110Y-108676000D01*
X137636890Y-108676000D01*
X137595409Y-108671915D01*
X137561431Y-108661607D01*
X137530110Y-108644866D01*
X137502661Y-108622339D01*
X137480134Y-108594890D01*
X137463393Y-108563569D01*
X137453085Y-108529591D01*
X137449000Y-108488110D01*
X137449000Y-107886890D01*
X137453085Y-107845409D01*
X137463393Y-107811431D01*
X137480134Y-107780110D01*
X137502661Y-107752661D01*
X137530110Y-107730134D01*
X137561431Y-107713393D01*
X137595409Y-107703085D01*
X137636890Y-107699000D01*
X138313110Y-107699000D01*
X138354591Y-107703085D01*
X138354591Y-107703085D01*
G37*
G36*
X129654591Y-107453085D02*
G01*
X129688569Y-107463393D01*
X129719890Y-107480134D01*
X129747339Y-107502661D01*
X129769866Y-107530110D01*
X129786607Y-107561431D01*
X129796915Y-107595409D01*
X129801000Y-107636890D01*
X129801000Y-108238110D01*
X129796915Y-108279591D01*
X129786607Y-108313569D01*
X129769866Y-108344890D01*
X129747339Y-108372339D01*
X129719890Y-108394866D01*
X129688569Y-108411607D01*
X129654591Y-108421915D01*
X129613110Y-108426000D01*
X128936890Y-108426000D01*
X128895409Y-108421915D01*
X128861431Y-108411607D01*
X128830110Y-108394866D01*
X128802661Y-108372339D01*
X128780134Y-108344890D01*
X128763393Y-108313569D01*
X128753085Y-108279591D01*
X128749000Y-108238110D01*
X128749000Y-107636890D01*
X128753085Y-107595409D01*
X128763393Y-107561431D01*
X128780134Y-107530110D01*
X128802661Y-107502661D01*
X128830110Y-107480134D01*
X128861431Y-107463393D01*
X128895409Y-107453085D01*
X128936890Y-107449000D01*
X129613110Y-107449000D01*
X129654591Y-107453085D01*
X129654591Y-107453085D01*
G37*
G36*
X111751000Y-107401000D02*
G01*
X109849000Y-107401000D01*
X109849000Y-105499000D01*
X111751000Y-105499000D01*
X111751000Y-107401000D01*
X111751000Y-107401000D01*
G37*
G36*
X113617395Y-105535546D02*
G01*
X113790466Y-105607234D01*
X113790467Y-105607235D01*
X113946227Y-105711310D01*
X114078690Y-105843773D01*
X114108504Y-105888393D01*
X114182766Y-105999534D01*
X114254454Y-106172605D01*
X114291000Y-106356333D01*
X114291000Y-106543667D01*
X114254454Y-106727395D01*
X114182766Y-106900466D01*
X114149521Y-106950220D01*
X114078690Y-107056227D01*
X113946227Y-107188690D01*
X113880798Y-107232408D01*
X113790466Y-107292766D01*
X113617395Y-107364454D01*
X113433667Y-107401000D01*
X113246333Y-107401000D01*
X113062605Y-107364454D01*
X112889534Y-107292766D01*
X112799202Y-107232408D01*
X112733773Y-107188690D01*
X112601310Y-107056227D01*
X112530479Y-106950220D01*
X112497234Y-106900466D01*
X112425546Y-106727395D01*
X112389000Y-106543667D01*
X112389000Y-106356333D01*
X112425546Y-106172605D01*
X112497234Y-105999534D01*
X112571496Y-105888393D01*
X112601310Y-105843773D01*
X112733773Y-105711310D01*
X112889533Y-105607235D01*
X112889534Y-105607234D01*
X113062605Y-105535546D01*
X113246333Y-105499000D01*
X113433667Y-105499000D01*
X113617395Y-105535546D01*
X113617395Y-105535546D01*
G37*
G36*
X106777395Y-105535546D02*
G01*
X106950466Y-105607234D01*
X106950467Y-105607235D01*
X107106227Y-105711310D01*
X107238690Y-105843773D01*
X107268504Y-105888393D01*
X107342766Y-105999534D01*
X107414454Y-106172605D01*
X107451000Y-106356333D01*
X107451000Y-106543667D01*
X107414454Y-106727395D01*
X107342766Y-106900466D01*
X107309521Y-106950220D01*
X107238690Y-107056227D01*
X107106227Y-107188690D01*
X107040798Y-107232408D01*
X106950466Y-107292766D01*
X106777395Y-107364454D01*
X106593667Y-107401000D01*
X106406333Y-107401000D01*
X106222605Y-107364454D01*
X106049534Y-107292766D01*
X105959202Y-107232408D01*
X105893773Y-107188690D01*
X105761310Y-107056227D01*
X105690479Y-106950220D01*
X105657234Y-106900466D01*
X105585546Y-106727395D01*
X105549000Y-106543667D01*
X105549000Y-106356333D01*
X105585546Y-106172605D01*
X105657234Y-105999534D01*
X105731496Y-105888393D01*
X105761310Y-105843773D01*
X105893773Y-105711310D01*
X106049533Y-105607235D01*
X106049534Y-105607234D01*
X106222605Y-105535546D01*
X106406333Y-105499000D01*
X106593667Y-105499000D01*
X106777395Y-105535546D01*
X106777395Y-105535546D01*
G37*
G36*
X104911000Y-107401000D02*
G01*
X103009000Y-107401000D01*
X103009000Y-105499000D01*
X104911000Y-105499000D01*
X104911000Y-107401000D01*
X104911000Y-107401000D01*
G37*
G36*
X128201000Y-107401000D02*
G01*
X126299000Y-107401000D01*
X126299000Y-105499000D01*
X128201000Y-105499000D01*
X128201000Y-107401000D01*
X128201000Y-107401000D01*
G37*
G36*
X124987395Y-105535546D02*
G01*
X125160466Y-105607234D01*
X125160467Y-105607235D01*
X125316227Y-105711310D01*
X125448690Y-105843773D01*
X125478504Y-105888393D01*
X125552766Y-105999534D01*
X125624454Y-106172605D01*
X125661000Y-106356333D01*
X125661000Y-106543667D01*
X125624454Y-106727395D01*
X125552766Y-106900466D01*
X125519521Y-106950220D01*
X125448690Y-107056227D01*
X125316227Y-107188690D01*
X125250798Y-107232408D01*
X125160466Y-107292766D01*
X124987395Y-107364454D01*
X124803667Y-107401000D01*
X124616333Y-107401000D01*
X124432605Y-107364454D01*
X124259534Y-107292766D01*
X124169202Y-107232408D01*
X124103773Y-107188690D01*
X123971310Y-107056227D01*
X123900479Y-106950220D01*
X123867234Y-106900466D01*
X123795546Y-106727395D01*
X123759000Y-106543667D01*
X123759000Y-106356333D01*
X123795546Y-106172605D01*
X123867234Y-105999534D01*
X123941496Y-105888393D01*
X123971310Y-105843773D01*
X124103773Y-105711310D01*
X124259533Y-105607235D01*
X124259534Y-105607234D01*
X124432605Y-105535546D01*
X124616333Y-105499000D01*
X124803667Y-105499000D01*
X124987395Y-105535546D01*
X124987395Y-105535546D01*
G37*
G36*
X120467395Y-105535546D02*
G01*
X120640466Y-105607234D01*
X120640467Y-105607235D01*
X120796227Y-105711310D01*
X120928690Y-105843773D01*
X120958504Y-105888393D01*
X121032766Y-105999534D01*
X121104454Y-106172605D01*
X121141000Y-106356333D01*
X121141000Y-106543667D01*
X121104454Y-106727395D01*
X121032766Y-106900466D01*
X120999521Y-106950220D01*
X120928690Y-107056227D01*
X120796227Y-107188690D01*
X120730798Y-107232408D01*
X120640466Y-107292766D01*
X120467395Y-107364454D01*
X120283667Y-107401000D01*
X120096333Y-107401000D01*
X119912605Y-107364454D01*
X119739534Y-107292766D01*
X119649202Y-107232408D01*
X119583773Y-107188690D01*
X119451310Y-107056227D01*
X119380479Y-106950220D01*
X119347234Y-106900466D01*
X119275546Y-106727395D01*
X119239000Y-106543667D01*
X119239000Y-106356333D01*
X119275546Y-106172605D01*
X119347234Y-105999534D01*
X119421496Y-105888393D01*
X119451310Y-105843773D01*
X119583773Y-105711310D01*
X119739533Y-105607235D01*
X119739534Y-105607234D01*
X119912605Y-105535546D01*
X120096333Y-105499000D01*
X120283667Y-105499000D01*
X120467395Y-105535546D01*
X120467395Y-105535546D01*
G37*
G36*
X118601000Y-107401000D02*
G01*
X116699000Y-107401000D01*
X116699000Y-105499000D01*
X118601000Y-105499000D01*
X118601000Y-107401000D01*
X118601000Y-107401000D01*
G37*
G36*
X171851000Y-107326000D02*
G01*
X170949000Y-107326000D01*
X170949000Y-106324000D01*
X171851000Y-106324000D01*
X171851000Y-107326000D01*
X171851000Y-107326000D01*
G37*
G36*
X169951000Y-107326000D02*
G01*
X169049000Y-107326000D01*
X169049000Y-106324000D01*
X169951000Y-106324000D01*
X169951000Y-107326000D01*
X169951000Y-107326000D01*
G37*
G36*
X173379591Y-106328085D02*
G01*
X173413569Y-106338393D01*
X173444890Y-106355134D01*
X173472339Y-106377661D01*
X173494866Y-106405110D01*
X173511607Y-106436431D01*
X173521915Y-106470409D01*
X173526000Y-106511890D01*
X173526000Y-107113110D01*
X173521915Y-107154591D01*
X173511607Y-107188569D01*
X173494866Y-107219890D01*
X173472339Y-107247339D01*
X173444890Y-107269866D01*
X173413569Y-107286607D01*
X173379591Y-107296915D01*
X173338110Y-107301000D01*
X172661890Y-107301000D01*
X172620409Y-107296915D01*
X172586431Y-107286607D01*
X172555110Y-107269866D01*
X172527661Y-107247339D01*
X172505134Y-107219890D01*
X172488393Y-107188569D01*
X172478085Y-107154591D01*
X172474000Y-107113110D01*
X172474000Y-106511890D01*
X172478085Y-106470409D01*
X172488393Y-106436431D01*
X172505134Y-106405110D01*
X172527661Y-106377661D01*
X172555110Y-106355134D01*
X172586431Y-106338393D01*
X172620409Y-106328085D01*
X172661890Y-106324000D01*
X173338110Y-106324000D01*
X173379591Y-106328085D01*
X173379591Y-106328085D01*
G37*
G36*
X163026000Y-107276000D02*
G01*
X162124000Y-107276000D01*
X162124000Y-106274000D01*
X163026000Y-106274000D01*
X163026000Y-107276000D01*
X163026000Y-107276000D01*
G37*
G36*
X161126000Y-107276000D02*
G01*
X160224000Y-107276000D01*
X160224000Y-106274000D01*
X161126000Y-106274000D01*
X161126000Y-107276000D01*
X161126000Y-107276000D01*
G37*
G36*
X143201000Y-107251000D02*
G01*
X142299000Y-107251000D01*
X142299000Y-106249000D01*
X143201000Y-106249000D01*
X143201000Y-107251000D01*
X143201000Y-107251000D01*
G37*
G36*
X164579591Y-106278085D02*
G01*
X164613569Y-106288393D01*
X164644890Y-106305134D01*
X164672339Y-106327661D01*
X164694866Y-106355110D01*
X164711607Y-106386431D01*
X164721915Y-106420409D01*
X164726000Y-106461890D01*
X164726000Y-107063110D01*
X164721915Y-107104591D01*
X164711607Y-107138569D01*
X164694866Y-107169890D01*
X164672339Y-107197339D01*
X164644890Y-107219866D01*
X164613569Y-107236607D01*
X164579591Y-107246915D01*
X164538110Y-107251000D01*
X163861890Y-107251000D01*
X163820409Y-107246915D01*
X163786431Y-107236607D01*
X163755110Y-107219866D01*
X163727661Y-107197339D01*
X163705134Y-107169890D01*
X163688393Y-107138569D01*
X163678085Y-107104591D01*
X163674000Y-107063110D01*
X163674000Y-106461890D01*
X163678085Y-106420409D01*
X163688393Y-106386431D01*
X163705134Y-106355110D01*
X163727661Y-106327661D01*
X163755110Y-106305134D01*
X163786431Y-106288393D01*
X163820409Y-106278085D01*
X163861890Y-106274000D01*
X164538110Y-106274000D01*
X164579591Y-106278085D01*
X164579591Y-106278085D01*
G37*
G36*
X145101000Y-107251000D02*
G01*
X144199000Y-107251000D01*
X144199000Y-106249000D01*
X145101000Y-106249000D01*
X145101000Y-107251000D01*
X145101000Y-107251000D01*
G37*
G36*
X146629591Y-106253085D02*
G01*
X146663569Y-106263393D01*
X146694890Y-106280134D01*
X146722339Y-106302661D01*
X146744866Y-106330110D01*
X146761607Y-106361431D01*
X146771915Y-106395409D01*
X146776000Y-106436890D01*
X146776000Y-107038110D01*
X146771915Y-107079591D01*
X146761607Y-107113569D01*
X146744866Y-107144890D01*
X146722339Y-107172339D01*
X146694890Y-107194866D01*
X146663569Y-107211607D01*
X146629591Y-107221915D01*
X146588110Y-107226000D01*
X145911890Y-107226000D01*
X145870409Y-107221915D01*
X145836431Y-107211607D01*
X145805110Y-107194866D01*
X145777661Y-107172339D01*
X145755134Y-107144890D01*
X145738393Y-107113569D01*
X145728085Y-107079591D01*
X145724000Y-107038110D01*
X145724000Y-106436890D01*
X145728085Y-106395409D01*
X145738393Y-106361431D01*
X145755134Y-106330110D01*
X145777661Y-106302661D01*
X145805110Y-106280134D01*
X145836431Y-106263393D01*
X145870409Y-106253085D01*
X145911890Y-106249000D01*
X146588110Y-106249000D01*
X146629591Y-106253085D01*
X146629591Y-106253085D01*
G37*
G36*
X154151000Y-107226000D02*
G01*
X153249000Y-107226000D01*
X153249000Y-106224000D01*
X154151000Y-106224000D01*
X154151000Y-107226000D01*
X154151000Y-107226000D01*
G37*
G36*
X152251000Y-107226000D02*
G01*
X151349000Y-107226000D01*
X151349000Y-106224000D01*
X152251000Y-106224000D01*
X152251000Y-107226000D01*
X152251000Y-107226000D01*
G37*
G36*
X155679591Y-106228085D02*
G01*
X155713569Y-106238393D01*
X155744890Y-106255134D01*
X155772339Y-106277661D01*
X155794866Y-106305110D01*
X155811607Y-106336431D01*
X155821915Y-106370409D01*
X155826000Y-106411890D01*
X155826000Y-107013110D01*
X155821915Y-107054591D01*
X155811607Y-107088569D01*
X155794866Y-107119890D01*
X155772339Y-107147339D01*
X155744890Y-107169866D01*
X155713569Y-107186607D01*
X155679591Y-107196915D01*
X155638110Y-107201000D01*
X154961890Y-107201000D01*
X154920409Y-107196915D01*
X154886431Y-107186607D01*
X154855110Y-107169866D01*
X154827661Y-107147339D01*
X154805134Y-107119890D01*
X154788393Y-107088569D01*
X154778085Y-107054591D01*
X154774000Y-107013110D01*
X154774000Y-106411890D01*
X154778085Y-106370409D01*
X154788393Y-106336431D01*
X154805134Y-106305110D01*
X154827661Y-106277661D01*
X154855110Y-106255134D01*
X154886431Y-106238393D01*
X154920409Y-106228085D01*
X154961890Y-106224000D01*
X155638110Y-106224000D01*
X155679591Y-106228085D01*
X155679591Y-106228085D01*
G37*
G36*
X136825000Y-107117000D02*
G01*
X135923000Y-107117000D01*
X135923000Y-106115000D01*
X136825000Y-106115000D01*
X136825000Y-107117000D01*
X136825000Y-107117000D01*
G37*
G36*
X134925000Y-107117000D02*
G01*
X134023000Y-107117000D01*
X134023000Y-106115000D01*
X134925000Y-106115000D01*
X134925000Y-107117000D01*
X134925000Y-107117000D01*
G37*
G36*
X138354591Y-106128085D02*
G01*
X138388569Y-106138393D01*
X138419890Y-106155134D01*
X138447339Y-106177661D01*
X138469866Y-106205110D01*
X138486607Y-106236431D01*
X138496915Y-106270409D01*
X138501000Y-106311890D01*
X138501000Y-106913110D01*
X138496915Y-106954591D01*
X138486607Y-106988569D01*
X138469866Y-107019890D01*
X138447339Y-107047339D01*
X138419890Y-107069866D01*
X138388569Y-107086607D01*
X138354591Y-107096915D01*
X138313110Y-107101000D01*
X137636890Y-107101000D01*
X137595409Y-107096915D01*
X137561431Y-107086607D01*
X137530110Y-107069866D01*
X137502661Y-107047339D01*
X137480134Y-107019890D01*
X137463393Y-106988569D01*
X137453085Y-106954591D01*
X137449000Y-106913110D01*
X137449000Y-106311890D01*
X137453085Y-106270409D01*
X137463393Y-106236431D01*
X137480134Y-106205110D01*
X137502661Y-106177661D01*
X137530110Y-106155134D01*
X137561431Y-106138393D01*
X137595409Y-106128085D01*
X137636890Y-106124000D01*
X138313110Y-106124000D01*
X138354591Y-106128085D01*
X138354591Y-106128085D01*
G37*
G36*
X129654591Y-105878085D02*
G01*
X129688569Y-105888393D01*
X129719890Y-105905134D01*
X129747339Y-105927661D01*
X129769866Y-105955110D01*
X129786607Y-105986431D01*
X129796915Y-106020409D01*
X129801000Y-106061890D01*
X129801000Y-106663110D01*
X129796915Y-106704591D01*
X129786607Y-106738569D01*
X129769866Y-106769890D01*
X129747339Y-106797339D01*
X129719890Y-106819866D01*
X129688569Y-106836607D01*
X129654591Y-106846915D01*
X129613110Y-106851000D01*
X128936890Y-106851000D01*
X128895409Y-106846915D01*
X128861431Y-106836607D01*
X128830110Y-106819866D01*
X128802661Y-106797339D01*
X128780134Y-106769890D01*
X128763393Y-106738569D01*
X128753085Y-106704591D01*
X128749000Y-106663110D01*
X128749000Y-106061890D01*
X128753085Y-106020409D01*
X128763393Y-105986431D01*
X128780134Y-105955110D01*
X128802661Y-105927661D01*
X128830110Y-105905134D01*
X128861431Y-105888393D01*
X128895409Y-105878085D01*
X128936890Y-105874000D01*
X129613110Y-105874000D01*
X129654591Y-105878085D01*
X129654591Y-105878085D01*
G37*
G36*
X102804591Y-103728085D02*
G01*
X102838569Y-103738393D01*
X102869890Y-103755134D01*
X102897339Y-103777661D01*
X102919866Y-103805110D01*
X102936607Y-103836431D01*
X102946915Y-103870409D01*
X102951000Y-103911890D01*
X102951000Y-104588110D01*
X102946915Y-104629591D01*
X102936607Y-104663569D01*
X102919866Y-104694890D01*
X102897339Y-104722339D01*
X102869890Y-104744866D01*
X102838569Y-104761607D01*
X102804591Y-104771915D01*
X102763110Y-104776000D01*
X102161890Y-104776000D01*
X102120409Y-104771915D01*
X102086431Y-104761607D01*
X102055110Y-104744866D01*
X102027661Y-104722339D01*
X102005134Y-104694890D01*
X101988393Y-104663569D01*
X101978085Y-104629591D01*
X101974000Y-104588110D01*
X101974000Y-103911890D01*
X101978085Y-103870409D01*
X101988393Y-103836431D01*
X102005134Y-103805110D01*
X102027661Y-103777661D01*
X102055110Y-103755134D01*
X102086431Y-103738393D01*
X102120409Y-103728085D01*
X102161890Y-103724000D01*
X102763110Y-103724000D01*
X102804591Y-103728085D01*
X102804591Y-103728085D01*
G37*
G36*
X104379591Y-103728085D02*
G01*
X104413569Y-103738393D01*
X104444890Y-103755134D01*
X104472339Y-103777661D01*
X104494866Y-103805110D01*
X104511607Y-103836431D01*
X104521915Y-103870409D01*
X104526000Y-103911890D01*
X104526000Y-104588110D01*
X104521915Y-104629591D01*
X104511607Y-104663569D01*
X104494866Y-104694890D01*
X104472339Y-104722339D01*
X104444890Y-104744866D01*
X104413569Y-104761607D01*
X104379591Y-104771915D01*
X104338110Y-104776000D01*
X103736890Y-104776000D01*
X103695409Y-104771915D01*
X103661431Y-104761607D01*
X103630110Y-104744866D01*
X103602661Y-104722339D01*
X103580134Y-104694890D01*
X103563393Y-104663569D01*
X103553085Y-104629591D01*
X103549000Y-104588110D01*
X103549000Y-103911890D01*
X103553085Y-103870409D01*
X103563393Y-103836431D01*
X103580134Y-103805110D01*
X103602661Y-103777661D01*
X103630110Y-103755134D01*
X103661431Y-103738393D01*
X103695409Y-103728085D01*
X103736890Y-103724000D01*
X104338110Y-103724000D01*
X104379591Y-103728085D01*
X104379591Y-103728085D01*
G37*
G36*
X109926000Y-103101000D02*
G01*
X108424000Y-103101000D01*
X108424000Y-101799000D01*
X109926000Y-101799000D01*
X109926000Y-103101000D01*
X109926000Y-103101000D01*
G37*
G36*
X112126000Y-103101000D02*
G01*
X110624000Y-103101000D01*
X110624000Y-101799000D01*
X112126000Y-101799000D01*
X112126000Y-103101000D01*
X112126000Y-103101000D01*
G37*
G36*
X107679591Y-102003085D02*
G01*
X107713569Y-102013393D01*
X107744890Y-102030134D01*
X107772339Y-102052661D01*
X107794866Y-102080110D01*
X107811607Y-102111431D01*
X107821915Y-102145409D01*
X107826000Y-102186890D01*
X107826000Y-102788110D01*
X107821915Y-102829591D01*
X107811607Y-102863569D01*
X107794866Y-102894890D01*
X107772339Y-102922339D01*
X107744890Y-102944866D01*
X107713569Y-102961607D01*
X107679591Y-102971915D01*
X107638110Y-102976000D01*
X106961890Y-102976000D01*
X106920409Y-102971915D01*
X106886431Y-102961607D01*
X106855110Y-102944866D01*
X106827661Y-102922339D01*
X106805134Y-102894890D01*
X106788393Y-102863569D01*
X106778085Y-102829591D01*
X106774000Y-102788110D01*
X106774000Y-102186890D01*
X106778085Y-102145409D01*
X106788393Y-102111431D01*
X106805134Y-102080110D01*
X106827661Y-102052661D01*
X106855110Y-102030134D01*
X106886431Y-102013393D01*
X106920409Y-102003085D01*
X106961890Y-101999000D01*
X107638110Y-101999000D01*
X107679591Y-102003085D01*
X107679591Y-102003085D01*
G37*
G36*
X113554591Y-101978085D02*
G01*
X113588569Y-101988393D01*
X113619890Y-102005134D01*
X113647339Y-102027661D01*
X113669866Y-102055110D01*
X113686607Y-102086431D01*
X113696915Y-102120409D01*
X113701000Y-102161890D01*
X113701000Y-102763110D01*
X113696915Y-102804591D01*
X113686607Y-102838569D01*
X113669866Y-102869890D01*
X113647339Y-102897339D01*
X113619890Y-102919866D01*
X113588569Y-102936607D01*
X113554591Y-102946915D01*
X113513110Y-102951000D01*
X112836890Y-102951000D01*
X112795409Y-102946915D01*
X112761431Y-102936607D01*
X112730110Y-102919866D01*
X112702661Y-102897339D01*
X112680134Y-102869890D01*
X112663393Y-102838569D01*
X112653085Y-102804591D01*
X112649000Y-102763110D01*
X112649000Y-102161890D01*
X112653085Y-102120409D01*
X112663393Y-102086431D01*
X112680134Y-102055110D01*
X112702661Y-102027661D01*
X112730110Y-102005134D01*
X112761431Y-101988393D01*
X112795409Y-101978085D01*
X112836890Y-101974000D01*
X113513110Y-101974000D01*
X113554591Y-101978085D01*
X113554591Y-101978085D01*
G37*
G36*
X95229591Y-101103085D02*
G01*
X95263569Y-101113393D01*
X95294890Y-101130134D01*
X95322339Y-101152661D01*
X95344866Y-101180110D01*
X95361607Y-101211431D01*
X95371915Y-101245409D01*
X95376000Y-101286890D01*
X95376000Y-101963110D01*
X95371915Y-102004591D01*
X95361607Y-102038569D01*
X95344866Y-102069890D01*
X95322339Y-102097339D01*
X95294890Y-102119866D01*
X95263569Y-102136607D01*
X95229591Y-102146915D01*
X95188110Y-102151000D01*
X94586890Y-102151000D01*
X94545409Y-102146915D01*
X94511431Y-102136607D01*
X94480110Y-102119866D01*
X94452661Y-102097339D01*
X94430134Y-102069890D01*
X94413393Y-102038569D01*
X94403085Y-102004591D01*
X94399000Y-101963110D01*
X94399000Y-101286890D01*
X94403085Y-101245409D01*
X94413393Y-101211431D01*
X94430134Y-101180110D01*
X94452661Y-101152661D01*
X94480110Y-101130134D01*
X94511431Y-101113393D01*
X94545409Y-101103085D01*
X94586890Y-101099000D01*
X95188110Y-101099000D01*
X95229591Y-101103085D01*
X95229591Y-101103085D01*
G37*
G36*
X93654591Y-101103085D02*
G01*
X93688569Y-101113393D01*
X93719890Y-101130134D01*
X93747339Y-101152661D01*
X93769866Y-101180110D01*
X93786607Y-101211431D01*
X93796915Y-101245409D01*
X93801000Y-101286890D01*
X93801000Y-101963110D01*
X93796915Y-102004591D01*
X93786607Y-102038569D01*
X93769866Y-102069890D01*
X93747339Y-102097339D01*
X93719890Y-102119866D01*
X93688569Y-102136607D01*
X93654591Y-102146915D01*
X93613110Y-102151000D01*
X93011890Y-102151000D01*
X92970409Y-102146915D01*
X92936431Y-102136607D01*
X92905110Y-102119866D01*
X92877661Y-102097339D01*
X92855134Y-102069890D01*
X92838393Y-102038569D01*
X92828085Y-102004591D01*
X92824000Y-101963110D01*
X92824000Y-101286890D01*
X92828085Y-101245409D01*
X92838393Y-101211431D01*
X92855134Y-101180110D01*
X92877661Y-101152661D01*
X92905110Y-101130134D01*
X92936431Y-101113393D01*
X92970409Y-101103085D01*
X93011890Y-101099000D01*
X93613110Y-101099000D01*
X93654591Y-101103085D01*
X93654591Y-101103085D01*
G37*
G36*
X99379591Y-100878085D02*
G01*
X99413569Y-100888393D01*
X99444890Y-100905134D01*
X99472339Y-100927661D01*
X99494866Y-100955110D01*
X99511607Y-100986431D01*
X99521915Y-101020409D01*
X99526000Y-101061890D01*
X99526000Y-101663110D01*
X99521915Y-101704591D01*
X99511607Y-101738569D01*
X99494866Y-101769890D01*
X99472339Y-101797339D01*
X99444890Y-101819866D01*
X99413569Y-101836607D01*
X99379591Y-101846915D01*
X99338110Y-101851000D01*
X98661890Y-101851000D01*
X98620409Y-101846915D01*
X98586431Y-101836607D01*
X98555110Y-101819866D01*
X98527661Y-101797339D01*
X98505134Y-101769890D01*
X98488393Y-101738569D01*
X98478085Y-101704591D01*
X98474000Y-101663110D01*
X98474000Y-101061890D01*
X98478085Y-101020409D01*
X98488393Y-100986431D01*
X98505134Y-100955110D01*
X98527661Y-100927661D01*
X98555110Y-100905134D01*
X98586431Y-100888393D01*
X98620409Y-100878085D01*
X98661890Y-100874000D01*
X99338110Y-100874000D01*
X99379591Y-100878085D01*
X99379591Y-100878085D01*
G37*
G36*
X97876000Y-99886672D02*
G01*
X97856553Y-99897066D01*
X97837611Y-99912611D01*
X97822066Y-99931553D01*
X97810515Y-99953164D01*
X97803402Y-99976613D01*
X97801000Y-100000999D01*
X97801000Y-101049001D01*
X97803402Y-101073387D01*
X97810515Y-101096836D01*
X97822066Y-101118447D01*
X97837611Y-101137389D01*
X97856553Y-101152934D01*
X97876000Y-101163328D01*
X97876000Y-101776000D01*
X96024000Y-101776000D01*
X96024000Y-101163328D01*
X96043447Y-101152934D01*
X96062389Y-101137389D01*
X96077934Y-101118447D01*
X96089485Y-101096836D01*
X96096598Y-101073387D01*
X96099000Y-101049001D01*
X96099000Y-100000999D01*
X96096598Y-99976613D01*
X96089485Y-99953164D01*
X96077934Y-99931553D01*
X96062389Y-99912611D01*
X96043447Y-99897066D01*
X96024000Y-99886672D01*
X96024000Y-99274000D01*
X97876000Y-99274000D01*
X97876000Y-99886672D01*
X97876000Y-99886672D01*
G37*
G36*
X157011000Y-101701000D02*
G01*
X155309000Y-101701000D01*
X155309000Y-99999000D01*
X157011000Y-99999000D01*
X157011000Y-101701000D01*
X157011000Y-101701000D01*
G37*
G36*
X159551000Y-101701000D02*
G01*
X157849000Y-101701000D01*
X157849000Y-99999000D01*
X159551000Y-99999000D01*
X159551000Y-101701000D01*
X159551000Y-101701000D01*
G37*
G36*
X162091000Y-101701000D02*
G01*
X160389000Y-101701000D01*
X160389000Y-99999000D01*
X162091000Y-99999000D01*
X162091000Y-101701000D01*
X162091000Y-101701000D01*
G37*
G36*
X164631000Y-101701000D02*
G01*
X162929000Y-101701000D01*
X162929000Y-99999000D01*
X164631000Y-99999000D01*
X164631000Y-101701000D01*
X164631000Y-101701000D01*
G37*
G36*
X167171000Y-101701000D02*
G01*
X165469000Y-101701000D01*
X165469000Y-99999000D01*
X167171000Y-99999000D01*
X167171000Y-101701000D01*
X167171000Y-101701000D01*
G37*
G36*
X169711000Y-101701000D02*
G01*
X168009000Y-101701000D01*
X168009000Y-99999000D01*
X169711000Y-99999000D01*
X169711000Y-101701000D01*
X169711000Y-101701000D01*
G37*
G36*
X172251000Y-101701000D02*
G01*
X170549000Y-101701000D01*
X170549000Y-99999000D01*
X172251000Y-99999000D01*
X172251000Y-101701000D01*
X172251000Y-101701000D01*
G37*
G36*
X82498410Y-100545525D02*
G01*
X82583426Y-100571314D01*
X82661775Y-100613193D01*
X82730449Y-100669551D01*
X82786807Y-100738225D01*
X82828686Y-100816574D01*
X82854475Y-100901590D01*
X82863182Y-100990000D01*
X82854475Y-101078410D01*
X82828686Y-101163426D01*
X82786807Y-101241775D01*
X82730449Y-101310449D01*
X82661775Y-101366807D01*
X82583426Y-101408686D01*
X82498410Y-101434475D01*
X82432158Y-101441000D01*
X81787842Y-101441000D01*
X81721590Y-101434475D01*
X81636574Y-101408686D01*
X81558225Y-101366807D01*
X81489551Y-101310449D01*
X81433193Y-101241775D01*
X81391314Y-101163426D01*
X81365525Y-101078410D01*
X81356818Y-100990000D01*
X81365525Y-100901590D01*
X81391314Y-100816574D01*
X81433193Y-100738225D01*
X81489551Y-100669551D01*
X81558225Y-100613193D01*
X81636574Y-100571314D01*
X81721590Y-100545525D01*
X81787842Y-100539000D01*
X82432158Y-100539000D01*
X82498410Y-100545525D01*
X82498410Y-100545525D01*
G37*
G36*
X107679591Y-100428085D02*
G01*
X107713569Y-100438393D01*
X107744890Y-100455134D01*
X107772339Y-100477661D01*
X107794866Y-100505110D01*
X107811607Y-100536431D01*
X107821915Y-100570409D01*
X107826000Y-100611890D01*
X107826000Y-101213110D01*
X107821915Y-101254591D01*
X107811607Y-101288569D01*
X107794866Y-101319890D01*
X107772339Y-101347339D01*
X107744890Y-101369866D01*
X107713569Y-101386607D01*
X107679591Y-101396915D01*
X107638110Y-101401000D01*
X106961890Y-101401000D01*
X106920409Y-101396915D01*
X106886431Y-101386607D01*
X106855110Y-101369866D01*
X106827661Y-101347339D01*
X106805134Y-101319890D01*
X106788393Y-101288569D01*
X106778085Y-101254591D01*
X106774000Y-101213110D01*
X106774000Y-100611890D01*
X106778085Y-100570409D01*
X106788393Y-100536431D01*
X106805134Y-100505110D01*
X106827661Y-100477661D01*
X106855110Y-100455134D01*
X106886431Y-100438393D01*
X106920409Y-100428085D01*
X106961890Y-100424000D01*
X107638110Y-100424000D01*
X107679591Y-100428085D01*
X107679591Y-100428085D01*
G37*
G36*
X112126000Y-101401000D02*
G01*
X110624000Y-101401000D01*
X110624000Y-100099000D01*
X112126000Y-100099000D01*
X112126000Y-101401000D01*
X112126000Y-101401000D01*
G37*
G36*
X109926000Y-101401000D02*
G01*
X108424000Y-101401000D01*
X108424000Y-100099000D01*
X109926000Y-100099000D01*
X109926000Y-101401000D01*
X109926000Y-101401000D01*
G37*
G36*
X113554591Y-100403085D02*
G01*
X113588569Y-100413393D01*
X113619890Y-100430134D01*
X113647339Y-100452661D01*
X113669866Y-100480110D01*
X113686607Y-100511431D01*
X113696915Y-100545409D01*
X113701000Y-100586890D01*
X113701000Y-101188110D01*
X113696915Y-101229591D01*
X113686607Y-101263569D01*
X113669866Y-101294890D01*
X113647339Y-101322339D01*
X113619890Y-101344866D01*
X113588569Y-101361607D01*
X113554591Y-101371915D01*
X113513110Y-101376000D01*
X112836890Y-101376000D01*
X112795409Y-101371915D01*
X112761431Y-101361607D01*
X112730110Y-101344866D01*
X112702661Y-101322339D01*
X112680134Y-101294890D01*
X112663393Y-101263569D01*
X112653085Y-101229591D01*
X112649000Y-101188110D01*
X112649000Y-100586890D01*
X112653085Y-100545409D01*
X112663393Y-100511431D01*
X112680134Y-100480110D01*
X112702661Y-100452661D01*
X112730110Y-100430134D01*
X112761431Y-100413393D01*
X112795409Y-100403085D01*
X112836890Y-100399000D01*
X113513110Y-100399000D01*
X113554591Y-100403085D01*
X113554591Y-100403085D01*
G37*
G36*
X88769672Y-93338449D02*
G01*
X88769674Y-93338450D01*
X88769675Y-93338450D01*
X88838103Y-93366793D01*
X88899686Y-93407942D01*
X88952058Y-93460314D01*
X88993207Y-93521897D01*
X89012074Y-93567448D01*
X89021551Y-93590328D01*
X89036000Y-93662966D01*
X89036000Y-93737034D01*
X89035719Y-93738449D01*
X89021550Y-93809675D01*
X88993207Y-93878103D01*
X88952058Y-93939686D01*
X88899686Y-93992058D01*
X88838103Y-94033207D01*
X88769675Y-94061550D01*
X88769674Y-94061550D01*
X88769672Y-94061551D01*
X88697034Y-94076000D01*
X88622966Y-94076000D01*
X88550326Y-94061551D01*
X88506904Y-94043565D01*
X88483455Y-94036452D01*
X88459069Y-94034050D01*
X88434683Y-94036452D01*
X88411234Y-94043565D01*
X88389624Y-94055116D01*
X88370682Y-94070661D01*
X88355136Y-94089603D01*
X88343585Y-94111214D01*
X88336472Y-94134662D01*
X88321551Y-94209673D01*
X88321550Y-94209675D01*
X88293207Y-94278103D01*
X88252058Y-94339686D01*
X88199686Y-94392058D01*
X88193679Y-94396072D01*
X88174744Y-94411612D01*
X88159199Y-94430553D01*
X88147647Y-94452164D01*
X88140534Y-94475613D01*
X88138132Y-94499999D01*
X88140534Y-94524385D01*
X88147647Y-94547834D01*
X88159197Y-94569445D01*
X88174743Y-94588387D01*
X88193679Y-94603928D01*
X88199686Y-94607942D01*
X88252058Y-94660314D01*
X88293207Y-94721897D01*
X88317399Y-94780304D01*
X88321551Y-94790327D01*
X88336472Y-94865338D01*
X88343585Y-94888786D01*
X88355136Y-94910397D01*
X88370682Y-94929339D01*
X88389624Y-94944884D01*
X88411234Y-94956435D01*
X88434683Y-94963548D01*
X88459069Y-94965950D01*
X88483456Y-94963548D01*
X88506904Y-94956435D01*
X88550326Y-94938449D01*
X88622966Y-94924000D01*
X88697034Y-94924000D01*
X88769672Y-94938449D01*
X88769674Y-94938450D01*
X88769675Y-94938450D01*
X88838103Y-94966793D01*
X88899686Y-95007942D01*
X88952058Y-95060314D01*
X88993207Y-95121897D01*
X89021550Y-95190325D01*
X89021551Y-95190328D01*
X89036000Y-95262966D01*
X89036000Y-95337034D01*
X89025785Y-95388388D01*
X89021550Y-95409675D01*
X88993207Y-95478103D01*
X88952058Y-95539686D01*
X88899686Y-95592058D01*
X88893679Y-95596072D01*
X88874744Y-95611612D01*
X88859199Y-95630553D01*
X88847647Y-95652164D01*
X88840534Y-95675613D01*
X88838132Y-95699999D01*
X88840534Y-95724385D01*
X88847647Y-95747834D01*
X88859197Y-95769445D01*
X88874743Y-95788387D01*
X88893679Y-95803928D01*
X88899686Y-95807942D01*
X88952058Y-95860314D01*
X88993207Y-95921897D01*
X89011554Y-95966193D01*
X89021551Y-95990328D01*
X89036000Y-96062966D01*
X89036000Y-96137034D01*
X89021551Y-96209672D01*
X89021550Y-96209674D01*
X89021550Y-96209675D01*
X88993207Y-96278103D01*
X88952058Y-96339686D01*
X88899686Y-96392058D01*
X88893679Y-96396072D01*
X88874744Y-96411612D01*
X88859199Y-96430553D01*
X88847647Y-96452164D01*
X88840534Y-96475613D01*
X88838132Y-96499999D01*
X88840534Y-96524385D01*
X88847647Y-96547834D01*
X88859197Y-96569445D01*
X88874743Y-96588387D01*
X88893679Y-96603928D01*
X88899686Y-96607942D01*
X88952058Y-96660314D01*
X88993207Y-96721897D01*
X89021550Y-96790325D01*
X89021551Y-96790328D01*
X89036000Y-96862966D01*
X89036000Y-96937034D01*
X89028626Y-96974107D01*
X89021550Y-97009675D01*
X88993207Y-97078103D01*
X88952058Y-97139686D01*
X88899686Y-97192058D01*
X88893679Y-97196072D01*
X88874744Y-97211612D01*
X88859199Y-97230553D01*
X88847647Y-97252164D01*
X88840534Y-97275613D01*
X88838132Y-97299999D01*
X88840534Y-97324385D01*
X88847647Y-97347834D01*
X88859197Y-97369445D01*
X88874743Y-97388387D01*
X88893679Y-97403928D01*
X88899686Y-97407942D01*
X88952058Y-97460314D01*
X88993207Y-97521897D01*
X89021482Y-97590161D01*
X89021551Y-97590328D01*
X89036000Y-97662966D01*
X89036000Y-97737034D01*
X89025785Y-97788388D01*
X89021550Y-97809675D01*
X88993207Y-97878103D01*
X88952058Y-97939686D01*
X88899686Y-97992058D01*
X88838103Y-98033207D01*
X88769675Y-98061550D01*
X88769674Y-98061550D01*
X88769672Y-98061551D01*
X88697034Y-98076000D01*
X88622966Y-98076000D01*
X88550326Y-98061551D01*
X88506904Y-98043565D01*
X88483455Y-98036452D01*
X88459069Y-98034050D01*
X88434683Y-98036452D01*
X88411234Y-98043565D01*
X88389624Y-98055116D01*
X88370682Y-98070661D01*
X88355136Y-98089603D01*
X88343585Y-98111214D01*
X88336472Y-98134662D01*
X88321551Y-98209673D01*
X88321550Y-98209675D01*
X88293207Y-98278103D01*
X88252058Y-98339686D01*
X88199686Y-98392058D01*
X88193679Y-98396072D01*
X88174744Y-98411612D01*
X88159199Y-98430553D01*
X88147647Y-98452164D01*
X88140534Y-98475613D01*
X88138132Y-98499999D01*
X88140534Y-98524385D01*
X88147647Y-98547834D01*
X88159197Y-98569445D01*
X88174743Y-98588387D01*
X88193679Y-98603928D01*
X88199686Y-98607942D01*
X88252058Y-98660314D01*
X88293207Y-98721897D01*
X88302358Y-98743991D01*
X88321551Y-98790327D01*
X88336472Y-98865338D01*
X88343585Y-98888786D01*
X88355136Y-98910397D01*
X88370682Y-98929339D01*
X88389624Y-98944884D01*
X88411234Y-98956435D01*
X88434683Y-98963548D01*
X88459069Y-98965950D01*
X88483456Y-98963548D01*
X88506904Y-98956435D01*
X88550326Y-98938449D01*
X88622966Y-98924000D01*
X88697034Y-98924000D01*
X88769672Y-98938449D01*
X88769674Y-98938450D01*
X88769675Y-98938450D01*
X88838103Y-98966793D01*
X88899686Y-99007942D01*
X88952058Y-99060314D01*
X88993207Y-99121897D01*
X89017329Y-99180134D01*
X89021551Y-99190328D01*
X89036000Y-99262966D01*
X89036000Y-99337034D01*
X89021551Y-99409674D01*
X89011405Y-99434169D01*
X89004292Y-99457618D01*
X89001890Y-99482004D01*
X89004292Y-99506390D01*
X89011405Y-99529839D01*
X89022956Y-99551450D01*
X89038501Y-99570392D01*
X89057443Y-99585937D01*
X89079054Y-99597488D01*
X89102503Y-99604601D01*
X89126889Y-99607003D01*
X89151275Y-99604601D01*
X89163175Y-99601621D01*
X89165415Y-99600941D01*
X89165416Y-99600941D01*
X89236292Y-99579441D01*
X89236293Y-99579441D01*
X89236296Y-99579440D01*
X89310000Y-99572181D01*
X89383707Y-99579440D01*
X89407716Y-99586723D01*
X89431750Y-99591503D01*
X89456254Y-99591503D01*
X89480287Y-99586722D01*
X89502926Y-99577345D01*
X89520000Y-99565936D01*
X89519009Y-99575999D01*
X89521411Y-99600385D01*
X89528524Y-99623834D01*
X89540075Y-99645445D01*
X89555620Y-99664387D01*
X89564710Y-99672625D01*
X89577159Y-99682841D01*
X89624146Y-99740096D01*
X89659058Y-99805411D01*
X89680560Y-99876294D01*
X89686000Y-99931529D01*
X89686000Y-100268472D01*
X89680560Y-100323710D01*
X89659060Y-100394585D01*
X89624146Y-100459904D01*
X89577159Y-100517159D01*
X89519906Y-100564145D01*
X89454583Y-100599060D01*
X89383709Y-100620560D01*
X89310000Y-100627819D01*
X89236290Y-100620560D01*
X89165415Y-100599060D01*
X89100096Y-100564146D01*
X89042842Y-100517159D01*
X89030645Y-100502297D01*
X89013318Y-100484970D01*
X88992944Y-100471356D01*
X88970305Y-100461979D01*
X88946272Y-100457198D01*
X88921768Y-100457198D01*
X88897735Y-100461978D01*
X88875096Y-100471355D01*
X88854721Y-100484969D01*
X88837394Y-100502296D01*
X88823780Y-100522670D01*
X88814403Y-100545309D01*
X88809622Y-100569342D01*
X88809622Y-100593846D01*
X88813182Y-100629999D01*
X88804475Y-100718410D01*
X88778686Y-100803426D01*
X88736807Y-100881775D01*
X88680449Y-100950449D01*
X88611775Y-101006807D01*
X88533426Y-101048686D01*
X88448410Y-101074475D01*
X88382158Y-101081000D01*
X87737842Y-101081000D01*
X87671590Y-101074475D01*
X87586574Y-101048686D01*
X87508225Y-101006807D01*
X87439551Y-100950449D01*
X87383193Y-100881775D01*
X87341314Y-100803426D01*
X87315525Y-100718410D01*
X87306818Y-100630000D01*
X87315525Y-100541590D01*
X87341314Y-100456574D01*
X87383193Y-100378225D01*
X87439551Y-100309551D01*
X87508225Y-100253193D01*
X87586574Y-100211314D01*
X87671590Y-100185525D01*
X87737842Y-100179000D01*
X88382158Y-100179000D01*
X88448410Y-100185525D01*
X88533426Y-100211314D01*
X88611775Y-100253193D01*
X88680449Y-100309552D01*
X88712375Y-100348454D01*
X88729702Y-100365781D01*
X88750077Y-100379395D01*
X88772715Y-100388772D01*
X88796749Y-100393553D01*
X88821253Y-100393553D01*
X88845286Y-100388773D01*
X88867925Y-100379395D01*
X88888299Y-100365782D01*
X88905626Y-100348455D01*
X88919240Y-100328080D01*
X88928617Y-100305442D01*
X88933398Y-100281408D01*
X88934000Y-100269156D01*
X88934000Y-99931528D01*
X88939440Y-99876292D01*
X88961621Y-99803175D01*
X88966402Y-99779142D01*
X88966402Y-99754638D01*
X88961622Y-99730604D01*
X88952245Y-99707965D01*
X88938632Y-99687591D01*
X88921305Y-99670263D01*
X88900931Y-99656649D01*
X88878292Y-99647272D01*
X88854259Y-99642491D01*
X88829755Y-99642491D01*
X88805721Y-99647271D01*
X88794168Y-99651405D01*
X88769674Y-99661551D01*
X88697034Y-99676000D01*
X88622966Y-99676000D01*
X88550328Y-99661551D01*
X88550326Y-99661550D01*
X88550325Y-99661550D01*
X88481897Y-99633207D01*
X88420314Y-99592058D01*
X88367942Y-99539686D01*
X88326793Y-99478103D01*
X88298450Y-99409675D01*
X88298449Y-99409673D01*
X88283528Y-99334662D01*
X88276415Y-99311214D01*
X88264864Y-99289603D01*
X88249318Y-99270661D01*
X88230376Y-99255116D01*
X88208766Y-99243565D01*
X88185317Y-99236452D01*
X88160931Y-99234050D01*
X88136544Y-99236452D01*
X88113096Y-99243565D01*
X88069674Y-99261551D01*
X87997034Y-99276000D01*
X87922966Y-99276000D01*
X87850328Y-99261551D01*
X87850326Y-99261550D01*
X87850325Y-99261550D01*
X87781897Y-99233207D01*
X87720314Y-99192058D01*
X87667942Y-99139686D01*
X87626793Y-99078103D01*
X87598450Y-99009675D01*
X87584282Y-98938449D01*
X87584000Y-98937034D01*
X87584000Y-98862966D01*
X87598449Y-98790328D01*
X87617642Y-98743991D01*
X87626793Y-98721897D01*
X87667942Y-98660314D01*
X87720314Y-98607942D01*
X87726321Y-98603928D01*
X87745256Y-98588388D01*
X87760801Y-98569447D01*
X87772353Y-98547836D01*
X87779466Y-98524387D01*
X87781868Y-98500001D01*
X87779466Y-98475615D01*
X87772353Y-98452166D01*
X87760803Y-98430555D01*
X87745257Y-98411613D01*
X87726321Y-98396072D01*
X87720314Y-98392058D01*
X87667942Y-98339686D01*
X87626793Y-98278103D01*
X87598450Y-98209675D01*
X87598450Y-98209674D01*
X87598449Y-98209672D01*
X87584000Y-98137034D01*
X87584000Y-98062966D01*
X87598449Y-97990328D01*
X87598450Y-97990325D01*
X87626793Y-97921897D01*
X87667942Y-97860314D01*
X87720314Y-97807942D01*
X87726321Y-97803928D01*
X87745256Y-97788388D01*
X87760801Y-97769447D01*
X87772353Y-97747836D01*
X87779466Y-97724387D01*
X87781868Y-97700001D01*
X87779466Y-97675615D01*
X87772353Y-97652166D01*
X87760803Y-97630555D01*
X87745257Y-97611613D01*
X87726321Y-97596072D01*
X87720314Y-97592058D01*
X87667942Y-97539686D01*
X87626793Y-97478103D01*
X87598450Y-97409675D01*
X87598099Y-97407909D01*
X87584000Y-97337034D01*
X87584000Y-97262966D01*
X87598449Y-97190328D01*
X87598450Y-97190325D01*
X87626793Y-97121897D01*
X87667942Y-97060314D01*
X87720314Y-97007942D01*
X87781897Y-96966793D01*
X87850325Y-96938450D01*
X87850326Y-96938450D01*
X87850328Y-96938449D01*
X87922966Y-96924000D01*
X87997034Y-96924000D01*
X88069674Y-96938449D01*
X88113096Y-96956435D01*
X88136545Y-96963548D01*
X88160931Y-96965950D01*
X88185317Y-96963548D01*
X88208766Y-96956435D01*
X88230376Y-96944884D01*
X88249318Y-96929339D01*
X88264864Y-96910397D01*
X88276415Y-96888786D01*
X88283528Y-96865338D01*
X88298449Y-96790327D01*
X88302975Y-96779401D01*
X88326793Y-96721897D01*
X88367942Y-96660314D01*
X88420314Y-96607942D01*
X88426321Y-96603928D01*
X88445256Y-96588388D01*
X88460801Y-96569447D01*
X88472353Y-96547836D01*
X88479466Y-96524387D01*
X88481868Y-96500001D01*
X88479466Y-96475615D01*
X88472353Y-96452166D01*
X88460803Y-96430555D01*
X88445257Y-96411613D01*
X88426321Y-96396072D01*
X88420314Y-96392058D01*
X88367942Y-96339686D01*
X88326793Y-96278103D01*
X88298450Y-96209675D01*
X88298449Y-96209673D01*
X88283528Y-96134662D01*
X88276415Y-96111214D01*
X88264864Y-96089603D01*
X88249318Y-96070661D01*
X88230376Y-96055116D01*
X88208766Y-96043565D01*
X88185317Y-96036452D01*
X88160931Y-96034050D01*
X88136544Y-96036452D01*
X88113096Y-96043565D01*
X88069674Y-96061551D01*
X87997034Y-96076000D01*
X87922966Y-96076000D01*
X87850328Y-96061551D01*
X87850326Y-96061550D01*
X87850325Y-96061550D01*
X87781897Y-96033207D01*
X87720314Y-95992058D01*
X87667942Y-95939686D01*
X87626793Y-95878103D01*
X87598450Y-95809675D01*
X87596313Y-95798931D01*
X87584000Y-95737034D01*
X87584000Y-95662966D01*
X87598449Y-95590328D01*
X87598450Y-95590325D01*
X87626793Y-95521897D01*
X87667942Y-95460314D01*
X87720314Y-95407942D01*
X87726321Y-95403928D01*
X87745256Y-95388388D01*
X87760801Y-95369447D01*
X87772353Y-95347836D01*
X87779466Y-95324387D01*
X87781868Y-95300001D01*
X87779466Y-95275615D01*
X87772353Y-95252166D01*
X87760803Y-95230555D01*
X87745257Y-95211613D01*
X87726321Y-95196072D01*
X87720314Y-95192058D01*
X87667942Y-95139686D01*
X87626793Y-95078103D01*
X87598450Y-95009675D01*
X87584282Y-94938449D01*
X87584000Y-94937034D01*
X87584000Y-94862966D01*
X87598449Y-94790328D01*
X87598450Y-94790325D01*
X87626793Y-94721897D01*
X87667942Y-94660314D01*
X87720314Y-94607942D01*
X87726321Y-94603928D01*
X87745256Y-94588388D01*
X87760801Y-94569447D01*
X87772353Y-94547836D01*
X87779466Y-94524387D01*
X87781868Y-94500001D01*
X87779466Y-94475615D01*
X87772353Y-94452166D01*
X87760803Y-94430555D01*
X87745257Y-94411613D01*
X87726321Y-94396072D01*
X87720314Y-94392058D01*
X87667942Y-94339686D01*
X87626793Y-94278103D01*
X87598450Y-94209675D01*
X87598450Y-94209674D01*
X87598449Y-94209672D01*
X87584000Y-94137034D01*
X87584000Y-94062966D01*
X87598449Y-93990328D01*
X87598450Y-93990325D01*
X87626793Y-93921897D01*
X87667942Y-93860314D01*
X87720314Y-93807942D01*
X87781897Y-93766793D01*
X87850325Y-93738450D01*
X87850326Y-93738450D01*
X87850328Y-93738449D01*
X87922966Y-93724000D01*
X87997034Y-93724000D01*
X88069674Y-93738449D01*
X88113096Y-93756435D01*
X88136545Y-93763548D01*
X88160931Y-93765950D01*
X88185317Y-93763548D01*
X88208766Y-93756435D01*
X88230376Y-93744884D01*
X88249318Y-93729339D01*
X88264864Y-93710397D01*
X88276415Y-93688786D01*
X88283528Y-93665338D01*
X88298449Y-93590327D01*
X88307926Y-93567448D01*
X88326793Y-93521897D01*
X88367942Y-93460314D01*
X88420314Y-93407942D01*
X88481897Y-93366793D01*
X88550325Y-93338450D01*
X88550326Y-93338450D01*
X88550328Y-93338449D01*
X88622966Y-93324000D01*
X88697034Y-93324000D01*
X88769672Y-93338449D01*
X88769672Y-93338449D01*
G37*
G36*
X127024928Y-98676764D02*
G01*
X127046009Y-98683160D01*
X127065445Y-98693548D01*
X127082476Y-98707524D01*
X127096452Y-98724555D01*
X127106840Y-98743991D01*
X127113236Y-98765072D01*
X127116000Y-98793140D01*
X127116000Y-100706860D01*
X127113236Y-100734928D01*
X127106840Y-100756009D01*
X127096452Y-100775445D01*
X127082476Y-100792476D01*
X127065445Y-100806452D01*
X127046009Y-100816840D01*
X127024928Y-100823236D01*
X126996860Y-100826000D01*
X126533140Y-100826000D01*
X126505072Y-100823236D01*
X126483991Y-100816840D01*
X126464555Y-100806452D01*
X126447524Y-100792476D01*
X126433548Y-100775445D01*
X126423160Y-100756009D01*
X126416764Y-100734928D01*
X126414000Y-100706860D01*
X126414000Y-98793140D01*
X126416764Y-98765072D01*
X126423160Y-98743991D01*
X126433548Y-98724555D01*
X126447524Y-98707524D01*
X126464555Y-98693548D01*
X126483991Y-98683160D01*
X126505072Y-98676764D01*
X126533140Y-98674000D01*
X126996860Y-98674000D01*
X127024928Y-98676764D01*
X127024928Y-98676764D01*
G37*
G36*
X128294928Y-98676764D02*
G01*
X128316009Y-98683160D01*
X128335445Y-98693548D01*
X128352476Y-98707524D01*
X128366452Y-98724555D01*
X128376840Y-98743991D01*
X128383236Y-98765072D01*
X128386000Y-98793140D01*
X128386000Y-100706860D01*
X128383236Y-100734928D01*
X128376840Y-100756009D01*
X128366452Y-100775445D01*
X128352476Y-100792476D01*
X128335445Y-100806452D01*
X128316009Y-100816840D01*
X128294928Y-100823236D01*
X128266860Y-100826000D01*
X127803140Y-100826000D01*
X127775072Y-100823236D01*
X127753991Y-100816840D01*
X127734555Y-100806452D01*
X127717524Y-100792476D01*
X127703548Y-100775445D01*
X127693160Y-100756009D01*
X127686764Y-100734928D01*
X127684000Y-100706860D01*
X127684000Y-98793140D01*
X127686764Y-98765072D01*
X127693160Y-98743991D01*
X127703548Y-98724555D01*
X127717524Y-98707524D01*
X127734555Y-98693548D01*
X127753991Y-98683160D01*
X127775072Y-98676764D01*
X127803140Y-98674000D01*
X128266860Y-98674000D01*
X128294928Y-98676764D01*
X128294928Y-98676764D01*
G37*
G36*
X124484928Y-98676764D02*
G01*
X124506009Y-98683160D01*
X124525445Y-98693548D01*
X124542476Y-98707524D01*
X124556452Y-98724555D01*
X124566840Y-98743991D01*
X124573236Y-98765072D01*
X124576000Y-98793140D01*
X124576000Y-100706860D01*
X124573236Y-100734928D01*
X124566840Y-100756009D01*
X124556452Y-100775445D01*
X124542476Y-100792476D01*
X124525445Y-100806452D01*
X124506009Y-100816840D01*
X124484928Y-100823236D01*
X124456860Y-100826000D01*
X123993140Y-100826000D01*
X123965072Y-100823236D01*
X123943991Y-100816840D01*
X123924555Y-100806452D01*
X123907524Y-100792476D01*
X123893548Y-100775445D01*
X123883160Y-100756009D01*
X123876764Y-100734928D01*
X123874000Y-100706860D01*
X123874000Y-98793140D01*
X123876764Y-98765072D01*
X123883160Y-98743991D01*
X123893548Y-98724555D01*
X123907524Y-98707524D01*
X123924555Y-98693548D01*
X123943991Y-98683160D01*
X123965072Y-98676764D01*
X123993140Y-98674000D01*
X124456860Y-98674000D01*
X124484928Y-98676764D01*
X124484928Y-98676764D01*
G37*
G36*
X130834928Y-98676764D02*
G01*
X130856009Y-98683160D01*
X130875445Y-98693548D01*
X130892476Y-98707524D01*
X130906452Y-98724555D01*
X130916840Y-98743991D01*
X130923236Y-98765072D01*
X130926000Y-98793140D01*
X130926000Y-100706860D01*
X130923236Y-100734928D01*
X130916840Y-100756009D01*
X130906452Y-100775445D01*
X130892476Y-100792476D01*
X130875445Y-100806452D01*
X130856009Y-100816840D01*
X130834928Y-100823236D01*
X130806860Y-100826000D01*
X130343140Y-100826000D01*
X130315072Y-100823236D01*
X130293991Y-100816840D01*
X130274555Y-100806452D01*
X130257524Y-100792476D01*
X130243548Y-100775445D01*
X130233160Y-100756009D01*
X130226764Y-100734928D01*
X130224000Y-100706860D01*
X130224000Y-98793140D01*
X130226764Y-98765072D01*
X130233160Y-98743991D01*
X130243548Y-98724555D01*
X130257524Y-98707524D01*
X130274555Y-98693548D01*
X130293991Y-98683160D01*
X130315072Y-98676764D01*
X130343140Y-98674000D01*
X130806860Y-98674000D01*
X130834928Y-98676764D01*
X130834928Y-98676764D01*
G37*
G36*
X129564928Y-98676764D02*
G01*
X129586009Y-98683160D01*
X129605445Y-98693548D01*
X129622476Y-98707524D01*
X129636452Y-98724555D01*
X129646840Y-98743991D01*
X129653236Y-98765072D01*
X129656000Y-98793140D01*
X129656000Y-100706860D01*
X129653236Y-100734928D01*
X129646840Y-100756009D01*
X129636452Y-100775445D01*
X129622476Y-100792476D01*
X129605445Y-100806452D01*
X129586009Y-100816840D01*
X129564928Y-100823236D01*
X129536860Y-100826000D01*
X129073140Y-100826000D01*
X129045072Y-100823236D01*
X129023991Y-100816840D01*
X129004555Y-100806452D01*
X128987524Y-100792476D01*
X128973548Y-100775445D01*
X128963160Y-100756009D01*
X128956764Y-100734928D01*
X128954000Y-100706860D01*
X128954000Y-98793140D01*
X128956764Y-98765072D01*
X128963160Y-98743991D01*
X128973548Y-98724555D01*
X128987524Y-98707524D01*
X129004555Y-98693548D01*
X129023991Y-98683160D01*
X129045072Y-98676764D01*
X129073140Y-98674000D01*
X129536860Y-98674000D01*
X129564928Y-98676764D01*
X129564928Y-98676764D01*
G37*
G36*
X132104928Y-98676764D02*
G01*
X132126009Y-98683160D01*
X132145445Y-98693548D01*
X132162476Y-98707524D01*
X132176452Y-98724555D01*
X132186840Y-98743991D01*
X132193236Y-98765072D01*
X132196000Y-98793140D01*
X132196000Y-100706860D01*
X132193236Y-100734928D01*
X132186840Y-100756009D01*
X132176452Y-100775445D01*
X132162476Y-100792476D01*
X132145445Y-100806452D01*
X132126009Y-100816840D01*
X132104928Y-100823236D01*
X132076860Y-100826000D01*
X131613140Y-100826000D01*
X131585072Y-100823236D01*
X131563991Y-100816840D01*
X131544555Y-100806452D01*
X131527524Y-100792476D01*
X131513548Y-100775445D01*
X131503160Y-100756009D01*
X131496764Y-100734928D01*
X131494000Y-100706860D01*
X131494000Y-98793140D01*
X131496764Y-98765072D01*
X131503160Y-98743991D01*
X131513548Y-98724555D01*
X131527524Y-98707524D01*
X131544555Y-98693548D01*
X131563991Y-98683160D01*
X131585072Y-98676764D01*
X131613140Y-98674000D01*
X132076860Y-98674000D01*
X132104928Y-98676764D01*
X132104928Y-98676764D01*
G37*
G36*
X125754928Y-98676764D02*
G01*
X125776009Y-98683160D01*
X125795445Y-98693548D01*
X125812476Y-98707524D01*
X125826452Y-98724555D01*
X125836840Y-98743991D01*
X125843236Y-98765072D01*
X125846000Y-98793140D01*
X125846000Y-100706860D01*
X125843236Y-100734928D01*
X125836840Y-100756009D01*
X125826452Y-100775445D01*
X125812476Y-100792476D01*
X125795445Y-100806452D01*
X125776009Y-100816840D01*
X125754928Y-100823236D01*
X125726860Y-100826000D01*
X125263140Y-100826000D01*
X125235072Y-100823236D01*
X125213991Y-100816840D01*
X125194555Y-100806452D01*
X125177524Y-100792476D01*
X125163548Y-100775445D01*
X125153160Y-100756009D01*
X125146764Y-100734928D01*
X125144000Y-100706860D01*
X125144000Y-98793140D01*
X125146764Y-98765072D01*
X125153160Y-98743991D01*
X125163548Y-98724555D01*
X125177524Y-98707524D01*
X125194555Y-98693548D01*
X125213991Y-98683160D01*
X125235072Y-98676764D01*
X125263140Y-98674000D01*
X125726860Y-98674000D01*
X125754928Y-98676764D01*
X125754928Y-98676764D01*
G37*
G36*
X123214928Y-98676764D02*
G01*
X123236009Y-98683160D01*
X123255445Y-98693548D01*
X123272476Y-98707524D01*
X123286452Y-98724555D01*
X123296840Y-98743991D01*
X123303236Y-98765072D01*
X123306000Y-98793140D01*
X123306000Y-100706860D01*
X123303236Y-100734928D01*
X123296840Y-100756009D01*
X123286452Y-100775445D01*
X123272476Y-100792476D01*
X123255445Y-100806452D01*
X123236009Y-100816840D01*
X123214928Y-100823236D01*
X123186860Y-100826000D01*
X122723140Y-100826000D01*
X122695072Y-100823236D01*
X122673991Y-100816840D01*
X122654555Y-100806452D01*
X122637524Y-100792476D01*
X122623548Y-100775445D01*
X122613160Y-100756009D01*
X122606764Y-100734928D01*
X122604000Y-100706860D01*
X122604000Y-98793140D01*
X122606764Y-98765072D01*
X122613160Y-98743991D01*
X122623548Y-98724555D01*
X122637524Y-98707524D01*
X122654555Y-98693548D01*
X122673991Y-98683160D01*
X122695072Y-98676764D01*
X122723140Y-98674000D01*
X123186860Y-98674000D01*
X123214928Y-98676764D01*
X123214928Y-98676764D01*
G37*
G36*
X99379591Y-99303085D02*
G01*
X99413569Y-99313393D01*
X99444890Y-99330134D01*
X99472339Y-99352661D01*
X99494866Y-99380110D01*
X99511607Y-99411431D01*
X99521915Y-99445409D01*
X99526000Y-99486890D01*
X99526000Y-100088110D01*
X99521915Y-100129591D01*
X99511607Y-100163569D01*
X99494866Y-100194890D01*
X99472339Y-100222339D01*
X99444890Y-100244866D01*
X99413569Y-100261607D01*
X99379591Y-100271915D01*
X99338110Y-100276000D01*
X98661890Y-100276000D01*
X98620409Y-100271915D01*
X98586431Y-100261607D01*
X98555110Y-100244866D01*
X98527661Y-100222339D01*
X98505134Y-100194890D01*
X98488393Y-100163569D01*
X98478085Y-100129591D01*
X98474000Y-100088110D01*
X98474000Y-99486890D01*
X98478085Y-99445409D01*
X98488393Y-99411431D01*
X98505134Y-99380110D01*
X98527661Y-99352661D01*
X98555110Y-99330134D01*
X98586431Y-99313393D01*
X98620409Y-99303085D01*
X98661890Y-99299000D01*
X99338110Y-99299000D01*
X99379591Y-99303085D01*
X99379591Y-99303085D01*
G37*
G36*
X95229591Y-99153085D02*
G01*
X95263569Y-99163393D01*
X95294890Y-99180134D01*
X95322339Y-99202661D01*
X95344866Y-99230110D01*
X95361607Y-99261431D01*
X95371915Y-99295409D01*
X95376000Y-99336890D01*
X95376000Y-100013110D01*
X95371915Y-100054591D01*
X95361607Y-100088569D01*
X95344866Y-100119890D01*
X95322339Y-100147339D01*
X95294890Y-100169866D01*
X95263569Y-100186607D01*
X95229591Y-100196915D01*
X95188110Y-100201000D01*
X94586890Y-100201000D01*
X94545409Y-100196915D01*
X94511431Y-100186607D01*
X94480110Y-100169866D01*
X94452661Y-100147339D01*
X94430134Y-100119890D01*
X94413393Y-100088569D01*
X94403085Y-100054591D01*
X94399000Y-100013110D01*
X94399000Y-99336890D01*
X94403085Y-99295409D01*
X94413393Y-99261431D01*
X94430134Y-99230110D01*
X94452661Y-99202661D01*
X94480110Y-99180134D01*
X94511431Y-99163393D01*
X94545409Y-99153085D01*
X94586890Y-99149000D01*
X95188110Y-99149000D01*
X95229591Y-99153085D01*
X95229591Y-99153085D01*
G37*
G36*
X93654591Y-99153085D02*
G01*
X93688569Y-99163393D01*
X93719890Y-99180134D01*
X93747339Y-99202661D01*
X93769866Y-99230110D01*
X93786607Y-99261431D01*
X93796915Y-99295409D01*
X93801000Y-99336890D01*
X93801000Y-100013110D01*
X93796915Y-100054591D01*
X93786607Y-100088569D01*
X93769866Y-100119890D01*
X93747339Y-100147339D01*
X93719890Y-100169866D01*
X93688569Y-100186607D01*
X93654591Y-100196915D01*
X93613110Y-100201000D01*
X93011890Y-100201000D01*
X92970409Y-100196915D01*
X92936431Y-100186607D01*
X92905110Y-100169866D01*
X92877661Y-100147339D01*
X92855134Y-100119890D01*
X92838393Y-100088569D01*
X92828085Y-100054591D01*
X92824000Y-100013110D01*
X92824000Y-99336890D01*
X92828085Y-99295409D01*
X92838393Y-99261431D01*
X92855134Y-99230110D01*
X92877661Y-99202661D01*
X92905110Y-99180134D01*
X92936431Y-99163393D01*
X92970409Y-99153085D01*
X93011890Y-99149000D01*
X93613110Y-99149000D01*
X93654591Y-99153085D01*
X93654591Y-99153085D01*
G37*
G36*
X109429591Y-98578085D02*
G01*
X109463569Y-98588393D01*
X109494890Y-98605134D01*
X109522339Y-98627661D01*
X109544866Y-98655110D01*
X109561607Y-98686431D01*
X109571915Y-98720409D01*
X109576000Y-98761890D01*
X109576000Y-99438110D01*
X109571915Y-99479591D01*
X109561607Y-99513569D01*
X109544866Y-99544890D01*
X109522339Y-99572339D01*
X109494890Y-99594866D01*
X109463569Y-99611607D01*
X109429591Y-99621915D01*
X109388110Y-99626000D01*
X108786890Y-99626000D01*
X108745409Y-99621915D01*
X108711431Y-99611607D01*
X108680110Y-99594866D01*
X108652661Y-99572339D01*
X108630134Y-99544890D01*
X108613393Y-99513569D01*
X108603085Y-99479591D01*
X108599000Y-99438110D01*
X108599000Y-98761890D01*
X108603085Y-98720409D01*
X108613393Y-98686431D01*
X108630134Y-98655110D01*
X108652661Y-98627661D01*
X108680110Y-98605134D01*
X108711431Y-98588393D01*
X108745409Y-98578085D01*
X108786890Y-98574000D01*
X109388110Y-98574000D01*
X109429591Y-98578085D01*
X109429591Y-98578085D01*
G37*
G36*
X107854591Y-98578085D02*
G01*
X107888569Y-98588393D01*
X107919890Y-98605134D01*
X107947339Y-98627661D01*
X107969866Y-98655110D01*
X107986607Y-98686431D01*
X107996915Y-98720409D01*
X108001000Y-98761890D01*
X108001000Y-99438110D01*
X107996915Y-99479591D01*
X107986607Y-99513569D01*
X107969866Y-99544890D01*
X107947339Y-99572339D01*
X107919890Y-99594866D01*
X107888569Y-99611607D01*
X107854591Y-99621915D01*
X107813110Y-99626000D01*
X107211890Y-99626000D01*
X107170409Y-99621915D01*
X107136431Y-99611607D01*
X107105110Y-99594866D01*
X107077661Y-99572339D01*
X107055134Y-99544890D01*
X107038393Y-99513569D01*
X107028085Y-99479591D01*
X107024000Y-99438110D01*
X107024000Y-98761890D01*
X107028085Y-98720409D01*
X107038393Y-98686431D01*
X107055134Y-98655110D01*
X107077661Y-98627661D01*
X107105110Y-98605134D01*
X107136431Y-98588393D01*
X107170409Y-98578085D01*
X107211890Y-98574000D01*
X107813110Y-98574000D01*
X107854591Y-98578085D01*
X107854591Y-98578085D01*
G37*
G36*
X90371000Y-99451000D02*
G01*
X89644008Y-99451000D01*
X89619622Y-99453402D01*
X89596173Y-99460515D01*
X89574562Y-99472066D01*
X89567391Y-99477951D01*
X89569000Y-99467106D01*
X89569000Y-93549000D01*
X90371000Y-93549000D01*
X90371000Y-99451000D01*
X90371000Y-99451000D01*
G37*
G36*
X93579591Y-97590585D02*
G01*
X93613569Y-97600893D01*
X93644890Y-97617634D01*
X93672339Y-97640161D01*
X93694866Y-97667610D01*
X93711607Y-97698931D01*
X93721915Y-97732909D01*
X93726000Y-97774390D01*
X93726000Y-98375610D01*
X93721915Y-98417091D01*
X93711607Y-98451069D01*
X93694866Y-98482390D01*
X93672339Y-98509839D01*
X93644890Y-98532366D01*
X93613569Y-98549107D01*
X93579591Y-98559415D01*
X93538110Y-98563500D01*
X92861890Y-98563500D01*
X92820409Y-98559415D01*
X92786431Y-98549107D01*
X92755110Y-98532366D01*
X92727661Y-98509839D01*
X92705134Y-98482390D01*
X92688393Y-98451069D01*
X92678085Y-98417091D01*
X92674000Y-98375610D01*
X92674000Y-97774390D01*
X92678085Y-97732909D01*
X92688393Y-97698931D01*
X92705134Y-97667610D01*
X92727661Y-97640161D01*
X92755110Y-97617634D01*
X92786431Y-97600893D01*
X92820409Y-97590585D01*
X92861890Y-97586500D01*
X93538110Y-97586500D01*
X93579591Y-97590585D01*
X93579591Y-97590585D01*
G37*
G36*
X95129591Y-97578085D02*
G01*
X95163569Y-97588393D01*
X95194890Y-97605134D01*
X95222339Y-97627661D01*
X95244866Y-97655110D01*
X95261607Y-97686431D01*
X95271915Y-97720409D01*
X95276000Y-97761890D01*
X95276000Y-98363110D01*
X95271915Y-98404591D01*
X95261607Y-98438569D01*
X95244866Y-98469890D01*
X95222339Y-98497339D01*
X95194890Y-98519866D01*
X95163569Y-98536607D01*
X95129591Y-98546915D01*
X95088110Y-98551000D01*
X94411890Y-98551000D01*
X94370409Y-98546915D01*
X94336431Y-98536607D01*
X94305110Y-98519866D01*
X94277661Y-98497339D01*
X94255134Y-98469890D01*
X94238393Y-98438569D01*
X94228085Y-98404591D01*
X94224000Y-98363110D01*
X94224000Y-97761890D01*
X94228085Y-97720409D01*
X94238393Y-97686431D01*
X94255134Y-97655110D01*
X94277661Y-97627661D01*
X94305110Y-97605134D01*
X94336431Y-97588393D01*
X94370409Y-97578085D01*
X94411890Y-97574000D01*
X95088110Y-97574000D01*
X95129591Y-97578085D01*
X95129591Y-97578085D01*
G37*
G36*
X98229591Y-97540585D02*
G01*
X98263569Y-97550893D01*
X98294890Y-97567634D01*
X98322339Y-97590161D01*
X98344866Y-97617610D01*
X98361607Y-97648931D01*
X98371915Y-97682909D01*
X98376000Y-97724387D01*
X98376000Y-98325610D01*
X98371915Y-98367091D01*
X98361607Y-98401069D01*
X98344866Y-98432390D01*
X98322339Y-98459839D01*
X98294890Y-98482366D01*
X98263569Y-98499107D01*
X98229591Y-98509415D01*
X98188110Y-98513500D01*
X97511890Y-98513500D01*
X97470409Y-98509415D01*
X97436431Y-98499107D01*
X97405110Y-98482366D01*
X97377661Y-98459839D01*
X97355134Y-98432390D01*
X97338393Y-98401069D01*
X97328085Y-98367091D01*
X97324000Y-98325610D01*
X97324000Y-97724387D01*
X97328085Y-97682909D01*
X97338393Y-97648931D01*
X97355134Y-97617610D01*
X97377661Y-97590161D01*
X97405110Y-97567634D01*
X97436431Y-97550893D01*
X97470409Y-97540585D01*
X97511890Y-97536500D01*
X98188110Y-97536500D01*
X98229591Y-97540585D01*
X98229591Y-97540585D01*
G37*
G36*
X96679591Y-97540585D02*
G01*
X96713569Y-97550893D01*
X96744890Y-97567634D01*
X96772339Y-97590161D01*
X96794866Y-97617610D01*
X96811607Y-97648931D01*
X96821915Y-97682909D01*
X96826000Y-97724387D01*
X96826000Y-98325610D01*
X96821915Y-98367091D01*
X96811607Y-98401069D01*
X96794866Y-98432390D01*
X96772339Y-98459839D01*
X96744890Y-98482366D01*
X96713569Y-98499107D01*
X96679591Y-98509415D01*
X96638110Y-98513500D01*
X95961890Y-98513500D01*
X95920409Y-98509415D01*
X95886431Y-98499107D01*
X95855110Y-98482366D01*
X95827661Y-98459839D01*
X95805134Y-98432390D01*
X95788393Y-98401069D01*
X95778085Y-98367091D01*
X95774000Y-98325610D01*
X95774000Y-97724387D01*
X95778085Y-97682909D01*
X95788393Y-97648931D01*
X95805134Y-97617610D01*
X95827661Y-97590161D01*
X95855110Y-97567634D01*
X95886431Y-97550893D01*
X95920409Y-97540585D01*
X95961890Y-97536500D01*
X96638110Y-97536500D01*
X96679591Y-97540585D01*
X96679591Y-97540585D01*
G37*
G36*
X92029591Y-97265585D02*
G01*
X92063569Y-97275893D01*
X92094890Y-97292634D01*
X92122339Y-97315161D01*
X92144866Y-97342610D01*
X92161607Y-97373931D01*
X92171915Y-97407909D01*
X92176000Y-97449390D01*
X92176000Y-98050610D01*
X92171915Y-98092091D01*
X92161607Y-98126069D01*
X92144866Y-98157390D01*
X92122339Y-98184839D01*
X92094890Y-98207366D01*
X92063569Y-98224107D01*
X92029591Y-98234415D01*
X91988110Y-98238500D01*
X91311890Y-98238500D01*
X91270409Y-98234415D01*
X91236431Y-98224107D01*
X91205110Y-98207366D01*
X91177661Y-98184839D01*
X91155134Y-98157390D01*
X91138393Y-98126069D01*
X91128085Y-98092091D01*
X91124000Y-98050610D01*
X91124000Y-97449390D01*
X91128085Y-97407909D01*
X91138393Y-97373931D01*
X91155134Y-97342610D01*
X91177661Y-97315161D01*
X91205110Y-97292634D01*
X91236431Y-97275893D01*
X91270409Y-97265585D01*
X91311890Y-97261500D01*
X91988110Y-97261500D01*
X92029591Y-97265585D01*
X92029591Y-97265585D01*
G37*
G36*
X111076000Y-98101000D02*
G01*
X104824000Y-98101000D01*
X104824000Y-96399000D01*
X111076000Y-96399000D01*
X111076000Y-98101000D01*
X111076000Y-98101000D01*
G37*
G36*
X93579591Y-96015585D02*
G01*
X93613569Y-96025893D01*
X93644890Y-96042634D01*
X93672339Y-96065161D01*
X93694866Y-96092610D01*
X93711607Y-96123931D01*
X93721915Y-96157909D01*
X93726000Y-96199390D01*
X93726000Y-96800610D01*
X93721915Y-96842091D01*
X93711607Y-96876069D01*
X93694866Y-96907390D01*
X93672339Y-96934839D01*
X93644890Y-96957366D01*
X93613569Y-96974107D01*
X93579591Y-96984415D01*
X93538110Y-96988500D01*
X92861890Y-96988500D01*
X92820409Y-96984415D01*
X92786431Y-96974107D01*
X92755110Y-96957366D01*
X92727661Y-96934839D01*
X92705134Y-96907390D01*
X92688393Y-96876069D01*
X92678085Y-96842091D01*
X92674000Y-96800610D01*
X92674000Y-96199390D01*
X92678085Y-96157909D01*
X92688393Y-96123931D01*
X92705134Y-96092610D01*
X92727661Y-96065161D01*
X92755110Y-96042634D01*
X92786431Y-96025893D01*
X92820409Y-96015585D01*
X92861890Y-96011500D01*
X93538110Y-96011500D01*
X93579591Y-96015585D01*
X93579591Y-96015585D01*
G37*
G36*
X95129591Y-96003085D02*
G01*
X95163569Y-96013393D01*
X95194890Y-96030134D01*
X95222339Y-96052661D01*
X95244866Y-96080110D01*
X95261607Y-96111431D01*
X95271915Y-96145409D01*
X95276000Y-96186890D01*
X95276000Y-96788110D01*
X95271915Y-96829591D01*
X95261607Y-96863569D01*
X95244866Y-96894890D01*
X95222339Y-96922339D01*
X95194890Y-96944866D01*
X95163569Y-96961607D01*
X95129591Y-96971915D01*
X95088110Y-96976000D01*
X94411890Y-96976000D01*
X94370409Y-96971915D01*
X94336431Y-96961607D01*
X94305110Y-96944866D01*
X94277661Y-96922339D01*
X94255134Y-96894890D01*
X94238393Y-96863569D01*
X94228085Y-96829591D01*
X94224000Y-96788110D01*
X94224000Y-96186890D01*
X94228085Y-96145409D01*
X94238393Y-96111431D01*
X94255134Y-96080110D01*
X94277661Y-96052661D01*
X94305110Y-96030134D01*
X94336431Y-96013393D01*
X94370409Y-96003085D01*
X94411890Y-95999000D01*
X95088110Y-95999000D01*
X95129591Y-96003085D01*
X95129591Y-96003085D01*
G37*
G36*
X96679591Y-95965585D02*
G01*
X96713569Y-95975893D01*
X96744890Y-95992634D01*
X96772339Y-96015161D01*
X96794866Y-96042610D01*
X96811607Y-96073931D01*
X96821915Y-96107909D01*
X96826000Y-96149390D01*
X96826000Y-96750610D01*
X96821915Y-96792091D01*
X96811607Y-96826069D01*
X96794866Y-96857390D01*
X96772339Y-96884839D01*
X96744890Y-96907366D01*
X96713569Y-96924107D01*
X96679591Y-96934415D01*
X96638110Y-96938500D01*
X95961890Y-96938500D01*
X95920409Y-96934415D01*
X95886431Y-96924107D01*
X95855110Y-96907366D01*
X95827661Y-96884839D01*
X95805134Y-96857390D01*
X95788393Y-96826069D01*
X95778085Y-96792091D01*
X95774000Y-96750610D01*
X95774000Y-96149390D01*
X95778085Y-96107909D01*
X95788393Y-96073931D01*
X95805134Y-96042610D01*
X95827661Y-96015161D01*
X95855110Y-95992634D01*
X95886431Y-95975893D01*
X95920409Y-95965585D01*
X95961890Y-95961500D01*
X96638110Y-95961500D01*
X96679591Y-95965585D01*
X96679591Y-95965585D01*
G37*
G36*
X98229591Y-95965585D02*
G01*
X98263569Y-95975893D01*
X98294890Y-95992634D01*
X98322339Y-96015161D01*
X98344866Y-96042610D01*
X98361607Y-96073931D01*
X98371915Y-96107909D01*
X98376000Y-96149390D01*
X98376000Y-96750610D01*
X98371915Y-96792091D01*
X98361607Y-96826069D01*
X98344866Y-96857390D01*
X98322339Y-96884839D01*
X98294890Y-96907366D01*
X98263569Y-96924107D01*
X98229591Y-96934415D01*
X98188110Y-96938500D01*
X97511890Y-96938500D01*
X97470409Y-96934415D01*
X97436431Y-96924107D01*
X97405110Y-96907366D01*
X97377661Y-96884839D01*
X97355134Y-96857390D01*
X97338393Y-96826069D01*
X97328085Y-96792091D01*
X97324000Y-96750610D01*
X97324000Y-96149390D01*
X97328085Y-96107909D01*
X97338393Y-96073931D01*
X97355134Y-96042610D01*
X97377661Y-96015161D01*
X97405110Y-95992634D01*
X97436431Y-95975893D01*
X97470409Y-95965585D01*
X97511890Y-95961500D01*
X98188110Y-95961500D01*
X98229591Y-95965585D01*
X98229591Y-95965585D01*
G37*
G36*
X92029591Y-95690585D02*
G01*
X92063569Y-95700893D01*
X92094890Y-95717634D01*
X92122339Y-95740161D01*
X92144866Y-95767610D01*
X92161607Y-95798931D01*
X92171915Y-95832909D01*
X92176000Y-95874390D01*
X92176000Y-96475610D01*
X92171915Y-96517091D01*
X92161607Y-96551069D01*
X92144866Y-96582390D01*
X92122339Y-96609839D01*
X92094890Y-96632366D01*
X92063569Y-96649107D01*
X92029591Y-96659415D01*
X91988110Y-96663500D01*
X91311890Y-96663500D01*
X91270409Y-96659415D01*
X91236431Y-96649107D01*
X91205110Y-96632366D01*
X91177661Y-96609839D01*
X91155134Y-96582390D01*
X91138393Y-96551069D01*
X91128085Y-96517091D01*
X91124000Y-96475610D01*
X91124000Y-95874390D01*
X91128085Y-95832909D01*
X91138393Y-95798931D01*
X91155134Y-95767610D01*
X91177661Y-95740161D01*
X91205110Y-95717634D01*
X91236431Y-95700893D01*
X91270409Y-95690585D01*
X91311890Y-95686500D01*
X91988110Y-95686500D01*
X92029591Y-95690585D01*
X92029591Y-95690585D01*
G37*
G36*
X113051000Y-96126000D02*
G01*
X111349000Y-96126000D01*
X111349000Y-89874000D01*
X113051000Y-89874000D01*
X113051000Y-96126000D01*
X113051000Y-96126000D01*
G37*
G36*
X104551000Y-96126000D02*
G01*
X102849000Y-96126000D01*
X102849000Y-89874000D01*
X104551000Y-89874000D01*
X104551000Y-96126000D01*
X104551000Y-96126000D01*
G37*
G36*
X102079591Y-92628085D02*
G01*
X102113569Y-92638393D01*
X102144890Y-92655134D01*
X102172339Y-92677661D01*
X102194866Y-92705110D01*
X102211607Y-92736431D01*
X102221915Y-92770409D01*
X102226000Y-92811890D01*
X102226000Y-93488110D01*
X102221915Y-93529591D01*
X102211607Y-93563569D01*
X102194866Y-93594890D01*
X102172339Y-93622339D01*
X102144890Y-93644866D01*
X102113569Y-93661607D01*
X102079591Y-93671915D01*
X102038110Y-93676000D01*
X101436890Y-93676000D01*
X101395409Y-93671915D01*
X101361431Y-93661607D01*
X101330110Y-93644866D01*
X101302661Y-93622339D01*
X101280134Y-93594890D01*
X101263393Y-93563569D01*
X101253085Y-93529591D01*
X101249000Y-93488110D01*
X101249000Y-92811890D01*
X101253085Y-92770409D01*
X101263393Y-92736431D01*
X101280134Y-92705110D01*
X101302661Y-92677661D01*
X101330110Y-92655134D01*
X101361431Y-92638393D01*
X101395409Y-92628085D01*
X101436890Y-92624000D01*
X102038110Y-92624000D01*
X102079591Y-92628085D01*
X102079591Y-92628085D01*
G37*
G36*
X100504591Y-92628085D02*
G01*
X100538569Y-92638393D01*
X100569890Y-92655134D01*
X100597339Y-92677661D01*
X100619866Y-92705110D01*
X100636607Y-92736431D01*
X100646915Y-92770409D01*
X100651000Y-92811890D01*
X100651000Y-93488110D01*
X100646915Y-93529591D01*
X100636607Y-93563569D01*
X100619866Y-93594890D01*
X100597339Y-93622339D01*
X100569890Y-93644866D01*
X100538569Y-93661607D01*
X100504591Y-93671915D01*
X100463110Y-93676000D01*
X99861890Y-93676000D01*
X99820409Y-93671915D01*
X99786431Y-93661607D01*
X99755110Y-93644866D01*
X99727661Y-93622339D01*
X99705134Y-93594890D01*
X99688393Y-93563569D01*
X99678085Y-93529591D01*
X99674000Y-93488110D01*
X99674000Y-92811890D01*
X99678085Y-92770409D01*
X99688393Y-92736431D01*
X99705134Y-92705110D01*
X99727661Y-92677661D01*
X99755110Y-92655134D01*
X99786431Y-92638393D01*
X99820409Y-92628085D01*
X99861890Y-92624000D01*
X100463110Y-92624000D01*
X100504591Y-92628085D01*
X100504591Y-92628085D01*
G37*
G36*
X89419672Y-92538449D02*
G01*
X89419674Y-92538450D01*
X89419675Y-92538450D01*
X89488103Y-92566793D01*
X89549686Y-92607942D01*
X89602058Y-92660314D01*
X89643207Y-92721897D01*
X89671550Y-92790325D01*
X89686000Y-92862967D01*
X89686000Y-92937033D01*
X89671550Y-93009675D01*
X89643207Y-93078103D01*
X89602058Y-93139686D01*
X89549686Y-93192058D01*
X89488103Y-93233207D01*
X89419675Y-93261550D01*
X89419674Y-93261550D01*
X89419672Y-93261551D01*
X89347034Y-93276000D01*
X89272966Y-93276000D01*
X89200328Y-93261551D01*
X89200326Y-93261550D01*
X89200325Y-93261550D01*
X89131897Y-93233207D01*
X89070314Y-93192058D01*
X89017942Y-93139686D01*
X88976793Y-93078103D01*
X88948450Y-93009675D01*
X88934000Y-92937033D01*
X88934000Y-92862967D01*
X88948450Y-92790325D01*
X88976793Y-92721897D01*
X89017942Y-92660314D01*
X89070314Y-92607942D01*
X89131897Y-92566793D01*
X89200325Y-92538450D01*
X89200326Y-92538450D01*
X89200328Y-92538449D01*
X89272966Y-92524000D01*
X89347034Y-92524000D01*
X89419672Y-92538449D01*
X89419672Y-92538449D01*
G37*
G36*
X88448410Y-91925525D02*
G01*
X88533426Y-91951314D01*
X88611775Y-91993193D01*
X88680449Y-92049551D01*
X88736807Y-92118225D01*
X88778686Y-92196574D01*
X88804475Y-92281590D01*
X88813182Y-92370000D01*
X88804475Y-92458410D01*
X88778686Y-92543426D01*
X88736807Y-92621775D01*
X88680449Y-92690449D01*
X88611775Y-92746807D01*
X88533426Y-92788686D01*
X88448410Y-92814475D01*
X88382158Y-92821000D01*
X87737842Y-92821000D01*
X87671590Y-92814475D01*
X87586574Y-92788686D01*
X87508225Y-92746807D01*
X87439551Y-92690449D01*
X87383193Y-92621775D01*
X87341314Y-92543426D01*
X87315525Y-92458410D01*
X87306818Y-92370000D01*
X87315525Y-92281590D01*
X87341314Y-92196574D01*
X87383193Y-92118225D01*
X87439551Y-92049551D01*
X87508225Y-91993193D01*
X87586574Y-91951314D01*
X87671590Y-91925525D01*
X87737842Y-91919000D01*
X88382158Y-91919000D01*
X88448410Y-91925525D01*
X88448410Y-91925525D01*
G37*
G36*
X121504591Y-91553085D02*
G01*
X121538569Y-91563393D01*
X121569890Y-91580134D01*
X121597339Y-91602661D01*
X121619866Y-91630110D01*
X121636607Y-91661431D01*
X121646915Y-91695409D01*
X121651000Y-91736890D01*
X121651000Y-92338110D01*
X121646915Y-92379591D01*
X121636607Y-92413569D01*
X121619866Y-92444890D01*
X121597339Y-92472339D01*
X121569890Y-92494866D01*
X121538569Y-92511607D01*
X121504591Y-92521915D01*
X121463110Y-92526000D01*
X120786890Y-92526000D01*
X120745409Y-92521915D01*
X120711431Y-92511607D01*
X120680110Y-92494866D01*
X120652661Y-92472339D01*
X120630134Y-92444890D01*
X120613393Y-92413569D01*
X120603085Y-92379591D01*
X120599000Y-92338110D01*
X120599000Y-91736890D01*
X120603085Y-91695409D01*
X120613393Y-91661431D01*
X120630134Y-91630110D01*
X120652661Y-91602661D01*
X120680110Y-91580134D01*
X120711431Y-91563393D01*
X120745409Y-91553085D01*
X120786890Y-91549000D01*
X121463110Y-91549000D01*
X121504591Y-91553085D01*
X121504591Y-91553085D01*
G37*
G36*
X82498410Y-91565525D02*
G01*
X82583426Y-91591314D01*
X82661775Y-91633193D01*
X82730449Y-91689551D01*
X82786807Y-91758225D01*
X82828686Y-91836574D01*
X82854475Y-91921590D01*
X82863182Y-92010000D01*
X82854475Y-92098410D01*
X82828686Y-92183426D01*
X82786807Y-92261775D01*
X82730449Y-92330449D01*
X82661775Y-92386807D01*
X82583426Y-92428686D01*
X82498410Y-92454475D01*
X82432158Y-92461000D01*
X81787842Y-92461000D01*
X81721590Y-92454475D01*
X81636574Y-92428686D01*
X81558225Y-92386807D01*
X81489551Y-92330449D01*
X81433193Y-92261775D01*
X81391314Y-92183426D01*
X81365525Y-92098410D01*
X81356818Y-92010000D01*
X81365525Y-91921590D01*
X81391314Y-91836574D01*
X81433193Y-91758225D01*
X81489551Y-91689551D01*
X81558225Y-91633193D01*
X81636574Y-91591314D01*
X81721590Y-91565525D01*
X81787842Y-91559000D01*
X82432158Y-91559000D01*
X82498410Y-91565525D01*
X82498410Y-91565525D01*
G37*
G36*
X123214928Y-89376764D02*
G01*
X123236009Y-89383160D01*
X123255445Y-89393548D01*
X123272476Y-89407524D01*
X123286452Y-89424555D01*
X123296840Y-89443991D01*
X123303236Y-89465072D01*
X123306000Y-89493140D01*
X123306000Y-91406860D01*
X123303236Y-91434928D01*
X123296840Y-91456009D01*
X123286452Y-91475445D01*
X123272476Y-91492476D01*
X123255445Y-91506452D01*
X123236009Y-91516840D01*
X123214928Y-91523236D01*
X123186860Y-91526000D01*
X122723140Y-91526000D01*
X122695072Y-91523236D01*
X122673991Y-91516840D01*
X122654555Y-91506452D01*
X122637524Y-91492476D01*
X122623548Y-91475445D01*
X122613160Y-91456009D01*
X122606764Y-91434928D01*
X122604000Y-91406860D01*
X122604000Y-89493140D01*
X122606764Y-89465072D01*
X122613160Y-89443991D01*
X122623548Y-89424555D01*
X122637524Y-89407524D01*
X122654555Y-89393548D01*
X122673991Y-89383160D01*
X122695072Y-89376764D01*
X122723140Y-89374000D01*
X123186860Y-89374000D01*
X123214928Y-89376764D01*
X123214928Y-89376764D01*
G37*
G36*
X130834928Y-89376764D02*
G01*
X130856009Y-89383160D01*
X130875445Y-89393548D01*
X130892476Y-89407524D01*
X130906452Y-89424555D01*
X130916840Y-89443991D01*
X130923236Y-89465072D01*
X130926000Y-89493140D01*
X130926000Y-91406860D01*
X130923236Y-91434928D01*
X130916840Y-91456009D01*
X130906452Y-91475445D01*
X130892476Y-91492476D01*
X130875445Y-91506452D01*
X130856009Y-91516840D01*
X130834928Y-91523236D01*
X130806860Y-91526000D01*
X130343140Y-91526000D01*
X130315072Y-91523236D01*
X130293991Y-91516840D01*
X130274555Y-91506452D01*
X130257524Y-91492476D01*
X130243548Y-91475445D01*
X130233160Y-91456009D01*
X130226764Y-91434928D01*
X130224000Y-91406860D01*
X130224000Y-89493140D01*
X130226764Y-89465072D01*
X130233160Y-89443991D01*
X130243548Y-89424555D01*
X130257524Y-89407524D01*
X130274555Y-89393548D01*
X130293991Y-89383160D01*
X130315072Y-89376764D01*
X130343140Y-89374000D01*
X130806860Y-89374000D01*
X130834928Y-89376764D01*
X130834928Y-89376764D01*
G37*
G36*
X132104928Y-89376764D02*
G01*
X132126009Y-89383160D01*
X132145445Y-89393548D01*
X132162476Y-89407524D01*
X132176452Y-89424555D01*
X132186840Y-89443991D01*
X132193236Y-89465072D01*
X132196000Y-89493140D01*
X132196000Y-91406860D01*
X132193236Y-91434928D01*
X132186840Y-91456009D01*
X132176452Y-91475445D01*
X132162476Y-91492476D01*
X132145445Y-91506452D01*
X132126009Y-91516840D01*
X132104928Y-91523236D01*
X132076860Y-91526000D01*
X131613140Y-91526000D01*
X131585072Y-91523236D01*
X131563991Y-91516840D01*
X131544555Y-91506452D01*
X131527524Y-91492476D01*
X131513548Y-91475445D01*
X131503160Y-91456009D01*
X131496764Y-91434928D01*
X131494000Y-91406860D01*
X131494000Y-89493140D01*
X131496764Y-89465072D01*
X131503160Y-89443991D01*
X131513548Y-89424555D01*
X131527524Y-89407524D01*
X131544555Y-89393548D01*
X131563991Y-89383160D01*
X131585072Y-89376764D01*
X131613140Y-89374000D01*
X132076860Y-89374000D01*
X132104928Y-89376764D01*
X132104928Y-89376764D01*
G37*
G36*
X129564928Y-89376764D02*
G01*
X129586009Y-89383160D01*
X129605445Y-89393548D01*
X129622476Y-89407524D01*
X129636452Y-89424555D01*
X129646840Y-89443991D01*
X129653236Y-89465072D01*
X129656000Y-89493140D01*
X129656000Y-91406860D01*
X129653236Y-91434928D01*
X129646840Y-91456009D01*
X129636452Y-91475445D01*
X129622476Y-91492476D01*
X129605445Y-91506452D01*
X129586009Y-91516840D01*
X129564928Y-91523236D01*
X129536860Y-91526000D01*
X129073140Y-91526000D01*
X129045072Y-91523236D01*
X129023991Y-91516840D01*
X129004555Y-91506452D01*
X128987524Y-91492476D01*
X128973548Y-91475445D01*
X128963160Y-91456009D01*
X128956764Y-91434928D01*
X128954000Y-91406860D01*
X128954000Y-89493140D01*
X128956764Y-89465072D01*
X128963160Y-89443991D01*
X128973548Y-89424555D01*
X128987524Y-89407524D01*
X129004555Y-89393548D01*
X129023991Y-89383160D01*
X129045072Y-89376764D01*
X129073140Y-89374000D01*
X129536860Y-89374000D01*
X129564928Y-89376764D01*
X129564928Y-89376764D01*
G37*
G36*
X128294928Y-89376764D02*
G01*
X128316009Y-89383160D01*
X128335445Y-89393548D01*
X128352476Y-89407524D01*
X128366452Y-89424555D01*
X128376840Y-89443991D01*
X128383236Y-89465072D01*
X128386000Y-89493140D01*
X128386000Y-91406860D01*
X128383236Y-91434928D01*
X128376840Y-91456009D01*
X128366452Y-91475445D01*
X128352476Y-91492476D01*
X128335445Y-91506452D01*
X128316009Y-91516840D01*
X128294928Y-91523236D01*
X128266860Y-91526000D01*
X127803140Y-91526000D01*
X127775072Y-91523236D01*
X127753991Y-91516840D01*
X127734555Y-91506452D01*
X127717524Y-91492476D01*
X127703548Y-91475445D01*
X127693160Y-91456009D01*
X127686764Y-91434928D01*
X127684000Y-91406860D01*
X127684000Y-89493140D01*
X127686764Y-89465072D01*
X127693160Y-89443991D01*
X127703548Y-89424555D01*
X127717524Y-89407524D01*
X127734555Y-89393548D01*
X127753991Y-89383160D01*
X127775072Y-89376764D01*
X127803140Y-89374000D01*
X128266860Y-89374000D01*
X128294928Y-89376764D01*
X128294928Y-89376764D01*
G37*
G36*
X127024928Y-89376764D02*
G01*
X127046009Y-89383160D01*
X127065445Y-89393548D01*
X127082476Y-89407524D01*
X127096452Y-89424555D01*
X127106840Y-89443991D01*
X127113236Y-89465072D01*
X127116000Y-89493140D01*
X127116000Y-91406860D01*
X127113236Y-91434928D01*
X127106840Y-91456009D01*
X127096452Y-91475445D01*
X127082476Y-91492476D01*
X127065445Y-91506452D01*
X127046009Y-91516840D01*
X127024928Y-91523236D01*
X126996860Y-91526000D01*
X126533140Y-91526000D01*
X126505072Y-91523236D01*
X126483991Y-91516840D01*
X126464555Y-91506452D01*
X126447524Y-91492476D01*
X126433548Y-91475445D01*
X126423160Y-91456009D01*
X126416764Y-91434928D01*
X126414000Y-91406860D01*
X126414000Y-89493140D01*
X126416764Y-89465072D01*
X126423160Y-89443991D01*
X126433548Y-89424555D01*
X126447524Y-89407524D01*
X126464555Y-89393548D01*
X126483991Y-89383160D01*
X126505072Y-89376764D01*
X126533140Y-89374000D01*
X126996860Y-89374000D01*
X127024928Y-89376764D01*
X127024928Y-89376764D01*
G37*
G36*
X125754928Y-89376764D02*
G01*
X125776009Y-89383160D01*
X125795445Y-89393548D01*
X125812476Y-89407524D01*
X125826452Y-89424555D01*
X125836840Y-89443991D01*
X125843236Y-89465072D01*
X125846000Y-89493140D01*
X125846000Y-91406860D01*
X125843236Y-91434928D01*
X125836840Y-91456009D01*
X125826452Y-91475445D01*
X125812476Y-91492476D01*
X125795445Y-91506452D01*
X125776009Y-91516840D01*
X125754928Y-91523236D01*
X125726860Y-91526000D01*
X125263140Y-91526000D01*
X125235072Y-91523236D01*
X125213991Y-91516840D01*
X125194555Y-91506452D01*
X125177524Y-91492476D01*
X125163548Y-91475445D01*
X125153160Y-91456009D01*
X125146764Y-91434928D01*
X125144000Y-91406860D01*
X125144000Y-89493140D01*
X125146764Y-89465072D01*
X125153160Y-89443991D01*
X125163548Y-89424555D01*
X125177524Y-89407524D01*
X125194555Y-89393548D01*
X125213991Y-89383160D01*
X125235072Y-89376764D01*
X125263140Y-89374000D01*
X125726860Y-89374000D01*
X125754928Y-89376764D01*
X125754928Y-89376764D01*
G37*
G36*
X124484928Y-89376764D02*
G01*
X124506009Y-89383160D01*
X124525445Y-89393548D01*
X124542476Y-89407524D01*
X124556452Y-89424555D01*
X124566840Y-89443991D01*
X124573236Y-89465072D01*
X124576000Y-89493140D01*
X124576000Y-91406860D01*
X124573236Y-91434928D01*
X124566840Y-91456009D01*
X124556452Y-91475445D01*
X124542476Y-91492476D01*
X124525445Y-91506452D01*
X124506009Y-91516840D01*
X124484928Y-91523236D01*
X124456860Y-91526000D01*
X123993140Y-91526000D01*
X123965072Y-91523236D01*
X123943991Y-91516840D01*
X123924555Y-91506452D01*
X123907524Y-91492476D01*
X123893548Y-91475445D01*
X123883160Y-91456009D01*
X123876764Y-91434928D01*
X123874000Y-91406860D01*
X123874000Y-89493140D01*
X123876764Y-89465072D01*
X123883160Y-89443991D01*
X123893548Y-89424555D01*
X123907524Y-89407524D01*
X123924555Y-89393548D01*
X123943991Y-89383160D01*
X123965072Y-89376764D01*
X123993140Y-89374000D01*
X124456860Y-89374000D01*
X124484928Y-89376764D01*
X124484928Y-89376764D01*
G37*
G36*
X116279591Y-90465585D02*
G01*
X116313569Y-90475893D01*
X116344890Y-90492634D01*
X116372339Y-90515161D01*
X116394866Y-90542610D01*
X116411607Y-90573931D01*
X116421915Y-90607909D01*
X116426000Y-90649390D01*
X116426000Y-91250610D01*
X116421915Y-91292091D01*
X116411607Y-91326069D01*
X116394866Y-91357390D01*
X116372339Y-91384839D01*
X116344890Y-91407366D01*
X116313569Y-91424107D01*
X116279591Y-91434415D01*
X116238110Y-91438500D01*
X115561890Y-91438500D01*
X115520409Y-91434415D01*
X115486431Y-91424107D01*
X115455110Y-91407366D01*
X115427661Y-91384839D01*
X115405134Y-91357390D01*
X115388393Y-91326069D01*
X115378085Y-91292091D01*
X115374000Y-91250610D01*
X115374000Y-90649390D01*
X115378085Y-90607909D01*
X115388393Y-90573931D01*
X115405134Y-90542610D01*
X115427661Y-90515161D01*
X115455110Y-90492634D01*
X115486431Y-90475893D01*
X115520409Y-90465585D01*
X115561890Y-90461500D01*
X116238110Y-90461500D01*
X116279591Y-90465585D01*
X116279591Y-90465585D01*
G37*
G36*
X118029591Y-90453085D02*
G01*
X118063569Y-90463393D01*
X118094890Y-90480134D01*
X118122339Y-90502661D01*
X118144866Y-90530110D01*
X118161607Y-90561431D01*
X118171915Y-90595409D01*
X118176000Y-90636890D01*
X118176000Y-91238110D01*
X118171915Y-91279591D01*
X118161607Y-91313569D01*
X118144866Y-91344890D01*
X118122339Y-91372339D01*
X118094890Y-91394866D01*
X118063569Y-91411607D01*
X118029591Y-91421915D01*
X117988110Y-91426000D01*
X117311890Y-91426000D01*
X117270409Y-91421915D01*
X117236431Y-91411607D01*
X117205110Y-91394866D01*
X117177661Y-91372339D01*
X117155134Y-91344890D01*
X117138393Y-91313569D01*
X117128085Y-91279591D01*
X117124000Y-91238110D01*
X117124000Y-90636890D01*
X117128085Y-90595409D01*
X117138393Y-90561431D01*
X117155134Y-90530110D01*
X117177661Y-90502661D01*
X117205110Y-90480134D01*
X117236431Y-90463393D01*
X117270409Y-90453085D01*
X117311890Y-90449000D01*
X117988110Y-90449000D01*
X118029591Y-90453085D01*
X118029591Y-90453085D01*
G37*
G36*
X121504591Y-89978085D02*
G01*
X121538569Y-89988393D01*
X121569890Y-90005134D01*
X121597339Y-90027661D01*
X121619866Y-90055110D01*
X121636607Y-90086431D01*
X121646915Y-90120409D01*
X121651000Y-90161890D01*
X121651000Y-90763110D01*
X121646915Y-90804591D01*
X121636607Y-90838569D01*
X121619866Y-90869890D01*
X121597339Y-90897339D01*
X121569890Y-90919866D01*
X121538569Y-90936607D01*
X121504591Y-90946915D01*
X121463110Y-90951000D01*
X120786890Y-90951000D01*
X120745409Y-90946915D01*
X120711431Y-90936607D01*
X120680110Y-90919866D01*
X120652661Y-90897339D01*
X120630134Y-90869890D01*
X120613393Y-90838569D01*
X120603085Y-90804591D01*
X120599000Y-90763110D01*
X120599000Y-90161890D01*
X120603085Y-90120409D01*
X120613393Y-90086431D01*
X120630134Y-90055110D01*
X120652661Y-90027661D01*
X120680110Y-90005134D01*
X120711431Y-89988393D01*
X120745409Y-89978085D01*
X120786890Y-89974000D01*
X121463110Y-89974000D01*
X121504591Y-89978085D01*
X121504591Y-89978085D01*
G37*
G36*
X116279591Y-88890585D02*
G01*
X116313569Y-88900893D01*
X116344890Y-88917634D01*
X116372339Y-88940161D01*
X116394866Y-88967610D01*
X116411607Y-88998931D01*
X116421915Y-89032909D01*
X116426000Y-89074390D01*
X116426000Y-89675610D01*
X116421915Y-89717091D01*
X116411607Y-89751069D01*
X116394866Y-89782390D01*
X116372339Y-89809839D01*
X116344890Y-89832366D01*
X116313569Y-89849107D01*
X116279591Y-89859415D01*
X116238110Y-89863500D01*
X115561890Y-89863500D01*
X115520409Y-89859415D01*
X115486431Y-89849107D01*
X115455110Y-89832366D01*
X115427661Y-89809839D01*
X115405134Y-89782390D01*
X115388393Y-89751069D01*
X115378085Y-89717091D01*
X115374000Y-89675610D01*
X115374000Y-89074390D01*
X115378085Y-89032909D01*
X115388393Y-88998931D01*
X115405134Y-88967610D01*
X115427661Y-88940161D01*
X115455110Y-88917634D01*
X115486431Y-88900893D01*
X115520409Y-88890585D01*
X115561890Y-88886500D01*
X116238110Y-88886500D01*
X116279591Y-88890585D01*
X116279591Y-88890585D01*
G37*
G36*
X118029591Y-88878085D02*
G01*
X118063569Y-88888393D01*
X118094890Y-88905134D01*
X118122339Y-88927661D01*
X118144866Y-88955110D01*
X118161607Y-88986431D01*
X118171915Y-89020409D01*
X118176000Y-89061890D01*
X118176000Y-89663110D01*
X118171915Y-89704591D01*
X118161607Y-89738569D01*
X118144866Y-89769890D01*
X118122339Y-89797339D01*
X118094890Y-89819866D01*
X118063569Y-89836607D01*
X118029591Y-89846915D01*
X117988110Y-89851000D01*
X117311890Y-89851000D01*
X117270409Y-89846915D01*
X117236431Y-89836607D01*
X117205110Y-89819866D01*
X117177661Y-89797339D01*
X117155134Y-89769890D01*
X117138393Y-89738569D01*
X117128085Y-89704591D01*
X117124000Y-89663110D01*
X117124000Y-89061890D01*
X117128085Y-89020409D01*
X117138393Y-88986431D01*
X117155134Y-88955110D01*
X117177661Y-88927661D01*
X117205110Y-88905134D01*
X117236431Y-88888393D01*
X117270409Y-88878085D01*
X117311890Y-88874000D01*
X117988110Y-88874000D01*
X118029591Y-88878085D01*
X118029591Y-88878085D01*
G37*
G36*
X111076000Y-89601000D02*
G01*
X104824000Y-89601000D01*
X104824000Y-87899000D01*
X111076000Y-87899000D01*
X111076000Y-89601000D01*
X111076000Y-89601000D01*
G37*
G36*
X93454591Y-88053085D02*
G01*
X93488569Y-88063393D01*
X93519890Y-88080134D01*
X93547339Y-88102661D01*
X93569866Y-88130110D01*
X93586607Y-88161431D01*
X93596915Y-88195409D01*
X93601000Y-88236890D01*
X93601000Y-88838110D01*
X93596915Y-88879591D01*
X93586607Y-88913569D01*
X93569866Y-88944890D01*
X93547339Y-88972339D01*
X93519890Y-88994866D01*
X93488569Y-89011607D01*
X93454591Y-89021915D01*
X93413110Y-89026000D01*
X92736890Y-89026000D01*
X92695409Y-89021915D01*
X92661431Y-89011607D01*
X92630110Y-88994866D01*
X92602661Y-88972339D01*
X92580134Y-88944890D01*
X92563393Y-88913569D01*
X92553085Y-88879591D01*
X92549000Y-88838110D01*
X92549000Y-88236890D01*
X92553085Y-88195409D01*
X92563393Y-88161431D01*
X92580134Y-88130110D01*
X92602661Y-88102661D01*
X92630110Y-88080134D01*
X92661431Y-88063393D01*
X92695409Y-88053085D01*
X92736890Y-88049000D01*
X93413110Y-88049000D01*
X93454591Y-88053085D01*
X93454591Y-88053085D01*
G37*
G36*
X91904591Y-88053085D02*
G01*
X91938569Y-88063393D01*
X91969890Y-88080134D01*
X91997339Y-88102661D01*
X92019866Y-88130110D01*
X92036607Y-88161431D01*
X92046915Y-88195409D01*
X92051000Y-88236890D01*
X92051000Y-88838110D01*
X92046915Y-88879591D01*
X92036607Y-88913569D01*
X92019866Y-88944890D01*
X91997339Y-88972339D01*
X91969890Y-88994866D01*
X91938569Y-89011607D01*
X91904591Y-89021915D01*
X91863110Y-89026000D01*
X91186890Y-89026000D01*
X91145409Y-89021915D01*
X91111431Y-89011607D01*
X91080110Y-88994866D01*
X91052661Y-88972339D01*
X91030134Y-88944890D01*
X91013393Y-88913569D01*
X91003085Y-88879591D01*
X90999000Y-88838110D01*
X90999000Y-88236890D01*
X91003085Y-88195409D01*
X91013393Y-88161431D01*
X91030134Y-88130110D01*
X91052661Y-88102661D01*
X91080110Y-88080134D01*
X91111431Y-88063393D01*
X91145409Y-88053085D01*
X91186890Y-88049000D01*
X91863110Y-88049000D01*
X91904591Y-88053085D01*
X91904591Y-88053085D01*
G37*
G36*
X90354591Y-88053085D02*
G01*
X90388569Y-88063393D01*
X90419890Y-88080134D01*
X90447339Y-88102661D01*
X90469866Y-88130110D01*
X90486607Y-88161431D01*
X90496915Y-88195409D01*
X90501000Y-88236890D01*
X90501000Y-88838110D01*
X90496915Y-88879591D01*
X90486607Y-88913569D01*
X90469866Y-88944890D01*
X90447339Y-88972339D01*
X90419890Y-88994866D01*
X90388569Y-89011607D01*
X90354591Y-89021915D01*
X90313110Y-89026000D01*
X89636890Y-89026000D01*
X89595409Y-89021915D01*
X89561431Y-89011607D01*
X89530110Y-88994866D01*
X89502661Y-88972339D01*
X89480134Y-88944890D01*
X89463393Y-88913569D01*
X89453085Y-88879591D01*
X89449000Y-88838110D01*
X89449000Y-88236890D01*
X89453085Y-88195409D01*
X89463393Y-88161431D01*
X89480134Y-88130110D01*
X89502661Y-88102661D01*
X89530110Y-88080134D01*
X89561431Y-88063393D01*
X89595409Y-88053085D01*
X89636890Y-88049000D01*
X90313110Y-88049000D01*
X90354591Y-88053085D01*
X90354591Y-88053085D01*
G37*
G36*
X100629591Y-87703085D02*
G01*
X100663569Y-87713393D01*
X100694890Y-87730134D01*
X100722339Y-87752661D01*
X100744866Y-87780110D01*
X100761607Y-87811431D01*
X100771915Y-87845409D01*
X100776000Y-87886890D01*
X100776000Y-88488110D01*
X100771915Y-88529591D01*
X100761607Y-88563569D01*
X100744866Y-88594890D01*
X100722339Y-88622339D01*
X100694890Y-88644866D01*
X100663569Y-88661607D01*
X100629591Y-88671915D01*
X100588110Y-88676000D01*
X99911890Y-88676000D01*
X99870409Y-88671915D01*
X99836431Y-88661607D01*
X99805110Y-88644866D01*
X99777661Y-88622339D01*
X99755134Y-88594890D01*
X99738393Y-88563569D01*
X99728085Y-88529591D01*
X99724000Y-88488110D01*
X99724000Y-87886890D01*
X99728085Y-87845409D01*
X99738393Y-87811431D01*
X99755134Y-87780110D01*
X99777661Y-87752661D01*
X99805110Y-87730134D01*
X99836431Y-87713393D01*
X99870409Y-87703085D01*
X99911890Y-87699000D01*
X100588110Y-87699000D01*
X100629591Y-87703085D01*
X100629591Y-87703085D01*
G37*
G36*
X102229591Y-87690585D02*
G01*
X102263569Y-87700893D01*
X102294890Y-87717634D01*
X102322339Y-87740161D01*
X102344866Y-87767610D01*
X102361607Y-87798931D01*
X102371915Y-87832909D01*
X102376000Y-87874390D01*
X102376000Y-88475610D01*
X102371915Y-88517091D01*
X102361607Y-88551069D01*
X102344866Y-88582390D01*
X102322339Y-88609839D01*
X102294890Y-88632366D01*
X102263569Y-88649107D01*
X102229591Y-88659415D01*
X102188110Y-88663500D01*
X101511890Y-88663500D01*
X101470409Y-88659415D01*
X101436431Y-88649107D01*
X101405110Y-88632366D01*
X101377661Y-88609839D01*
X101355134Y-88582390D01*
X101338393Y-88551069D01*
X101328085Y-88517091D01*
X101324000Y-88475610D01*
X101324000Y-87874390D01*
X101328085Y-87832909D01*
X101338393Y-87798931D01*
X101355134Y-87767610D01*
X101377661Y-87740161D01*
X101405110Y-87717634D01*
X101436431Y-87700893D01*
X101470409Y-87690585D01*
X101511890Y-87686500D01*
X102188110Y-87686500D01*
X102229591Y-87690585D01*
X102229591Y-87690585D01*
G37*
G36*
X124579591Y-87353085D02*
G01*
X124613569Y-87363393D01*
X124644890Y-87380134D01*
X124672339Y-87402661D01*
X124694866Y-87430110D01*
X124711607Y-87461431D01*
X124721915Y-87495409D01*
X124726000Y-87536890D01*
X124726000Y-88213110D01*
X124721915Y-88254591D01*
X124711607Y-88288569D01*
X124694866Y-88319890D01*
X124672339Y-88347339D01*
X124644890Y-88369866D01*
X124613569Y-88386607D01*
X124579591Y-88396915D01*
X124538110Y-88401000D01*
X123936890Y-88401000D01*
X123895409Y-88396915D01*
X123861431Y-88386607D01*
X123830110Y-88369866D01*
X123802661Y-88347339D01*
X123780134Y-88319890D01*
X123763393Y-88288569D01*
X123753085Y-88254591D01*
X123749000Y-88213110D01*
X123749000Y-87536890D01*
X123753085Y-87495409D01*
X123763393Y-87461431D01*
X123780134Y-87430110D01*
X123802661Y-87402661D01*
X123830110Y-87380134D01*
X123861431Y-87363393D01*
X123895409Y-87353085D01*
X123936890Y-87349000D01*
X124538110Y-87349000D01*
X124579591Y-87353085D01*
X124579591Y-87353085D01*
G37*
G36*
X123004591Y-87353085D02*
G01*
X123038569Y-87363393D01*
X123069890Y-87380134D01*
X123097339Y-87402661D01*
X123119866Y-87430110D01*
X123136607Y-87461431D01*
X123146915Y-87495409D01*
X123151000Y-87536890D01*
X123151000Y-88213110D01*
X123146915Y-88254591D01*
X123136607Y-88288569D01*
X123119866Y-88319890D01*
X123097339Y-88347339D01*
X123069890Y-88369866D01*
X123038569Y-88386607D01*
X123004591Y-88396915D01*
X122963110Y-88401000D01*
X122361890Y-88401000D01*
X122320409Y-88396915D01*
X122286431Y-88386607D01*
X122255110Y-88369866D01*
X122227661Y-88347339D01*
X122205134Y-88319890D01*
X122188393Y-88288569D01*
X122178085Y-88254591D01*
X122174000Y-88213110D01*
X122174000Y-87536890D01*
X122178085Y-87495409D01*
X122188393Y-87461431D01*
X122205134Y-87430110D01*
X122227661Y-87402661D01*
X122255110Y-87380134D01*
X122286431Y-87363393D01*
X122320409Y-87353085D01*
X122361890Y-87349000D01*
X122963110Y-87349000D01*
X123004591Y-87353085D01*
X123004591Y-87353085D01*
G37*
G36*
X90354591Y-86478085D02*
G01*
X90388569Y-86488393D01*
X90419890Y-86505134D01*
X90447339Y-86527661D01*
X90469866Y-86555110D01*
X90486607Y-86586431D01*
X90496915Y-86620409D01*
X90501000Y-86661890D01*
X90501000Y-87263110D01*
X90496915Y-87304591D01*
X90486607Y-87338569D01*
X90469866Y-87369890D01*
X90447339Y-87397339D01*
X90419890Y-87419866D01*
X90388569Y-87436607D01*
X90354591Y-87446915D01*
X90313110Y-87451000D01*
X89636890Y-87451000D01*
X89595409Y-87446915D01*
X89561431Y-87436607D01*
X89530110Y-87419866D01*
X89502661Y-87397339D01*
X89480134Y-87369890D01*
X89463393Y-87338569D01*
X89453085Y-87304591D01*
X89449000Y-87263110D01*
X89449000Y-86661890D01*
X89453085Y-86620409D01*
X89463393Y-86586431D01*
X89480134Y-86555110D01*
X89502661Y-86527661D01*
X89530110Y-86505134D01*
X89561431Y-86488393D01*
X89595409Y-86478085D01*
X89636890Y-86474000D01*
X90313110Y-86474000D01*
X90354591Y-86478085D01*
X90354591Y-86478085D01*
G37*
G36*
X91904591Y-86478085D02*
G01*
X91938569Y-86488393D01*
X91969890Y-86505134D01*
X91997339Y-86527661D01*
X92019866Y-86555110D01*
X92036607Y-86586431D01*
X92046915Y-86620409D01*
X92051000Y-86661890D01*
X92051000Y-87263110D01*
X92046915Y-87304591D01*
X92036607Y-87338569D01*
X92019866Y-87369890D01*
X91997339Y-87397339D01*
X91969890Y-87419866D01*
X91938569Y-87436607D01*
X91904591Y-87446915D01*
X91863110Y-87451000D01*
X91186890Y-87451000D01*
X91145409Y-87446915D01*
X91111431Y-87436607D01*
X91080110Y-87419866D01*
X91052661Y-87397339D01*
X91030134Y-87369890D01*
X91013393Y-87338569D01*
X91003085Y-87304591D01*
X90999000Y-87263110D01*
X90999000Y-86661890D01*
X91003085Y-86620409D01*
X91013393Y-86586431D01*
X91030134Y-86555110D01*
X91052661Y-86527661D01*
X91080110Y-86505134D01*
X91111431Y-86488393D01*
X91145409Y-86478085D01*
X91186890Y-86474000D01*
X91863110Y-86474000D01*
X91904591Y-86478085D01*
X91904591Y-86478085D01*
G37*
G36*
X93454591Y-86478085D02*
G01*
X93488569Y-86488393D01*
X93519890Y-86505134D01*
X93547339Y-86527661D01*
X93569866Y-86555110D01*
X93586607Y-86586431D01*
X93596915Y-86620409D01*
X93601000Y-86661890D01*
X93601000Y-87263110D01*
X93596915Y-87304591D01*
X93586607Y-87338569D01*
X93569866Y-87369890D01*
X93547339Y-87397339D01*
X93519890Y-87419866D01*
X93488569Y-87436607D01*
X93454591Y-87446915D01*
X93413110Y-87451000D01*
X92736890Y-87451000D01*
X92695409Y-87446915D01*
X92661431Y-87436607D01*
X92630110Y-87419866D01*
X92602661Y-87397339D01*
X92580134Y-87369890D01*
X92563393Y-87338569D01*
X92553085Y-87304591D01*
X92549000Y-87263110D01*
X92549000Y-86661890D01*
X92553085Y-86620409D01*
X92563393Y-86586431D01*
X92580134Y-86555110D01*
X92602661Y-86527661D01*
X92630110Y-86505134D01*
X92661431Y-86488393D01*
X92695409Y-86478085D01*
X92736890Y-86474000D01*
X93413110Y-86474000D01*
X93454591Y-86478085D01*
X93454591Y-86478085D01*
G37*
G36*
X108754591Y-86328085D02*
G01*
X108788569Y-86338393D01*
X108819890Y-86355134D01*
X108847339Y-86377661D01*
X108869866Y-86405110D01*
X108886607Y-86436431D01*
X108896915Y-86470409D01*
X108901000Y-86511890D01*
X108901000Y-87188110D01*
X108896915Y-87229591D01*
X108886607Y-87263569D01*
X108869866Y-87294890D01*
X108847339Y-87322339D01*
X108819890Y-87344866D01*
X108788569Y-87361607D01*
X108754591Y-87371915D01*
X108713110Y-87376000D01*
X108111890Y-87376000D01*
X108070409Y-87371915D01*
X108036431Y-87361607D01*
X108005110Y-87344866D01*
X107977661Y-87322339D01*
X107955134Y-87294890D01*
X107938393Y-87263569D01*
X107928085Y-87229591D01*
X107924000Y-87188110D01*
X107924000Y-86511890D01*
X107928085Y-86470409D01*
X107938393Y-86436431D01*
X107955134Y-86405110D01*
X107977661Y-86377661D01*
X108005110Y-86355134D01*
X108036431Y-86338393D01*
X108070409Y-86328085D01*
X108111890Y-86324000D01*
X108713110Y-86324000D01*
X108754591Y-86328085D01*
X108754591Y-86328085D01*
G37*
G36*
X110329591Y-86328085D02*
G01*
X110363569Y-86338393D01*
X110394890Y-86355134D01*
X110422339Y-86377661D01*
X110444866Y-86405110D01*
X110461607Y-86436431D01*
X110471915Y-86470409D01*
X110476000Y-86511890D01*
X110476000Y-87188110D01*
X110471915Y-87229591D01*
X110461607Y-87263569D01*
X110444866Y-87294890D01*
X110422339Y-87322339D01*
X110394890Y-87344866D01*
X110363569Y-87361607D01*
X110329591Y-87371915D01*
X110288110Y-87376000D01*
X109686890Y-87376000D01*
X109645409Y-87371915D01*
X109611431Y-87361607D01*
X109580110Y-87344866D01*
X109552661Y-87322339D01*
X109530134Y-87294890D01*
X109513393Y-87263569D01*
X109503085Y-87229591D01*
X109499000Y-87188110D01*
X109499000Y-86511890D01*
X109503085Y-86470409D01*
X109513393Y-86436431D01*
X109530134Y-86405110D01*
X109552661Y-86377661D01*
X109580110Y-86355134D01*
X109611431Y-86338393D01*
X109645409Y-86328085D01*
X109686890Y-86324000D01*
X110288110Y-86324000D01*
X110329591Y-86328085D01*
X110329591Y-86328085D01*
G37*
G36*
X100629591Y-86128085D02*
G01*
X100663569Y-86138393D01*
X100694890Y-86155134D01*
X100722339Y-86177661D01*
X100744866Y-86205110D01*
X100761607Y-86236431D01*
X100771915Y-86270409D01*
X100776000Y-86311890D01*
X100776000Y-86913110D01*
X100771915Y-86954591D01*
X100761607Y-86988569D01*
X100744866Y-87019890D01*
X100722339Y-87047339D01*
X100694890Y-87069866D01*
X100663569Y-87086607D01*
X100629591Y-87096915D01*
X100588110Y-87101000D01*
X99911890Y-87101000D01*
X99870409Y-87096915D01*
X99836431Y-87086607D01*
X99805110Y-87069866D01*
X99777661Y-87047339D01*
X99755134Y-87019890D01*
X99738393Y-86988569D01*
X99728085Y-86954591D01*
X99724000Y-86913110D01*
X99724000Y-86311890D01*
X99728085Y-86270409D01*
X99738393Y-86236431D01*
X99755134Y-86205110D01*
X99777661Y-86177661D01*
X99805110Y-86155134D01*
X99836431Y-86138393D01*
X99870409Y-86128085D01*
X99911890Y-86124000D01*
X100588110Y-86124000D01*
X100629591Y-86128085D01*
X100629591Y-86128085D01*
G37*
G36*
X102229591Y-86115585D02*
G01*
X102263569Y-86125893D01*
X102294890Y-86142634D01*
X102322339Y-86165161D01*
X102344866Y-86192610D01*
X102361607Y-86223931D01*
X102371915Y-86257909D01*
X102376000Y-86299390D01*
X102376000Y-86900610D01*
X102371915Y-86942091D01*
X102361607Y-86976069D01*
X102344866Y-87007390D01*
X102322339Y-87034839D01*
X102294890Y-87057366D01*
X102263569Y-87074107D01*
X102229591Y-87084415D01*
X102188110Y-87088500D01*
X101511890Y-87088500D01*
X101470409Y-87084415D01*
X101436431Y-87074107D01*
X101405110Y-87057366D01*
X101377661Y-87034839D01*
X101355134Y-87007390D01*
X101338393Y-86976069D01*
X101328085Y-86942091D01*
X101324000Y-86900610D01*
X101324000Y-86299390D01*
X101328085Y-86257909D01*
X101338393Y-86223931D01*
X101355134Y-86192610D01*
X101377661Y-86165161D01*
X101405110Y-86142634D01*
X101436431Y-86125893D01*
X101470409Y-86115585D01*
X101511890Y-86111500D01*
X102188110Y-86111500D01*
X102229591Y-86115585D01*
X102229591Y-86115585D01*
G37*
G36*
X122979591Y-85778085D02*
G01*
X123013569Y-85788393D01*
X123044890Y-85805134D01*
X123072339Y-85827661D01*
X123094866Y-85855110D01*
X123111607Y-85886431D01*
X123121915Y-85920409D01*
X123126000Y-85961890D01*
X123126000Y-86638110D01*
X123121915Y-86679591D01*
X123111607Y-86713569D01*
X123094866Y-86744890D01*
X123072339Y-86772339D01*
X123044890Y-86794866D01*
X123013569Y-86811607D01*
X122979591Y-86821915D01*
X122938110Y-86826000D01*
X122336890Y-86826000D01*
X122295409Y-86821915D01*
X122261431Y-86811607D01*
X122230110Y-86794866D01*
X122202661Y-86772339D01*
X122180134Y-86744890D01*
X122163393Y-86713569D01*
X122153085Y-86679591D01*
X122149000Y-86638110D01*
X122149000Y-85961890D01*
X122153085Y-85920409D01*
X122163393Y-85886431D01*
X122180134Y-85855110D01*
X122202661Y-85827661D01*
X122230110Y-85805134D01*
X122261431Y-85788393D01*
X122295409Y-85778085D01*
X122336890Y-85774000D01*
X122938110Y-85774000D01*
X122979591Y-85778085D01*
X122979591Y-85778085D01*
G37*
G36*
X124554591Y-85778085D02*
G01*
X124588569Y-85788393D01*
X124619890Y-85805134D01*
X124647339Y-85827661D01*
X124669866Y-85855110D01*
X124686607Y-85886431D01*
X124696915Y-85920409D01*
X124701000Y-85961890D01*
X124701000Y-86638110D01*
X124696915Y-86679591D01*
X124686607Y-86713569D01*
X124669866Y-86744890D01*
X124647339Y-86772339D01*
X124619890Y-86794866D01*
X124588569Y-86811607D01*
X124554591Y-86821915D01*
X124513110Y-86826000D01*
X123911890Y-86826000D01*
X123870409Y-86821915D01*
X123836431Y-86811607D01*
X123805110Y-86794866D01*
X123777661Y-86772339D01*
X123755134Y-86744890D01*
X123738393Y-86713569D01*
X123728085Y-86679591D01*
X123724000Y-86638110D01*
X123724000Y-85961890D01*
X123728085Y-85920409D01*
X123738393Y-85886431D01*
X123755134Y-85855110D01*
X123777661Y-85827661D01*
X123805110Y-85805134D01*
X123836431Y-85788393D01*
X123870409Y-85778085D01*
X123911890Y-85774000D01*
X124513110Y-85774000D01*
X124554591Y-85778085D01*
X124554591Y-85778085D01*
G37*
G36*
X88804591Y-85653085D02*
G01*
X88838569Y-85663393D01*
X88869890Y-85680134D01*
X88897339Y-85702661D01*
X88919866Y-85730110D01*
X88936607Y-85761431D01*
X88946915Y-85795409D01*
X88951000Y-85836890D01*
X88951000Y-86438110D01*
X88946915Y-86479591D01*
X88936607Y-86513569D01*
X88919866Y-86544890D01*
X88897339Y-86572339D01*
X88869890Y-86594866D01*
X88838569Y-86611607D01*
X88804591Y-86621915D01*
X88763110Y-86626000D01*
X88086890Y-86626000D01*
X88045409Y-86621915D01*
X88011431Y-86611607D01*
X87980110Y-86594866D01*
X87952661Y-86572339D01*
X87930134Y-86544890D01*
X87913393Y-86513569D01*
X87903085Y-86479591D01*
X87899000Y-86438110D01*
X87899000Y-85836890D01*
X87903085Y-85795409D01*
X87913393Y-85761431D01*
X87930134Y-85730110D01*
X87952661Y-85702661D01*
X87980110Y-85680134D01*
X88011431Y-85663393D01*
X88045409Y-85653085D01*
X88086890Y-85649000D01*
X88763110Y-85649000D01*
X88804591Y-85653085D01*
X88804591Y-85653085D01*
G37*
G36*
X95104591Y-85603085D02*
G01*
X95138569Y-85613393D01*
X95169890Y-85630134D01*
X95197339Y-85652661D01*
X95219866Y-85680110D01*
X95236607Y-85711431D01*
X95246915Y-85745409D01*
X95251000Y-85786890D01*
X95251000Y-86388110D01*
X95246915Y-86429591D01*
X95236607Y-86463569D01*
X95219866Y-86494890D01*
X95197339Y-86522339D01*
X95169890Y-86544866D01*
X95138569Y-86561607D01*
X95104591Y-86571915D01*
X95063110Y-86576000D01*
X94386890Y-86576000D01*
X94345409Y-86571915D01*
X94311431Y-86561607D01*
X94280110Y-86544866D01*
X94252661Y-86522339D01*
X94230134Y-86494890D01*
X94213393Y-86463569D01*
X94203085Y-86429591D01*
X94199000Y-86388110D01*
X94199000Y-85786890D01*
X94203085Y-85745409D01*
X94213393Y-85711431D01*
X94230134Y-85680110D01*
X94252661Y-85652661D01*
X94280110Y-85630134D01*
X94311431Y-85613393D01*
X94345409Y-85603085D01*
X94386890Y-85599000D01*
X95063110Y-85599000D01*
X95104591Y-85603085D01*
X95104591Y-85603085D01*
G37*
G36*
X170276000Y-86556000D02*
G01*
X169374000Y-86556000D01*
X169374000Y-85554000D01*
X170276000Y-85554000D01*
X170276000Y-86556000D01*
X170276000Y-86556000D01*
G37*
G36*
X172176000Y-86556000D02*
G01*
X171274000Y-86556000D01*
X171274000Y-85554000D01*
X172176000Y-85554000D01*
X172176000Y-86556000D01*
X172176000Y-86556000D01*
G37*
G36*
X168604591Y-85565585D02*
G01*
X168638569Y-85575893D01*
X168669890Y-85592634D01*
X168697339Y-85615161D01*
X168719866Y-85642610D01*
X168736607Y-85673931D01*
X168746915Y-85707909D01*
X168751000Y-85749390D01*
X168751000Y-86350610D01*
X168746915Y-86392091D01*
X168736607Y-86426069D01*
X168719866Y-86457390D01*
X168697339Y-86484839D01*
X168669890Y-86507366D01*
X168638569Y-86524107D01*
X168604591Y-86534415D01*
X168563110Y-86538500D01*
X167886890Y-86538500D01*
X167845409Y-86534415D01*
X167811431Y-86524107D01*
X167780110Y-86507366D01*
X167752661Y-86484839D01*
X167730134Y-86457390D01*
X167713393Y-86426069D01*
X167703085Y-86392091D01*
X167699000Y-86350610D01*
X167699000Y-85749390D01*
X167703085Y-85707909D01*
X167713393Y-85673931D01*
X167730134Y-85642610D01*
X167752661Y-85615161D01*
X167780110Y-85592634D01*
X167811431Y-85575893D01*
X167845409Y-85565585D01*
X167886890Y-85561500D01*
X168563110Y-85561500D01*
X168604591Y-85565585D01*
X168604591Y-85565585D01*
G37*
G36*
X161151000Y-86526000D02*
G01*
X160249000Y-86526000D01*
X160249000Y-85524000D01*
X161151000Y-85524000D01*
X161151000Y-86526000D01*
X161151000Y-86526000D01*
G37*
G36*
X163051000Y-86526000D02*
G01*
X162149000Y-86526000D01*
X162149000Y-85524000D01*
X163051000Y-85524000D01*
X163051000Y-86526000D01*
X163051000Y-86526000D01*
G37*
G36*
X159479591Y-85540585D02*
G01*
X159513569Y-85550893D01*
X159544890Y-85567634D01*
X159572339Y-85590161D01*
X159594866Y-85617610D01*
X159611607Y-85648931D01*
X159621915Y-85682909D01*
X159626000Y-85724390D01*
X159626000Y-86325610D01*
X159621915Y-86367091D01*
X159611607Y-86401069D01*
X159594866Y-86432390D01*
X159572339Y-86459839D01*
X159544890Y-86482366D01*
X159513569Y-86499107D01*
X159479591Y-86509415D01*
X159438110Y-86513500D01*
X158761890Y-86513500D01*
X158720409Y-86509415D01*
X158686431Y-86499107D01*
X158655110Y-86482366D01*
X158627661Y-86459839D01*
X158605134Y-86432390D01*
X158588393Y-86401069D01*
X158578085Y-86367091D01*
X158574000Y-86325610D01*
X158574000Y-85724390D01*
X158578085Y-85682909D01*
X158588393Y-85648931D01*
X158605134Y-85617610D01*
X158627661Y-85590161D01*
X158655110Y-85567634D01*
X158686431Y-85550893D01*
X158720409Y-85540585D01*
X158761890Y-85536500D01*
X159438110Y-85536500D01*
X159479591Y-85540585D01*
X159479591Y-85540585D01*
G37*
G36*
X145026000Y-86426000D02*
G01*
X144124000Y-86426000D01*
X144124000Y-85424000D01*
X145026000Y-85424000D01*
X145026000Y-86426000D01*
X145026000Y-86426000D01*
G37*
G36*
X143126000Y-86426000D02*
G01*
X142224000Y-86426000D01*
X142224000Y-85424000D01*
X143126000Y-85424000D01*
X143126000Y-86426000D01*
X143126000Y-86426000D01*
G37*
G36*
X132679591Y-85428085D02*
G01*
X132713569Y-85438393D01*
X132744890Y-85455134D01*
X132772339Y-85477661D01*
X132794866Y-85505110D01*
X132811607Y-85536431D01*
X132821915Y-85570409D01*
X132826000Y-85611890D01*
X132826000Y-86213110D01*
X132821915Y-86254591D01*
X132811607Y-86288569D01*
X132794866Y-86319890D01*
X132772339Y-86347339D01*
X132744890Y-86369866D01*
X132713569Y-86386607D01*
X132679591Y-86396915D01*
X132638110Y-86401000D01*
X131961890Y-86401000D01*
X131920409Y-86396915D01*
X131886431Y-86386607D01*
X131855110Y-86369866D01*
X131827661Y-86347339D01*
X131805134Y-86319890D01*
X131788393Y-86288569D01*
X131778085Y-86254591D01*
X131774000Y-86213110D01*
X131774000Y-85611890D01*
X131778085Y-85570409D01*
X131788393Y-85536431D01*
X131805134Y-85505110D01*
X131827661Y-85477661D01*
X131855110Y-85455134D01*
X131886431Y-85438393D01*
X131920409Y-85428085D01*
X131961890Y-85424000D01*
X132638110Y-85424000D01*
X132679591Y-85428085D01*
X132679591Y-85428085D01*
G37*
G36*
X141454591Y-85428085D02*
G01*
X141488569Y-85438393D01*
X141519890Y-85455134D01*
X141547339Y-85477661D01*
X141569866Y-85505110D01*
X141586607Y-85536431D01*
X141596915Y-85570409D01*
X141601000Y-85611890D01*
X141601000Y-86213110D01*
X141596915Y-86254591D01*
X141586607Y-86288569D01*
X141569866Y-86319890D01*
X141547339Y-86347339D01*
X141519890Y-86369866D01*
X141488569Y-86386607D01*
X141454591Y-86396915D01*
X141413110Y-86401000D01*
X140736890Y-86401000D01*
X140695409Y-86396915D01*
X140661431Y-86386607D01*
X140630110Y-86369866D01*
X140602661Y-86347339D01*
X140580134Y-86319890D01*
X140563393Y-86288569D01*
X140553085Y-86254591D01*
X140549000Y-86213110D01*
X140549000Y-85611890D01*
X140553085Y-85570409D01*
X140563393Y-85536431D01*
X140580134Y-85505110D01*
X140602661Y-85477661D01*
X140630110Y-85455134D01*
X140661431Y-85438393D01*
X140695409Y-85428085D01*
X140736890Y-85424000D01*
X141413110Y-85424000D01*
X141454591Y-85428085D01*
X141454591Y-85428085D01*
G37*
G36*
X136276000Y-86401000D02*
G01*
X135374000Y-86401000D01*
X135374000Y-85399000D01*
X136276000Y-85399000D01*
X136276000Y-86401000D01*
X136276000Y-86401000D01*
G37*
G36*
X134376000Y-86401000D02*
G01*
X133474000Y-86401000D01*
X133474000Y-85399000D01*
X134376000Y-85399000D01*
X134376000Y-86401000D01*
X134376000Y-86401000D01*
G37*
G36*
X150404591Y-85415585D02*
G01*
X150438569Y-85425893D01*
X150469890Y-85442634D01*
X150497339Y-85465161D01*
X150519866Y-85492610D01*
X150536607Y-85523931D01*
X150546915Y-85557909D01*
X150551000Y-85599390D01*
X150551000Y-86200610D01*
X150546915Y-86242091D01*
X150536607Y-86276069D01*
X150519866Y-86307390D01*
X150497339Y-86334839D01*
X150469890Y-86357366D01*
X150438569Y-86374107D01*
X150404591Y-86384415D01*
X150363110Y-86388500D01*
X149686890Y-86388500D01*
X149645409Y-86384415D01*
X149611431Y-86374107D01*
X149580110Y-86357366D01*
X149552661Y-86334839D01*
X149530134Y-86307390D01*
X149513393Y-86276069D01*
X149503085Y-86242091D01*
X149499000Y-86200610D01*
X149499000Y-85599390D01*
X149503085Y-85557909D01*
X149513393Y-85523931D01*
X149530134Y-85492610D01*
X149552661Y-85465161D01*
X149580110Y-85442634D01*
X149611431Y-85425893D01*
X149645409Y-85415585D01*
X149686890Y-85411500D01*
X150363110Y-85411500D01*
X150404591Y-85415585D01*
X150404591Y-85415585D01*
G37*
G36*
X152076000Y-86376000D02*
G01*
X151174000Y-86376000D01*
X151174000Y-85374000D01*
X152076000Y-85374000D01*
X152076000Y-86376000D01*
X152076000Y-86376000D01*
G37*
G36*
X153976000Y-86376000D02*
G01*
X153074000Y-86376000D01*
X153074000Y-85374000D01*
X153976000Y-85374000D01*
X153976000Y-86376000D01*
X153976000Y-86376000D01*
G37*
G36*
X108754591Y-84778085D02*
G01*
X108788569Y-84788393D01*
X108819890Y-84805134D01*
X108847339Y-84827661D01*
X108869866Y-84855110D01*
X108886607Y-84886431D01*
X108896915Y-84920409D01*
X108901000Y-84961890D01*
X108901000Y-85638110D01*
X108896915Y-85679591D01*
X108886607Y-85713569D01*
X108869866Y-85744890D01*
X108847339Y-85772339D01*
X108819890Y-85794866D01*
X108788569Y-85811607D01*
X108754591Y-85821915D01*
X108713110Y-85826000D01*
X108111890Y-85826000D01*
X108070409Y-85821915D01*
X108036431Y-85811607D01*
X108005110Y-85794866D01*
X107977661Y-85772339D01*
X107955134Y-85744890D01*
X107938393Y-85713569D01*
X107928085Y-85679591D01*
X107924000Y-85638110D01*
X107924000Y-84961890D01*
X107928085Y-84920409D01*
X107938393Y-84886431D01*
X107955134Y-84855110D01*
X107977661Y-84827661D01*
X108005110Y-84805134D01*
X108036431Y-84788393D01*
X108070409Y-84778085D01*
X108111890Y-84774000D01*
X108713110Y-84774000D01*
X108754591Y-84778085D01*
X108754591Y-84778085D01*
G37*
G36*
X110329591Y-84778085D02*
G01*
X110363569Y-84788393D01*
X110394890Y-84805134D01*
X110422339Y-84827661D01*
X110444866Y-84855110D01*
X110461607Y-84886431D01*
X110471915Y-84920409D01*
X110476000Y-84961890D01*
X110476000Y-85638110D01*
X110471915Y-85679591D01*
X110461607Y-85713569D01*
X110444866Y-85744890D01*
X110422339Y-85772339D01*
X110394890Y-85794866D01*
X110363569Y-85811607D01*
X110329591Y-85821915D01*
X110288110Y-85826000D01*
X109686890Y-85826000D01*
X109645409Y-85821915D01*
X109611431Y-85811607D01*
X109580110Y-85794866D01*
X109552661Y-85772339D01*
X109530134Y-85744890D01*
X109513393Y-85713569D01*
X109503085Y-85679591D01*
X109499000Y-85638110D01*
X109499000Y-84961890D01*
X109503085Y-84920409D01*
X109513393Y-84886431D01*
X109530134Y-84855110D01*
X109552661Y-84827661D01*
X109580110Y-84805134D01*
X109611431Y-84788393D01*
X109645409Y-84778085D01*
X109686890Y-84774000D01*
X110288110Y-84774000D01*
X110329591Y-84778085D01*
X110329591Y-84778085D01*
G37*
G36*
X91130355Y-81537583D02*
G01*
X91135029Y-81539001D01*
X91139330Y-81541300D01*
X91145702Y-81546529D01*
X91166076Y-81560143D01*
X91188715Y-81569520D01*
X91212749Y-81574300D01*
X91237253Y-81574300D01*
X91261286Y-81569519D01*
X91283925Y-81560142D01*
X91304298Y-81546529D01*
X91310670Y-81541300D01*
X91314971Y-81539001D01*
X91319645Y-81537583D01*
X91330641Y-81536500D01*
X91619359Y-81536500D01*
X91630355Y-81537583D01*
X91635029Y-81539001D01*
X91639330Y-81541300D01*
X91645702Y-81546529D01*
X91666076Y-81560143D01*
X91688715Y-81569520D01*
X91712749Y-81574300D01*
X91737253Y-81574300D01*
X91761286Y-81569519D01*
X91783925Y-81560142D01*
X91804298Y-81546529D01*
X91810670Y-81541300D01*
X91814971Y-81539001D01*
X91819645Y-81537583D01*
X91830641Y-81536500D01*
X92119359Y-81536500D01*
X92130355Y-81537583D01*
X92135029Y-81539001D01*
X92139330Y-81541300D01*
X92145702Y-81546529D01*
X92166076Y-81560143D01*
X92188715Y-81569520D01*
X92212749Y-81574300D01*
X92237253Y-81574300D01*
X92261286Y-81569519D01*
X92283925Y-81560142D01*
X92304298Y-81546529D01*
X92310670Y-81541300D01*
X92314971Y-81539001D01*
X92319645Y-81537583D01*
X92330641Y-81536500D01*
X92619359Y-81536500D01*
X92630355Y-81537583D01*
X92635029Y-81539001D01*
X92639331Y-81541300D01*
X92643104Y-81544396D01*
X92646200Y-81548169D01*
X92648499Y-81552471D01*
X92649917Y-81557145D01*
X92651000Y-81568141D01*
X92651000Y-82411501D01*
X92653402Y-82435887D01*
X92660515Y-82459336D01*
X92672066Y-82480947D01*
X92687611Y-82499889D01*
X92706553Y-82515434D01*
X92728164Y-82526985D01*
X92751613Y-82534098D01*
X92775999Y-82536500D01*
X93619359Y-82536500D01*
X93630355Y-82537583D01*
X93635029Y-82539001D01*
X93639331Y-82541300D01*
X93643104Y-82544396D01*
X93646200Y-82548169D01*
X93648499Y-82552471D01*
X93649917Y-82557145D01*
X93651000Y-82568141D01*
X93651000Y-82856859D01*
X93649917Y-82867855D01*
X93648499Y-82872529D01*
X93646200Y-82876830D01*
X93640971Y-82883202D01*
X93627357Y-82903576D01*
X93617980Y-82926215D01*
X93613200Y-82950249D01*
X93613200Y-82974753D01*
X93617981Y-82998786D01*
X93627358Y-83021425D01*
X93640971Y-83041798D01*
X93646200Y-83048170D01*
X93648499Y-83052471D01*
X93649917Y-83057145D01*
X93651000Y-83068141D01*
X93651000Y-83356859D01*
X93649917Y-83367855D01*
X93648499Y-83372529D01*
X93646200Y-83376830D01*
X93640971Y-83383202D01*
X93627357Y-83403576D01*
X93617980Y-83426215D01*
X93613200Y-83450249D01*
X93613200Y-83474753D01*
X93617981Y-83498786D01*
X93627358Y-83521425D01*
X93640971Y-83541798D01*
X93646200Y-83548170D01*
X93648499Y-83552471D01*
X93649917Y-83557145D01*
X93651000Y-83568141D01*
X93651000Y-83856859D01*
X93649917Y-83867855D01*
X93648499Y-83872529D01*
X93646200Y-83876830D01*
X93640971Y-83883202D01*
X93627357Y-83903576D01*
X93617980Y-83926215D01*
X93613200Y-83950249D01*
X93613200Y-83974753D01*
X93617981Y-83998786D01*
X93627358Y-84021425D01*
X93640971Y-84041798D01*
X93646200Y-84048170D01*
X93648499Y-84052471D01*
X93649917Y-84057145D01*
X93651000Y-84068141D01*
X93651000Y-84356859D01*
X93649917Y-84367855D01*
X93648499Y-84372529D01*
X93646200Y-84376831D01*
X93643104Y-84380604D01*
X93639331Y-84383700D01*
X93635029Y-84385999D01*
X93630355Y-84387417D01*
X93619359Y-84388500D01*
X92775999Y-84388500D01*
X92751613Y-84390902D01*
X92728164Y-84398015D01*
X92706553Y-84409566D01*
X92687611Y-84425111D01*
X92672066Y-84444053D01*
X92660515Y-84465664D01*
X92653402Y-84489113D01*
X92651000Y-84513499D01*
X92651000Y-85356859D01*
X92649917Y-85367855D01*
X92648499Y-85372529D01*
X92646200Y-85376831D01*
X92643104Y-85380604D01*
X92639331Y-85383700D01*
X92635029Y-85385999D01*
X92630355Y-85387417D01*
X92619359Y-85388500D01*
X92330641Y-85388500D01*
X92319645Y-85387417D01*
X92314971Y-85385999D01*
X92310670Y-85383700D01*
X92304298Y-85378471D01*
X92283924Y-85364857D01*
X92261285Y-85355480D01*
X92237251Y-85350700D01*
X92212747Y-85350700D01*
X92188714Y-85355481D01*
X92166075Y-85364858D01*
X92145702Y-85378471D01*
X92139330Y-85383700D01*
X92135029Y-85385999D01*
X92130355Y-85387417D01*
X92119359Y-85388500D01*
X91830641Y-85388500D01*
X91819645Y-85387417D01*
X91814971Y-85385999D01*
X91810670Y-85383700D01*
X91804298Y-85378471D01*
X91783924Y-85364857D01*
X91761285Y-85355480D01*
X91737251Y-85350700D01*
X91712747Y-85350700D01*
X91688714Y-85355481D01*
X91666075Y-85364858D01*
X91645702Y-85378471D01*
X91639330Y-85383700D01*
X91635029Y-85385999D01*
X91630355Y-85387417D01*
X91619359Y-85388500D01*
X91330641Y-85388500D01*
X91319645Y-85387417D01*
X91314971Y-85385999D01*
X91310670Y-85383700D01*
X91304298Y-85378471D01*
X91283924Y-85364857D01*
X91261285Y-85355480D01*
X91237251Y-85350700D01*
X91212747Y-85350700D01*
X91188714Y-85355481D01*
X91166075Y-85364858D01*
X91145702Y-85378471D01*
X91139330Y-85383700D01*
X91135029Y-85385999D01*
X91130355Y-85387417D01*
X91119359Y-85388500D01*
X90830641Y-85388500D01*
X90819645Y-85387417D01*
X90814971Y-85385999D01*
X90810669Y-85383700D01*
X90806896Y-85380604D01*
X90803800Y-85376831D01*
X90801501Y-85372529D01*
X90800083Y-85367855D01*
X90799000Y-85356859D01*
X90799000Y-84513499D01*
X90796598Y-84489113D01*
X90789485Y-84465664D01*
X90777934Y-84444053D01*
X90762389Y-84425111D01*
X90743447Y-84409566D01*
X90721836Y-84398015D01*
X90698387Y-84390902D01*
X90674001Y-84388500D01*
X89830641Y-84388500D01*
X89819645Y-84387417D01*
X89814971Y-84385999D01*
X89810669Y-84383700D01*
X89806896Y-84380604D01*
X89803800Y-84376831D01*
X89801501Y-84372529D01*
X89800083Y-84367855D01*
X89799000Y-84356859D01*
X89799000Y-84068141D01*
X89800083Y-84057145D01*
X89801501Y-84052471D01*
X89803800Y-84048170D01*
X89809029Y-84041798D01*
X89822643Y-84021424D01*
X89832020Y-83998785D01*
X89836800Y-83974751D01*
X89836800Y-83950247D01*
X89832019Y-83926214D01*
X89822642Y-83903575D01*
X89809029Y-83883202D01*
X89803800Y-83876830D01*
X89801501Y-83872529D01*
X89800083Y-83867855D01*
X89799000Y-83856859D01*
X89799000Y-83568141D01*
X89800083Y-83557145D01*
X89801501Y-83552471D01*
X89803800Y-83548170D01*
X89809029Y-83541798D01*
X89822643Y-83521424D01*
X89832020Y-83498785D01*
X89836800Y-83474751D01*
X89836800Y-83450247D01*
X89832019Y-83426214D01*
X89822642Y-83403575D01*
X89809029Y-83383202D01*
X89803800Y-83376830D01*
X89801501Y-83372529D01*
X89800083Y-83367855D01*
X89799000Y-83356859D01*
X89799000Y-83068141D01*
X89800083Y-83057145D01*
X89801501Y-83052471D01*
X89803800Y-83048170D01*
X89809029Y-83041798D01*
X89822643Y-83021424D01*
X89832020Y-82998785D01*
X89836800Y-82974751D01*
X89836800Y-82950247D01*
X89832019Y-82926214D01*
X89822642Y-82903575D01*
X89809029Y-82883202D01*
X89803800Y-82876830D01*
X89801501Y-82872529D01*
X89800083Y-82867855D01*
X89799000Y-82856859D01*
X89799000Y-82568141D01*
X89800083Y-82557145D01*
X89801501Y-82552471D01*
X89803800Y-82548169D01*
X89806896Y-82544396D01*
X89810669Y-82541300D01*
X89814971Y-82539001D01*
X89819645Y-82537583D01*
X89830641Y-82536500D01*
X90674001Y-82536500D01*
X90698387Y-82534098D01*
X90721836Y-82526985D01*
X90743447Y-82515434D01*
X90762389Y-82499889D01*
X90777934Y-82480947D01*
X90789485Y-82459336D01*
X90796598Y-82435887D01*
X90799000Y-82411501D01*
X90799000Y-81568141D01*
X90800083Y-81557145D01*
X90801501Y-81552471D01*
X90803800Y-81548169D01*
X90806896Y-81544396D01*
X90810669Y-81541300D01*
X90814971Y-81539001D01*
X90819645Y-81537583D01*
X90830641Y-81536500D01*
X91119359Y-81536500D01*
X91130355Y-81537583D01*
X91130355Y-81537583D01*
G37*
G36*
X88804591Y-84078085D02*
G01*
X88838569Y-84088393D01*
X88869890Y-84105134D01*
X88897339Y-84127661D01*
X88919866Y-84155110D01*
X88936607Y-84186431D01*
X88946915Y-84220409D01*
X88951000Y-84261890D01*
X88951000Y-84863110D01*
X88946915Y-84904591D01*
X88936607Y-84938569D01*
X88919866Y-84969890D01*
X88897339Y-84997339D01*
X88869890Y-85019866D01*
X88838569Y-85036607D01*
X88804591Y-85046915D01*
X88763110Y-85051000D01*
X88086890Y-85051000D01*
X88045409Y-85046915D01*
X88011431Y-85036607D01*
X87980110Y-85019866D01*
X87952661Y-84997339D01*
X87930134Y-84969890D01*
X87913393Y-84938569D01*
X87903085Y-84904591D01*
X87899000Y-84863110D01*
X87899000Y-84261890D01*
X87903085Y-84220409D01*
X87913393Y-84186431D01*
X87930134Y-84155110D01*
X87952661Y-84127661D01*
X87980110Y-84105134D01*
X88011431Y-84088393D01*
X88045409Y-84078085D01*
X88086890Y-84074000D01*
X88763110Y-84074000D01*
X88804591Y-84078085D01*
X88804591Y-84078085D01*
G37*
G36*
X95104591Y-84028085D02*
G01*
X95138569Y-84038393D01*
X95169890Y-84055134D01*
X95197339Y-84077661D01*
X95219866Y-84105110D01*
X95236607Y-84136431D01*
X95246915Y-84170409D01*
X95251000Y-84211890D01*
X95251000Y-84813110D01*
X95246915Y-84854591D01*
X95236607Y-84888569D01*
X95219866Y-84919890D01*
X95197339Y-84947339D01*
X95169890Y-84969866D01*
X95138569Y-84986607D01*
X95104591Y-84996915D01*
X95063110Y-85001000D01*
X94386890Y-85001000D01*
X94345409Y-84996915D01*
X94311431Y-84986607D01*
X94280110Y-84969866D01*
X94252661Y-84947339D01*
X94230134Y-84919890D01*
X94213393Y-84888569D01*
X94203085Y-84854591D01*
X94199000Y-84813110D01*
X94199000Y-84211890D01*
X94203085Y-84170409D01*
X94213393Y-84136431D01*
X94230134Y-84105110D01*
X94252661Y-84077661D01*
X94280110Y-84055134D01*
X94311431Y-84038393D01*
X94345409Y-84028085D01*
X94386890Y-84024000D01*
X95063110Y-84024000D01*
X95104591Y-84028085D01*
X95104591Y-84028085D01*
G37*
G36*
X168604591Y-83990585D02*
G01*
X168638569Y-84000893D01*
X168669890Y-84017634D01*
X168697339Y-84040161D01*
X168719866Y-84067610D01*
X168736607Y-84098931D01*
X168746915Y-84132909D01*
X168751000Y-84174390D01*
X168751000Y-84775610D01*
X168746915Y-84817091D01*
X168736607Y-84851069D01*
X168719866Y-84882390D01*
X168697339Y-84909839D01*
X168669890Y-84932366D01*
X168638569Y-84949107D01*
X168604591Y-84959415D01*
X168563110Y-84963500D01*
X167886890Y-84963500D01*
X167845409Y-84959415D01*
X167811431Y-84949107D01*
X167780110Y-84932366D01*
X167752661Y-84909839D01*
X167730134Y-84882390D01*
X167713393Y-84851069D01*
X167703085Y-84817091D01*
X167699000Y-84775610D01*
X167699000Y-84174390D01*
X167703085Y-84132909D01*
X167713393Y-84098931D01*
X167730134Y-84067610D01*
X167752661Y-84040161D01*
X167780110Y-84017634D01*
X167811431Y-84000893D01*
X167845409Y-83990585D01*
X167886890Y-83986500D01*
X168563110Y-83986500D01*
X168604591Y-83990585D01*
X168604591Y-83990585D01*
G37*
G36*
X159479591Y-83965585D02*
G01*
X159513569Y-83975893D01*
X159544890Y-83992634D01*
X159572339Y-84015161D01*
X159594866Y-84042610D01*
X159611607Y-84073931D01*
X159621915Y-84107909D01*
X159626000Y-84149390D01*
X159626000Y-84750610D01*
X159621915Y-84792091D01*
X159611607Y-84826069D01*
X159594866Y-84857390D01*
X159572339Y-84884839D01*
X159544890Y-84907366D01*
X159513569Y-84924107D01*
X159479591Y-84934415D01*
X159438110Y-84938500D01*
X158761890Y-84938500D01*
X158720409Y-84934415D01*
X158686431Y-84924107D01*
X158655110Y-84907366D01*
X158627661Y-84884839D01*
X158605134Y-84857390D01*
X158588393Y-84826069D01*
X158578085Y-84792091D01*
X158574000Y-84750610D01*
X158574000Y-84149390D01*
X158578085Y-84107909D01*
X158588393Y-84073931D01*
X158605134Y-84042610D01*
X158627661Y-84015161D01*
X158655110Y-83992634D01*
X158686431Y-83975893D01*
X158720409Y-83965585D01*
X158761890Y-83961500D01*
X159438110Y-83961500D01*
X159479591Y-83965585D01*
X159479591Y-83965585D01*
G37*
G36*
X132679591Y-83853085D02*
G01*
X132713569Y-83863393D01*
X132744890Y-83880134D01*
X132772339Y-83902661D01*
X132794866Y-83930110D01*
X132811607Y-83961431D01*
X132821915Y-83995409D01*
X132826000Y-84036890D01*
X132826000Y-84638110D01*
X132821915Y-84679591D01*
X132811607Y-84713569D01*
X132794866Y-84744890D01*
X132772339Y-84772339D01*
X132744890Y-84794866D01*
X132713569Y-84811607D01*
X132679591Y-84821915D01*
X132638110Y-84826000D01*
X131961890Y-84826000D01*
X131920409Y-84821915D01*
X131886431Y-84811607D01*
X131855110Y-84794866D01*
X131827661Y-84772339D01*
X131805134Y-84744890D01*
X131788393Y-84713569D01*
X131778085Y-84679591D01*
X131774000Y-84638110D01*
X131774000Y-84036890D01*
X131778085Y-83995409D01*
X131788393Y-83961431D01*
X131805134Y-83930110D01*
X131827661Y-83902661D01*
X131855110Y-83880134D01*
X131886431Y-83863393D01*
X131920409Y-83853085D01*
X131961890Y-83849000D01*
X132638110Y-83849000D01*
X132679591Y-83853085D01*
X132679591Y-83853085D01*
G37*
G36*
X141454591Y-83853085D02*
G01*
X141488569Y-83863393D01*
X141519890Y-83880134D01*
X141547339Y-83902661D01*
X141569866Y-83930110D01*
X141586607Y-83961431D01*
X141596915Y-83995409D01*
X141601000Y-84036890D01*
X141601000Y-84638110D01*
X141596915Y-84679591D01*
X141586607Y-84713569D01*
X141569866Y-84744890D01*
X141547339Y-84772339D01*
X141519890Y-84794866D01*
X141488569Y-84811607D01*
X141454591Y-84821915D01*
X141413110Y-84826000D01*
X140736890Y-84826000D01*
X140695409Y-84821915D01*
X140661431Y-84811607D01*
X140630110Y-84794866D01*
X140602661Y-84772339D01*
X140580134Y-84744890D01*
X140563393Y-84713569D01*
X140553085Y-84679591D01*
X140549000Y-84638110D01*
X140549000Y-84036890D01*
X140553085Y-83995409D01*
X140563393Y-83961431D01*
X140580134Y-83930110D01*
X140602661Y-83902661D01*
X140630110Y-83880134D01*
X140661431Y-83863393D01*
X140695409Y-83853085D01*
X140736890Y-83849000D01*
X141413110Y-83849000D01*
X141454591Y-83853085D01*
X141454591Y-83853085D01*
G37*
G36*
X150404591Y-83840585D02*
G01*
X150438569Y-83850893D01*
X150469890Y-83867634D01*
X150497339Y-83890161D01*
X150519866Y-83917610D01*
X150536607Y-83948931D01*
X150546915Y-83982909D01*
X150551000Y-84024390D01*
X150551000Y-84625610D01*
X150546915Y-84667091D01*
X150536607Y-84701069D01*
X150519866Y-84732390D01*
X150497339Y-84759839D01*
X150469890Y-84782366D01*
X150438569Y-84799107D01*
X150404591Y-84809415D01*
X150363110Y-84813500D01*
X149686890Y-84813500D01*
X149645409Y-84809415D01*
X149611431Y-84799107D01*
X149580110Y-84782366D01*
X149552661Y-84759839D01*
X149530134Y-84732390D01*
X149513393Y-84701069D01*
X149503085Y-84667091D01*
X149499000Y-84625610D01*
X149499000Y-84024390D01*
X149503085Y-83982909D01*
X149513393Y-83948931D01*
X149530134Y-83917610D01*
X149552661Y-83890161D01*
X149580110Y-83867634D01*
X149611431Y-83850893D01*
X149645409Y-83840585D01*
X149686890Y-83836500D01*
X150363110Y-83836500D01*
X150404591Y-83840585D01*
X150404591Y-83840585D01*
G37*
G36*
X171226000Y-84556000D02*
G01*
X170324000Y-84556000D01*
X170324000Y-83554000D01*
X171226000Y-83554000D01*
X171226000Y-84556000D01*
X171226000Y-84556000D01*
G37*
G36*
X162101000Y-84526000D02*
G01*
X161199000Y-84526000D01*
X161199000Y-83524000D01*
X162101000Y-83524000D01*
X162101000Y-84526000D01*
X162101000Y-84526000D01*
G37*
G36*
X144076000Y-84426000D02*
G01*
X143174000Y-84426000D01*
X143174000Y-83424000D01*
X144076000Y-83424000D01*
X144076000Y-84426000D01*
X144076000Y-84426000D01*
G37*
G36*
X135326000Y-84401000D02*
G01*
X134424000Y-84401000D01*
X134424000Y-83399000D01*
X135326000Y-83399000D01*
X135326000Y-84401000D01*
X135326000Y-84401000D01*
G37*
G36*
X153026000Y-84376000D02*
G01*
X152124000Y-84376000D01*
X152124000Y-83374000D01*
X153026000Y-83374000D01*
X153026000Y-84376000D01*
X153026000Y-84376000D01*
G37*
G36*
X95104591Y-82565585D02*
G01*
X95138569Y-82575893D01*
X95169890Y-82592634D01*
X95197339Y-82615161D01*
X95219866Y-82642610D01*
X95236607Y-82673931D01*
X95246915Y-82707909D01*
X95251000Y-82749390D01*
X95251000Y-83350610D01*
X95246915Y-83392091D01*
X95236607Y-83426069D01*
X95219866Y-83457390D01*
X95197339Y-83484839D01*
X95169890Y-83507366D01*
X95138569Y-83524107D01*
X95104591Y-83534415D01*
X95063110Y-83538500D01*
X94386890Y-83538500D01*
X94345409Y-83534415D01*
X94311431Y-83524107D01*
X94280110Y-83507366D01*
X94252661Y-83484839D01*
X94230134Y-83457390D01*
X94213393Y-83426069D01*
X94203085Y-83392091D01*
X94199000Y-83350610D01*
X94199000Y-82749390D01*
X94203085Y-82707909D01*
X94213393Y-82673931D01*
X94230134Y-82642610D01*
X94252661Y-82615161D01*
X94280110Y-82592634D01*
X94311431Y-82575893D01*
X94345409Y-82565585D01*
X94386890Y-82561500D01*
X95063110Y-82561500D01*
X95104591Y-82565585D01*
X95104591Y-82565585D01*
G37*
G36*
X126460443Y-81645519D02*
G01*
X126526627Y-81652037D01*
X126696466Y-81703557D01*
X126696468Y-81703558D01*
X126725825Y-81719250D01*
X126852991Y-81787222D01*
X126858765Y-81791961D01*
X126990186Y-81899814D01*
X127073448Y-82001271D01*
X127102778Y-82037009D01*
X127186443Y-82193534D01*
X127237963Y-82363373D01*
X127255359Y-82540000D01*
X127237963Y-82716627D01*
X127186443Y-82886466D01*
X127102778Y-83042991D01*
X127091162Y-83057145D01*
X126990186Y-83180186D01*
X126888729Y-83263448D01*
X126852991Y-83292778D01*
X126852989Y-83292779D01*
X126701037Y-83374000D01*
X126696466Y-83376443D01*
X126526627Y-83427963D01*
X126467291Y-83433807D01*
X126394260Y-83441000D01*
X126305740Y-83441000D01*
X126232709Y-83433807D01*
X126173373Y-83427963D01*
X126003534Y-83376443D01*
X125998964Y-83374000D01*
X125847011Y-83292779D01*
X125847009Y-83292778D01*
X125811271Y-83263448D01*
X125709814Y-83180186D01*
X125608838Y-83057145D01*
X125597222Y-83042991D01*
X125513557Y-82886466D01*
X125462037Y-82716627D01*
X125444641Y-82540000D01*
X125462037Y-82363373D01*
X125513557Y-82193534D01*
X125597222Y-82037009D01*
X125626552Y-82001271D01*
X125709814Y-81899814D01*
X125841235Y-81791961D01*
X125847009Y-81787222D01*
X125974175Y-81719250D01*
X126003532Y-81703558D01*
X126003534Y-81703557D01*
X126173373Y-81652037D01*
X126239557Y-81645519D01*
X126305740Y-81639000D01*
X126394260Y-81639000D01*
X126460443Y-81645519D01*
X126460443Y-81645519D01*
G37*
G36*
X123920443Y-81645519D02*
G01*
X123986627Y-81652037D01*
X124156466Y-81703557D01*
X124156468Y-81703558D01*
X124185825Y-81719250D01*
X124312991Y-81787222D01*
X124318765Y-81791961D01*
X124450186Y-81899814D01*
X124533448Y-82001271D01*
X124562778Y-82037009D01*
X124646443Y-82193534D01*
X124697963Y-82363373D01*
X124715359Y-82540000D01*
X124697963Y-82716627D01*
X124646443Y-82886466D01*
X124562778Y-83042991D01*
X124551162Y-83057145D01*
X124450186Y-83180186D01*
X124348729Y-83263448D01*
X124312991Y-83292778D01*
X124312989Y-83292779D01*
X124161037Y-83374000D01*
X124156466Y-83376443D01*
X123986627Y-83427963D01*
X123927291Y-83433807D01*
X123854260Y-83441000D01*
X123765740Y-83441000D01*
X123692709Y-83433807D01*
X123633373Y-83427963D01*
X123463534Y-83376443D01*
X123458964Y-83374000D01*
X123307011Y-83292779D01*
X123307009Y-83292778D01*
X123271271Y-83263448D01*
X123169814Y-83180186D01*
X123068838Y-83057145D01*
X123057222Y-83042991D01*
X122973557Y-82886466D01*
X122922037Y-82716627D01*
X122904641Y-82540000D01*
X122922037Y-82363373D01*
X122973557Y-82193534D01*
X123057222Y-82037009D01*
X123086552Y-82001271D01*
X123169814Y-81899814D01*
X123301235Y-81791961D01*
X123307009Y-81787222D01*
X123434175Y-81719250D01*
X123463532Y-81703558D01*
X123463534Y-81703557D01*
X123633373Y-81652037D01*
X123699557Y-81645519D01*
X123765740Y-81639000D01*
X123854260Y-81639000D01*
X123920443Y-81645519D01*
X123920443Y-81645519D01*
G37*
G36*
X121380443Y-81645519D02*
G01*
X121446627Y-81652037D01*
X121616466Y-81703557D01*
X121616468Y-81703558D01*
X121645825Y-81719250D01*
X121772991Y-81787222D01*
X121778765Y-81791961D01*
X121910186Y-81899814D01*
X121993448Y-82001271D01*
X122022778Y-82037009D01*
X122106443Y-82193534D01*
X122157963Y-82363373D01*
X122175359Y-82540000D01*
X122157963Y-82716627D01*
X122106443Y-82886466D01*
X122022778Y-83042991D01*
X122011162Y-83057145D01*
X121910186Y-83180186D01*
X121808729Y-83263448D01*
X121772991Y-83292778D01*
X121772989Y-83292779D01*
X121621037Y-83374000D01*
X121616466Y-83376443D01*
X121446627Y-83427963D01*
X121387291Y-83433807D01*
X121314260Y-83441000D01*
X121225740Y-83441000D01*
X121152709Y-83433807D01*
X121093373Y-83427963D01*
X120923534Y-83376443D01*
X120918964Y-83374000D01*
X120767011Y-83292779D01*
X120767009Y-83292778D01*
X120731271Y-83263448D01*
X120629814Y-83180186D01*
X120528838Y-83057145D01*
X120517222Y-83042991D01*
X120433557Y-82886466D01*
X120382037Y-82716627D01*
X120364641Y-82540000D01*
X120382037Y-82363373D01*
X120433557Y-82193534D01*
X120517222Y-82037009D01*
X120546552Y-82001271D01*
X120629814Y-81899814D01*
X120761235Y-81791961D01*
X120767009Y-81787222D01*
X120894175Y-81719250D01*
X120923532Y-81703558D01*
X120923534Y-81703557D01*
X121093373Y-81652037D01*
X121159557Y-81645519D01*
X121225740Y-81639000D01*
X121314260Y-81639000D01*
X121380443Y-81645519D01*
X121380443Y-81645519D01*
G37*
G36*
X88854591Y-82465585D02*
G01*
X88888569Y-82475893D01*
X88919890Y-82492634D01*
X88947339Y-82515161D01*
X88969866Y-82542610D01*
X88986607Y-82573931D01*
X88996915Y-82607909D01*
X89001000Y-82649390D01*
X89001000Y-83250610D01*
X88996915Y-83292091D01*
X88986607Y-83326069D01*
X88969866Y-83357390D01*
X88947339Y-83384839D01*
X88919890Y-83407366D01*
X88888569Y-83424107D01*
X88854591Y-83434415D01*
X88813110Y-83438500D01*
X88136890Y-83438500D01*
X88095409Y-83434415D01*
X88061431Y-83424107D01*
X88030110Y-83407366D01*
X88002661Y-83384839D01*
X87980134Y-83357390D01*
X87963393Y-83326069D01*
X87953085Y-83292091D01*
X87949000Y-83250610D01*
X87949000Y-82649390D01*
X87953085Y-82607909D01*
X87963393Y-82573931D01*
X87980134Y-82542610D01*
X88002661Y-82515161D01*
X88030110Y-82492634D01*
X88061431Y-82475893D01*
X88095409Y-82465585D01*
X88136890Y-82461500D01*
X88813110Y-82461500D01*
X88854591Y-82465585D01*
X88854591Y-82465585D01*
G37*
G36*
X108492091Y-81478085D02*
G01*
X108526069Y-81488393D01*
X108557390Y-81505134D01*
X108584839Y-81527661D01*
X108607366Y-81555110D01*
X108624107Y-81586431D01*
X108634415Y-81620409D01*
X108638500Y-81661890D01*
X108638500Y-82338110D01*
X108634415Y-82379591D01*
X108624107Y-82413569D01*
X108607366Y-82444890D01*
X108584839Y-82472339D01*
X108557390Y-82494866D01*
X108526069Y-82511607D01*
X108492091Y-82521915D01*
X108450610Y-82526000D01*
X107849390Y-82526000D01*
X107807909Y-82521915D01*
X107773931Y-82511607D01*
X107742610Y-82494866D01*
X107715161Y-82472339D01*
X107692634Y-82444890D01*
X107675893Y-82413569D01*
X107665585Y-82379591D01*
X107661500Y-82338110D01*
X107661500Y-81661890D01*
X107665585Y-81620409D01*
X107675893Y-81586431D01*
X107692634Y-81555110D01*
X107715161Y-81527661D01*
X107742610Y-81505134D01*
X107773931Y-81488393D01*
X107807909Y-81478085D01*
X107849390Y-81474000D01*
X108450610Y-81474000D01*
X108492091Y-81478085D01*
X108492091Y-81478085D01*
G37*
G36*
X106917091Y-81478085D02*
G01*
X106951069Y-81488393D01*
X106982390Y-81505134D01*
X107009839Y-81527661D01*
X107032366Y-81555110D01*
X107049107Y-81586431D01*
X107059415Y-81620409D01*
X107063500Y-81661890D01*
X107063500Y-82338110D01*
X107059415Y-82379591D01*
X107049107Y-82413569D01*
X107032366Y-82444890D01*
X107009839Y-82472339D01*
X106982390Y-82494866D01*
X106951069Y-82511607D01*
X106917091Y-82521915D01*
X106875610Y-82526000D01*
X106274390Y-82526000D01*
X106232909Y-82521915D01*
X106198931Y-82511607D01*
X106167610Y-82494866D01*
X106140161Y-82472339D01*
X106117634Y-82444890D01*
X106100893Y-82413569D01*
X106090585Y-82379591D01*
X106086500Y-82338110D01*
X106086500Y-81661890D01*
X106090585Y-81620409D01*
X106100893Y-81586431D01*
X106117634Y-81555110D01*
X106140161Y-81527661D01*
X106167610Y-81505134D01*
X106198931Y-81488393D01*
X106232909Y-81478085D01*
X106274390Y-81474000D01*
X106875610Y-81474000D01*
X106917091Y-81478085D01*
X106917091Y-81478085D01*
G37*
G36*
X95104591Y-80990585D02*
G01*
X95138569Y-81000893D01*
X95169890Y-81017634D01*
X95197339Y-81040161D01*
X95219866Y-81067610D01*
X95236607Y-81098931D01*
X95246915Y-81132909D01*
X95251000Y-81174390D01*
X95251000Y-81775610D01*
X95246915Y-81817091D01*
X95236607Y-81851069D01*
X95219866Y-81882390D01*
X95197339Y-81909839D01*
X95169890Y-81932366D01*
X95138569Y-81949107D01*
X95104591Y-81959415D01*
X95063110Y-81963500D01*
X94386890Y-81963500D01*
X94345409Y-81959415D01*
X94311431Y-81949107D01*
X94280110Y-81932366D01*
X94252661Y-81909839D01*
X94230134Y-81882390D01*
X94213393Y-81851069D01*
X94203085Y-81817091D01*
X94199000Y-81775610D01*
X94199000Y-81174390D01*
X94203085Y-81132909D01*
X94213393Y-81098931D01*
X94230134Y-81067610D01*
X94252661Y-81040161D01*
X94280110Y-81017634D01*
X94311431Y-81000893D01*
X94345409Y-80990585D01*
X94386890Y-80986500D01*
X95063110Y-80986500D01*
X95104591Y-80990585D01*
X95104591Y-80990585D01*
G37*
G36*
X88854591Y-80890585D02*
G01*
X88888569Y-80900893D01*
X88919890Y-80917634D01*
X88947339Y-80940161D01*
X88969866Y-80967610D01*
X88986607Y-80998931D01*
X88996915Y-81032909D01*
X89001000Y-81074390D01*
X89001000Y-81675610D01*
X88996915Y-81717091D01*
X88986607Y-81751069D01*
X88969866Y-81782390D01*
X88947339Y-81809839D01*
X88919890Y-81832366D01*
X88888569Y-81849107D01*
X88854591Y-81859415D01*
X88813110Y-81863500D01*
X88136890Y-81863500D01*
X88095409Y-81859415D01*
X88061431Y-81849107D01*
X88030110Y-81832366D01*
X88002661Y-81809839D01*
X87980134Y-81782390D01*
X87963393Y-81751069D01*
X87953085Y-81717091D01*
X87949000Y-81675610D01*
X87949000Y-81074390D01*
X87953085Y-81032909D01*
X87963393Y-80998931D01*
X87980134Y-80967610D01*
X88002661Y-80940161D01*
X88030110Y-80917634D01*
X88061431Y-80900893D01*
X88095409Y-80890585D01*
X88136890Y-80886500D01*
X88813110Y-80886500D01*
X88854591Y-80890585D01*
X88854591Y-80890585D01*
G37*
G36*
X99176627Y-79462037D02*
G01*
X99346466Y-79513557D01*
X99502991Y-79597222D01*
X99538729Y-79626552D01*
X99640186Y-79709814D01*
X99717097Y-79803532D01*
X99752778Y-79847009D01*
X99836443Y-80003534D01*
X99887963Y-80173374D01*
X99887963Y-80173376D01*
X99898703Y-80282415D01*
X99901000Y-80305743D01*
X99901000Y-80694258D01*
X99887963Y-80826627D01*
X99836443Y-80996466D01*
X99752778Y-81152991D01*
X99735216Y-81174390D01*
X99640186Y-81290186D01*
X99502989Y-81402779D01*
X99369744Y-81474000D01*
X99346465Y-81486443D01*
X99176626Y-81537963D01*
X99000000Y-81555359D01*
X98823373Y-81537963D01*
X98653534Y-81486443D01*
X98497009Y-81402778D01*
X98439229Y-81355359D01*
X98359814Y-81290186D01*
X98247221Y-81152989D01*
X98163558Y-80996467D01*
X98163557Y-80996465D01*
X98112037Y-80826626D01*
X98099000Y-80694257D01*
X98099000Y-80305742D01*
X98112037Y-80173373D01*
X98163557Y-80003534D01*
X98179679Y-79973373D01*
X98247221Y-79847011D01*
X98247222Y-79847009D01*
X98359815Y-79709815D01*
X98497010Y-79597222D01*
X98653535Y-79513557D01*
X98823374Y-79462037D01*
X99000000Y-79444641D01*
X99176627Y-79462037D01*
X99176627Y-79462037D01*
G37*
G36*
X102258600Y-79452989D02*
G01*
X102291652Y-79463015D01*
X102322103Y-79479292D01*
X102348799Y-79501201D01*
X102370708Y-79527897D01*
X102386985Y-79558348D01*
X102397011Y-79591400D01*
X102401000Y-79631903D01*
X102401000Y-81368097D01*
X102397011Y-81408600D01*
X102386985Y-81441652D01*
X102370708Y-81472103D01*
X102348799Y-81498799D01*
X102322103Y-81520708D01*
X102291652Y-81536985D01*
X102258600Y-81547011D01*
X102218097Y-81551000D01*
X100781903Y-81551000D01*
X100741400Y-81547011D01*
X100708348Y-81536985D01*
X100677897Y-81520708D01*
X100651201Y-81498799D01*
X100629292Y-81472103D01*
X100613015Y-81441652D01*
X100602989Y-81408600D01*
X100599000Y-81368097D01*
X100599000Y-79631903D01*
X100602989Y-79591400D01*
X100613015Y-79558348D01*
X100629292Y-79527897D01*
X100651201Y-79501201D01*
X100677897Y-79479292D01*
X100708348Y-79463015D01*
X100741400Y-79452989D01*
X100781903Y-79449000D01*
X102218097Y-79449000D01*
X102258600Y-79452989D01*
X102258600Y-79452989D01*
G37*
G36*
X133526627Y-79262037D02*
G01*
X133696466Y-79313557D01*
X133852991Y-79397222D01*
X133888729Y-79426552D01*
X133990186Y-79509814D01*
X134057141Y-79591400D01*
X134102778Y-79647009D01*
X134186443Y-79803534D01*
X134237963Y-79973374D01*
X134251000Y-80105743D01*
X134251000Y-80494258D01*
X134237963Y-80626627D01*
X134199695Y-80752779D01*
X134186442Y-80796468D01*
X134165075Y-80836442D01*
X134102778Y-80952991D01*
X134098635Y-80958039D01*
X133990186Y-81090186D01*
X133852989Y-81202779D01*
X133697294Y-81286000D01*
X133696465Y-81286443D01*
X133526626Y-81337963D01*
X133350000Y-81355359D01*
X133173373Y-81337963D01*
X133003534Y-81286443D01*
X132847009Y-81202778D01*
X132804750Y-81168097D01*
X132709814Y-81090186D01*
X132597221Y-80952989D01*
X132513558Y-80796467D01*
X132482554Y-80694260D01*
X132462037Y-80626626D01*
X132449000Y-80494257D01*
X132449000Y-80105742D01*
X132454392Y-80051000D01*
X132455676Y-80037963D01*
X132462037Y-79973373D01*
X132513557Y-79803534D01*
X132597222Y-79647009D01*
X132709815Y-79509815D01*
X132847010Y-79397222D01*
X133003535Y-79313557D01*
X133173374Y-79262037D01*
X133350000Y-79244641D01*
X133526627Y-79262037D01*
X133526627Y-79262037D01*
G37*
G36*
X169526627Y-79262037D02*
G01*
X169696466Y-79313557D01*
X169852991Y-79397222D01*
X169888729Y-79426552D01*
X169990186Y-79509814D01*
X170057141Y-79591400D01*
X170102778Y-79647009D01*
X170186443Y-79803534D01*
X170237963Y-79973374D01*
X170251000Y-80105743D01*
X170251000Y-80494258D01*
X170237963Y-80626627D01*
X170199695Y-80752779D01*
X170186442Y-80796468D01*
X170165075Y-80836442D01*
X170102778Y-80952991D01*
X170098635Y-80958039D01*
X169990186Y-81090186D01*
X169852989Y-81202779D01*
X169697294Y-81286000D01*
X169696465Y-81286443D01*
X169526626Y-81337963D01*
X169350000Y-81355359D01*
X169173373Y-81337963D01*
X169003534Y-81286443D01*
X168847009Y-81202778D01*
X168804750Y-81168097D01*
X168709814Y-81090186D01*
X168597221Y-80952989D01*
X168513558Y-80796467D01*
X168482554Y-80694260D01*
X168462037Y-80626626D01*
X168449000Y-80494257D01*
X168449000Y-80105742D01*
X168454392Y-80051000D01*
X168455676Y-80037963D01*
X168462037Y-79973373D01*
X168513557Y-79803534D01*
X168597222Y-79647009D01*
X168709815Y-79509815D01*
X168847010Y-79397222D01*
X169003535Y-79313557D01*
X169173374Y-79262037D01*
X169350000Y-79244641D01*
X169526627Y-79262037D01*
X169526627Y-79262037D01*
G37*
G36*
X142526627Y-79262037D02*
G01*
X142696466Y-79313557D01*
X142852991Y-79397222D01*
X142888729Y-79426552D01*
X142990186Y-79509814D01*
X143057141Y-79591400D01*
X143102778Y-79647009D01*
X143186443Y-79803534D01*
X143237963Y-79973374D01*
X143251000Y-80105743D01*
X143251000Y-80494258D01*
X143237963Y-80626627D01*
X143199695Y-80752779D01*
X143186442Y-80796468D01*
X143165075Y-80836442D01*
X143102778Y-80952991D01*
X143098635Y-80958039D01*
X142990186Y-81090186D01*
X142852989Y-81202779D01*
X142697294Y-81286000D01*
X142696465Y-81286443D01*
X142526626Y-81337963D01*
X142350000Y-81355359D01*
X142173373Y-81337963D01*
X142003534Y-81286443D01*
X141847009Y-81202778D01*
X141804750Y-81168097D01*
X141709814Y-81090186D01*
X141597221Y-80952989D01*
X141513558Y-80796467D01*
X141482554Y-80694260D01*
X141462037Y-80626626D01*
X141449000Y-80494257D01*
X141449000Y-80105742D01*
X141454392Y-80051000D01*
X141455676Y-80037963D01*
X141462037Y-79973373D01*
X141513557Y-79803534D01*
X141597222Y-79647009D01*
X141709815Y-79509815D01*
X141847010Y-79397222D01*
X142003535Y-79313557D01*
X142173374Y-79262037D01*
X142350000Y-79244641D01*
X142526627Y-79262037D01*
X142526627Y-79262037D01*
G37*
G36*
X160526627Y-79262037D02*
G01*
X160696466Y-79313557D01*
X160852991Y-79397222D01*
X160888729Y-79426552D01*
X160990186Y-79509814D01*
X161057141Y-79591400D01*
X161102778Y-79647009D01*
X161186443Y-79803534D01*
X161237963Y-79973374D01*
X161251000Y-80105743D01*
X161251000Y-80494258D01*
X161237963Y-80626627D01*
X161199695Y-80752779D01*
X161186442Y-80796468D01*
X161165075Y-80836442D01*
X161102778Y-80952991D01*
X161098635Y-80958039D01*
X160990186Y-81090186D01*
X160852989Y-81202779D01*
X160697294Y-81286000D01*
X160696465Y-81286443D01*
X160526626Y-81337963D01*
X160350000Y-81355359D01*
X160173373Y-81337963D01*
X160003534Y-81286443D01*
X159847009Y-81202778D01*
X159804750Y-81168097D01*
X159709814Y-81090186D01*
X159597221Y-80952989D01*
X159513558Y-80796467D01*
X159482554Y-80694260D01*
X159462037Y-80626626D01*
X159449000Y-80494257D01*
X159449000Y-80105742D01*
X159454392Y-80051000D01*
X159455676Y-80037963D01*
X159462037Y-79973373D01*
X159513557Y-79803534D01*
X159597222Y-79647009D01*
X159709815Y-79509815D01*
X159847010Y-79397222D01*
X160003535Y-79313557D01*
X160173374Y-79262037D01*
X160350000Y-79244641D01*
X160526627Y-79262037D01*
X160526627Y-79262037D01*
G37*
G36*
X151526627Y-79262037D02*
G01*
X151696466Y-79313557D01*
X151852991Y-79397222D01*
X151888729Y-79426552D01*
X151990186Y-79509814D01*
X152057141Y-79591400D01*
X152102778Y-79647009D01*
X152186443Y-79803534D01*
X152237963Y-79973374D01*
X152251000Y-80105743D01*
X152251000Y-80494258D01*
X152237963Y-80626627D01*
X152199695Y-80752779D01*
X152186442Y-80796468D01*
X152165075Y-80836442D01*
X152102778Y-80952991D01*
X152098635Y-80958039D01*
X151990186Y-81090186D01*
X151852989Y-81202779D01*
X151697294Y-81286000D01*
X151696465Y-81286443D01*
X151526626Y-81337963D01*
X151350000Y-81355359D01*
X151173373Y-81337963D01*
X151003534Y-81286443D01*
X150847009Y-81202778D01*
X150804750Y-81168097D01*
X150709814Y-81090186D01*
X150597221Y-80952989D01*
X150513558Y-80796467D01*
X150482554Y-80694260D01*
X150462037Y-80626626D01*
X150449000Y-80494257D01*
X150449000Y-80105742D01*
X150454392Y-80051000D01*
X150455676Y-80037963D01*
X150462037Y-79973373D01*
X150513557Y-79803534D01*
X150597222Y-79647009D01*
X150709815Y-79509815D01*
X150847010Y-79397222D01*
X151003535Y-79313557D01*
X151173374Y-79262037D01*
X151350000Y-79244641D01*
X151526627Y-79262037D01*
X151526627Y-79262037D01*
G37*
G36*
X172608600Y-79252989D02*
G01*
X172641652Y-79263015D01*
X172672103Y-79279292D01*
X172698799Y-79301201D01*
X172720708Y-79327897D01*
X172736985Y-79358348D01*
X172747011Y-79391400D01*
X172751000Y-79431903D01*
X172751000Y-81168097D01*
X172747011Y-81208600D01*
X172736985Y-81241652D01*
X172720708Y-81272103D01*
X172698799Y-81298799D01*
X172672103Y-81320708D01*
X172641652Y-81336985D01*
X172608600Y-81347011D01*
X172568097Y-81351000D01*
X171131903Y-81351000D01*
X171091400Y-81347011D01*
X171058348Y-81336985D01*
X171027897Y-81320708D01*
X171001201Y-81298799D01*
X170979292Y-81272103D01*
X170963015Y-81241652D01*
X170952989Y-81208600D01*
X170949000Y-81168097D01*
X170949000Y-79431903D01*
X170952989Y-79391400D01*
X170963015Y-79358348D01*
X170979292Y-79327897D01*
X171001201Y-79301201D01*
X171027897Y-79279292D01*
X171058348Y-79263015D01*
X171091400Y-79252989D01*
X171131903Y-79249000D01*
X172568097Y-79249000D01*
X172608600Y-79252989D01*
X172608600Y-79252989D01*
G37*
G36*
X163608600Y-79252989D02*
G01*
X163641652Y-79263015D01*
X163672103Y-79279292D01*
X163698799Y-79301201D01*
X163720708Y-79327897D01*
X163736985Y-79358348D01*
X163747011Y-79391400D01*
X163751000Y-79431903D01*
X163751000Y-81168097D01*
X163747011Y-81208600D01*
X163736985Y-81241652D01*
X163720708Y-81272103D01*
X163698799Y-81298799D01*
X163672103Y-81320708D01*
X163641652Y-81336985D01*
X163608600Y-81347011D01*
X163568097Y-81351000D01*
X162131903Y-81351000D01*
X162091400Y-81347011D01*
X162058348Y-81336985D01*
X162027897Y-81320708D01*
X162001201Y-81298799D01*
X161979292Y-81272103D01*
X161963015Y-81241652D01*
X161952989Y-81208600D01*
X161949000Y-81168097D01*
X161949000Y-79431903D01*
X161952989Y-79391400D01*
X161963015Y-79358348D01*
X161979292Y-79327897D01*
X162001201Y-79301201D01*
X162027897Y-79279292D01*
X162058348Y-79263015D01*
X162091400Y-79252989D01*
X162131903Y-79249000D01*
X163568097Y-79249000D01*
X163608600Y-79252989D01*
X163608600Y-79252989D01*
G37*
G36*
X136608600Y-79252989D02*
G01*
X136641652Y-79263015D01*
X136672103Y-79279292D01*
X136698799Y-79301201D01*
X136720708Y-79327897D01*
X136736985Y-79358348D01*
X136747011Y-79391400D01*
X136751000Y-79431903D01*
X136751000Y-81168097D01*
X136747011Y-81208600D01*
X136736985Y-81241652D01*
X136720708Y-81272103D01*
X136698799Y-81298799D01*
X136672103Y-81320708D01*
X136641652Y-81336985D01*
X136608600Y-81347011D01*
X136568097Y-81351000D01*
X135131903Y-81351000D01*
X135091400Y-81347011D01*
X135058348Y-81336985D01*
X135027897Y-81320708D01*
X135001201Y-81298799D01*
X134979292Y-81272103D01*
X134963015Y-81241652D01*
X134952989Y-81208600D01*
X134949000Y-81168097D01*
X134949000Y-79431903D01*
X134952989Y-79391400D01*
X134963015Y-79358348D01*
X134979292Y-79327897D01*
X135001201Y-79301201D01*
X135027897Y-79279292D01*
X135058348Y-79263015D01*
X135091400Y-79252989D01*
X135131903Y-79249000D01*
X136568097Y-79249000D01*
X136608600Y-79252989D01*
X136608600Y-79252989D01*
G37*
G36*
X154608600Y-79252989D02*
G01*
X154641652Y-79263015D01*
X154672103Y-79279292D01*
X154698799Y-79301201D01*
X154720708Y-79327897D01*
X154736985Y-79358348D01*
X154747011Y-79391400D01*
X154751000Y-79431903D01*
X154751000Y-81168097D01*
X154747011Y-81208600D01*
X154736985Y-81241652D01*
X154720708Y-81272103D01*
X154698799Y-81298799D01*
X154672103Y-81320708D01*
X154641652Y-81336985D01*
X154608600Y-81347011D01*
X154568097Y-81351000D01*
X153131903Y-81351000D01*
X153091400Y-81347011D01*
X153058348Y-81336985D01*
X153027897Y-81320708D01*
X153001201Y-81298799D01*
X152979292Y-81272103D01*
X152963015Y-81241652D01*
X152952989Y-81208600D01*
X152949000Y-81168097D01*
X152949000Y-79431903D01*
X152952989Y-79391400D01*
X152963015Y-79358348D01*
X152979292Y-79327897D01*
X153001201Y-79301201D01*
X153027897Y-79279292D01*
X153058348Y-79263015D01*
X153091400Y-79252989D01*
X153131903Y-79249000D01*
X154568097Y-79249000D01*
X154608600Y-79252989D01*
X154608600Y-79252989D01*
G37*
G36*
X145608600Y-79252989D02*
G01*
X145641652Y-79263015D01*
X145672103Y-79279292D01*
X145698799Y-79301201D01*
X145720708Y-79327897D01*
X145736985Y-79358348D01*
X145747011Y-79391400D01*
X145751000Y-79431903D01*
X145751000Y-81168097D01*
X145747011Y-81208600D01*
X145736985Y-81241652D01*
X145720708Y-81272103D01*
X145698799Y-81298799D01*
X145672103Y-81320708D01*
X145641652Y-81336985D01*
X145608600Y-81347011D01*
X145568097Y-81351000D01*
X144131903Y-81351000D01*
X144091400Y-81347011D01*
X144058348Y-81336985D01*
X144027897Y-81320708D01*
X144001201Y-81298799D01*
X143979292Y-81272103D01*
X143963015Y-81241652D01*
X143952989Y-81208600D01*
X143949000Y-81168097D01*
X143949000Y-79431903D01*
X143952989Y-79391400D01*
X143963015Y-79358348D01*
X143979292Y-79327897D01*
X144001201Y-79301201D01*
X144027897Y-79279292D01*
X144058348Y-79263015D01*
X144091400Y-79252989D01*
X144131903Y-79249000D01*
X145568097Y-79249000D01*
X145608600Y-79252989D01*
X145608600Y-79252989D01*
G37*
G36*
X121380442Y-79105518D02*
G01*
X121446627Y-79112037D01*
X121616466Y-79163557D01*
X121772991Y-79247222D01*
X121799737Y-79269172D01*
X121910186Y-79359814D01*
X121987557Y-79454092D01*
X122022778Y-79497009D01*
X122106443Y-79653534D01*
X122157963Y-79823373D01*
X122175359Y-80000000D01*
X122157963Y-80176627D01*
X122106443Y-80346466D01*
X122022778Y-80502991D01*
X121993448Y-80538729D01*
X121910186Y-80640186D01*
X121808729Y-80723448D01*
X121772991Y-80752778D01*
X121616466Y-80836443D01*
X121446627Y-80887963D01*
X121380442Y-80894482D01*
X121314260Y-80901000D01*
X121225740Y-80901000D01*
X121159558Y-80894482D01*
X121093373Y-80887963D01*
X120923534Y-80836443D01*
X120767009Y-80752778D01*
X120731271Y-80723448D01*
X120629814Y-80640186D01*
X120546552Y-80538729D01*
X120517222Y-80502991D01*
X120433557Y-80346466D01*
X120382037Y-80176627D01*
X120364641Y-80000000D01*
X120382037Y-79823373D01*
X120433557Y-79653534D01*
X120517222Y-79497009D01*
X120552443Y-79454092D01*
X120629814Y-79359814D01*
X120740263Y-79269172D01*
X120767009Y-79247222D01*
X120923534Y-79163557D01*
X121093373Y-79112037D01*
X121159558Y-79105518D01*
X121225740Y-79099000D01*
X121314260Y-79099000D01*
X121380442Y-79105518D01*
X121380442Y-79105518D01*
G37*
G36*
X123920442Y-79105518D02*
G01*
X123986627Y-79112037D01*
X124156466Y-79163557D01*
X124312991Y-79247222D01*
X124339737Y-79269172D01*
X124450186Y-79359814D01*
X124527557Y-79454092D01*
X124562778Y-79497009D01*
X124646443Y-79653534D01*
X124697963Y-79823373D01*
X124715359Y-80000000D01*
X124697963Y-80176627D01*
X124646443Y-80346466D01*
X124562778Y-80502991D01*
X124533448Y-80538729D01*
X124450186Y-80640186D01*
X124348729Y-80723448D01*
X124312991Y-80752778D01*
X124156466Y-80836443D01*
X123986627Y-80887963D01*
X123920442Y-80894482D01*
X123854260Y-80901000D01*
X123765740Y-80901000D01*
X123699558Y-80894482D01*
X123633373Y-80887963D01*
X123463534Y-80836443D01*
X123307009Y-80752778D01*
X123271271Y-80723448D01*
X123169814Y-80640186D01*
X123086552Y-80538729D01*
X123057222Y-80502991D01*
X122973557Y-80346466D01*
X122922037Y-80176627D01*
X122904641Y-80000000D01*
X122922037Y-79823373D01*
X122973557Y-79653534D01*
X123057222Y-79497009D01*
X123092443Y-79454092D01*
X123169814Y-79359814D01*
X123280263Y-79269172D01*
X123307009Y-79247222D01*
X123463534Y-79163557D01*
X123633373Y-79112037D01*
X123699558Y-79105518D01*
X123765740Y-79099000D01*
X123854260Y-79099000D01*
X123920442Y-79105518D01*
X123920442Y-79105518D01*
G37*
G36*
X127251000Y-80901000D02*
G01*
X125449000Y-80901000D01*
X125449000Y-79099000D01*
X127251000Y-79099000D01*
X127251000Y-80901000D01*
X127251000Y-80901000D01*
G37*
G36*
X178875256Y-77391298D02*
G01*
X178981579Y-77412447D01*
X179282042Y-77536903D01*
X179552451Y-77717585D01*
X179782415Y-77947549D01*
X179963097Y-78217958D01*
X180083988Y-78509814D01*
X180087553Y-78518422D01*
X180151000Y-78837389D01*
X180151000Y-79162611D01*
X180118377Y-79326617D01*
X180087553Y-79481579D01*
X179963097Y-79782042D01*
X179782415Y-80052451D01*
X179552451Y-80282415D01*
X179282042Y-80463097D01*
X178981579Y-80587553D01*
X178875256Y-80608702D01*
X178662611Y-80651000D01*
X178337389Y-80651000D01*
X178124744Y-80608702D01*
X178018421Y-80587553D01*
X177717958Y-80463097D01*
X177447549Y-80282415D01*
X177217585Y-80052451D01*
X177036903Y-79782042D01*
X176912447Y-79481579D01*
X176881623Y-79326617D01*
X176849000Y-79162611D01*
X176849000Y-78837389D01*
X176912447Y-78518422D01*
X176916013Y-78509814D01*
X177036903Y-78217958D01*
X177217585Y-77947549D01*
X177447549Y-77717585D01*
X177717958Y-77536903D01*
X178018421Y-77412447D01*
X178124744Y-77391298D01*
X178337389Y-77349000D01*
X178662611Y-77349000D01*
X178875256Y-77391298D01*
X178875256Y-77391298D01*
G37*
G36*
X83875256Y-77391298D02*
G01*
X83981579Y-77412447D01*
X84282042Y-77536903D01*
X84552451Y-77717585D01*
X84782415Y-77947549D01*
X84963097Y-78217958D01*
X85083988Y-78509814D01*
X85087553Y-78518422D01*
X85151000Y-78837389D01*
X85151000Y-79162611D01*
X85118377Y-79326617D01*
X85087553Y-79481579D01*
X84963097Y-79782042D01*
X84782415Y-80052451D01*
X84552451Y-80282415D01*
X84282042Y-80463097D01*
X83981579Y-80587553D01*
X83875256Y-80608702D01*
X83662611Y-80651000D01*
X83337389Y-80651000D01*
X83124744Y-80608702D01*
X83018421Y-80587553D01*
X82717958Y-80463097D01*
X82447549Y-80282415D01*
X82217585Y-80052451D01*
X82036903Y-79782042D01*
X81912447Y-79481579D01*
X81881623Y-79326617D01*
X81849000Y-79162611D01*
X81849000Y-78837389D01*
X81912447Y-78518422D01*
X81916013Y-78509814D01*
X82036903Y-78217958D01*
X82217585Y-77947549D01*
X82447549Y-77717585D01*
X82717958Y-77536903D01*
X83018421Y-77412447D01*
X83124744Y-77391298D01*
X83337389Y-77349000D01*
X83662611Y-77349000D01*
X83875256Y-77391298D01*
X83875256Y-77391298D01*
G37*
G36*
X117651000Y-80051000D02*
G01*
X115849000Y-80051000D01*
X115849000Y-78249000D01*
X117651000Y-78249000D01*
X117651000Y-80051000D01*
X117651000Y-80051000D01*
G37*
G36*
X114320442Y-78255518D02*
G01*
X114386627Y-78262037D01*
X114556466Y-78313557D01*
X114712991Y-78397222D01*
X114748729Y-78426552D01*
X114850186Y-78509814D01*
X114933448Y-78611271D01*
X114962778Y-78647009D01*
X115046443Y-78803534D01*
X115097963Y-78973373D01*
X115115359Y-79150000D01*
X115097963Y-79326627D01*
X115046443Y-79496466D01*
X114962778Y-79652991D01*
X114962332Y-79653534D01*
X114850186Y-79790186D01*
X114748729Y-79873448D01*
X114712991Y-79902778D01*
X114712989Y-79902779D01*
X114580913Y-79973376D01*
X114556466Y-79986443D01*
X114386627Y-80037963D01*
X114320442Y-80044482D01*
X114254260Y-80051000D01*
X114165740Y-80051000D01*
X114099558Y-80044482D01*
X114033373Y-80037963D01*
X113863534Y-79986443D01*
X113839088Y-79973376D01*
X113707011Y-79902779D01*
X113707009Y-79902778D01*
X113671271Y-79873448D01*
X113569814Y-79790186D01*
X113457668Y-79653534D01*
X113457222Y-79652991D01*
X113373557Y-79496466D01*
X113322037Y-79326627D01*
X113304641Y-79150000D01*
X113322037Y-78973373D01*
X113373557Y-78803534D01*
X113457222Y-78647009D01*
X113486552Y-78611271D01*
X113569814Y-78509814D01*
X113671271Y-78426552D01*
X113707009Y-78397222D01*
X113863534Y-78313557D01*
X114033373Y-78262037D01*
X114099558Y-78255518D01*
X114165740Y-78249000D01*
X114254260Y-78249000D01*
X114320442Y-78255518D01*
X114320442Y-78255518D01*
G37*
G36*
X111780442Y-78255518D02*
G01*
X111846627Y-78262037D01*
X112016466Y-78313557D01*
X112172991Y-78397222D01*
X112208729Y-78426552D01*
X112310186Y-78509814D01*
X112393448Y-78611271D01*
X112422778Y-78647009D01*
X112506443Y-78803534D01*
X112557963Y-78973373D01*
X112575359Y-79150000D01*
X112557963Y-79326627D01*
X112506443Y-79496466D01*
X112422778Y-79652991D01*
X112422332Y-79653534D01*
X112310186Y-79790186D01*
X112208729Y-79873448D01*
X112172991Y-79902778D01*
X112172989Y-79902779D01*
X112040913Y-79973376D01*
X112016466Y-79986443D01*
X111846627Y-80037963D01*
X111780442Y-80044482D01*
X111714260Y-80051000D01*
X111625740Y-80051000D01*
X111559558Y-80044482D01*
X111493373Y-80037963D01*
X111323534Y-79986443D01*
X111299088Y-79973376D01*
X111167011Y-79902779D01*
X111167009Y-79902778D01*
X111131271Y-79873448D01*
X111029814Y-79790186D01*
X110917668Y-79653534D01*
X110917222Y-79652991D01*
X110833557Y-79496466D01*
X110782037Y-79326627D01*
X110764641Y-79150000D01*
X110782037Y-78973373D01*
X110833557Y-78803534D01*
X110917222Y-78647009D01*
X110946552Y-78611271D01*
X111029814Y-78509814D01*
X111131271Y-78426552D01*
X111167009Y-78397222D01*
X111323534Y-78313557D01*
X111493373Y-78262037D01*
X111559558Y-78255518D01*
X111625740Y-78249000D01*
X111714260Y-78249000D01*
X111780442Y-78255518D01*
X111780442Y-78255518D01*
G37*
G36*
X109240442Y-78255518D02*
G01*
X109306627Y-78262037D01*
X109476466Y-78313557D01*
X109632991Y-78397222D01*
X109668729Y-78426552D01*
X109770186Y-78509814D01*
X109853448Y-78611271D01*
X109882778Y-78647009D01*
X109966443Y-78803534D01*
X110017963Y-78973373D01*
X110035359Y-79150000D01*
X110017963Y-79326627D01*
X109966443Y-79496466D01*
X109882778Y-79652991D01*
X109882332Y-79653534D01*
X109770186Y-79790186D01*
X109668729Y-79873448D01*
X109632991Y-79902778D01*
X109632989Y-79902779D01*
X109500913Y-79973376D01*
X109476466Y-79986443D01*
X109306627Y-80037963D01*
X109240442Y-80044482D01*
X109174260Y-80051000D01*
X109085740Y-80051000D01*
X109019558Y-80044482D01*
X108953373Y-80037963D01*
X108783534Y-79986443D01*
X108759088Y-79973376D01*
X108627011Y-79902779D01*
X108627009Y-79902778D01*
X108591271Y-79873448D01*
X108489814Y-79790186D01*
X108377668Y-79653534D01*
X108377222Y-79652991D01*
X108293557Y-79496466D01*
X108242037Y-79326627D01*
X108224641Y-79150000D01*
X108242037Y-78973373D01*
X108293557Y-78803534D01*
X108377222Y-78647009D01*
X108406552Y-78611271D01*
X108489814Y-78509814D01*
X108591271Y-78426552D01*
X108627009Y-78397222D01*
X108783534Y-78313557D01*
X108953373Y-78262037D01*
X109019558Y-78255518D01*
X109085740Y-78249000D01*
X109174260Y-78249000D01*
X109240442Y-78255518D01*
X109240442Y-78255518D01*
G37*
G36*
X106700442Y-78255518D02*
G01*
X106766627Y-78262037D01*
X106936466Y-78313557D01*
X107092991Y-78397222D01*
X107128729Y-78426552D01*
X107230186Y-78509814D01*
X107313448Y-78611271D01*
X107342778Y-78647009D01*
X107426443Y-78803534D01*
X107477963Y-78973373D01*
X107495359Y-79150000D01*
X107477963Y-79326627D01*
X107426443Y-79496466D01*
X107342778Y-79652991D01*
X107342332Y-79653534D01*
X107230186Y-79790186D01*
X107128729Y-79873448D01*
X107092991Y-79902778D01*
X107092989Y-79902779D01*
X106960913Y-79973376D01*
X106936466Y-79986443D01*
X106766627Y-80037963D01*
X106700442Y-80044482D01*
X106634260Y-80051000D01*
X106545740Y-80051000D01*
X106479558Y-80044482D01*
X106413373Y-80037963D01*
X106243534Y-79986443D01*
X106219088Y-79973376D01*
X106087011Y-79902779D01*
X106087009Y-79902778D01*
X106051271Y-79873448D01*
X105949814Y-79790186D01*
X105837668Y-79653534D01*
X105837222Y-79652991D01*
X105753557Y-79496466D01*
X105702037Y-79326627D01*
X105684641Y-79150000D01*
X105702037Y-78973373D01*
X105753557Y-78803534D01*
X105837222Y-78647009D01*
X105866552Y-78611271D01*
X105949814Y-78509814D01*
X106051271Y-78426552D01*
X106087009Y-78397222D01*
X106243534Y-78313557D01*
X106413373Y-78262037D01*
X106479558Y-78255518D01*
X106545740Y-78249000D01*
X106634260Y-78249000D01*
X106700442Y-78255518D01*
X106700442Y-78255518D01*
G37*
M02*
